<svg width="24" height="24" viewBox="0 0 24 24" fill="none" xmlns="http://www.w3.org/2000/svg">
<path d="M12 5C11.8453 5 11.6969 5.06146 11.5875 5.17085C11.4781 5.28025 11.4167 5.42862 11.4167 5.58333V18.4167C11.4167 18.5714 11.4781 18.7197 11.5875 18.8291C11.6969 18.9385 11.8453 19 12 19C12.1547 19 12.3031 18.9385 12.4125 18.8291C12.5219 18.7197 12.5834 18.5714 12.5834 18.4167V5.58333C12.5834 5.42862 12.5219 5.28025 12.4125 5.17085C12.3031 5.06146 12.1547 5 12 5V5Z" fill="white"/>
<path d="M9.66665 6.16681C9.51194 6.16681 9.36356 6.22827 9.25417 6.33766C9.14477 6.44706 9.08331 6.59543 9.08331 6.75014V17.2501C9.08331 17.4048 9.14477 17.5532 9.25417 17.6626C9.36356 17.772 9.51194 17.8335 9.66665 17.8335C9.82136 17.8335 9.96973 17.772 10.0791 17.6626C10.1885 17.5532 10.25 17.4048 10.25 17.2501V6.75014C10.25 6.59543 10.1885 6.44706 10.0791 6.33766C9.96973 6.22827 9.82136 6.16681 9.66665 6.16681V6.16681Z" fill="white"/>
<path d="M7.33333 8.5C7.17862 8.5 7.03025 8.56146 6.92085 8.67085C6.81146 8.78025 6.75 8.92862 6.75 9.08333V14.9167C6.75 15.0714 6.81146 15.2197 6.92085 15.3291C7.03025 15.4385 7.17862 15.5 7.33333 15.5C7.48804 15.5 7.63642 15.4385 7.74581 15.3291C7.85521 15.2197 7.91667 15.0714 7.91667 14.9167V9.08333C7.91667 8.92862 7.85521 8.78025 7.74581 8.67085C7.63642 8.56146 7.48804 8.5 7.33333 8.5Z" fill="white"/>
<path d="M5.58333 10.8332C5.42862 10.8332 5.28025 10.8946 5.17085 11.004C5.06146 11.1134 5 11.2618 5 11.4165V12.5832C5 12.7379 5.06146 12.8863 5.17085 12.9957C5.28025 13.1051 5.42862 13.1665 5.58333 13.1665C5.73804 13.1665 5.88642 13.1051 5.99581 12.9957C6.10521 12.8863 6.16667 12.7379 6.16667 12.5832V11.4165C6.16667 11.2618 6.10521 11.1134 5.99581 11.004C5.88642 10.8946 5.73804 10.8332 5.58333 10.8332V10.8332Z" fill="white"/>
<path d="M14.3333 6.16681C14.1786 6.16681 14.0303 6.22827 13.9209 6.33766C13.8115 6.44706 13.75 6.59543 13.75 6.75014V17.2501C13.75 17.4048 13.8115 17.5532 13.9209 17.6626C14.0303 17.772 14.1786 17.8335 14.3333 17.8335C14.488 17.8335 14.6364 17.772 14.7458 17.6626C14.8552 17.5532 14.9167 17.4048 14.9167 17.2501V6.75014C14.9167 6.59543 14.8552 6.44706 14.7458 6.33766C14.6364 6.22827 14.488 6.16681 14.3333 6.16681V6.16681Z" fill="white"/>
<path d="M16.6667 8.5C16.512 8.5 16.3636 8.56146 16.2542 8.67085C16.1448 8.78025 16.0833 8.92862 16.0833 9.08333V14.9167C16.0833 15.0714 16.1448 15.2197 16.2542 15.3291C16.3636 15.4385 16.512 15.5 16.6667 15.5C16.8214 15.5 16.9697 15.4385 17.0791 15.3291C17.1885 15.2197 17.25 15.0714 17.25 14.9167V9.08333C17.25 8.92862 17.1885 8.78025 17.0791 8.67085C16.9697 8.56146 16.8214 8.5 16.6667 8.5Z" fill="white"/>
<path d="M18.4167 10.8332C18.262 10.8332 18.1136 10.8946 18.0042 11.004C17.8948 11.1134 17.8333 11.2618 17.8333 11.4165V12.5832C17.8333 12.7379 17.8948 12.8863 18.0042 12.9957C18.1136 13.1051 18.262 13.1665 18.4167 13.1665C18.5714 13.1665 18.7197 13.1051 18.8291 12.9957C18.9385 12.8863 19 12.7379 19 12.5832V11.4165C19 11.2618 18.9385 11.1134 18.8291 11.004C18.7197 10.8946 18.5714 10.8332 18.4167 10.8332Z" fill="white"/>
</svg>
