<svg width="24" height="24" viewBox="0 0 24 24" fill="none" xmlns="http://www.w3.org/2000/svg">
<path d="M16.375 10.3045L12.2844 7.98072C12.1799 7.92038 12.0613 7.88861 11.9406 7.88861C11.8199 7.88861 11.7014 7.92038 11.5969 7.98072C11.4863 8.04118 11.3945 8.13087 11.3314 8.23999C11.2684 8.34912 11.2365 8.47347 11.2394 8.59947V13.2538C11.2309 13.3817 11.2583 13.5094 11.3185 13.6225C11.3787 13.7356 11.4693 13.8296 11.5802 13.8939C11.691 13.9583 11.8175 13.9904 11.9456 13.9866C12.0737 13.9828 12.1982 13.9433 12.305 13.8726L16.375 11.5626C16.4931 11.5071 16.593 11.4191 16.6629 11.3089C16.7329 11.1987 16.77 11.0709 16.77 10.9404C16.77 10.8099 16.7329 10.6821 16.6629 10.5719C16.593 10.4617 16.4931 10.3737 16.375 10.3182V10.3045Z" fill="white"/>
<path d="M19.125 4H7.78128C7.41661 4 7.06687 4.14487 6.80901 4.40273C6.55115 4.66059 6.40628 5.01032 6.40628 5.375V16.7187C6.40628 17.0834 6.55115 17.4331 6.80901 17.691C7.06687 17.9488 7.41661 18.0937 7.78128 18.0937H19.125C19.4897 18.0937 19.8394 17.9488 20.0973 17.691C20.3551 17.4331 20.5 17.0834 20.5 16.7187V5.375C20.5 5.01032 20.3551 4.66059 20.0973 4.40273C19.8394 4.14487 19.4897 4 19.125 4V4ZM19.0287 16.6156C18.9616 16.679 18.8736 16.7157 18.7812 16.7187H8.12503C8.03386 16.7187 7.94642 16.6825 7.88196 16.618C7.81749 16.5536 7.78128 16.4661 7.78128 16.375V5.71875C7.78128 5.62758 7.81749 5.54014 7.88196 5.47568C7.94642 5.41121 8.03386 5.375 8.12503 5.375H18.7812C18.8724 5.375 18.9599 5.41121 19.0243 5.47568C19.0888 5.54014 19.125 5.62758 19.125 5.71875V16.375C19.1255 16.4647 19.091 16.551 19.0287 16.6156Z" fill="white"/>
<path d="M17.4062 19.1251H5.71875C5.62758 19.1251 5.54014 19.0889 5.47568 19.0244C5.41121 18.9599 5.375 18.8725 5.375 18.7813V7.09387C5.375 6.91153 5.30256 6.73667 5.17363 6.60774C5.0447 6.4788 4.86983 6.40637 4.6875 6.40637C4.50516 6.40637 4.33029 6.4788 4.20136 6.60774C4.07243 6.73667 4 6.91153 4 7.09387V19.1251C4 19.4898 4.14487 19.8395 4.40273 20.0974C4.66059 20.3552 5.01032 20.5001 5.375 20.5001H17.4062C17.5886 20.5001 17.7634 20.4277 17.8924 20.2987C18.0213 20.1698 18.0937 19.9949 18.0937 19.8126C18.0937 19.6303 18.0213 19.4554 17.8924 19.3265C17.7634 19.1975 17.5886 19.1251 17.4062 19.1251Z" fill="white"/>
</svg>
