<svg width="24" height="24" viewBox="0 0 24 24" fill="none" xmlns="http://www.w3.org/2000/svg">
<path fill-rule="evenodd" clip-rule="evenodd" d="M4.6875 4.3125C4.58804 4.3125 4.49266 4.35201 4.42233 4.42233C4.35201 4.49266 4.3125 4.58804 4.3125 4.6875V15.9375C4.3125 16.037 4.35201 16.1323 4.42233 16.2027C4.49266 16.273 4.58804 16.3125 4.6875 16.3125H6.9375C7.35171 16.3125 7.6875 16.6483 7.6875 17.0625V18.9375L10.9875 16.4625C11.1173 16.3651 11.2752 16.3125 11.4375 16.3125H19.3125C19.412 16.3125 19.5073 16.273 19.5777 16.2027C19.648 16.1323 19.6875 16.037 19.6875 15.9375V4.6875C19.6875 4.58804 19.648 4.49266 19.5777 4.42233C19.5073 4.35201 19.412 4.3125 19.3125 4.3125H4.6875ZM3.36167 3.36167C3.71331 3.01004 4.19022 2.8125 4.6875 2.8125H19.3125C19.8098 2.8125 20.2867 3.01004 20.6383 3.36167C20.99 3.7133 21.1875 4.19022 21.1875 4.6875V15.9375C21.1875 16.4348 20.99 16.9117 20.6383 17.2633C20.2867 17.615 19.8098 17.8125 19.3125 17.8125H11.6875L7.3875 21.0375C7.16024 21.2079 6.85618 21.2354 6.60209 21.1083C6.348 20.9813 6.1875 20.7216 6.1875 20.4375V17.8125H4.6875C4.19022 17.8125 3.7133 17.615 3.36167 17.2633C3.01004 16.9117 2.8125 16.4348 2.8125 15.9375V4.6875C2.8125 4.19022 3.01004 3.71331 3.36167 3.36167Z" fill="white"/>
</svg>
