<svg width="24" height="24" viewBox="0 0 24 24" fill="none" xmlns="http://www.w3.org/2000/svg">
<path fill-rule="evenodd" clip-rule="evenodd" d="M1.29449 3.37189C1.29449 2.95767 1.63028 2.62189 2.04449 2.62189H21.9555C22.3697 2.62189 22.7055 2.95767 22.7055 3.37189V16.6459C22.7055 17.0601 22.3697 17.3959 21.9555 17.3959H13.2188L13.2885 19.8781H17.3096C17.7238 19.8781 18.0596 20.2139 18.0596 20.6281C18.0596 21.0423 17.7238 21.3781 17.3096 21.3781H6.6904C6.27619 21.3781 5.9404 21.0423 5.9404 20.6281C5.9404 20.2139 6.27619 19.8781 6.6904 19.8781H10.7115L10.7812 17.3959H2.04449C1.63028 17.3959 1.29449 17.0601 1.29449 16.6459V3.37189ZM21.2055 15.8959H12.453L12.4474 15.8959H11.5526L11.547 15.8959H2.79449V4.12189H21.2055V15.8959Z" fill="white"/>
</svg>
