<svg width="24" height="24" viewBox="0 0 24 24" fill="none" xmlns="http://www.w3.org/2000/svg">
<path fill-rule="evenodd" clip-rule="evenodd" d="M5.33295 3.375C5.3205 3.375 5.30805 3.37531 5.29561 3.37593C4.81292 3.39999 4.35943 3.61432 4.03442 3.97201C3.71376 4.32489 3.54394 4.78893 3.5607 5.26493V18.7353C3.5442 19.2112 3.71409 19.675 4.03464 20.0278C4.3595 20.3853 4.81266 20.5997 5.29509 20.624C5.3077 20.6247 5.32033 20.625 5.33295 20.625H14.5377C14.5502 20.625 14.5626 20.6247 14.575 20.6241C15.0577 20.6 15.5112 20.3858 15.8363 20.0282C16.1571 19.6754 16.3272 19.2114 16.3107 18.7353V15.375C16.3107 14.9608 15.9749 14.625 15.5607 14.625C15.1465 14.625 14.8107 14.9608 14.8107 15.375V18.75C14.8107 18.7613 14.811 18.7725 14.8115 18.7838C14.8154 18.8704 14.7848 18.955 14.7265 19.0191C14.6712 19.0799 14.5952 19.1176 14.5136 19.125H5.35737C5.27592 19.1175 5.20001 19.0798 5.14479 19.019C5.08654 18.9549 5.05603 18.8704 5.05994 18.7838C5.06045 18.7726 5.0607 18.7613 5.0607 18.75V5.25C5.0607 5.23854 5.06044 5.22709 5.05992 5.21564C5.05595 5.12923 5.08639 5.04478 5.14456 4.98076C5.19975 4.92002 5.27564 4.88238 5.35704 4.875H14.5136C14.5952 4.88239 14.6712 4.92008 14.7265 4.98091C14.7848 5.04503 14.8154 5.12962 14.8115 5.21619C14.811 5.22745 14.8107 5.23873 14.8107 5.25V8.625C14.8107 9.03921 15.1465 9.375 15.5607 9.375C15.9749 9.375 16.3107 9.03921 16.3107 8.625V5.26471C16.3272 4.78862 16.1571 4.32458 15.8363 3.97176C15.5112 3.61422 15.0577 3.39999 14.575 3.37593C14.5626 3.37531 14.5502 3.375 14.5377 3.375H5.33295ZM17.8429 8.66016C18.1358 8.36727 18.6106 8.36727 18.9035 8.66016L21.716 11.4727C21.7879 11.5446 21.8422 11.6274 21.8788 11.7159C21.9155 11.8043 21.9357 11.9013 21.9357 12.003C21.9357 12.1949 21.8625 12.3869 21.716 12.5333L18.9035 15.3458C18.6106 15.6387 18.1358 15.6387 17.8429 15.3458C17.55 15.0529 17.55 14.5781 17.8429 14.2852L19.375 12.753H9.3732C8.95899 12.753 8.6232 12.4172 8.6232 12.003C8.6232 11.5888 8.95899 11.253 9.3732 11.253H19.375L17.8429 9.72082C17.55 9.42793 17.55 8.95305 17.8429 8.66016Z" fill="white"/>
</svg>
