<svg width="24" height="24" viewBox="0 0 24 24" fill="none" xmlns="http://www.w3.org/2000/svg">
<path d="M8.2667 4V18.9333C8.2667 19.2162 8.15431 19.4875 7.95428 19.6876C7.75424 19.8876 7.48293 20 7.20003 20C6.91713 20 6.64582 19.8876 6.44578 19.6876C6.24574 19.4875 6.13336 19.2162 6.13336 18.9333" stroke="white" stroke-width="1.06667" stroke-linecap="round" stroke-linejoin="round"/>
<path d="M6.13336 18.9334V8.26672" stroke="white" stroke-width="1.06667" stroke-linecap="round" stroke-linejoin="round"/>
<path d="M6.13333 18.9333C6.13333 19.2162 6.02095 19.4875 5.82091 19.6876C5.62088 19.8876 5.34956 20 5.06667 20C4.78377 20 4.51246 19.8876 4.31242 19.6876C4.11238 19.4875 4 19.2162 4 18.9333V5.06667C4 4.78377 4.11238 4.51246 4.31242 4.31242C4.51246 4.11238 4.78377 4 5.06667 4H18.9333C19.2162 4 19.4875 4.11238 19.6876 4.31242C19.8876 4.51246 20 4.78377 20 5.06667V18.9333C20 19.2162 19.8876 19.4875 19.6876 19.6876C19.4875 19.8876 19.2162 20 18.9333 20C18.6504 20 18.3791 19.8876 18.1791 19.6876C17.979 19.4875 17.8667 19.2162 17.8667 18.9333V17.8667" stroke="white" stroke-width="1.06667" stroke-linecap="round" stroke-linejoin="round"/>
<path d="M8.26672 18.4H10.9334" stroke="white" stroke-width="1.06667" stroke-linecap="round" stroke-linejoin="round"/>
<path d="M12 15.7333V14.1333C12 13.4261 12.281 12.7478 12.781 12.2477C13.2811 11.7476 13.9594 11.4667 14.6667 11.4667C15.3739 11.4667 16.0522 11.7476 16.5523 12.2477C17.0524 12.7478 17.3333 13.4261 17.3333 14.1333V15.7333H16.2667L15.7333 20H13.6L13.0667 15.7333H12Z" stroke="white" stroke-width="1.06667" stroke-linecap="round" stroke-linejoin="round"/>
<path d="M12.5333 8.2667C12.5333 8.83249 12.7581 9.37511 13.1582 9.77519C13.5582 10.1753 14.1009 10.4 14.6667 10.4C15.2325 10.4 15.7751 10.1753 16.1752 9.77519C16.5752 9.37511 16.8 8.83249 16.8 8.2667C16.8 7.7009 16.5752 7.15828 16.1752 6.7582C15.7751 6.35812 15.2325 6.13336 14.6667 6.13336C14.1009 6.13336 13.5582 6.35812 13.1582 6.7582C12.7581 7.15828 12.5333 7.7009 12.5333 8.2667V8.2667Z" stroke="white" stroke-width="1.06667" stroke-linecap="round" stroke-linejoin="round"/>
</svg>
