<svg width="24" height="24" viewBox="0 0 24 24" fill="none" xmlns="http://www.w3.org/2000/svg">
<path fill-rule="evenodd" clip-rule="evenodd" d="M12 2.8125C10.7568 2.8125 9.56454 3.30636 8.68547 4.18544C7.80639 5.06451 7.31253 6.2568 7.31253 7.5C7.31253 8.7432 7.80639 9.93549 8.68547 10.8146C9.56454 11.6936 10.7568 12.1875 12 12.1875C13.2432 12.1875 14.4355 11.6936 15.3146 10.8146C16.1937 9.93549 16.6875 8.7432 16.6875 7.5C16.6875 6.2568 16.1937 5.06451 15.3146 4.18544C14.4355 3.30636 13.2432 2.8125 12 2.8125ZM9.74613 5.2461C10.3439 4.64832 11.1547 4.3125 12 4.3125C12.8454 4.3125 13.6562 4.64832 14.2539 5.2461C14.8517 5.84387 15.1875 6.65462 15.1875 7.5C15.1875 8.34538 14.8517 9.15613 14.2539 9.7539C13.6562 10.3517 12.8454 10.6875 12 10.6875C11.1547 10.6875 10.3439 10.3517 9.74613 9.7539C9.14836 9.15613 8.81253 8.34538 8.81253 7.5C8.81253 6.65462 9.14836 5.84387 9.74613 5.2461ZM8.01217 16.4497C9.06981 15.392 10.5043 14.7979 12 14.7979C13.4957 14.7979 14.9302 15.392 15.9879 16.4497C17.0455 17.5073 17.6397 18.9418 17.6397 20.4375C17.6397 20.8517 17.9755 21.1875 18.3897 21.1875C18.8039 21.1875 19.1397 20.8517 19.1397 20.4375C19.1397 18.544 18.3875 16.728 17.0485 15.389C15.7096 14.0501 13.8936 13.2979 12 13.2979C10.1065 13.2979 8.29046 14.0501 6.95151 15.389C5.61256 16.728 4.86035 18.544 4.86035 20.4375C4.86035 20.8517 5.19614 21.1875 5.61035 21.1875C6.02457 21.1875 6.36035 20.8517 6.36035 20.4375C6.36035 18.9418 6.95453 17.5073 8.01217 16.4497Z" fill="white"/>
</svg>
