<svg width="24" height="24" viewBox="0 0 24 24" fill="none" xmlns="http://www.w3.org/2000/svg">
<path d="M3 16.3219C3 14.8891 3.57436 13.515 4.59674 12.5018C5.61912 11.4887 7.00575 10.9195 8.45161 10.9195C9.18693 10.9212 9.91453 11.0681 10.5919 11.3517" stroke="white" stroke-width="1.21147" stroke-linecap="round" stroke-linejoin="round"/>
<path d="M8.45161 9.72697C10.2938 9.72697 11.7872 8.24706 11.7872 6.4215C11.7872 4.59594 10.2938 3.11603 8.45161 3.11603C6.60942 3.11603 5.11603 4.59594 5.11603 6.4215C5.11603 8.24706 6.60942 9.72697 8.45161 9.72697Z" stroke="white" stroke-width="1.21147" stroke-linecap="round" stroke-linejoin="round"/>
<path d="M11.0926 21.116C10.1509 21.0721 9.26248 20.6706 8.61173 19.9947C7.96097 19.3188 7.5979 18.4205 7.5979 17.4864C7.5979 16.5522 7.96097 15.6539 8.61173 14.978C9.26248 14.3021 10.1509 13.9006 11.0926 13.8568H17.5053C18.4469 13.9006 19.3354 14.3021 19.9861 14.978C20.6369 15.6539 21 16.5522 21 17.4864C21 18.4205 20.6369 19.3188 19.9861 19.9947C19.3354 20.6706 18.4469 21.0721 17.5053 21.116H11.0926Z" stroke="white" stroke-width="1.21147" stroke-linecap="round" stroke-linejoin="round"/>
<path d="M13.0633 16.3138L15.4862 18.7149" stroke="white" stroke-width="1.21147" stroke-linecap="round" stroke-linejoin="round"/>
<path d="M15.4862 16.3138L13.0633 18.7149" stroke="white" stroke-width="1.21147" stroke-linecap="round" stroke-linejoin="round"/>
</svg>
