<svg width="24" height="24" viewBox="0 0 24 24" fill="none" xmlns="http://www.w3.org/2000/svg">
<path fill-rule="evenodd" clip-rule="evenodd" d="M14.1901 5.05807C13.8526 4.88939 13.4748 4.81803 13.0991 4.852C12.734 4.88499 12.3849 5.01613 12.0886 5.23122L6.6571 8.68765H4.31305C3.77434 8.68765 3.25769 8.90166 2.87676 9.28258C2.49583 9.66351 2.28183 10.1802 2.28183 10.7189V13.2813C2.28183 13.82 2.49583 14.3367 2.87676 14.7176C3.25769 15.0985 3.77434 15.3125 4.31305 15.3125H6.6571L12.0887 18.769C12.3851 18.9841 12.7342 19.1151 13.0992 19.148C13.4749 19.1819 13.8526 19.1105 14.19 18.9418C14.5274 18.7731 14.8112 18.5138 15.0095 18.1929C15.2078 17.872 15.3128 17.5022 15.3128 17.125V6.87521C15.3129 6.498 15.208 6.12823 15.0097 5.80732C14.8114 5.48634 14.5275 5.22684 14.1901 5.05807ZM13.2341 6.34591C13.3323 6.33703 13.431 6.35566 13.5193 6.39971C13.6075 6.44385 13.6817 6.51169 13.7336 6.59564C13.7854 6.67958 13.8129 6.77654 13.8128 6.87521V17.125C13.8128 17.2237 13.7854 17.3204 13.7335 17.4043C13.6816 17.4882 13.6074 17.556 13.5192 17.6001C13.431 17.6443 13.3322 17.6629 13.2339 17.6541C13.1357 17.6452 13.0418 17.6092 12.9629 17.55C12.9475 17.5385 12.9317 17.5275 12.9155 17.5172L7.62552 14.1508V9.84935L12.9155 6.48297C12.9318 6.47263 12.9477 6.46166 12.9631 6.45009C13.042 6.39087 13.1358 6.35479 13.2341 6.34591ZM6.12552 10.1877H4.31305C4.17216 10.1877 4.03705 10.2436 3.93742 10.3432C3.8378 10.4429 3.78183 10.578 3.78183 10.7189V13.2813C3.78183 13.4222 3.8378 13.5573 3.93742 13.657C4.03705 13.7566 4.17216 13.8125 4.31305 13.8125H6.12552V10.1877ZM20.7155 8.7353C20.4927 8.3861 20.029 8.28364 19.6798 8.50644C19.3306 8.72923 19.2282 9.19292 19.451 9.54211C19.952 10.3274 20.2182 11.2395 20.2182 12.1709C20.2182 13.1024 19.952 14.0145 19.451 14.7998C19.2282 15.1489 19.3306 15.6126 19.6798 15.8354C20.029 16.0582 20.4927 15.9558 20.7155 15.6066C21.3703 14.5803 21.7182 13.3883 21.7182 12.1709C21.7182 10.9536 21.3703 9.76156 20.7155 8.7353ZM17.1324 9.74048C17.4539 9.4793 17.9263 9.52819 18.1875 9.84968C18.7281 10.5152 19.0232 11.3464 19.0232 12.2039C19.0232 13.0613 18.7281 13.8926 18.1875 14.558C17.9263 14.8795 17.4539 14.9284 17.1324 14.6672C16.8109 14.4061 16.762 13.9337 17.0232 13.6122C17.3467 13.2141 17.5232 12.7168 17.5232 12.2039C17.5232 11.6909 17.3467 11.1936 17.0232 10.7955C16.762 10.474 16.8109 10.0017 17.1324 9.74048Z" fill="white"/>
</svg>
