<svg width="24" height="24" viewBox="0 0 24 24" fill="none" xmlns="http://www.w3.org/2000/svg">
<path fill-rule="evenodd" clip-rule="evenodd" d="M4.18212 1.54858C4.51349 1.54858 4.78212 1.81721 4.78212 2.14858V3.23608H5.86962C6.20099 3.23608 6.46962 3.50471 6.46962 3.83608C6.46962 4.16745 6.20099 4.43608 5.86962 4.43608H4.78212V5.52358C4.78212 5.85495 4.51349 6.12358 4.18212 6.12358C3.85075 6.12358 3.58212 5.85495 3.58212 5.52358V4.43608H2.49462C2.16325 4.43608 1.89462 4.16745 1.89462 3.83608C1.89462 3.50471 2.16325 3.23608 2.49462 3.23608H3.58212V2.14858C3.58212 1.81721 3.85075 1.54858 4.18212 1.54858ZM21.6461 12C21.9775 12 22.2461 12.2686 22.2461 12.6V13.6875H23.3336C23.665 13.6875 23.9336 13.9561 23.9336 14.2875C23.9336 14.6189 23.665 14.8875 23.3336 14.8875H22.2461V15.975C22.2461 16.3064 21.9775 16.575 21.6461 16.575C21.3147 16.575 21.0461 16.3064 21.0461 15.975V14.8875H19.9586C19.6272 14.8875 19.3586 14.6189 19.3586 14.2875C19.3586 13.9561 19.6272 13.6875 19.9586 13.6875H21.0461V12.6C21.0461 12.2686 21.3147 12 21.6461 12ZM3.09462 14.6741C3.09462 14.3428 2.82599 14.0741 2.49462 14.0741C2.16325 14.0741 1.89462 14.3428 1.89462 14.6741V15.7616H0.807123C0.475752 15.7616 0.207123 16.0303 0.207123 16.3616C0.207123 16.693 0.475752 16.9616 0.807123 16.9616H1.89462V18.0491C1.89462 18.3805 2.16325 18.6491 2.49462 18.6491C2.82599 18.6491 3.09462 18.3805 3.09462 18.0491V16.9616H4.18212C4.51349 16.9616 4.78212 16.693 4.78212 16.3616C4.78212 16.0303 4.51349 15.7616 4.18212 15.7616H3.09462V14.6741ZM9.32148 8.55376L11.6809 3.87509L14.0441 8.55696C14.1586 8.78376 14.3811 8.9363 14.6339 8.96134L19.1195 9.40573L15.4022 13.0901C15.2117 13.2789 15.1378 13.5559 15.209 13.8146L16.5845 18.8113L12.0104 16.5463C11.8028 16.4435 11.559 16.4435 11.3513 16.5463L6.78394 18.8083L8.15946 13.8116C8.2307 13.5529 8.15675 13.2758 7.96604 13.0869L4.24612 9.40274L8.73162 8.95837C8.98452 8.93332 9.20705 8.78067 9.32148 8.55376ZM12.8852 2.96484L13.011 3.21395L15.1862 7.52354L19.5582 7.95666C19.8109 7.979 20.0521 8.07262 20.2538 8.2267C20.4574 8.3822 20.6121 8.59278 20.6997 8.83351C20.7873 9.07423 20.8041 9.33501 20.7481 9.58498C20.6921 9.83496 20.5656 10.0636 20.3837 10.244L16.7563 13.8392L18.102 18.7278C18.1686 18.9785 18.1613 19.2431 18.0811 19.4898C18.0008 19.7365 17.851 19.9548 17.6496 20.1184C17.4483 20.2819 17.204 20.3838 16.9461 20.4118C16.6891 20.4397 16.4295 20.3931 16.1984 20.2775L16.1959 20.2762L11.6809 18.0405L7.17259 20.2732L7.17022 20.2744C6.93905 20.3901 6.67944 20.4368 6.42241 20.4089C6.1645 20.3809 5.92018 20.279 5.71883 20.1154C5.51747 19.9518 5.36766 19.7336 5.2874 19.4869C5.20715 19.2402 5.19988 18.9755 5.26646 18.7248L5.26822 18.7183L6.61214 13.8364L2.98182 10.241C2.79988 10.0607 2.67341 9.83198 2.6174 9.58201C2.56138 9.33205 2.57817 9.07126 2.66577 8.83054C2.75337 8.58981 2.90811 8.37923 3.11168 8.22373C3.31337 8.06965 3.55463 7.97603 3.80735 7.95369L8.17908 7.52059L10.4785 2.96102C10.5918 2.73967 10.7641 2.5539 10.9762 2.42418C11.1884 2.29446 11.4322 2.22582 11.6809 2.22582C11.9296 2.22582 12.1734 2.29446 12.3856 2.42418C12.5977 2.5539 12.77 2.73967 12.8833 2.96102L12.8852 2.96484Z" fill="white"/>
</svg>
