<svg viewBox="0 0 24 24" version="1.1" xmlns="http://www.w3.org/2000/svg" xml:space="preserve" style="fill-rule:evenodd;clip-rule:evenodd;stroke-linejoin:round;stroke-miterlimit:2">
  <path d="M20.227 20.563 2.318 3.018c-.267-.269-.267-.704 0-.973.269-.268.704-.268.973 0L21.199 19.59c.269.269.269.704 0 .973-.268.268-.704.268-.972 0ZM16.125 7.878v2.751c0 .379-.308.687-.687.687-.38 0-.688-.308-.688-.687V7.878c0-.182-.072-.356-.202-.485-.129-.13-.303-.202-.485-.202h-3.438c-.379 0-.687-.308-.687-.688 0-.379.308-.687.687-.687h3.438c.546 0 1.071.217 1.458.604s.604.912.604 1.458Zm-2.75 8.938H3.063c-.183 0-.358-.072-.487-.201s-.201-.304-.201-.487v-8.25c0-.182.072-.356.201-.485.129-.13.304-.202.487-.202.379 0 .687-.308.687-.688 0-.379-.308-.687-.687-.687-.548 0-1.072.217-1.459.604S1 7.332 1 7.878v8.25c0 .548.217 1.072.604 1.459s.911.604 1.459.604h10.312c.38 0 .688-.308.688-.687 0-.38-.308-.688-.688-.688Zm7.636.117-2.372-1.184c-.342-.171-.63-.434-.832-.761-.201-.325-.307-.701-.307-1.084v-3.8c0-.383.106-.759.307-1.084v-.001c.202-.326.49-.589.832-.76l2.372-1.185c.209-.105.442-.154.676-.143.234.011.461.08.661.204.199.123.363.295.478.5.114.204.174.435.174.669v7.399c0 .235-.06.465-.174.67-.115.205-.279.377-.478.5-.2.124-.427.193-.661.204-.234.01-.467-.038-.676-.144Zm-2.033-2.667c.067.109.163.196.277.254l2.37 1.183V8.304l-2.37 1.184c-.114.057-.21.145-.277.254-.068.108-.103.234-.103.361v3.802c0 .127.035.253.103.361Z" style="fill:#fff"/>
</svg>