<svg width="24" height="24" viewBox="0 0 24 24" fill="none" xmlns="http://www.w3.org/2000/svg">
<path d="M17.6184 8.7469C17.5089 8.68839 17.3848 8.65759 17.2584 8.65759C17.132 8.65759 17.0079 8.68839 16.8984 8.7469L16.056 9.26021C16.0319 9.27308 16.0046 9.27986 15.9768 9.27986C15.949 9.27986 15.9217 9.27308 15.8976 9.26021C15.8699 9.25142 15.8449 9.23651 15.8248 9.21676C15.8048 9.19701 15.7902 9.17302 15.7824 9.14688C15.6624 8.80845 15.4285 8.51451 15.1149 8.30816C14.8014 8.10181 14.4246 7.9939 14.04 8.00027H10.8C10.3226 8.00027 9.86477 8.17585 9.52721 8.4884C9.18964 8.80095 9 9.22485 9 9.66686V12.3334C9 12.7754 9.18964 13.1993 9.52721 13.5119C9.86477 13.8244 10.3226 14 10.8 14H14.04C14.4304 13.9996 14.8101 13.8817 15.1217 13.664C15.4334 13.4464 15.6603 13.1408 15.768 12.7934C15.775 12.7676 15.7894 12.7441 15.8097 12.7253C15.8299 12.7065 15.8554 12.6932 15.8832 12.6867C15.9079 12.6755 15.9349 12.6697 15.9624 12.6697C15.9899 12.6697 16.0169 12.6755 16.0416 12.6867L16.884 13.2067C16.9903 13.2704 17.1128 13.307 17.2392 13.3128C17.3656 13.3187 17.4914 13.2936 17.604 13.24C17.7195 13.1862 17.8173 13.1046 17.887 13.0037C17.9566 12.9028 17.9957 12.7864 18 12.6667V9.33354C17.9997 9.21294 17.964 9.09469 17.8968 8.99138C17.8296 8.88808 17.7334 8.80358 17.6184 8.7469V8.7469Z" fill="white"/>
<path d="M19.125 4H7.78127C7.41659 4 7.06686 4.14487 6.80899 4.40273C6.55113 4.66059 6.40627 5.01033 6.40627 5.375V16.7188C6.40627 17.0834 6.55113 17.4332 6.80899 17.691C7.06686 17.9489 7.41659 18.0938 7.78127 18.0938H19.125C19.4897 18.0938 19.8394 17.9489 20.0973 17.691C20.3551 17.4332 20.5 17.0834 20.5 16.7188V5.375C20.5 5.01033 20.3551 4.66059 20.0973 4.40273C19.8394 4.14487 19.4897 4 19.125 4V4ZM19.0288 16.6156C18.9616 16.6791 18.8736 16.7158 18.7813 16.7188H8.12502C8.03385 16.7188 7.94641 16.6825 7.88195 16.6181C7.81748 16.5536 7.78127 16.4662 7.78127 16.375V5.71875C7.78127 5.62758 7.81748 5.54015 7.88195 5.47568C7.94641 5.41122 8.03385 5.375 8.12502 5.375H18.7813C18.8724 5.375 18.9599 5.41122 19.0243 5.47568C19.0888 5.54015 19.125 5.62758 19.125 5.71875V16.375C19.1256 16.4647 19.091 16.551 19.0288 16.6156Z" fill="white"/>
<path d="M17.4062 19.125H5.71875C5.62758 19.125 5.54015 19.0888 5.47568 19.0243C5.41122 18.9599 5.375 18.8724 5.375 18.7812V7.09375C5.375 6.91141 5.30257 6.73655 5.17364 6.60761C5.0447 6.47868 4.86984 6.40625 4.6875 6.40625C4.50516 6.40625 4.3303 6.47868 4.20136 6.60761C4.07243 6.73655 4 6.91141 4 7.09375V19.125C4 19.4897 4.14487 19.8394 4.40273 20.0973C4.66059 20.3551 5.01033 20.5 5.375 20.5H17.4062C17.5886 20.5 17.7635 20.4276 17.8924 20.2986C18.0213 20.1697 18.0938 19.9948 18.0938 19.8125C18.0938 19.6302 18.0213 19.4553 17.8924 19.3264C17.7635 19.1974 17.5886 19.125 17.4062 19.125Z" fill="white"/>
</svg>
