<svg width="48" height="24" viewBox="0 0 48 24" fill="none" xmlns="http://www.w3.org/2000/svg">
<path d="M1 17.5455H9.78551V15.6563H3.1946V3H1V17.5455Z" fill="white"/>
<path d="M16.7138 17.7656C19.7891 17.7656 21.799 15.5142 21.799 12.1406C21.799 8.74574 19.7891 6.49432 16.7138 6.49432C13.6385 6.49432 11.6286 8.74574 11.6286 12.1406C11.6286 15.5142 13.6385 17.7656 16.7138 17.7656ZM16.7209 15.983C14.7109 15.983 13.7734 14.2287 13.7734 12.1335C13.7734 10.0455 14.7109 8.26989 16.7209 8.26989C18.7166 8.26989 19.6541 10.0455 19.6541 12.1335C19.6541 14.2287 18.7166 15.983 16.7209 15.983Z" fill="white"/>
<path d="M28.7433 21.8636C31.5202 21.8636 33.6651 20.5923 33.6651 17.7869V6.63636H31.5842V8.40483H31.4279C31.0515 7.73011 30.2987 6.49432 28.2674 6.49432C25.6325 6.49432 23.6935 8.57528 23.6935 12.0483C23.6935 15.5284 25.6751 17.3821 28.2532 17.3821C30.256 17.3821 31.0302 16.2528 31.4137 15.5568H31.5487V17.7017C31.5487 19.4134 30.3768 20.152 28.7646 20.152C26.9961 20.152 26.3072 19.2642 25.9308 18.6392L24.1055 19.392C24.6808 20.7273 26.1367 21.8636 28.7433 21.8636ZM28.7219 15.6207C26.8256 15.6207 25.8384 14.1648 25.8384 12.0199C25.8384 9.92472 26.8043 8.2983 28.7219 8.2983C30.5756 8.2983 31.57 9.81108 31.57 12.0199C31.57 14.2713 30.5543 15.6207 28.7219 15.6207Z" fill="white"/>
<path d="M41.1083 17.7656C44.1836 17.7656 46.1935 15.5142 46.1935 12.1406C46.1935 8.74574 44.1836 6.49432 41.1083 6.49432C38.033 6.49432 36.0231 8.74574 36.0231 12.1406C36.0231 15.5142 38.033 17.7656 41.1083 17.7656ZM41.1154 15.983C39.1055 15.983 38.168 14.2287 38.168 12.1335C38.168 10.0455 39.1055 8.26989 41.1154 8.26989C43.1112 8.26989 44.0487 10.0455 44.0487 12.1335C44.0487 14.2287 43.1112 15.983 41.1154 15.983Z" fill="white"/>
</svg>
