<svg width="80" height="80" viewBox="0 0 80 80" fill="none" xmlns="http://www.w3.org/2000/svg">
<path d="M71.6668 71.6666H8.3335L11.0402 61.1883C12.3602 52.8266 19.5685 46.6666 28.0352 46.6666H51.9635C60.4302 46.6666 67.6385 52.8266 68.9585 61.1883L71.6668 71.6666Z" fill="url(#paint0_linear_541_68716)"/>
<path d="M34.84 53.9266L30 46.6666H50L45.16 53.9266C42.705 57.6083 37.295 57.6083 34.84 53.9266Z" fill="url(#paint1_linear_541_68716)"/>
<path d="M40.0001 50C31.4417 50 24.2334 43.605 23.2134 35.1067L22.3834 28.19C21.1151 17.6284 29.3617 8.33337 40.0001 8.33337C50.6384 8.33337 58.8851 17.6284 57.6167 28.1917L56.7867 35.1084C55.7667 43.605 48.5584 50 40.0001 50Z" fill="#D8E7FF"/>
<path d="M56.6667 36.6667H23.3333C21.4933 36.6667 20 35.1733 20 33.3333C20 31.4933 21.4933 30 23.3333 30H56.6667C58.5067 30 60 31.4933 60 33.3333C60 35.1733 58.5067 36.6667 56.6667 36.6667Z" fill="#D8E7FF"/>
<path d="M22.3833 28.19L22.61 30.0833C26.525 27.3783 29.095 22.8666 29.095 17.7483C29.095 16.0083 28.7833 14.345 28.2366 12.7916C24.055 16.5016 21.6567 22.1383 22.3833 28.19Z" fill="url(#paint2_linear_541_68716)"/>
<path d="M51.7631 12.7916C51.2181 14.345 50.9048 16.0083 50.9048 17.7483C50.9048 22.8683 53.4748 27.3783 57.3898 30.0833L57.6165 28.1916C58.3431 22.1383 55.9448 16.5016 51.7631 12.7916Z" fill="url(#paint3_linear_541_68716)"/>
<path d="M56.6515 20C54.1865 13.2567 47.7348 8.33337 39.9998 8.33337C32.2648 8.33337 25.8131 13.2567 23.3481 20H56.6515Z" fill="url(#paint4_linear_541_68716)"/>
<path d="M10.8335 6.66663L8.9585 12.2916L3.3335 14.1666L8.9585 16.0416L10.8335 21.6666L12.7085 16.0416L18.3335 14.1666L12.7085 12.2916L10.8335 6.66663Z" fill="#F5BC00"/>
<path d="M69.1665 36.6666L67.2915 42.2916L61.6665 44.1666L67.2915 46.0416L69.1665 51.6666L71.0415 46.0416L76.6665 44.1666L71.0415 42.2916L69.1665 36.6666Z" fill="#F5BC00"/>
<path d="M56.6665 25H61.6665C63.5082 25 64.9998 26.4917 64.9998 28.3333V33.3333C64.9998 35.175 63.5082 36.6667 61.6665 36.6667H56.6665V25Z" fill="url(#paint5_linear_541_68716)"/>
<path d="M23.3333 36.6667H18.3333C16.4917 36.6667 15 35.175 15 33.3333V28.3333C15 26.4917 16.4917 25 18.3333 25H23.3333V36.6667Z" fill="url(#paint6_linear_541_68716)"/>
<path d="M60 28.3333H56.6667V25C55.89 16.5133 48.7217 9.99996 40 9.99996C31.2783 9.99996 24.11 16.5133 23.3267 25.15L23.3333 28.3333H20V25C20.945 14.4833 29.5417 6.66663 40 6.66663C50.4583 6.66663 59.055 14.4833 59.9933 24.85L60 28.3333Z" fill="url(#paint7_linear_541_68716)"/>
<path d="M59.9998 25H56.6665V36.6667H59.9998V25Z" fill="#00B3D7"/>
<path d="M20.0002 36.6666H23.3335V25H20.0002V36.6666Z" fill="#00B3D7"/>
<defs>
<linearGradient id="paint0_linear_541_68716" x1="10.8309" y1="47.216" x2="18.015" y2="80.7967" gradientUnits="userSpaceOnUse">
<stop stop-color="#2AA4F4"/>
<stop offset="1" stop-color="#007AD9"/>
</linearGradient>
<linearGradient id="paint1_linear_541_68716" x1="34.5987" y1="51.6784" x2="57.4948" y2="51.6784" gradientUnits="userSpaceOnUse">
<stop stop-color="#1A3051"/>
<stop offset="1" stop-color="#173D7A"/>
</linearGradient>
<linearGradient id="paint2_linear_541_68716" x1="23.8273" y1="21.4395" x2="31.6584" y2="21.4395" gradientUnits="userSpaceOnUse">
<stop stop-color="#1A3051"/>
<stop offset="1" stop-color="#173D7A"/>
</linearGradient>
<linearGradient id="paint3_linear_541_68716" x1="52.4777" y1="21.4395" x2="60.3088" y2="21.4395" gradientUnits="userSpaceOnUse">
<stop stop-color="#1A3051"/>
<stop offset="1" stop-color="#173D7A"/>
</linearGradient>
<linearGradient id="paint4_linear_541_68716" x1="31.0058" y1="14.1681" x2="69.1316" y2="14.1681" gradientUnits="userSpaceOnUse">
<stop stop-color="#1A3051"/>
<stop offset="1" stop-color="#173D7A"/>
</linearGradient>
<linearGradient id="paint5_linear_541_68716" x1="56.9951" y1="25.2564" x2="64.8865" y2="35.657" gradientUnits="userSpaceOnUse">
<stop stop-color="#2AA4F4"/>
<stop offset="1" stop-color="#007AD9"/>
</linearGradient>
<linearGradient id="paint6_linear_541_68716" x1="15.3286" y1="25.2564" x2="23.22" y2="35.657" gradientUnits="userSpaceOnUse">
<stop stop-color="#2AA4F4"/>
<stop offset="1" stop-color="#007AD9"/>
</linearGradient>
<linearGradient id="paint7_linear_541_68716" x1="21.5773" y1="7.14275" x2="29.8031" y2="35.1632" gradientUnits="userSpaceOnUse">
<stop stop-color="#2AA4F4"/>
<stop offset="1" stop-color="#007AD9"/>
</linearGradient>
</defs>
</svg>
