<svg width="20" height="20" viewBox="0 0 20 20" fill="none" xmlns="http://www.w3.org/2000/svg">
<path d="M10 14.4331C10.2563 14.4258 10.4907 14.3306 10.6812 14.1255L16.2476 8.42725C16.4087 8.26611 16.4966 8.06104 16.4966 7.81934C16.4966 7.33594 16.1157 6.94775 15.6323 6.94775C15.3979 6.94775 15.1709 7.04297 15.0024 7.21143L10.0073 12.3457L4.99756 7.21143C4.8291 7.05029 4.60938 6.94775 4.36768 6.94775C3.88428 6.94775 3.50342 7.33594 3.50342 7.81934C3.50342 8.06104 3.59131 8.26611 3.75244 8.42725L9.32617 14.1255C9.52393 14.3306 9.74365 14.4331 10 14.4331Z" fill="white"/>
</svg>
