<svg width="25" height="24" viewBox="0 0 25 24" fill="none" xmlns="http://www.w3.org/2000/svg">
<path fill-rule="evenodd" clip-rule="evenodd" d="M20.2969 3.50244C20.0482 3.50244 19.8098 3.60121 19.634 3.77703L14.1213 9.28973L15.4471 10.6156L20.9598 5.10287C21.0468 5.01582 21.1159 4.91247 21.163 4.79872C21.2101 4.68498 21.2344 4.56307 21.2344 4.43995C21.2344 4.31684 21.2101 4.19493 21.163 4.08118C21.1159 3.96744 21.0468 3.86409 20.9598 3.77703C20.8727 3.68998 20.7694 3.62092 20.6556 3.57381C20.5419 3.52669 20.42 3.50244 20.2969 3.50244ZM12.6513 10.7597L13.0606 10.3504L14.3864 11.6762L13.977 12.0857L12.4304 12.3069L12.6513 10.7597ZM18.5733 2.71637C19.0304 2.25925 19.6504 2.00244 20.2969 2.00244C20.617 2.00244 20.9339 2.06549 21.2297 2.18799C21.5254 2.31048 21.7941 2.49003 22.0205 2.71637C22.2468 2.94272 22.4263 3.21143 22.5488 3.50716C22.6713 3.80289 22.7344 4.11985 22.7344 4.43995C22.7344 4.76005 22.6713 5.07701 22.5488 5.37275C22.4263 5.66848 22.2468 5.93719 22.0205 6.16353L14.861 13.323C14.7462 13.4377 14.5974 13.5122 14.4368 13.5351L11.6528 13.9334C11.4191 13.9668 11.1833 13.8883 11.0164 13.7214C10.8494 13.5545 10.7708 13.3187 10.8041 13.085L11.2016 10.3002C11.2246 10.1395 11.299 9.99064 11.4138 9.87587L18.5733 2.71637ZM5.96921 6.98801C6.03954 6.91768 6.13492 6.87817 6.23438 6.87817H11.8594C12.2736 6.87817 12.6094 6.54239 12.6094 6.12817C12.6094 5.71396 12.2736 5.37817 11.8594 5.37817H6.23438C5.73709 5.37817 5.26018 5.57572 4.90855 5.92735C4.55692 6.27898 4.35938 6.75589 4.35938 7.25317V18.5032C4.35938 19.0005 4.55692 19.4774 4.90855 19.829C5.26018 20.1806 5.73709 20.3782 6.23438 20.3782H17.4844C17.9817 20.3782 18.4586 20.1806 18.8102 19.829C19.1618 19.4774 19.3594 19.0005 19.3594 18.5032V12.8782C19.3594 12.464 19.0236 12.1282 18.6094 12.1282C18.1952 12.1282 17.8594 12.464 17.8594 12.8782V18.5032C17.8594 18.6026 17.8199 18.698 17.7495 18.7683C17.6792 18.8387 17.5838 18.8782 17.4844 18.8782H6.23438C6.13492 18.8782 6.03954 18.8387 5.96921 18.7683C5.89888 18.698 5.85938 18.6026 5.85938 18.5032V7.25317C5.85938 7.15372 5.89888 7.05833 5.96921 6.98801Z" fill="white"/>
</svg>
