<svg width="24" height="24" viewBox="0 0 24 24" fill="none" xmlns="http://www.w3.org/2000/svg">
<path fill-rule="evenodd" clip-rule="evenodd" d="M21.0869 12.1543C21.0869 17.1289 16.9736 21.2422 11.9902 21.2422C7.01562 21.2422 2.90234 17.1289 2.90234 12.1543C2.90234 7.17969 7.00684 3.06641 11.9814 3.06641C16.9648 3.06641 21.0869 7.17969 21.0869 12.1543ZM4.73047 12.1543C4.73047 16.1885 7.95605 19.4316 11.9902 19.4316C16.0244 19.4316 19.2764 16.1885 19.2676 12.1543C19.2588 8.12012 16.0156 4.88574 11.9814 4.88574C7.95605 4.88574 4.73047 8.12012 4.73047 12.1543ZM12.0052 7.94737C12.4893 7.93495 12.8865 8.34458 12.8865 8.81627V11.9691L12.8245 13.5828L13.6313 12.7387L14.8354 11.485C14.9843 11.3237 15.2202 11.2244 15.4312 11.2244C15.9153 11.2244 16.2628 11.5719 16.2628 12.0312C16.2628 12.2795 16.1635 12.4657 15.9774 12.6394L12.6507 15.7551C12.4149 15.9785 12.2287 16.053 12.0052 16.053C11.7694 16.053 11.5832 15.9785 11.3473 15.7551L8.03311 12.6394C7.8345 12.4657 7.7352 12.2795 7.7352 12.0312C7.7352 11.5719 8.08276 11.2244 8.55445 11.2244C8.76547 11.2244 9.01373 11.3237 9.16268 11.485L10.3667 12.7387L11.1736 13.5828L11.1115 11.9691V8.81627C11.1115 8.34458 11.5087 7.95978 12.0052 7.94737Z" fill="white"/>
</svg>
