<svg width="18" height="18" viewBox="0 0 16 16" fill="none" xmlns="http://www.w3.org/2000/svg">
<path d="M8 13.9805C11.4043 13.9805 14.2051 11.1797 14.2051 7.77539C14.2051 4.36523 11.4043 1.56445 7.99414 1.56445C4.58398 1.56445 1.78906 4.36523 1.78906 7.77539C1.78906 11.1797 4.58984 13.9805 8 13.9805ZM7.99414 5.89453C7.49023 5.89453 7.06836 5.47266 7.06836 4.96875C7.06836 4.44727 7.49023 4.03711 7.99414 4.03711C8.49805 4.03711 8.91406 4.44727 8.91406 4.96875C8.91406 5.47266 8.49805 5.89453 7.99414 5.89453ZM6.88086 11.0742C6.55273 11.0742 6.29492 10.8457 6.29492 10.5C6.29492 10.1895 6.55273 9.9375 6.88086 9.9375H7.55469V7.85156H6.99805C6.66406 7.85156 6.41211 7.61719 6.41211 7.2832C6.41211 6.9668 6.66406 6.7207 6.99805 6.7207H8.19922C8.62109 6.7207 8.83789 7.00781 8.83789 7.45312V9.9375H9.37109C9.69922 9.9375 9.95703 10.1895 9.95703 10.5C9.95703 10.8457 9.69922 11.0742 9.37109 11.0742H6.88086Z" fill="#B0C3DB"/>
</svg>
