<svg width="200" height="60" viewBox="0 0 200 60" fill="none" xmlns="http://www.w3.org/2000/svg">
<rect width="60" height="60" rx="8" fill="#212121"/>
<rect x="14" y="14" width="32" height="32" rx="16" fill="url(#paint0_linear)"/>
<path d="M23.6964 34L24.4165 31.848H27.6978L28.4222 34H30.1097L27.033 25.2727H25.0813L22.0089 34H23.6964ZM24.8427 30.5781L26.0231 27.0625H26.0913L27.2717 30.5781H24.8427ZM31.2592 34H34.7919C36.7905 34 37.7706 32.9815 37.7706 31.6222C37.7706 30.3011 36.8331 29.5256 35.9041 29.4787V29.3935C36.7564 29.1932 37.4297 28.5966 37.4297 27.5355C37.4297 26.2358 36.4922 25.2727 34.6001 25.2727H31.2592V34ZM32.8402 32.679V30.1222H34.5831C35.5589 30.1222 36.1641 30.7188 36.1641 31.4986C36.1641 32.1932 35.6868 32.679 34.5405 32.679H32.8402ZM32.8402 28.9844V26.5767H34.4382C35.3672 26.5767 35.8487 27.0668 35.8487 27.7401C35.8487 28.5071 35.2266 28.9844 34.4041 28.9844H32.8402Z" fill="white"/>
<rect x="70" width="60" height="60" rx="8" fill="#212121"/>
<rect x="84" y="14" width="32" height="32" rx="16" fill="url(#paint1_linear)"/>
<path d="M92.5053 34H94.0863V31.4006L95.0536 30.2585L97.6573 34H99.5579L96.1531 29.1889L99.5281 25.2727H97.5977L94.1928 29.2827H94.0863V25.2727H92.5053V34ZM106.004 28.0597H107.615C107.347 26.3466 105.864 25.1534 103.933 25.1534C101.649 25.1534 99.9361 26.8324 99.9361 29.6449C99.9361 32.4062 101.572 34.1193 103.98 34.1193C106.141 34.1193 107.688 32.7301 107.688 30.4801V29.4318H104.146V30.6676H106.158C106.132 31.9119 105.301 32.7003 103.989 32.7003C102.527 32.7003 101.526 31.6051 101.526 29.6278C101.526 27.6634 102.544 26.5724 103.955 26.5724C105.007 26.5724 105.723 27.1349 106.004 28.0597Z" fill="white"/>
<rect x="140" width="60" height="60" rx="8" fill="#212121"/>
<rect x="154" y="14" width="32" height="32" rx="16" fill="url(#paint2_linear)"/>
<path d="M162.652 34H164.233V31.0511H165.903C167.919 31.0511 169.001 29.8409 169.001 28.1619C169.001 26.4957 167.932 25.2727 165.925 25.2727H162.652V34ZM164.233 29.7514V26.5938H165.682C166.866 26.5938 167.39 27.233 167.39 28.1619C167.39 29.0909 166.866 29.7514 165.69 29.7514H164.233ZM173.332 34C175.991 34 177.568 32.3551 177.568 29.6278C177.568 26.9091 175.991 25.2727 173.392 25.2727H170.374V34H173.332ZM171.955 32.6321V26.6406H173.302C175.075 26.6406 175.999 27.6293 175.999 29.6278C175.999 31.6349 175.075 32.6321 173.255 32.6321H171.955Z" fill="white"/>
<defs>
<linearGradient id="paint0_linear" x1="30" y1="14" x2="30" y2="46" gradientUnits="userSpaceOnUse">
<stop stop-color="#FAA49E"/>
<stop offset="1" stop-color="#FF1908"/>
</linearGradient>
<linearGradient id="paint1_linear" x1="100" y1="14" x2="100" y2="46" gradientUnits="userSpaceOnUse">
<stop stop-color="#F1D4A8"/>
<stop offset="1" stop-color="#F1A40E"/>
</linearGradient>
<linearGradient id="paint2_linear" x1="170" y1="14" x2="170" y2="46" gradientUnits="userSpaceOnUse">
<stop stop-color="#98E43F"/>
<stop offset="1" stop-color="#559906"/>
</linearGradient>
</defs>
</svg>
