<svg width="24" height="24" viewBox="0 0 24 24" fill="none" xmlns="http://www.w3.org/2000/svg">
<path d="M8.84356 19.4342C9.30771 19.4735 9.68312 19.3113 9.96903 18.9563L20.6003 6.94465C20.8087 6.67125 20.9083 6.43273 20.9284 6.19627C20.9811 5.57448 20.5797 5.10821 19.9491 5.05473C19.52 5.01833 19.2439 5.15368 18.9462 5.54301L9.02039 16.8295L4.66637 11.4236C4.43261 11.0597 4.17301 10.8966 3.78768 10.8639C3.15713 10.8104 2.66385 11.2184 2.61185 11.8315C2.58882 12.1029 2.66287 12.3738 2.86754 12.6646L7.80516 18.7816C8.07899 19.1929 8.38816 19.3956 8.84356 19.4342Z" fill="white"/>
</svg>
