<svg width="24" height="24" viewBox="0 0 24 24" fill="none" xmlns="http://www.w3.org/2000/svg">
<path fill-rule="evenodd" clip-rule="evenodd" d="M9.54545 4C9.89762 4 10.2103 4.22535 10.3216 4.55945L14.4545 16.9581L16.1329 11.9231C16.2443 11.589 16.5569 11.3636 16.9091 11.3636H20.1818C20.6337 11.3636 21 11.7299 21 12.1818C21 12.6337 20.6337 13 20.1818 13H17.4988L15.2307 19.8042C15.1194 20.1383 14.8067 20.3636 14.4545 20.3636C14.1024 20.3636 13.7897 20.1383 13.6783 19.8042L9.54545 7.4055L7.8671 12.4406C7.75574 12.7746 7.44308 13 7.09091 13H3.81818C3.36631 13 3 12.6337 3 12.1818C3 11.7299 3.36631 11.3636 3.81818 11.3636H6.5012L8.76926 4.55945C8.88063 4.22535 9.19328 4 9.54545 4Z" fill="white"/>
</svg>
