<svg width="24" height="24" viewBox="0 0 24 24" fill="none" xmlns="http://www.w3.org/2000/svg">
<path d="M4.87195 12.7767H10.8776V18.7823C10.8776 19.3928 11.3797 19.9047 12 19.9047C12.6203 19.9047 13.1224 19.3928 13.1224 18.7823V12.7767H19.128C19.7385 12.7767 20.2504 12.2746 20.2504 11.6543C20.2504 11.034 19.7385 10.5319 19.128 10.5319H13.1224V4.52625C13.1224 3.91583 12.6203 3.40387 12 3.40387C11.3797 3.40387 10.8776 3.91583 10.8776 4.52625V10.5319H4.87195C4.26153 10.5319 3.74957 11.034 3.74957 11.6543C3.74957 12.2746 4.26153 12.7767 4.87195 12.7767Z" fill="white"/>
</svg>
