<svg width="24" height="24" viewBox="0 0 24 24" fill="none" xmlns="http://www.w3.org/2000/svg">
<path d="M11.9912 20.7422C16.9746 20.7422 21.0879 16.6289 21.0879 11.6543C21.0879 6.67969 16.9658 2.56641 11.9824 2.56641C7.00781 2.56641 2.90332 6.67969 2.90332 11.6543C2.90332 16.6289 7.0166 20.7422 11.9912 20.7422ZM7.7373 11.6631C7.7373 11.1445 8.10645 10.7842 8.61621 10.7842H11.1211V8.2793C11.1211 7.76953 11.4727 7.40918 11.9736 7.40918C12.4922 7.40918 12.8525 7.76953 12.8525 8.2793V10.7842H15.3662C15.8672 10.7842 16.2363 11.1445 16.2363 11.6631C16.2363 12.1641 15.8672 12.5244 15.3662 12.5244H12.8525V15.0293C12.8525 15.5303 12.4922 15.8994 11.9736 15.8994C11.4727 15.8994 11.1211 15.5303 11.1211 15.0293V12.5244H8.61621C8.10645 12.5244 7.7373 12.1641 7.7373 11.6631Z" fill="white"/>
</svg>
