<svg width="24" height="24" viewBox="0 0 24 24" fill="none" xmlns="http://www.w3.org/2000/svg">
<path fill-rule="evenodd" clip-rule="evenodd" d="M18.3058 4.23964C17.9863 3.92012 17.4682 3.92012 17.1487 4.23964C16.8292 4.55916 16.8292 5.0772 17.1487 5.39672L19.6033 7.85127C19.9228 8.17079 20.4408 8.17079 20.7604 7.85127C21.0799 7.53175 21.0799 7.01371 20.7604 6.69419L18.3058 4.23964ZM6.85127 4.23964C7.17079 4.55916 7.17079 5.0772 6.85127 5.39672L4.39672 7.85127C4.0772 8.17079 3.55916 8.17079 3.23964 7.85127C2.92012 7.53175 2.92012 7.01371 3.23964 6.69419L5.69419 4.23964C6.01371 3.92012 6.53175 3.92012 6.85127 4.23964ZM6.27272 13C6.27272 9.83694 8.83691 7.27275 12 7.27275C15.1631 7.27275 17.7273 9.83694 17.7273 13C17.7273 16.1631 15.1631 18.7273 12 18.7273C8.83691 18.7273 6.27272 16.1631 6.27272 13ZM12 5.63638C7.93317 5.63638 4.63636 8.9332 4.63636 13C4.63636 14.7386 5.23891 16.3365 6.24658 17.5963L4.876 18.9668C4.55648 19.2864 4.55648 19.8044 4.876 20.1239C5.19552 20.4435 5.71356 20.4435 6.03308 20.1239L7.40366 18.7534C8.66339 19.7611 10.2613 20.3637 12 20.3637C13.7387 20.3637 15.3366 19.7611 16.5963 18.7534L17.9669 20.1239C18.2864 20.4435 18.8045 20.4435 19.124 20.1239C19.4435 19.8044 19.4435 19.2864 19.124 18.9668L17.7534 17.5963C18.7611 16.3365 19.3636 14.7386 19.3636 13C19.3636 8.9332 16.0668 5.63638 12 5.63638ZM12.8182 9.72734C12.8182 9.27547 12.4519 8.90915 12 8.90915C11.5481 8.90915 11.1818 9.27547 11.1818 9.72734V13.0001C11.1818 13.2171 11.268 13.4252 11.4215 13.5786L13.0578 15.215C13.3773 15.5345 13.8954 15.5345 14.2149 15.215C14.5344 14.8954 14.5344 14.3774 14.2149 14.0579L12.8182 12.6612V9.72734Z" fill="white"/>
</svg>
