<svg width="24" height="24" viewBox="0 0 24 24" fill="none" xmlns="http://www.w3.org/2000/svg">
<path fill-rule="evenodd" clip-rule="evenodd" d="M8.03419 3.23964C8.18762 3.0862 8.39573 3 8.61273 3H15.3873C15.6043 3 15.8124 3.0862 15.9658 3.23964L20.7604 8.03419C20.9138 8.18762 21 8.39573 21 8.61273V15.3873C21 15.6043 20.9138 15.8124 20.7604 15.9658L15.9658 20.7604C15.8124 20.9138 15.6043 21 15.3873 21H8.61273C8.39573 21 8.18762 20.9138 8.03419 20.7604L3.23964 15.9658C3.0862 15.8124 3 15.6043 3 15.3873V8.61273C3 8.39573 3.0862 8.18762 3.23964 8.03419L8.03419 3.23964ZM8.95163 4.63636L4.63636 8.95163V15.0484L8.95163 19.3636H15.0484L19.3636 15.0484V8.95163L15.0484 4.63636H8.95163ZM12 7.90915C12.4519 7.90915 12.8182 8.27547 12.8182 8.72734V12.0001C12.8182 12.4519 12.4519 12.8182 12 12.8182C11.5481 12.8182 11.1818 12.4519 11.1818 12.0001V8.72734C11.1818 8.27547 11.5481 7.90915 12 7.90915ZM12 14.4546C11.5481 14.4546 11.1818 14.8209 11.1818 15.2728C11.1818 15.7246 11.5481 16.0909 12 16.0909H12.0082C12.4601 16.0909 12.8264 15.7246 12.8264 15.2728C12.8264 14.8209 12.4601 14.4546 12.0082 14.4546H12Z" fill="white"/>
</svg>
