<svg width="24" height="24" viewBox="0 0 24 24" fill="none" xmlns="http://www.w3.org/2000/svg">
<path d="M5.10059 20.1006H18.8906C20.2529 20.1006 21.1318 19.0898 21.1318 17.8506C21.1318 17.4814 21.0352 17.1035 20.8418 16.752L13.9336 4.41211C13.5117 3.64746 12.7559 3.26074 12 3.26074C11.2441 3.26074 10.4795 3.64746 10.0576 4.41211L3.1582 16.752C2.96484 17.1123 2.85938 17.4814 2.85938 17.8506C2.85938 19.0898 3.73828 20.1006 5.10059 20.1006ZM12.0088 14.0537C11.4902 14.0537 11.1914 13.7637 11.1738 13.2451L11.0508 8.85059C11.0332 8.30566 11.4199 7.92773 12 7.92773C12.5625 7.92773 12.9756 8.31445 12.958 8.85938L12.8174 13.2363C12.7998 13.7725 12.5098 14.0537 12.0088 14.0537ZM12.0088 17.0947C11.4111 17.0947 10.9189 16.6641 10.9189 16.084C10.9189 15.5039 11.4023 15.0732 12.0088 15.0732C12.6064 15.0732 13.0898 15.5039 13.0898 16.084C13.0898 16.6729 12.5977 17.0947 12.0088 17.0947Z" fill="white"/>
</svg>
