<svg width="24" height="24" viewBox="0 0 24 24" fill="none" xmlns="http://www.w3.org/2000/svg">
<path d="M11.9912 20.7422C16.9746 20.7422 21.0879 16.6289 21.0879 11.6543C21.0879 6.67969 16.9658 2.56641 11.9824 2.56641C7.00781 2.56641 2.90332 6.67969 2.90332 11.6543C2.90332 16.6289 7.0166 20.7422 11.9912 20.7422ZM11.9912 13.1572C11.4727 13.1572 11.1738 12.8672 11.1562 12.3398L11.0332 7.9541C11.0156 7.40918 11.4023 7.03125 11.9824 7.03125C12.5449 7.03125 12.958 7.41797 12.9404 7.96289L12.7998 12.3398C12.7822 12.876 12.4922 13.1572 11.9912 13.1572ZM11.9912 16.1982C11.3936 16.1982 10.9014 15.7676 10.9014 15.1875C10.9014 14.6074 11.3848 14.1768 11.9912 14.1768C12.5889 14.1768 13.0723 14.6074 13.0723 15.1875C13.0723 15.7764 12.5801 16.1982 11.9912 16.1982Z" fill="white"/>
</svg>
