<svg width="24" height="24" viewBox="0 0 24 24" fill="none" xmlns="http://www.w3.org/2000/svg">
<path fill-rule="evenodd" clip-rule="evenodd" d="M5 6.55556C5 5.69645 5.69645 5 6.55556 5C7.41467 5 8.11111 5.69645 8.11111 6.55556C8.11111 7.41467 7.41467 8.11111 6.55556 8.11111C5.69645 8.11111 5 7.41467 5 6.55556ZM10.4448 6.55556C10.4448 5.69645 11.1413 5 12.0004 5C12.8595 5 13.556 5.69645 13.556 6.55556C13.556 7.41467 12.8595 8.11111 12.0004 8.11111C11.1413 8.11111 10.4448 7.41467 10.4448 6.55556ZM17.4445 5C16.5854 5 15.8889 5.69645 15.8889 6.55556C15.8889 7.41467 16.5854 8.11111 17.4445 8.11111C18.3036 8.11111 19 7.41467 19 6.55556C19 5.69645 18.3036 5 17.4445 5ZM5.00002 12C5.00002 11.1409 5.69647 10.4444 6.55558 10.4444C7.41469 10.4444 8.11113 11.1409 8.11113 12C8.11113 12.8591 7.41469 13.5556 6.55558 13.5556C5.69647 13.5556 5.00002 12.8591 5.00002 12ZM12.0004 10.4444C11.1413 10.4444 10.4448 11.1409 10.4448 12C10.4448 12.8591 11.1413 13.5556 12.0004 13.5556C12.8595 13.5556 13.556 12.8591 13.556 12C13.556 11.1409 12.8595 10.4444 12.0004 10.4444ZM15.8889 12C15.8889 11.1409 16.5854 10.4444 17.4445 10.4444C18.3036 10.4444 19 11.1409 19 12C19 12.8591 18.3036 13.5556 17.4445 13.5556C16.5854 13.5556 15.8889 12.8591 15.8889 12ZM6.55558 15.8889C5.69647 15.8889 5.00002 16.5853 5.00002 17.4444C5.00002 18.3035 5.69647 19 6.55558 19C7.41469 19 8.11113 18.3035 8.11113 17.4444C8.11113 16.5853 7.41469 15.8889 6.55558 15.8889ZM10.4448 17.4444C10.4448 16.5853 11.1413 15.8889 12.0004 15.8889C12.8595 15.8889 13.556 16.5853 13.556 17.4444C13.556 18.3035 12.8595 19 12.0004 19C11.1413 19 10.4448 18.3035 10.4448 17.4444ZM17.4445 15.8889C16.5854 15.8889 15.8889 16.5853 15.8889 17.4444C15.8889 18.3035 16.5854 19 17.4445 19C18.3036 19 19 18.3035 19 17.4444C19 16.5853 18.3036 15.8889 17.4445 15.8889Z" fill="white"/>
</svg>
