<svg width="24" height="24" viewBox="0 0 24 24" fill="currentColor" xmlns="http://www.w3.org/2000/svg">
<path fill-rule="evenodd" clip-rule="evenodd" d="M8.16035 7.3166C9.17907 6.29788 10.5594 5.7235 12 5.71875C13.4406 5.7235 14.8209 6.29788 15.8396 7.3166C16.8587 8.33561 17.4331 9.7164 17.4375 11.1575V11.5483C17.3133 11.537 17.1882 11.5312 17.0625 11.5312C16.5652 11.5312 16.0883 11.7288 15.7367 12.0804C15.385 12.4321 15.1875 12.909 15.1875 13.4062V17.9062C15.1875 18.4035 15.385 18.8804 15.7367 19.2321C16.0883 19.5837 16.5652 19.7812 17.0625 19.7812C18.1565 19.7812 19.2057 19.3467 19.9793 18.5731C20.7529 17.7995 21.1875 16.7503 21.1875 15.6562C21.1875 14.5622 20.7529 13.513 19.9793 12.7394C19.671 12.4311 19.3188 12.1766 18.9375 11.982L18.9375 11.1562L18.9375 11.1541C18.9322 9.31635 18.1998 7.55541 16.9003 6.25594C15.6008 4.95647 13.8399 4.22407 12.0022 4.21875L12 4.96875L11.9978 4.21875C10.1601 4.22407 8.39917 4.95647 7.09969 6.25594C5.80022 7.55541 5.06783 9.31635 5.0625 11.1541L5.0625 11.1562V11.982C4.68118 12.1766 4.32904 12.4311 4.02068 12.7394C3.2471 13.513 2.8125 14.5622 2.8125 15.6562C2.8125 16.7503 3.2471 17.7995 4.02068 18.5731C4.79427 19.3467 5.84348 19.7812 6.9375 19.7812C7.43478 19.7812 7.9117 19.5837 8.26333 19.2321C8.61496 18.8804 8.8125 18.4035 8.8125 17.9062V13.4062C8.8125 12.909 8.61496 12.4321 8.26333 12.0804C7.91169 11.7288 7.43478 11.5312 6.9375 11.5312C6.81179 11.5312 6.68667 11.537 6.5625 11.5483V11.1574C6.56695 9.71634 7.14137 8.33558 8.16035 7.3166ZM6.9375 13.0312C6.24131 13.0312 5.57363 13.3078 5.08134 13.8001C4.58906 14.2924 4.3125 14.9601 4.3125 15.6562C4.3125 16.3524 4.58906 17.0201 5.08134 17.5124C5.57363 18.0047 6.24131 18.2812 6.9375 18.2812C7.03696 18.2812 7.13234 18.2417 7.20267 18.1714C7.27299 18.1011 7.3125 18.0057 7.3125 17.9062V13.4062C7.3125 13.3068 7.27299 13.2114 7.20267 13.1411C7.13234 13.0708 7.03696 13.0312 6.9375 13.0312ZM17.0625 13.0312C16.963 13.0312 16.8677 13.0708 16.7973 13.1411C16.727 13.2114 16.6875 13.3068 16.6875 13.4062V17.9062C16.6875 18.0057 16.727 18.1011 16.7973 18.1714C16.8677 18.2417 16.963 18.2812 17.0625 18.2812C17.7587 18.2812 18.4264 18.0047 18.9187 17.5124C19.4109 17.0201 19.6875 16.3524 19.6875 15.6562C19.6875 14.9601 19.4109 14.2924 18.9187 13.8001C18.4264 13.3078 17.7587 13.0312 17.0625 13.0312Z" fill="currentColor"/>
</svg>
