<svg width="24" height="24" viewBox="0 0 24 24" fill="none" xmlns="http://www.w3.org/2000/svg">
<path d="M16.7765 14.0311C16.3 14.0311 15.9123 13.6597 15.9123 13.2034C15.9123 12.7471 16.3 12.376 16.7765 12.376C17.2531 12.376 17.6408 12.7471 17.6408 13.2034C17.6408 13.6597 17.2531 14.0311 16.7765 14.0311ZM7.22354 14.0311C6.74695 14.0311 6.3593 13.6597 6.3593 13.2034C6.3593 12.7471 6.74695 12.376 7.22354 12.376C7.70012 12.376 8.08779 12.7471 8.08779 13.2034C8.08779 13.6597 7.70012 14.0311 7.22354 14.0311ZM17.0865 9.04661L18.8139 6.18238C18.9129 6.01775 18.854 5.80746 18.6823 5.71239C18.5106 5.61759 18.2907 5.67399 18.1914 5.83835L16.4425 8.73883C15.105 8.15444 13.6029 7.82894 12 7.82894C10.3972 7.82894 8.89509 8.15444 7.55762 8.73883L5.80866 5.83835C5.70936 5.67399 5.48944 5.61759 5.31777 5.71239C5.1461 5.80746 5.08691 6.01775 5.18621 6.18238L6.91357 9.04661C3.94748 10.5911 1.91884 13.4661 1.62207 16.8626H22.378C22.081 13.4661 20.0523 10.5911 17.0865 9.04661Z" fill="white"/>
</svg>
