<svg width="24" height="24" viewBox="0 0 24 24" fill="none" xmlns="http://www.w3.org/2000/svg">
<path d="M17.0484 19.6265C16.0728 20.5733 14.9964 20.4257 13.9704 19.9793C12.8796 19.5239 11.8824 19.4951 10.7304 19.9793C9.29584 20.5985 8.53444 20.4185 7.67045 19.6265C2.79246 14.6045 3.51245 6.95455 9.05644 6.66655C10.401 6.73855 11.3424 7.40995 12.1344 7.46575C13.3116 7.22635 14.4384 6.54055 15.6984 6.63055C17.2122 6.75295 18.3444 7.35055 19.1004 8.42515C15.9864 10.2971 16.7244 14.4011 19.5846 15.5531C19.0122 17.0561 18.2778 18.5411 17.0466 19.6391L17.0484 19.6265ZM12.0264 6.61255C11.8806 4.38056 13.6896 2.54456 15.7704 2.36456C16.0566 4.93856 13.4304 6.86455 12.0264 6.61255Z" fill="white"/>
</svg>
