<svg width="24" height="24" viewBox="0 0 24 24" fill="none" xmlns="http://www.w3.org/2000/svg">
<path fill-rule="evenodd" clip-rule="evenodd" d="M2.78105 4.78105C3.28115 4.28095 3.95942 4 4.66667 4H18.8889C19.5961 4 20.2744 4.28095 20.7745 4.78105C21.2746 5.28115 21.5556 5.95942 21.5556 6.66667V7.55556C21.5556 8.2628 21.2746 8.94108 20.7745 9.44117C20.4906 9.72509 20.1493 9.93837 19.7778 10.0697V17.3333C19.7778 18.0406 19.4968 18.7189 18.9967 19.219C18.4966 19.719 17.8184 20 17.1111 20H6.44444C5.7372 20 5.05892 19.719 4.55883 19.219C4.05873 18.7189 3.77778 18.0406 3.77778 17.3333V10.0697C3.40631 9.93837 3.06496 9.72509 2.78105 9.44117C2.28095 8.94108 2 8.2628 2 7.55556V6.66667C2 5.95942 2.28095 5.28115 2.78105 4.78105ZM4.66667 8.44444H18.8889C19.1246 8.44444 19.3507 8.35079 19.5174 8.18409C19.6841 8.0174 19.7778 7.7913 19.7778 7.55556V6.66667C19.7778 6.43092 19.6841 6.20483 19.5174 6.03813C19.3507 5.87143 19.1246 5.77778 18.8889 5.77778H4.66667C4.43092 5.77778 4.20483 5.87143 4.03813 6.03813C3.87143 6.20483 3.77778 6.43092 3.77778 6.66667V7.55556C3.77778 7.7913 3.87143 8.0174 4.03813 8.18409C4.20483 8.35079 4.43092 8.44444 4.66667 8.44444ZM5.55556 10.2222V17.3333C5.55556 17.5691 5.64921 17.7952 5.81591 17.9619C5.9826 18.1286 6.2087 18.2222 6.44444 18.2222H17.1111C17.3469 18.2222 17.573 18.1286 17.7397 17.9619C17.9064 17.7952 18 17.5691 18 17.3333V10.2222H5.55556ZM9.11111 12.8889C9.11111 12.398 9.50908 12 10 12H13.5556C14.0465 12 14.4444 12.398 14.4444 12.8889C14.4444 13.3798 14.0465 13.7778 13.5556 13.7778H10C9.50908 13.7778 9.11111 13.3798 9.11111 12.8889Z" fill="white"/>
</svg>
