<svg width="24" height="24" viewBox="0 0 24 24" fill="none" xmlns="http://www.w3.org/2000/svg">
<path fill-rule="evenodd" clip-rule="evenodd" d="M16.5657 4.23431C16.2532 3.9219 15.7467 3.9219 15.4343 4.23431C15.1219 4.54673 15.1219 5.05327 15.4343 5.36569L17.2686 7.19997H9.60003C9.15821 7.19997 8.80003 7.55814 8.80003 7.99997C8.80003 8.44179 9.15821 8.79997 9.60003 8.79997H17.2686L15.4343 10.6343C15.1219 10.9467 15.1219 11.4533 15.4343 11.7657C15.7467 12.0781 16.2532 12.0781 16.5657 11.7657L19.7612 8.57018C19.7804 8.55129 19.7986 8.53143 19.8158 8.51069C19.8535 8.4653 19.8855 8.41672 19.9116 8.36592C19.9681 8.25626 20 8.13184 20 7.99997C20 7.77511 19.9073 7.57193 19.7579 7.42659L16.5657 4.23431ZM8.56568 12.2343C8.8781 12.5467 8.8781 13.0533 8.56568 13.3657L6.73141 15.2H14.4C14.8418 15.2 15.2 15.5581 15.2 16C15.2 16.4418 14.8418 16.8 14.4 16.8H6.73133L8.56568 18.6343C8.8781 18.9467 8.8781 19.4533 8.56568 19.7657C8.25327 20.0781 7.74673 20.0781 7.43431 19.7657L4.23431 16.5657C4.15333 16.4847 4.09334 16.3907 4.05434 16.2904C4.01982 16.2018 4.00063 16.1056 4.00002 16.0049M4.23877 15.4299L7.43431 12.2343C7.74673 11.9219 8.25327 11.9219 8.56568 12.2343M4.23877 15.4299C4.22312 15.4453 4.2081 15.4613 4.19376 15.478C4.14093 15.5392 4.0989 15.6065 4.06768 15.6774C4.02416 15.7761 4 15.8852 4 16" fill="white"/>
</svg>
