<svg width="24" height="24" viewBox="0 0 24 24" fill="none" xmlns="http://www.w3.org/2000/svg">
<path d="M20.3188 12.0044C20.3188 11.7319 20.2046 11.4683 20.0024 11.2749L14.228 5.50049C13.9995 5.28076 13.7622 5.18408 13.5161 5.18408C12.9536 5.18408 12.5493 5.57959 12.5493 6.11572C12.5493 6.39697 12.6636 6.63428 12.8394 6.81006L14.8169 8.81396L17.3657 11.1431L15.3267 11.02H4.67432C4.08545 11.02 3.68115 11.4243 3.68115 12.0044C3.68115 12.5757 4.08545 12.98 4.67432 12.98H15.3267L17.3657 12.8569L14.8169 15.186L12.8394 17.1899C12.6636 17.3657 12.5493 17.603 12.5493 17.8843C12.5493 18.4204 12.9536 18.8159 13.5161 18.8159C13.7622 18.8159 13.9995 18.7192 14.2104 18.5171L20.0024 12.7251C20.2046 12.5317 20.3188 12.2681 20.3188 12.0044Z" fill="white"/>
</svg>
