<svg width="24" height="24" viewBox="0 0 24 24" fill="none" xmlns="http://www.w3.org/2000/svg">
<path fill-rule="evenodd" clip-rule="evenodd" d="M16.8 9.6C16.8 9.15817 16.4419 8.8 16 8.8C15.5582 8.8 15.2 9.15817 15.2 9.6L15.2 17.2686L13.3657 15.4342C13.0533 15.1218 12.5467 15.1218 12.2343 15.4342C11.9219 15.7466 11.9219 16.2532 12.2343 16.5656L15.429 19.7603C15.4545 19.7863 15.4818 19.8105 15.5106 19.8328C15.5419 19.8571 15.5745 19.8787 15.6083 19.8977C15.7241 19.9628 15.8577 20 16 20C16.2256 20 16.4294 19.9066 16.5749 19.7564L19.7657 16.5656C20.0781 16.2532 20.0781 15.7466 19.7657 15.4342C19.4533 15.1218 18.9467 15.1218 18.6343 15.4342L16.8 17.2685L16.8 9.6Z" fill="white"/>
<path fill-rule="evenodd" clip-rule="evenodd" d="M7.19995 14.3999C7.19995 14.8418 7.55812 15.1999 7.99995 15.1999C8.44178 15.1999 8.79995 14.8418 8.79995 14.3999L8.79995 6.73136L10.6343 8.56572C10.9467 8.87814 11.4533 8.87814 11.7657 8.56572C12.0781 8.2533 12.0781 7.74677 11.7657 7.43435L8.57094 4.2396C8.54557 4.21375 8.51845 4.18962 8.48979 4.16739C8.45839 4.14302 8.4256 4.12131 8.39171 4.10226C8.27592 4.03711 8.14228 3.99994 7.99995 3.99994C7.77436 3.99994 7.57057 4.09331 7.42514 4.24353L4.23431 7.43435C3.9219 7.74677 3.9219 8.2533 4.23431 8.56572C4.54673 8.87814 5.05327 8.87814 5.36569 8.56572L7.19995 6.73146L7.19995 14.3999Z" fill="white"/>
</svg>
