<svg width="24" height="24" viewBox="0 0 24 24" fill="none" xmlns="http://www.w3.org/2000/svg">
<path d="M12.5 5C12.3343 5 12.1753 5.06585 12.0581 5.18306C11.9409 5.30027 11.875 5.45924 11.875 5.625V19.375C11.875 19.5408 11.9409 19.6997 12.0581 19.8169C12.1753 19.9342 12.3343 20 12.5 20C12.6658 20 12.8247 19.9342 12.942 19.8169C13.0592 19.6997 13.125 19.5408 13.125 19.375V5.625C13.125 5.45924 13.0592 5.30027 12.942 5.18306C12.8247 5.06585 12.6658 5 12.5 5V5Z" fill="white"/>
<path d="M9.99998 6.25012C9.83422 6.25012 9.67525 6.31597 9.55804 6.43318C9.44083 6.55039 9.37498 6.70936 9.37498 6.87512V18.1251C9.37498 18.2909 9.44083 18.4499 9.55804 18.5671C9.67525 18.6843 9.83422 18.7501 9.99998 18.7501C10.1657 18.7501 10.3247 18.6843 10.4419 18.5671C10.5591 18.4499 10.625 18.2909 10.625 18.1251V6.87512C10.625 6.70936 10.5591 6.55039 10.4419 6.43318C10.3247 6.31597 10.1657 6.25012 9.99998 6.25012Z" fill="white"/>
<path d="M7.5 8.75C7.33424 8.75 7.17527 8.81585 7.05806 8.93306C6.94085 9.05027 6.875 9.20924 6.875 9.375V15.625C6.875 15.7908 6.94085 15.9497 7.05806 16.0669C7.17527 16.1842 7.33424 16.25 7.5 16.25C7.66576 16.25 7.82473 16.1842 7.94194 16.0669C8.05915 15.9497 8.125 15.7908 8.125 15.625V9.375C8.125 9.20924 8.05915 9.05027 7.94194 8.93306C7.82473 8.81585 7.66576 8.75 7.5 8.75Z" fill="white"/>
<path d="M5.625 11.2499C5.45924 11.2499 5.30027 11.3157 5.18306 11.4329C5.06585 11.5501 5 11.7091 5 11.8749V13.1249C5 13.2906 5.06585 13.4496 5.18306 13.5668C5.30027 13.684 5.45924 13.7499 5.625 13.7499C5.79076 13.7499 5.94973 13.684 6.06694 13.5668C6.18415 13.4496 6.25 13.2906 6.25 13.1249V11.8749C6.25 11.7091 6.18415 11.5501 6.06694 11.4329C5.94973 11.3157 5.79076 11.2499 5.625 11.2499Z" fill="white"/>
<path d="M15 6.25012C14.8342 6.25012 14.6753 6.31597 14.5581 6.43318C14.4408 6.55039 14.375 6.70936 14.375 6.87512V18.1251C14.375 18.2909 14.4408 18.4499 14.5581 18.5671C14.6753 18.6843 14.8342 18.7501 15 18.7501C15.1658 18.7501 15.3247 18.6843 15.4419 18.5671C15.5592 18.4499 15.625 18.2909 15.625 18.1251V6.87512C15.625 6.70936 15.5592 6.55039 15.4419 6.43318C15.3247 6.31597 15.1658 6.25012 15 6.25012Z" fill="white"/>
<path d="M17.5 8.75C17.3342 8.75 17.1753 8.81585 17.0581 8.93306C16.9408 9.05027 16.875 9.20924 16.875 9.375V15.625C16.875 15.7908 16.9408 15.9497 17.0581 16.0669C17.1753 16.1842 17.3342 16.25 17.5 16.25C17.6658 16.25 17.8247 16.1842 17.9419 16.0669C18.0592 15.9497 18.125 15.7908 18.125 15.625V9.375C18.125 9.20924 18.0592 9.05027 17.9419 8.93306C17.8247 8.81585 17.6658 8.75 17.5 8.75Z" fill="white"/>
<path d="M19.375 11.2499C19.2092 11.2499 19.0503 11.3157 18.9331 11.4329C18.8158 11.5501 18.75 11.7091 18.75 11.8749V13.1249C18.75 13.2906 18.8158 13.4496 18.9331 13.5668C19.0503 13.684 19.2092 13.7499 19.375 13.7499C19.5408 13.7499 19.6997 13.684 19.8169 13.5668C19.9342 13.4496 20 13.2906 20 13.1249V11.8749C20 11.7091 19.9342 11.5501 19.8169 11.4329C19.6997 11.3157 19.5408 11.2499 19.375 11.2499Z" fill="white"/>
</svg>
