<svg width="24" height="24" viewBox="0 0 24 24" fill="none" xmlns="http://www.w3.org/2000/svg">
<path fill-rule="evenodd" clip-rule="evenodd" d="M7.5 9C7.5 6.51472 9.51472 4.5 12 4.5C14.4853 4.5 16.5 6.51472 16.5 9C16.5 10.5607 15.7055 11.9359 14.4988 12.743C14.4553 12.7654 14.4145 12.7919 14.3768 12.8219C13.687 13.2517 12.8725 13.5 12 13.5C9.51472 13.5 7.5 11.4853 7.5 9ZM14.2395 14.5681C13.5476 14.8467 12.7917 15 12 15C11.2086 15 10.453 14.8468 9.76116 14.5684L9.19827 18.8063L11.6141 17.3568C11.8516 17.2143 12.1483 17.2143 12.3858 17.3568L14.8019 18.8064L14.2395 14.5681ZM8.35456 13.766C6.9231 12.6694 6 10.9425 6 9C6 5.68629 8.68629 3 12 3C15.3137 3 18 5.68629 18 9C18 10.9422 17.0772 12.6688 15.6462 13.7654L16.4934 20.1513C16.5313 20.4367 16.4024 20.7187 16.1617 20.8768C15.921 21.0349 15.611 21.0412 15.3641 20.893L11.9999 18.8745L8.63581 20.893C8.38886 21.0412 8.07887 21.0349 7.83816 20.8768C7.59746 20.7186 7.46855 20.4366 7.50647 20.1512L8.35456 13.766Z" fill="white"/>
</svg>
