<svg width="20" height="20" viewBox="0 0 20 20" fill="none" xmlns="http://www.w3.org/2000/svg">
<path fill-rule="evenodd" clip-rule="evenodd" d="M9.79185 12.9165C9.85577 12.9165 9.90759 12.9683 9.90759 13.0322C9.90759 13.0962 9.85577 13.148 9.79185 13.148C9.72793 13.148 9.67611 13.0962 9.67611 13.0322C9.67611 12.9683 9.72793 12.9165 9.79185 12.9165ZM11.1576 13.0322C11.1576 12.278 10.5461 11.6665 9.79185 11.6665C9.03757 11.6665 8.42611 12.278 8.42611 13.0322C8.42611 13.7865 9.03757 14.398 9.79185 14.398C10.5461 14.398 11.1576 13.7865 11.1576 13.0322Z" fill="white"/>
<path fill-rule="evenodd" clip-rule="evenodd" d="M3.12501 5C2.77984 5 2.50001 5.27982 2.50001 5.625V10.0694C2.50001 10.4146 2.77984 10.6944 3.12501 10.6944H7.56946C7.91464 10.6944 8.19446 10.4146 8.19446 10.0694C8.19446 9.72427 7.91464 9.44444 7.56946 9.44444H3.75001V5.625C3.75001 5.27982 3.47019 5 3.12501 5Z" fill="white"/>
<path fill-rule="evenodd" clip-rule="evenodd" d="M9.79213 6.99072C11.3944 6.9908 12.931 7.62732 14.0639 8.76029C15.197 9.89332 15.8335 11.43 15.8335 13.0324C15.8335 13.3776 16.1133 13.6574 16.4585 13.6574C16.8037 13.6574 17.0835 13.3776 17.0835 13.0324C17.0835 11.0985 16.3153 9.24386 14.9478 7.8764C13.5804 6.50895 11.7257 5.74072 9.79183 5.74072H9.79119C7.99673 5.74255 6.26596 6.40601 4.93008 7.60415L4.92928 7.60487L2.70706 9.60487C2.45049 9.83578 2.42969 10.231 2.6606 10.4875C2.89151 10.7441 3.2867 10.7649 3.54327 10.534L5.76469 8.5347C5.76488 8.53453 5.76507 8.53436 5.76525 8.5342C6.87196 7.54185 8.30566 6.99232 9.79213 6.99072Z" fill="white"/>
</svg>
