<svg width="24" height="24" viewBox="0 0 24 24" fill="none" xmlns="http://www.w3.org/2000/svg">
<path fill-rule="evenodd" clip-rule="evenodd" d="M8.43557 5.25612C8.57798 5.09336 8.78373 5 9 5H18.75C19.3467 5 19.919 5.23705 20.341 5.65901C20.7629 6.08097 21 6.65326 21 7.25V16.25C21 16.8467 20.7629 17.419 20.341 17.841C19.919 18.2629 19.3467 18.5 18.75 18.5H9C8.78373 18.5 8.57798 18.4066 8.43557 18.2439L3.18557 12.2439C2.93814 11.9611 2.93814 11.5389 3.18557 11.2561L8.43557 5.25612ZM9.34033 6.5L4.74658 11.75L9.34033 17H18.75C18.9489 17 19.1397 16.921 19.2803 16.7803C19.421 16.6397 19.5 16.4489 19.5 16.25V7.25C19.5 7.05109 19.421 6.86032 19.2803 6.71967C19.1397 6.57902 18.9489 6.5 18.75 6.5H9.34033ZM17.0303 8.96977C17.3232 9.26266 17.3232 9.73753 17.0303 10.0304L15.3106 11.7501L17.0303 13.4698C17.3232 13.7627 17.3232 14.2375 17.0303 14.5304C16.7374 14.8233 16.2625 14.8233 15.9696 14.5304L14.25 12.8108L12.5303 14.5304C12.2374 14.8233 11.7625 14.8233 11.4696 14.5304C11.1767 14.2375 11.1767 13.7627 11.4696 13.4698L13.1893 11.7501L11.4696 10.0304C11.1767 9.73753 11.1767 9.26266 11.4696 8.96977C11.7625 8.67687 12.2374 8.67687 12.5303 8.96977L14.25 10.6894L15.9696 8.96977C16.2625 8.67687 16.7374 8.67687 17.0303 8.96977Z" fill="white"/>
</svg>
