<svg width="24" height="24" viewBox="0 0 24 24" fill="none" xmlns="http://www.w3.org/2000/svg">
<path d="M10.43 13.1929L15.9348 17.7131C16.1195 17.8647 16.3435 17.9609 16.5807 17.9904C16.8179 18.0198 17.0585 17.9814 17.2748 17.8796C17.491 17.7778 17.674 17.6167 17.8023 17.4151C17.9307 17.2134 17.9992 16.9796 18 16.7405L18 7.24182C17.9991 7.00296 17.9305 6.76924 17.8022 6.56778C17.6739 6.36631 17.4911 6.20535 17.275 6.10355C17.0589 6.00175 16.8184 5.96329 16.5813 5.99262C16.3443 6.02196 16.1204 6.11789 15.9356 6.26929L10.43 10.7895C10.2527 10.935 10.1098 11.118 10.0118 11.3253C9.91366 11.5327 9.86278 11.7592 9.86278 11.9886C9.86278 12.218 9.91366 12.4445 10.0118 12.6519C10.1098 12.8592 10.2527 13.0422 10.43 13.1877L10.43 13.1929Z" fill="white"/>
<path d="M8.57507 17.9997L5.99997 17.9997L5.99997 5.98255L8.57507 5.98255L8.57507 17.9997Z" fill="white"/>
</svg>
