<svg width="24" height="24" viewBox="0 0 24 24" fill="none" xmlns="http://www.w3.org/2000/svg">
<path fill-rule="evenodd" clip-rule="evenodd" d="M6.61818 3.32727C6.7727 3.12125 7.0152 3 7.27273 3H17.0909C17.3484 3 17.5909 3.12125 17.7455 3.32727L20.1945 6.59267C20.3006 6.73065 20.3636 6.90341 20.3636 7.09089V7.09091V18.5455C20.3636 19.1964 20.105 19.8208 19.6447 20.2811C19.1844 20.7414 18.5601 21 17.9091 21H6.45455C5.80356 21 5.17924 20.7414 4.71892 20.2811C4.2586 19.8208 4 19.1964 4 18.5455V7.09091V7.09089C4 6.90342 4.06305 6.73067 4.16911 6.5927L6.61818 3.32727ZM16.6818 4.63636L17.9091 6.27271H6.45456L7.68182 4.63636H16.6818ZM5.63636 18.5455V7.90907H18.7273V18.5455C18.7273 18.7624 18.6411 18.9706 18.4876 19.124C18.3342 19.2774 18.1261 19.3636 17.9091 19.3636H6.45455C6.23755 19.3636 6.02944 19.2774 5.876 19.124C5.72256 18.9706 5.63636 18.7625 5.63636 18.5455ZM9.72721 10.3636C9.72721 9.91174 9.3609 9.54542 8.90903 9.54542C8.45716 9.54542 8.09085 9.91174 8.09085 10.3636C8.09085 11.4486 8.52185 12.4891 9.28905 13.2563C10.0562 14.0235 11.0968 14.4545 12.1818 14.4545C13.2667 14.4545 14.3073 14.0235 15.0745 13.2563C15.8417 12.4891 16.2727 11.4486 16.2727 10.3636C16.2727 9.91174 15.9064 9.54542 15.4545 9.54542C15.0026 9.54542 14.6363 9.91174 14.6363 10.3636C14.6363 11.0146 14.3777 11.6389 13.9174 12.0992C13.4571 12.5595 12.8327 12.8181 12.1818 12.8181C11.5308 12.8181 10.9064 12.5595 10.4461 12.0992C9.98581 11.6389 9.72721 11.0146 9.72721 10.3636Z" fill="white"/>
</svg>
