<svg width="24" height="24" viewBox="0 0 24 24" fill="none" xmlns="http://www.w3.org/2000/svg">
<path fill-rule="evenodd" clip-rule="evenodd" d="M6.59286 4C5.16086 4 4 5.16086 4 6.59286V17.9071C4 19.3391 5.16086 20.5 6.59286 20.5H17.9071C19.3391 20.5 20.5 19.3391 20.5 17.9071V6.59286C20.5 5.16086 19.3391 4 17.9071 4H6.59286ZM5.41429 6.59286C5.41429 5.94195 5.94195 5.41429 6.59286 5.41429H17.9071C18.5581 5.41429 19.0857 5.94195 19.0857 6.59286V17.9071C19.0857 18.5581 18.5581 19.0857 17.9071 19.0857H6.59286C5.94195 19.0857 5.41429 18.5581 5.41429 17.9071V6.59286ZM15.6967 7.87913C15.8863 7.53774 15.7633 7.10722 15.4219 6.91756C15.0805 6.72789 14.65 6.8509 14.4604 7.19229L9.74609 15.678C9.55642 16.0194 9.67943 16.4499 10.0208 16.6396C10.3622 16.8292 10.7927 16.7062 10.9824 16.3648L15.6967 7.87913Z" fill="white"/>
</svg>
