<svg width="24" height="24" viewBox="0 0 24 24" fill="none" xmlns="http://www.w3.org/2000/svg">
<path fill-rule="evenodd" clip-rule="evenodd" d="M5.45455 8.63636C5.00268 8.63636 4.63636 9.00268 4.63636 9.45455V14.3636C4.63636 14.8155 5.00268 15.1818 5.45455 15.1818H15.2727C15.7246 15.1818 16.0909 14.8155 16.0909 14.3636V9.45455C16.0909 9.00268 15.7246 8.63636 15.2727 8.63636H5.45455ZM3 9.45455C3 8.09894 4.09894 7 5.45455 7H15.2727C16.6283 7 17.7273 8.09894 17.7273 9.45455V14.3636C17.7273 15.7192 16.6283 16.8182 15.2727 16.8182H5.45455C4.09894 16.8182 3 15.7192 3 14.3636V9.45455ZM20.1818 10.2727C20.6337 10.2727 21 10.639 21 11.0909V12.7273C21 13.1791 20.6337 13.5454 20.1818 13.5454C19.73 13.5454 19.3636 13.1791 19.3636 12.7273V11.0909C19.3636 10.639 19.73 10.2727 20.1818 10.2727ZM7.90907 10.2728C7.90907 9.82089 7.54276 9.45458 7.09089 9.45458C6.63902 9.45458 6.27271 9.82089 6.27271 10.2728V13.5455C6.27271 13.9974 6.63902 14.3637 7.09089 14.3637C7.54276 14.3637 7.90907 13.9974 7.90907 13.5455V10.2728ZM10.3636 9.45458C10.8155 9.45458 11.1818 9.82089 11.1818 10.2728V13.5455C11.1818 13.9974 10.8155 14.3637 10.3636 14.3637C9.91174 14.3637 9.54542 13.9974 9.54542 13.5455V10.2728C9.54542 9.82089 9.91174 9.45458 10.3636 9.45458ZM14.4546 10.2728C14.4546 9.82089 14.0882 9.45458 13.6364 9.45458C13.1845 9.45458 12.8182 9.82089 12.8182 10.2728V13.5455C12.8182 13.9974 13.1845 14.3637 13.6364 14.3637C14.0882 14.3637 14.4546 13.9974 14.4546 13.5455V10.2728Z" fill="white"/>
</svg>
