<svg width="24" height="24" viewBox="0 0 24 24" fill="none" xmlns="http://www.w3.org/2000/svg">
<path fill-rule="evenodd" clip-rule="evenodd" d="M11.6027 7.11672C11.9902 7.34921 12.1159 7.85178 11.8834 8.23926L10.1723 11.091H12C12.2947 11.091 12.5667 11.2496 12.712 11.5061C12.8572 11.7626 12.8532 12.0774 12.7016 12.3302L10.247 16.4211C10.0145 16.8085 9.51195 16.9342 9.12448 16.7017C8.737 16.4692 8.61136 15.9666 8.84385 15.5792L10.5549 12.7274H8.72725C8.43248 12.7274 8.1605 12.5688 8.01527 12.3123C7.87004 12.0558 7.87401 11.741 8.02566 11.4883L10.4802 7.39735C10.7127 7.00988 11.2153 6.88424 11.6027 7.11672ZM13.6364 7.00012C13.1845 7.00012 12.8182 7.36643 12.8182 7.8183C12.8182 8.27017 13.1845 8.63648 13.6364 8.63648H15.2727C15.4897 8.63648 15.6978 8.72268 15.8513 8.87612C16.0047 9.02956 16.0909 9.23767 16.0909 9.45466V14.3638C16.0909 14.5807 16.0047 14.7889 15.8513 14.9423C15.6978 15.0957 15.4897 15.1819 15.2727 15.1819H12.8182C12.3663 15.1819 12 15.5482 12 16.0001C12 16.452 12.3663 16.8183 12.8182 16.8183H15.2727C15.9237 16.8183 16.548 16.5597 17.0084 16.0994C17.4687 15.6391 17.7273 15.0147 17.7273 14.3638V9.45466C17.7273 8.80367 17.4687 8.17935 17.0084 7.71904C16.548 7.25872 15.9237 7.00012 15.2727 7.00012H13.6364ZM5.45455 7.00012C4.80356 7.00012 4.17924 7.25873 3.71892 7.71904C3.2586 8.17936 3 8.80368 3 9.45467V14.3638C3 15.0147 3.2586 15.6391 3.71892 16.0994C4.17924 16.5597 4.80356 16.8183 5.45455 16.8183H7.09091C7.54278 16.8183 7.90909 16.452 7.90909 16.0001C7.90909 15.5483 7.54278 15.1819 7.09091 15.1819H5.45455C5.23755 15.1819 5.02944 15.0957 4.876 14.9423C4.72256 14.7889 4.63636 14.5808 4.63636 14.3638V9.45467C4.63636 9.23767 4.72256 9.02956 4.876 8.87613C5.02944 8.72269 5.23755 8.63649 5.45455 8.63649H7.90909C8.36096 8.63649 8.72727 8.27017 8.72727 7.8183C8.72727 7.36643 8.36096 7.00012 7.90909 7.00012H5.45455ZM21 11.091C21 10.6391 20.6337 10.2728 20.1818 10.2728C19.73 10.2728 19.3636 10.6391 19.3636 11.091V12.7274C19.3636 13.1792 19.73 13.5456 20.1818 13.5456C20.6337 13.5456 21 13.1792 21 12.7274V11.091Z" fill="white"/>
</svg>
