<svg width="24" height="24" viewBox="0 0 24 24" fill="none" xmlns="http://www.w3.org/2000/svg">
<path d="M5.40157 7.2V5.6C5.40157 5.17565 5.56749 4.76869 5.86282 4.46863C6.15815 4.16857 6.55871 4 6.97637 4H13.6693L18 8.4V18.4C18 18.8243 17.8341 19.2313 17.5388 19.5314C17.2434 19.8314 16.8429 20 16.4252 20H5.40157M13.2756 4V8.8H18M5.40157 9.44V17.5733M7.40288 10.66H4.40092C4.02937 10.66 3.67304 10.81 3.41032 11.0769C3.1476 11.3438 3 11.7058 3 12.0833C3 12.4608 3.1476 12.8228 3.41032 13.0898C3.67304 13.3567 4.02937 13.5067 4.40092 13.5067H6.40223C6.77377 13.5067 7.1301 13.6566 7.39282 13.9235C7.65555 14.1905 7.80314 14.5525 7.80314 14.93C7.80314 15.3075 7.65555 15.6695 7.39282 15.9364C7.1301 16.2034 6.77377 16.3533 6.40223 16.3533H3" stroke="white" stroke-opacity="0.95" stroke-width="1.5" stroke-linecap="round" stroke-linejoin="round"/>
</svg>
