<svg width="24" height="24" viewBox="0 0 24 24" fill="none" xmlns="http://www.w3.org/2000/svg">
<path fill-rule="evenodd" clip-rule="evenodd" d="M11.95 9.5C10.4312 9.5 9.19998 10.7312 9.19998 12.25C9.19998 13.7688 10.4312 15 11.95 15C13.4688 15 14.7 13.7688 14.7 12.25C14.7 10.7312 13.4688 9.5 11.95 9.5ZM10.3 12.25C10.3 11.3387 11.0387 10.6 11.95 10.6C12.8612 10.6 13.6 11.3387 13.6 12.25C13.6 13.1613 12.8612 13.9 11.95 13.9C11.0387 13.9 10.3 13.1613 10.3 12.25Z" fill="white"/>
<path d="M9.75 16.1C9.02065 16.1 8.32118 16.3898 7.80546 16.9055C7.28973 17.4212 7 18.1207 7 18.85V19.95C7 20.2538 7.24624 20.5 7.55 20.5C7.85376 20.5 8.1 20.2538 8.1 19.95V18.85C8.1 18.4124 8.27384 17.9928 8.58327 17.6833C8.89271 17.3739 9.31239 17.2 9.75 17.2H14.15C14.5876 17.2 15.0073 17.3739 15.3167 17.6833C15.6262 17.9928 15.8 18.4124 15.8 18.85V19.95C15.8 20.2538 16.0462 20.5 16.35 20.5C16.6538 20.5 16.9 20.2538 16.9 19.95V18.85C16.9 18.1207 16.6103 17.4212 16.0945 16.9055C15.5788 16.3898 14.8793 16.1 14.15 16.1H9.75Z" fill="white"/>
<path d="M5 14C5 13.45 5.45 13 6 13C6.55 13 7 13.45 7 14C7 14.55 6.55 15 6 15C5.45 15 5 14.55 5 14Z" fill="white"/>
<path d="M5 10C5 9.45 5.45 9 6 9C6.55 9 7 9.45 7 10C7 10.55 6.55 11 6 11C5.45 11 5 10.55 5 10Z" fill="white"/>
<path d="M2.5 10C2.5 9.72 2.72 9.5 3 9.5C3.28 9.5 3.5 9.72 3.5 10C3.5 10.28 3.28 10.5 3 10.5C2.72 10.5 2.5 10.28 2.5 10Z" fill="white"/>
<path d="M5 6C5 5.45 5.45 5 6 5C6.55 5 7 5.45 7 6C7 6.55 6.55 7 6 7C5.45 7 5 6.55 5 6Z" fill="white"/>
<path d="M21.5 10C21.5 10.28 21.28 10.5 21 10.5C20.72 10.5 20.5 10.28 20.5 10C20.5 9.72 20.72 9.5 21 9.5C21.28 9.5 21.5 9.72 21.5 10Z" fill="white"/>
<path d="M15 6C15 6.55 14.55 7 14 7C13.45 7 13 6.55 13 6C13 5.45 13.45 5 14 5C14.55 5 15 5.45 15 6Z" fill="white"/>
<path d="M14.5 3C14.5 3.28 14.28 3.5 14 3.5C13.72 3.5 13.5 3.28 13.5 3C13.5 2.72 13.72 2.5 14 2.5C14.28 2.5 14.5 2.72 14.5 3Z" fill="white"/>
<path d="M2.5 14C2.5 13.72 2.72 13.5 3 13.5C3.28 13.5 3.5 13.72 3.5 14C3.5 14.28 3.28 14.5 3 14.5C2.72 14.5 2.5 14.28 2.5 14Z" fill="white"/>
<path d="M10.5 3C10.5 3.28 10.28 3.5 10 3.5C9.72 3.5 9.5 3.28 9.5 3C9.5 2.72 9.72 2.5 10 2.5C10.28 2.5 10.5 2.72 10.5 3Z" fill="white"/>
<path d="M11 6C11 6.55 10.55 7 10 7C9.45 7 9 6.55 9 6C9 5.45 9.45 5 10 5C10.55 5 11 5.45 11 6Z" fill="white"/>
<path d="M17 14C17 13.45 17.45 13 18 13C18.55 13 19 13.45 19 14C19 14.55 18.55 15 18 15C17.45 15 17 14.55 17 14Z" fill="white"/>
<path d="M17 10C17 9.45 17.45 9 18 9C18.55 9 19 9.45 19 10C19 10.55 18.55 11 18 11C17.45 11 17 10.55 17 10Z" fill="white"/>
<path d="M17 6C17 5.45 17.45 5 18 5C18.55 5 19 5.45 19 6C19 6.55 18.55 7 18 7C17.45 7 17 6.55 17 6Z" fill="white"/>
<path d="M20.5 14C20.5 13.72 20.72 13.5 21 13.5C21.28 13.5 21.5 13.72 21.5 14C21.5 14.28 21.28 14.5 21 14.5C20.72 14.5 20.5 14.28 20.5 14Z" fill="white"/>
</svg>
