<svg width="24" height="24" viewBox="0 0 24 24" fill="none" xmlns="http://www.w3.org/2000/svg">
<path fill-rule="evenodd" clip-rule="evenodd" d="M8.4 5.6C8.18783 5.6 7.98434 5.68429 7.83431 5.83431C7.68429 5.98434 7.6 6.18783 7.6 6.4V17.8215L12.0031 15.3054C12.249 15.1649 12.551 15.1649 12.7969 15.3054L17.2 17.8215V6.4C17.2 6.18783 17.1157 5.98434 16.9657 5.83431C16.8157 5.68429 16.6122 5.6 16.4 5.6H8.4ZM6.70294 4.70294C7.15303 4.25286 7.76348 4 8.4 4H16.4C17.0365 4 17.647 4.25286 18.0971 4.70294C18.5471 5.15303 18.8 5.76348 18.8 6.4V19.2C18.8 19.4852 18.6482 19.7488 18.4015 19.8919C18.1549 20.0351 17.8507 20.0361 17.6031 19.8946L12.4 16.9214L7.19691 19.8946C6.94931 20.0361 6.64511 20.0351 6.39846 19.8919C6.15181 19.7488 6 19.4852 6 19.2V6.4C6 5.76348 6.25286 5.15303 6.70294 4.70294Z" fill="white"/>
</svg>
