<svg width="24" height="24" viewBox="0 0 24 24" fill="none" xmlns="http://www.w3.org/2000/svg">
<path fill-rule="evenodd" clip-rule="evenodd" d="M3.75 5.25C3.75 4.83579 4.08579 4.5 4.5 4.5H9C9.99456 4.5 10.9484 4.89509 11.6517 5.59835C12.3549 6.30161 12.75 7.25544 12.75 8.25V18.75C12.75 19.1642 12.4142 19.5 12 19.5C11.5858 19.5 11.25 19.1642 11.25 18.75C11.25 18.3522 11.092 17.9706 10.8107 17.6893C10.5294 17.408 10.1478 17.25 9.75 17.25H4.5C4.08579 17.25 3.75 16.9142 3.75 16.5V5.25ZM11.25 16.1519V8.25C11.25 7.65326 11.0129 7.08097 10.591 6.65901C10.169 6.23705 9.59674 6 9 6H5.25V15.75H9.75C10.2812 15.75 10.7978 15.8909 11.25 16.1519Z" fill="white"/>
<path fill-rule="evenodd" clip-rule="evenodd" d="M12.3483 5.59835C13.0516 4.89509 14.0054 4.5 15 4.5H19.5C19.9142 4.5 20.25 4.83579 20.25 5.25V16.5C20.25 16.9142 19.9142 17.25 19.5 17.25H14.25C13.8522 17.25 13.4706 17.408 13.1893 17.6893C12.908 17.9706 12.75 18.3522 12.75 18.75C12.75 19.1642 12.4142 19.5 12 19.5C11.5858 19.5 11.25 19.1642 11.25 18.75V8.25C11.25 7.25544 11.6451 6.30161 12.3483 5.59835ZM12.75 16.1519C13.2022 15.8909 13.7188 15.75 14.25 15.75H18.75V6H15C14.4033 6 13.831 6.23705 13.409 6.65901C12.9871 7.08097 12.75 7.65326 12.75 8.25V16.1519Z" fill="white"/>
</svg>
