<svg width="24" height="24" viewBox="0 0 24 24" fill="none" xmlns="http://www.w3.org/2000/svg">
<path fill-rule="evenodd" clip-rule="evenodd" d="M11.1 8.24485C10.054 7.8721 9.3 6.86983 9.3 5.7C9.3 4.215 10.515 3 12 3C13.485 3 14.7 4.215 14.7 5.7C14.7 6.86982 13.946 7.8721 12.9 8.24484V10.1999H18.3C19.785 10.1999 21 11.4149 21 12.8999V18.2999C21 19.7849 19.785 20.9999 18.3 20.9999H5.7C4.215 20.9999 3 19.7849 3 18.2999V12.8999C3 11.4149 4.215 10.1999 5.7 10.1999H11.1V8.24485ZM12.0059 6.59998L12 6.59996L11.9941 6.59998C11.5018 6.59679 11.1 6.19304 11.1 5.7C11.1 5.205 11.505 4.8 12 4.8C12.495 4.8 12.9 5.205 12.9 5.7C12.9 6.19304 12.4982 6.59679 12.0059 6.59998ZM11.9917 11.9999H5.7C5.205 11.9999 4.8 12.4049 4.8 12.8999V18.2999C4.8 18.7949 5.205 19.1999 5.7 19.1999H18.3C18.795 19.1999 19.2 18.7949 19.2 18.2999V12.8999C19.2 12.4049 18.795 11.9999 18.3 11.9999H12.0083L12 12L11.9917 11.9999ZM8.4 16.5C8.157 16.5 7.932 16.41 7.761 16.239C7.59 16.068 7.5 15.843 7.5 15.6C7.5 15.483 7.527 15.366 7.572 15.258C7.617 15.141 7.68 15.051 7.761 14.961C8.013 14.709 8.409 14.637 8.742 14.772C8.85 14.817 8.949 14.88 9.039 14.961C9.12 15.051 9.183 15.15 9.228 15.258C9.273 15.366 9.3 15.483 9.3 15.6C9.3 15.843 9.21 16.068 9.039 16.239C8.868 16.41 8.643 16.5 8.4 16.5ZM14.961 16.239C15.132 16.41 15.357 16.5 15.6 16.5C15.843 16.5 16.068 16.41 16.239 16.239C16.41 16.068 16.5 15.843 16.5 15.6C16.5 15.483 16.473 15.366 16.428 15.258C16.383 15.141 16.32 15.051 16.239 14.961C16.224 14.949 16.209 14.936 16.194 14.923C16.164 14.897 16.134 14.871 16.104 14.853C16.05 14.817 15.996 14.79 15.942 14.772C15.888 14.745 15.834 14.727 15.771 14.718C15.483 14.655 15.168 14.754 14.961 14.961C14.88 15.051 14.817 15.141 14.772 15.258C14.727 15.366 14.7 15.483 14.7 15.6C14.7 15.843 14.79 16.068 14.961 16.239Z" fill="white"/>
</svg>
