<svg width="24" height="24" viewBox="0 0 24 24" fill="none" xmlns="http://www.w3.org/2000/svg">
<path fill-rule="evenodd" clip-rule="evenodd" d="M10.9317 3.32668C11.3031 3.11266 11.7243 3 12.1529 3C12.5816 3 13.0028 3.11267 13.3742 3.3267L13.3759 3.32769L19.0829 6.58885C19.3846 6.763 19.6447 6.99906 19.8468 7.28048C19.896 7.32971 19.9397 7.3861 19.9762 7.44923C20.0076 7.5036 20.0321 7.56009 20.0499 7.61766C20.2176 7.95475 20.3055 8.32668 20.3059 8.70455V15.2286C20.3054 15.6575 20.1922 16.0787 19.9776 16.4501C19.7629 16.8214 19.4544 17.1298 19.0829 17.3443L19.0798 17.3461L13.3759 20.6054L13.3744 20.6063C13.1158 20.7554 12.833 20.8553 12.5404 20.9022C12.4251 20.9646 12.2932 21 12.1529 21C12.0127 21 11.8808 20.9646 11.7655 20.9022C11.4729 20.8553 11.1901 20.7554 10.9315 20.6063L10.93 20.6054L5.22609 17.3461L5.22294 17.3443C4.85149 17.1298 4.54296 16.8214 4.32831 16.4501C4.11366 16.0787 4.00044 15.6575 4 15.2286V8.70455C4.00039 8.32667 4.08831 7.95474 4.25601 7.61764C4.27378 7.56008 4.29825 7.50359 4.3297 7.44923C4.36621 7.38611 4.40989 7.32972 4.45911 7.2805C4.66118 6.99907 4.92131 6.76301 5.22294 6.58886L5.22608 6.58705L10.9317 3.32668ZM12.9682 18.9604L18.2676 15.9321L18.2689 15.9314C18.3922 15.8599 18.4946 15.7574 18.5659 15.6341C18.6374 15.5103 18.6751 15.3699 18.6753 15.2269V9.14362L12.9682 12.445V18.9604ZM11.3376 12.445V18.9604L6.03823 15.9321L6.03695 15.9314C5.91371 15.8599 5.81133 15.7574 5.74002 15.6341C5.66853 15.5104 5.6308 15.3701 5.63059 15.2273V9.14362L11.3376 12.445ZM12.5606 4.73982L17.8282 7.74988L12.1529 11.0328L6.47768 7.74988L11.7421 4.74163L11.7453 4.73982C11.8692 4.66826 12.0098 4.63059 12.1529 4.63059C12.2961 4.63059 12.4366 4.66827 12.5606 4.73982Z" fill="white"/>
</svg>
