<svg width="24" height="24" viewBox="0 0 24 24" fill="none" xmlns="http://www.w3.org/2000/svg">
<path fill-rule="evenodd" clip-rule="evenodd" d="M8.00002 4.8C8.00002 4.35817 7.64184 4 7.20002 4C6.75819 4 6.40002 4.35817 6.40002 4.8V13.7017C5.85119 13.8434 5.3449 14.1297 4.93726 14.5373C4.33714 15.1374 4 15.9514 4 16.8001C4 17.6488 4.33714 18.4627 4.93726 19.0628C5.53737 19.6629 6.35131 20.0001 7.2 20.0001C8.04869 20.0001 8.86263 19.6629 9.46274 19.0628C10.0629 18.4627 10.4 17.6488 10.4 16.8001C10.4 15.9514 10.0629 15.1374 9.46274 14.5373C9.06432 14.1389 8.57165 13.8564 8.03713 13.7115C8.19335 12.2673 8.83769 10.9113 9.87453 9.87445C10.9113 8.83765 12.2672 8.19332 13.7114 8.03707C13.8563 8.57161 14.1388 9.0643 14.5372 9.46274C15.1374 10.0629 15.9513 10.4 16.8 10.4C17.6487 10.4 18.4626 10.0629 19.0627 9.46274C19.6628 8.86263 20 8.04869 20 7.2C20 6.35131 19.6628 5.53737 19.0627 4.93726C18.4626 4.33714 17.6487 4 16.8 4C15.9513 4 15.1374 4.33714 14.5372 4.93726C14.1219 5.35259 13.8325 5.87034 13.6937 6.43115C11.8309 6.59619 10.0761 7.41017 8.74316 8.74308C8.47392 9.01232 8.22584 9.29879 8.00002 9.59988V4.8ZM7.2 15.2001C6.77565 15.2001 6.36869 15.3686 6.06863 15.6687C5.76857 15.9688 5.6 16.3757 5.6 16.8001C5.6 17.2244 5.76857 17.6314 6.06863 17.9314C6.36869 18.2315 6.77565 18.4001 7.2 18.4001C7.62435 18.4001 8.03131 18.2315 8.33137 17.9314C8.63143 17.6314 8.8 17.2244 8.8 16.8001C8.8 16.3757 8.63143 15.9688 8.33137 15.6687C8.03131 15.3686 7.62435 15.2001 7.2 15.2001ZM16.8 13.6001C17.2418 13.6001 17.6 13.9582 17.6 14.4001V16H19.2C19.6418 16 20 16.3582 20 16.8C20 17.2418 19.6418 17.6 19.2 17.6H17.6V19.2001C17.6 19.6419 17.2418 20.0001 16.8 20.0001C16.3582 20.0001 16 19.6419 16 19.2001V17.6H14.4C13.9582 17.6 13.6 17.2418 13.6 16.8C13.6 16.3582 13.9582 16 14.4 16H16V14.4001C16 13.9582 16.3582 13.6001 16.8 13.6001Z" fill="white"/>
</svg>
