<svg width="20" height="12" viewBox="0 0 20 12" fill="none" xmlns="http://www.w3.org/2000/svg">
<path d="M0.375 11.7002V0.700195H2.80251C3.33471 0.700195 3.78546 0.777442 4.15474 0.931937C4.53489 1.08643 4.84444 1.29242 5.08338 1.54991C5.32233 1.8074 5.49068 2.10609 5.58844 2.44598C5.69705 2.77557 5.75136 3.12061 5.75136 3.48109V3.88278C5.75136 4.18147 5.7242 4.43381 5.6699 4.6398C5.62645 4.84579 5.55585 5.02604 5.4581 5.18053C5.27346 5.46892 4.99106 5.71611 4.61092 5.92211C5.00192 6.0972 5.28975 6.35469 5.47439 6.69458C5.65903 7.03446 5.75136 7.49795 5.75136 8.08503V8.703C5.75136 9.67117 5.50155 10.4127 5.00192 10.9277C4.51316 11.4427 3.72572 11.7002 2.63959 11.7002H0.375ZM2.03678 6.60188V10.1244H2.75363C3.09033 10.1244 3.351 10.078 3.53565 9.98531C3.73115 9.89261 3.87778 9.76387 3.97553 9.59907C4.07328 9.43428 4.13302 9.23858 4.15474 9.01199C4.17646 8.7854 4.18733 8.53821 4.18733 8.27042C4.18733 7.99233 4.17103 7.75029 4.13845 7.5443C4.10587 7.3383 4.0407 7.16321 3.94295 7.01901C3.83433 6.87482 3.6877 6.77182 3.50306 6.71003C3.31842 6.63793 3.07404 6.60188 2.76992 6.60188H2.03678ZM2.03678 2.18334V5.21143H2.78621C3.34014 5.21143 3.70943 5.08269 3.89407 4.82519C4.08957 4.5574 4.18733 4.17117 4.18733 3.66649C4.18733 3.17211 4.07871 2.80132 3.86149 2.55413C3.65512 2.30694 3.27497 2.18334 2.72105 2.18334H2.03678Z" fill="currentColor"/>
<path d="M8.97361 2.18334V5.61312H9.91854C10.2118 5.61312 10.4453 5.57707 10.6191 5.50497C10.7929 5.42257 10.9286 5.30928 11.0264 5.16508C11.1133 5.02089 11.173 4.84579 11.2056 4.6398C11.2382 4.42351 11.2545 4.17632 11.2545 3.89823C11.2545 3.62014 11.2382 3.3781 11.2056 3.1721C11.173 2.95581 11.1079 2.77042 11.0101 2.61593C10.8037 2.32754 10.4127 2.18334 9.83708 2.18334H8.97361ZM7.31182 11.7002V0.700195H9.98371C11.9387 0.700195 12.9163 1.77651 12.9163 3.92913C12.9163 4.578 12.8077 5.12903 12.5904 5.58222C12.3841 6.0354 12.0148 6.40104 11.4826 6.67913L13.2747 11.7002H11.5152L9.96742 7.00357H8.97361V11.7002H7.31182Z" fill="currentColor"/>
<path d="M14.2486 11.7002V0.700195H16.6762C17.2084 0.700195 17.6591 0.777442 18.0284 0.931937C18.4085 1.08643 18.7181 1.29242 18.957 1.54991C19.196 1.8074 19.3643 2.10609 19.4621 2.44598C19.5707 2.77557 19.625 3.12061 19.625 3.48109V3.88278C19.625 4.18147 19.5978 4.43381 19.5435 4.6398C19.5001 4.84579 19.4295 5.02604 19.3317 5.18053C19.1471 5.46892 18.8647 5.71611 18.4846 5.92211C18.8756 6.0972 19.1634 6.35469 19.348 6.69458C19.5327 7.03446 19.625 7.49795 19.625 8.08503V8.703C19.625 9.67117 19.3752 10.4127 18.8756 10.9277C18.3868 11.4427 17.5994 11.7002 16.5132 11.7002H14.2486ZM15.9104 6.60188V10.1244H16.6273C16.964 10.1244 17.2246 10.078 17.4093 9.98531C17.6048 9.89261 17.7514 9.76387 17.8492 9.59907C17.9469 9.43428 18.0067 9.23858 18.0284 9.01199C18.0501 8.7854 18.061 8.53821 18.061 8.27042C18.061 7.99233 18.0447 7.75029 18.0121 7.5443C17.9795 7.3383 17.9143 7.16321 17.8166 7.01901C17.708 6.87482 17.5613 6.77182 17.3767 6.71003C17.1921 6.63793 16.9477 6.60188 16.6436 6.60188H15.9104ZM15.9104 2.18334V5.21143H16.6599C17.2138 5.21143 17.5831 5.08269 17.7677 4.82519C17.9632 4.5574 18.061 4.17117 18.061 3.66649C18.061 3.17211 17.9524 2.80132 17.7351 2.55413C17.5288 2.30694 17.1486 2.18334 16.5947 2.18334H15.9104Z" fill="currentColor"/>
</svg>
