<svg width="24" height="24" viewBox="0 0 24 24" fill="none" xmlns="http://www.w3.org/2000/svg">
<path fill-rule="evenodd" clip-rule="evenodd" d="M17.8413 4.63469C18.0419 4.6331 18.2408 4.67143 18.4264 4.74746C18.612 4.82348 18.7807 4.93568 18.9225 5.07751C19.0643 5.21935 19.1765 5.38799 19.2525 5.57361C19.3286 5.75923 19.3669 5.95812 19.3653 6.1587C19.3637 6.35928 19.3222 6.55754 19.2433 6.74193C19.1643 6.92632 19.0494 7.09315 18.9054 7.23272L18.8954 7.24254L12.3078 13.8465C11.989 14.1661 11.9896 14.6836 12.3092 15.0024C12.6288 15.3212 13.1463 15.3205 13.4651 15.0009L20.0481 8.40156C20.3454 8.11219 20.5826 7.76686 20.7459 7.38543C20.9102 7.0017 20.9966 6.58911 20.9999 6.17169C21.0032 5.75426 20.9234 5.34035 20.7652 4.95406C20.607 4.56777 20.3735 4.21682 20.0784 3.92164C19.7832 3.62647 19.4322 3.39298 19.0459 3.23477C18.6596 3.07656 18.2457 2.99678 17.8283 3.0001C17.4109 3.00342 16.9983 3.08975 16.6146 3.25408C16.2331 3.41746 15.8877 3.65468 15.5982 3.95207L9.00687 10.5353C8.68749 10.8543 8.68717 11.3718 9.00616 11.6911C9.32514 12.0105 9.84264 12.0108 10.162 11.6919L16.7578 5.10425L16.7673 5.09463C16.9068 4.95056 17.0737 4.8357 17.2581 4.75674C17.4425 4.67777 17.6407 4.63629 17.8413 4.63469ZM7.95798 12.7809C6.14477 12.7809 4.68908 14.2552 4.68869 16.0658C4.68491 16.0728 4.67118 16.0946 4.63377 16.1297C4.54268 16.2152 4.39361 16.3055 4.17515 16.4128C4.10716 16.4462 4.05578 16.4704 4.0011 16.4961L4.00108 16.4961C3.95743 16.5166 3.91168 16.5382 3.85368 16.5662C3.75228 16.6151 3.62006 16.681 3.50236 16.7591C3.41694 16.8158 3.17109 16.9827 3.05738 17.2912C2.98917 17.4763 2.97873 17.6849 3.04254 17.8883C3.10054 18.0732 3.20463 18.2059 3.29001 18.292C4.23328 19.2522 5.58379 20.1859 7.14066 20.1859C9.39502 20.1859 11.2266 18.3441 11.2273 16.0678V16.0666H10.4099L11.2273 16.0693L11.2273 16.0678C11.2285 15.6379 11.1452 15.212 10.982 14.8142C10.8186 14.416 10.5784 14.0539 10.275 13.7486C9.97169 13.4432 9.61119 13.2006 9.21409 13.0346C8.817 12.8685 8.39109 12.7824 7.96069 12.7809L7.95798 13.5983V12.7809ZM3.29001 18.292L3.28816 18.2902L3.87137 17.7176L3.29343 18.2955L3.29001 18.292ZM4.68869 16.0658L4.68941 16.0645C4.68952 16.0642 4.68923 16.0658 4.68899 16.0666C4.68883 16.0671 4.68869 16.0673 4.68869 16.0666L4.68869 16.0658ZM6.32333 16.0666C6.32333 15.1482 7.05718 14.4163 7.95662 14.4156C8.1719 14.4165 8.38491 14.4597 8.58353 14.5427C8.78257 14.6259 8.96327 14.7475 9.11532 14.9006C9.26736 15.0537 9.38777 15.2352 9.46967 15.4347C9.55156 15.6343 9.59334 15.8481 9.59262 16.0638V16.0666C9.59262 17.4513 8.48208 18.5512 7.14066 18.5512C6.47393 18.5512 5.78404 18.2461 5.13962 17.7539C5.33751 17.6448 5.55871 17.5035 5.75249 17.3216C6.04769 17.0445 6.32333 16.6294 6.32333 16.0666ZM4.4064 18.121L4.41209 18.1174C4.3958 18.1303 4.39101 18.1312 4.4064 18.121Z" fill="white"/>
</svg>
