<svg width="24" height="24" viewBox="0 0 24 24" fill="none" xmlns="http://www.w3.org/2000/svg">
<path fill-rule="evenodd" clip-rule="evenodd" d="M7.45455 4.63636C7.00268 4.63636 6.63636 5.00268 6.63636 5.45455V18.5455C6.63636 18.9973 7.00268 19.3636 7.45455 19.3636H9.09085V16.909C9.09085 16.4572 9.45716 16.0908 9.90903 16.0908H14.8181C15.27 16.0908 15.6363 16.4572 15.6363 16.909V19.3636H17.2727C17.7246 19.3636 18.0909 18.9973 18.0909 18.5455V5.45455C18.0909 5.00268 17.7246 4.63636 17.2727 4.63636H7.45455ZM13.9999 19.3636H10.7272V17.7272H13.9999V19.3636ZM5 5.45455C5 4.09894 6.09894 3 7.45455 3H17.2727C18.6283 3 19.7273 4.09894 19.7273 5.45455V18.5455C19.7273 19.9011 18.6283 21 17.2727 21H7.45455C6.09894 21 5 19.9011 5 18.5455V5.45455ZM9.09089 6.27271C8.63902 6.27271 8.27271 6.63902 8.27271 7.09089C8.27271 7.54276 8.63902 7.90907 9.09089 7.90907H9.09908C9.55094 7.90907 9.91726 7.54276 9.91726 7.09089C9.91726 6.63902 9.55094 6.27271 9.09908 6.27271H9.09089ZM14.8181 7.09089C14.8181 6.63902 15.1844 6.27271 15.6363 6.27271H15.6445C16.0964 6.27271 16.4627 6.63902 16.4627 7.09089C16.4627 7.54276 16.0964 7.90907 15.6445 7.90907H15.6363C15.1844 7.90907 14.8181 7.54276 14.8181 7.09089ZM12.3636 6.27271C11.9117 6.27271 11.5454 6.63902 11.5454 7.09089C11.5454 7.54276 11.9117 7.90907 12.3636 7.90907H12.3718C12.8237 7.90907 13.19 7.54276 13.19 7.09089C13.19 6.63902 12.8237 6.27271 12.3718 6.27271H12.3636ZM11.5454 10.3636C11.5454 9.91174 11.9117 9.54542 12.3636 9.54542H12.3718C12.8237 9.54542 13.19 9.91174 13.19 10.3636C13.19 10.8155 12.8237 11.1818 12.3718 11.1818H12.3636C11.9117 11.1818 11.5454 10.8155 11.5454 10.3636ZM12.3636 12.8181C11.9117 12.8181 11.5454 13.1844 11.5454 13.6363C11.5454 14.0882 11.9117 14.4545 12.3636 14.4545H12.3718C12.8237 14.4545 13.19 14.0882 13.19 13.6363C13.19 13.1844 12.8237 12.8181 12.3718 12.8181H12.3636ZM14.8181 10.3636C14.8181 9.91174 15.1844 9.54542 15.6363 9.54542H15.6445C16.0964 9.54542 16.4627 9.91174 16.4627 10.3636C16.4627 10.8155 16.0964 11.1818 15.6445 11.1818H15.6363C15.1844 11.1818 14.8181 10.8155 14.8181 10.3636ZM15.6363 12.8181C15.1844 12.8181 14.8181 13.1844 14.8181 13.6363C14.8181 14.0882 15.1844 14.4545 15.6363 14.4545H15.6445C16.0964 14.4545 16.4627 14.0882 16.4627 13.6363C16.4627 13.1844 16.0964 12.8181 15.6445 12.8181H15.6363ZM8.27271 10.3636C8.27271 9.91174 8.63902 9.54542 9.09089 9.54542H9.09908C9.55094 9.54542 9.91726 9.91174 9.91726 10.3636C9.91726 10.8155 9.55094 11.1818 9.09908 11.1818H9.09089C8.63902 11.1818 8.27271 10.8155 8.27271 10.3636ZM9.09089 12.8181C8.63902 12.8181 8.27271 13.1844 8.27271 13.6363C8.27271 14.0882 8.63902 14.4545 9.09089 14.4545H9.09908C9.55094 14.4545 9.91726 14.0882 9.91726 13.6363C9.91726 13.1844 9.55094 12.8181 9.09908 12.8181H9.09089Z" fill="white"/>
</svg>
