<svg width="24" height="24" viewBox="0 0 24 24" fill="none" xmlns="http://www.w3.org/2000/svg">
<path fill-rule="evenodd" clip-rule="evenodd" d="M6.63636 5.45455C6.63636 5.00268 7.00268 4.63636 7.45455 4.63636H17.2727C17.7246 4.63636 18.0909 5.00268 18.0909 5.45455V18.5455C18.0909 18.9973 17.7246 19.3636 17.2727 19.3636H7.45455C7.00268 19.3636 6.63636 18.9973 6.63636 18.5455V5.45455ZM7.45455 3C6.09894 3 5 4.09894 5 5.45455V18.5455C5 19.9011 6.09894 21 7.45455 21H17.2727C18.6283 21 19.7273 19.9011 19.7273 18.5455V5.45455C19.7273 4.09894 18.6283 3 17.2727 3H7.45455ZM9.09089 6.27271C8.63902 6.27271 8.27271 6.63902 8.27271 7.09089C8.27271 7.54276 8.63902 7.90907 9.09089 7.90907H15.6363C16.0882 7.90907 16.4545 7.54276 16.4545 7.09089C16.4545 6.63902 16.0882 6.27271 15.6363 6.27271H9.09089ZM15.6364 12.8181C16.0882 12.8181 16.4545 13.1844 16.4545 13.6363V16.909C16.4545 17.3609 16.0882 17.7272 15.6364 17.7272C15.1845 17.7272 14.8182 17.3609 14.8182 16.909V13.6363C14.8182 13.1844 15.1845 12.8181 15.6364 12.8181ZM15.6364 9.54542C15.1845 9.54542 14.8182 9.91174 14.8182 10.3636C14.8182 10.8155 15.1845 11.1818 15.6364 11.1818H15.6445C16.0964 11.1818 16.4627 10.8155 16.4627 10.3636C16.4627 9.91174 16.0964 9.54542 15.6445 9.54542H15.6364ZM11.5455 10.3636C11.5455 9.91174 11.9118 9.54542 12.3636 9.54542H12.3718C12.8237 9.54542 13.19 9.91174 13.19 10.3636C13.19 10.8155 12.8237 11.1818 12.3718 11.1818H12.3636C11.9118 11.1818 11.5455 10.8155 11.5455 10.3636ZM9.09089 9.54542C8.63902 9.54542 8.27271 9.91174 8.27271 10.3636C8.27271 10.8155 8.63902 11.1818 9.09089 11.1818H9.09908C9.55094 11.1818 9.91726 10.8155 9.91726 10.3636C9.91726 9.91174 9.55094 9.54542 9.09908 9.54542H9.09089ZM11.5455 13.6363C11.5455 13.1844 11.9118 12.8181 12.3636 12.8181H12.3718C12.8237 12.8181 13.19 13.1844 13.19 13.6363C13.19 14.0882 12.8237 14.4545 12.3718 14.4545H12.3636C11.9118 14.4545 11.5455 14.0882 11.5455 13.6363ZM9.09089 12.8181C8.63902 12.8181 8.27271 13.1844 8.27271 13.6363C8.27271 14.0882 8.63902 14.4545 9.09089 14.4545H9.09908C9.55094 14.4545 9.91726 14.0882 9.91726 13.6363C9.91726 13.1844 9.55094 12.8181 9.09908 12.8181H9.09089ZM11.5455 16.909C11.5455 16.4572 11.9118 16.0908 12.3636 16.0908H12.3718C12.8237 16.0908 13.19 16.4572 13.19 16.909C13.19 17.3609 12.8237 17.7272 12.3718 17.7272H12.3636C11.9118 17.7272 11.5455 17.3609 11.5455 16.909ZM9.09089 16.0908C8.63902 16.0908 8.27271 16.4572 8.27271 16.909C8.27271 17.3609 8.63902 17.7272 9.09089 17.7272H9.09908C9.55094 17.7272 9.91726 17.3609 9.91726 16.909C9.91726 16.4572 9.55094 16.0908 9.09908 16.0908H9.09089Z" fill="white"/>
</svg>
