<svg width="24" height="24" viewBox="0 0 24 24" fill="none" xmlns="http://www.w3.org/2000/svg">
<path fill-rule="evenodd" clip-rule="evenodd" d="M16.2727 3.81818C16.2727 3.36631 15.9064 3 15.4545 3C15.0027 3 14.6364 3.36631 14.6364 3.81818V4.63636H9.72727V3.81818C9.72727 3.36631 9.36095 3 8.90909 3C8.45722 3 8.0909 3.36631 8.0909 3.81818V4.63636H6.45455C5.09894 4.63636 4 5.73529 4 7.0909V10.3636V18.5454C4 19.9011 5.09894 21 6.45455 21H17.9091C19.2647 21 20.3636 19.9011 20.3636 18.5454V10.3636V7.0909C20.3636 5.73529 19.2647 4.63636 17.9091 4.63636H16.2727V3.81818ZM18.7273 9.54545V7.0909C18.7273 6.63903 18.361 6.27272 17.9091 6.27272H16.2727V7.09091C16.2727 7.54278 15.9064 7.90909 15.4545 7.90909C15.0027 7.90909 14.6364 7.54278 14.6364 7.09091V6.27272H9.72727V7.09091C9.72727 7.54278 9.36095 7.90909 8.90909 7.90909C8.45722 7.90909 8.0909 7.54278 8.0909 7.09091V6.27272H6.45455C6.00268 6.27272 5.63636 6.63903 5.63636 7.0909V9.54545H18.7273ZM5.63636 11.1818H18.7273V18.5454C18.7273 18.9973 18.361 19.3636 17.9091 19.3636H6.45455C6.00268 19.3636 5.63636 18.9973 5.63636 18.5454V11.1818Z" fill="white"/>
</svg>
