<svg width="18" height="14" viewBox="0 0 18 14" fill="currentColor" xmlns="http://www.w3.org/2000/svg">
<path fill-rule="evenodd" clip-rule="evenodd" d="M4.63476 0.333313H13.3649C15.5565 0.333313 17.3332 2.10996 17.3332 4.30157V9.06347C17.3332 11.2551 15.5565 13.0317 13.3649 13.0317H4.63476C2.44315 13.0317 0.666504 11.2551 0.666504 9.06347V4.30157C0.666504 2.10996 2.44315 0.333313 4.63476 0.333313ZM1.85698 4.30157C1.85698 2.76744 3.10063 1.52379 4.63476 1.52379H13.3649C14.899 1.52379 16.1427 2.76744 16.1427 4.30157V9.06347C16.1427 10.5976 14.899 11.8412 13.3649 11.8412H4.63476C3.10063 11.8412 1.85698 10.5976 1.85698 9.06347V4.30157Z" fill="currentColor"/>
<path d="M6.15288 9.46028C5.5886 9.46028 5.10406 9.34235 4.69925 9.10649C4.29689 8.87063 3.98654 8.54486 3.76818 8.12919C3.55228 7.71118 3.44434 7.23012 3.44434 6.686C3.44434 6.13956 3.55474 5.65733 3.77554 5.23932C3.99635 4.81897 4.30793 4.49204 4.71029 4.25851C5.1151 4.02265 5.59351 3.90472 6.14552 3.90472C6.60431 3.90472 7.01034 3.98529 7.36363 4.14642C7.71937 4.30522 8.00274 4.53057 8.21373 4.82248C8.42472 5.11205 8.54494 5.45066 8.57438 5.83831H7.30107C7.24955 5.5791 7.12688 5.36309 6.93306 5.19028C6.7417 5.01513 6.48532 4.92756 6.16392 4.92756C5.8916 4.92756 5.65239 4.99762 5.4463 5.13773C5.24022 5.27551 5.07952 5.47401 4.96421 5.73322C4.85136 5.99244 4.79493 6.30302 4.79493 6.66499C4.79493 7.03162 4.85136 7.34688 4.96421 7.61076C5.07707 7.87231 5.23531 8.07431 5.43894 8.21676C5.64503 8.35687 5.88669 8.42693 6.16392 8.42693C6.36019 8.42693 6.53561 8.3919 6.69017 8.32185C6.84719 8.24945 6.97845 8.14554 7.08394 8.01009C7.18944 7.87465 7.26182 7.71001 7.30107 7.51618H8.57438C8.54249 7.89683 8.42472 8.23427 8.22109 8.52852C8.01746 8.82042 7.74023 9.04928 7.38939 9.21508C7.03856 9.37855 6.62639 9.46028 6.15288 9.46028Z" fill="currentColor"/>
<path d="M12.1339 9.46028C11.5697 9.46028 11.0851 9.34235 10.6803 9.10649C10.278 8.87063 9.9676 8.54486 9.74925 8.12919C9.53335 7.71118 9.4254 7.23012 9.4254 6.686C9.4254 6.13956 9.5358 5.65733 9.75661 5.23932C9.97741 4.81897 10.289 4.49204 10.6914 4.25851C11.0962 4.02265 11.5746 3.90472 12.1266 3.90472C12.5854 3.90472 12.9914 3.98529 13.3447 4.14642C13.7004 4.30522 13.9838 4.53057 14.1948 4.82248C14.4058 5.11205 14.526 5.45066 14.5554 5.83831H13.2821C13.2306 5.5791 13.1079 5.36309 12.9141 5.19028C12.7228 5.01513 12.4664 4.92756 12.145 4.92756C11.8727 4.92756 11.6335 4.99762 11.4274 5.13773C11.2213 5.27551 11.0606 5.47401 10.9453 5.73322C10.8324 5.99244 10.776 6.30302 10.776 6.66499C10.776 7.03162 10.8324 7.34688 10.9453 7.61076C11.0581 7.87231 11.2164 8.07431 11.42 8.21676C11.6261 8.35687 11.8678 8.42693 12.145 8.42693C12.3413 8.42693 12.5167 8.3919 12.6712 8.32185C12.8283 8.24945 12.9595 8.14554 13.065 8.01009C13.1705 7.87465 13.2429 7.71001 13.2821 7.51618H14.5554C14.5236 7.89683 14.4058 8.23427 14.2022 8.52852C13.9985 8.82042 13.7213 9.04928 13.3705 9.21508C13.0196 9.37855 12.6075 9.46028 12.1339 9.46028Z" fill="currentColor"/>
</svg>
