<svg width="24" height="24" viewBox="0 0 24 24" fill="none" xmlns="http://www.w3.org/2000/svg">
<path d="M3 9.75H22M4.9 5H20.1C21.1493 5 22 5.85066 22 6.9V16.4C22 17.4493 21.1493 18.3 20.1 18.3H4.9C3.85066 18.3 3 17.4493 3 16.4V6.9C3 5.85066 3.85066 5 4.9 5Z" stroke="white" stroke-opacity="0.95" stroke-width="1.5" stroke-linecap="round" stroke-linejoin="round"/>
<path d="M18.2929 12.2929C18.4804 12.1054 18.7348 12 19 12C19.2652 12 19.5196 12.1054 19.7071 12.2929C19.8946 12.4804 20 12.7348 20 13C20 13.2652 19.8946 13.5196 19.7071 13.7071C19.5196 13.8946 19.2652 14 19 14C18.7348 14 18.4804 13.8946 18.2929 13.7071C18.1054 13.5196 18 13.2652 18 13C18 12.7348 18.1054 12.4804 18.2929 12.2929Z" fill="white"/>
<path d="M15.7929 12.2929C15.9804 12.1054 16.2348 12 16.5 12C16.7652 12 17.0196 12.1054 17.2071 12.2929C17.3946 12.4804 17.5 12.7348 17.5 13C17.5 13.2652 17.3946 13.5196 17.2071 13.7071C17.0196 13.8946 16.7652 14 16.5 14C16.2348 14 15.9804 13.8946 15.7929 13.7071C15.6054 13.5196 15.5 13.2652 15.5 13C15.5 12.7348 15.6054 12.4804 15.7929 12.2929Z" fill="white"/>
<path d="M13.2929 12.2929C13.4804 12.1054 13.7348 12 14 12C14.2652 12 14.5196 12.1054 14.7071 12.2929C14.8946 12.4804 15 12.7348 15 13C15 13.2652 14.8946 13.5196 14.7071 13.7071C14.5196 13.8946 14.2652 14 14 14C13.7348 14 13.4804 13.8946 13.2929 13.7071C13.1054 13.5196 13 13.2652 13 13C13 12.7348 13.1054 12.4804 13.2929 12.2929Z" fill="white"/>
</svg>
