<svg width="24" height="24" viewBox="0 0 24 24" fill="none" xmlns="http://www.w3.org/2000/svg">
<path fill-rule="evenodd" clip-rule="evenodd" d="M2.83333 2C2.3731 2 2 2.3731 2 2.83333C2 3.29357 2.3731 3.66667 2.83333 3.66667H5.4836L6.17663 7.12923C6.18032 7.15294 6.18501 7.17633 6.19066 7.19933L7.58277 14.1547C7.69719 14.7299 8.0102 15.2466 8.46706 15.6144C8.92183 15.9805 9.49031 16.1758 10.0739 16.1667H18.1595C18.743 16.1758 19.3115 15.9805 19.7663 15.6144C20.2233 15.2465 20.5364 14.7295 20.6507 14.154L21.9852 7.15611C22.0318 6.91215 21.9671 6.66015 21.8087 6.46879C21.6504 6.27744 21.415 6.16667 21.1667 6.16667H7.68369L6.98379 2.66979C6.90584 2.28032 6.56385 2 6.16667 2H2.83333ZM9.21737 13.8293L8.01727 7.83333H20.1594L19.0154 13.832C18.9769 14.0228 18.8728 14.194 18.7212 14.3161C18.5688 14.4387 18.3782 14.5039 18.1826 14.5001L18.1667 14.5H10.0667L10.0507 14.5001C9.85515 14.5039 9.66452 14.4387 9.51217 14.3161C9.35983 14.1935 9.25547 14.0211 9.21737 13.8293ZM7.83336 19.5C7.83336 18.5795 8.57955 17.8333 9.50003 17.8333C10.4205 17.8333 11.1667 18.5795 11.1667 19.5C11.1667 20.4205 10.4205 21.1667 9.50003 21.1667C8.57955 21.1667 7.83336 20.4205 7.83336 19.5ZM17 19.5C17 18.5795 17.7462 17.8333 18.6667 17.8333C19.5871 17.8333 20.3333 18.5795 20.3333 19.5C20.3333 20.4205 19.5871 21.1667 18.6667 21.1667C17.7462 21.1667 17 20.4205 17 19.5Z" fill="white"/>
</svg>
