<svg width="24" height="24" viewBox="0 0 24 24" fill="none" xmlns="http://www.w3.org/2000/svg">
<path fill-rule="evenodd" clip-rule="evenodd" d="M20 13.1666V15.4286C20 15.8616 19.828 16.2769 19.5218 16.583C19.2156 16.8892 18.8004 17.0612 18.3673 17.0612H11.7279L7.98367 19.8694C7.78578 20.0178 7.52103 20.0417 7.29978 19.9311C7.07853 19.8204 6.93878 19.5943 6.93878 19.3469V17.0612H5.63265C5.19965 17.0612 4.78437 16.8892 4.47819 16.583C4.17201 16.2769 4 15.8616 4 15.4286V5.63265C4 5.19965 4.17201 4.78437 4.47819 4.47819C4.78437 4.17201 5.19965 4 5.63265 4H10.8334C10.6526 4.41586 10.5111 4.8528 10.4138 5.30612H5.63265C5.54605 5.30612 5.463 5.34052 5.40176 5.40176C5.34052 5.463 5.30612 5.54605 5.30612 5.63265V15.4286C5.30612 15.5152 5.34052 15.5982 5.40176 15.6595C5.463 15.7207 5.54605 15.7551 5.63265 15.7551H7.59184C7.95251 15.7551 8.2449 16.0475 8.2449 16.4082V18.0408L11.1184 15.8857C11.2314 15.8009 11.3689 15.7551 11.5102 15.7551H18.3673C18.4539 15.7551 18.537 15.7207 18.5982 15.6595C18.6595 15.5982 18.6939 15.5152 18.6939 15.4286V13.5862C19.1472 13.4889 19.5841 13.3475 20 13.1666Z" fill="white"/>
<rect x="12" y="2" width="10" height="10" rx="5" fill="#2F80FF"/>
</svg>