<svg width="24" height="24" viewBox="0 0 24 24" fill="none" xmlns="http://www.w3.org/2000/svg">
<path fill-rule="evenodd" clip-rule="evenodd" d="M12 3C7.02931 3 3 7.02931 3 12C3 16.9707 7.02931 21 12 21C16.9707 21 21 16.9707 21 12C21 7.02931 16.9707 3 12 3ZM4.63636 12C4.63636 7.93305 7.93305 4.63636 12 4.63636C16.0669 4.63636 19.3636 7.93305 19.3636 12C19.3636 16.0669 16.0669 19.3636 12 19.3636C7.93305 19.3636 4.63636 16.0669 4.63636 12ZM15.0331 10.9421C15.3526 10.6226 15.3526 10.1046 15.0331 9.78506C14.7136 9.46554 14.1955 9.46554 13.876 9.78506L11.1818 12.4792L10.124 11.4214C9.80449 11.1019 9.28645 11.1019 8.96693 11.4214C8.64741 11.7409 8.64741 12.259 8.96693 12.5785L10.6033 14.2149C10.9228 14.5344 11.4409 14.5344 11.7604 14.2149L15.0331 10.9421Z" fill="white"/>
</svg>
