<svg width="24" height="24" viewBox="0 0 24 24" fill="none" xmlns="http://www.w3.org/2000/svg">
<path d="M8.84367 19.434C9.30782 19.4734 9.68323 19.3112 9.96914 18.9561L20.6004 6.94447C20.8088 6.67107 20.9085 6.43254 20.9285 6.19609C20.9813 5.5743 20.5798 5.10803 19.9492 5.05455C19.5201 5.01815 19.244 5.1535 18.9464 5.54282L9.0205 16.8293L4.66648 11.4234C4.43272 11.0595 4.17312 10.8964 3.78779 10.8637C3.15724 10.8102 2.66396 11.2182 2.61196 11.8313C2.58893 12.1028 2.66298 12.3737 2.86765 12.6645L7.80527 18.7814C8.0791 19.1927 8.38827 19.3954 8.84367 19.434Z" fill="white"/>
</svg>
