<svg width="24" height="24" viewBox="0 0 24 24" fill="none" xmlns="http://www.w3.org/2000/svg">
<path d="M6.43927 12C6.44806 12.3076 6.56232 12.5889 6.80841 12.8174L13.6463 19.4971C13.8397 19.6904 14.0858 19.7959 14.3758 19.7959C14.9559 19.7959 15.4217 19.3389 15.4217 18.7588C15.4217 18.4775 15.3074 18.2051 15.1053 18.0029L8.94415 12.0088L15.1053 5.99707C15.2986 5.79492 15.4217 5.53125 15.4217 5.24121C15.4217 4.66113 14.9559 4.2041 14.3758 4.2041C14.0858 4.2041 13.8397 4.30957 13.6463 4.50293L6.80841 11.1914C6.56232 11.4287 6.43927 11.6924 6.43927 12Z" fill="white"/>
</svg>
