<svg width="24" height="24" viewBox="0 0 24 24" fill="none" xmlns="http://www.w3.org/2000/svg">
<path d="M12 6.78092C11.6924 6.78971 11.4111 6.90397 11.1826 7.15006L4.50293 13.988C4.30957 14.1813 4.2041 14.4274 4.2041 14.7174C4.2041 15.2975 4.66113 15.7633 5.24121 15.7633C5.52246 15.7633 5.79492 15.6491 5.99707 15.4469L11.9912 9.2858L18.0029 15.4469C18.2051 15.6403 18.4688 15.7633 18.7588 15.7633C19.3389 15.7633 19.7959 15.2975 19.7959 14.7174C19.7959 14.4274 19.6904 14.1813 19.4971 13.988L12.8086 7.15006C12.5713 6.90397 12.3076 6.78092 12 6.78092Z" fill="white"/>
</svg>
