<svg width="24" height="24" viewBox="0 0 24 24" fill="none" xmlns="http://www.w3.org/2000/svg">
<path d="M12 17.3197C12.3076 17.3109 12.5889 17.1967 12.8174 16.9506L19.4971 10.1127C19.6904 9.91932 19.7959 9.67323 19.7959 9.38319C19.7959 8.80311 19.3389 8.33729 18.7588 8.33729C18.4775 8.33729 18.2051 8.45155 18.0029 8.6537L12.0088 14.8148L5.99707 8.6537C5.79492 8.46034 5.53125 8.33729 5.24121 8.33729C4.66113 8.33729 4.2041 8.80311 4.2041 9.38319C4.2041 9.67323 4.30957 9.91932 4.50293 10.1127L11.1914 16.9506C11.4287 17.1967 11.6924 17.3197 12 17.3197Z" fill="white"/>
</svg>
