<svg width="24" height="24" viewBox="0 0 24 24" fill="none" xmlns="http://www.w3.org/2000/svg">
<path d="M17.5421 12C17.5334 12.3076 17.4191 12.5889 17.173 12.8174L10.3351 19.4971C10.1418 19.6904 9.89566 19.7959 9.60562 19.7959C9.02554 19.7959 8.55972 19.3389 8.55972 18.7588C8.55972 18.4775 8.67398 18.2051 8.87613 18.0029L15.0373 12.0088L8.87613 5.99707C8.68277 5.79492 8.55972 5.53125 8.55972 5.24121C8.55972 4.66113 9.02554 4.2041 9.60562 4.2041C9.89566 4.2041 10.1418 4.30957 10.3351 4.50293L17.173 11.1914C17.4191 11.4287 17.5421 11.6924 17.5421 12Z" fill="white"/>
</svg>
