<svg width="24" height="24" viewBox="0 0 24 24" fill="none" xmlns="http://www.w3.org/2000/svg">
<path fill-rule="evenodd" clip-rule="evenodd" d="M14.7649 4.59218C14.131 4.59218 13.5231 4.84398 13.0748 5.2922L5.7588 12.6083C5.01182 13.3552 4.59218 14.3683 4.59218 15.4247C4.59218 16.4811 5.01182 17.4942 5.7588 18.2412C6.50577 18.9882 7.51889 19.4078 8.57527 19.4078C9.63166 19.4078 10.6448 18.9882 11.3917 18.2412L18.7078 10.9252C19.0187 10.6143 19.5227 10.6143 19.8336 10.9252C20.1445 11.236 20.1445 11.7401 19.8336 12.051L12.5176 19.367C11.472 20.4126 10.0539 21 8.57527 21C7.09662 21 5.67853 20.4126 4.63296 19.367C3.58739 18.3215 3 16.9034 3 15.4247C3 13.9461 3.58739 12.528 4.63296 11.4824L11.949 4.16636C12.6958 3.41955 13.7087 3 14.7649 3C15.821 3 16.8339 3.41955 17.5807 4.16636C18.3275 4.91317 18.7471 5.92606 18.7471 6.98221C18.7471 8.03836 18.3275 9.05125 17.5807 9.79806L10.2567 17.1141C9.80864 17.5622 9.20096 17.8139 8.56731 17.8139C7.93367 17.8139 7.32598 17.5622 6.87793 17.1141C6.42988 16.6661 6.17816 16.0584 6.17816 15.4247C6.17816 14.7911 6.42988 14.1834 6.87793 13.7353L13.637 6.98418C13.9481 6.67347 14.4522 6.67377 14.7629 6.98485C15.0736 7.29592 15.0733 7.79998 14.7622 8.11068L8.00377 14.8612C7.85451 15.0106 7.77034 15.2135 7.77034 15.4247C7.77034 15.6361 7.85431 15.8388 8.00377 15.9883C8.15323 16.1377 8.35594 16.2217 8.56731 16.2217C8.77868 16.2217 8.9814 16.1377 9.13086 15.9883L16.4549 8.67222C16.9029 8.22403 17.1549 7.61594 17.1549 6.98221C17.1549 6.34833 16.9031 5.74042 16.4549 5.2922C16.0066 4.84398 15.3987 4.59218 14.7649 4.59218Z" fill="white"/>
</svg>
