<svg width="24" height="24" viewBox="0 0 24 24" fill="none" xmlns="http://www.w3.org/2000/svg">
<path fill-rule="evenodd" clip-rule="evenodd" d="M4.63636 12C4.63636 7.93318 7.93318 4.63636 12 4.63636C16.0668 4.63636 19.3636 7.93318 19.3636 12C19.3636 16.0668 16.0668 19.3636 12 19.3636C7.93318 19.3636 4.63636 16.0668 4.63636 12ZM12 3C7.02944 3 3 7.02944 3 12C3 16.9706 7.02944 21 12 21C16.9706 21 21 16.9706 21 12C21 7.02944 16.9706 3 12 3ZM12.8182 7.09092C12.8182 6.63905 12.4519 6.27273 12 6.27273C11.5481 6.27273 11.1818 6.63905 11.1818 7.09092V12C11.1818 12.1533 11.2249 12.3036 11.3062 12.4336L13.3516 15.7064C13.5911 16.0896 14.0959 16.206 14.4791 15.9666C14.8623 15.7271 14.9788 15.2223 14.7393 14.8391L12.8182 11.7654V7.09092Z" fill="white"/>
</svg>
