<svg width="19" height="14" viewBox="0 0 19 14" fill="currentColor" xmlns="http://www.w3.org/2000/svg">
<g id="Icon">
<path id="Subtract" fill-rule="evenodd" clip-rule="evenodd" d="M13.9998 0.333313H4.83317C2.53198 0.333313 0.666504 2.19879 0.666504 4.49998V9.49998C0.666504 11.8012 2.53198 13.6666 4.83317 13.6666H13.9998C16.301 13.6666 18.1665 11.8012 18.1665 9.49998V4.49998C18.1665 2.19879 16.301 0.333313 13.9998 0.333313ZM4.90087 9.54519C5.32592 9.79284 5.83469 9.91667 6.42718 9.91667C6.92436 9.91667 7.35714 9.83085 7.72552 9.65921C8.0939 9.48511 8.38499 9.24482 8.5988 8.93831C8.81262 8.62936 8.93627 8.27504 8.96976 7.87537H7.63278C7.59156 8.07888 7.51557 8.25175 7.4048 8.39397C7.29403 8.53619 7.15621 8.6453 6.99134 8.72131C6.82905 8.79487 6.64486 8.83165 6.43878 8.83165C6.14768 8.83165 5.89394 8.75809 5.67755 8.61097C5.46374 8.4614 5.29758 8.2493 5.17908 7.97467C5.06058 7.6976 5.00133 7.36657 5.00133 6.98161C5.00133 6.60155 5.06058 6.27543 5.17908 6.00326C5.30016 5.73108 5.46889 5.52266 5.68528 5.37799C5.90167 5.23087 6.15283 5.15731 6.43878 5.15731C6.77624 5.15731 7.04544 5.24926 7.24637 5.43316C7.44988 5.61461 7.57868 5.84142 7.63278 6.1136H8.96976C8.93884 5.70656 8.81262 5.35102 8.59108 5.04697C8.36954 4.74047 8.072 4.50385 7.69847 4.33712C7.32752 4.16793 6.90118 4.08333 6.41946 4.08333C5.83984 4.08333 5.33751 4.20716 4.91246 4.45481C4.48999 4.70001 4.16283 5.04329 3.93098 5.48466C3.69913 5.92357 3.58321 6.42991 3.58321 7.00368C3.58321 7.575 3.69656 8.08011 3.92325 8.51902C4.15252 8.95548 4.47839 9.29753 4.90087 9.54519ZM11.181 9.54519C11.606 9.79284 12.1148 9.91667 12.7073 9.91667C13.2045 9.91667 13.6373 9.83085 14.0056 9.65921C14.374 9.48511 14.6651 9.24482 14.8789 8.93831C15.0927 8.62936 15.2164 8.27504 15.2499 7.87537H13.9129C13.8717 8.07888 13.7957 8.25175 13.6849 8.39397C13.5741 8.53619 13.4363 8.6453 13.2715 8.72131C13.1092 8.79487 12.925 8.83165 12.7189 8.83165C12.4278 8.83165 12.1741 8.75809 11.9577 8.61097C11.7439 8.4614 11.5777 8.2493 11.4592 7.97467C11.3407 7.6976 11.2815 7.36657 11.2815 6.98161C11.2815 6.60155 11.3407 6.27543 11.4592 6.00326C11.5803 5.73108 11.749 5.52266 11.9654 5.37799C12.1818 5.23087 12.433 5.15731 12.7189 5.15731C13.0564 5.15731 13.3256 5.24926 13.5265 5.43316C13.73 5.61461 13.8588 5.84142 13.9129 6.1136H15.2499C15.219 5.70656 15.0927 5.35102 14.8712 5.04697C14.6497 4.74047 14.3521 4.50385 13.9786 4.33712C13.6076 4.16793 13.1813 4.08333 12.6996 4.08333C12.12 4.08333 11.6176 4.20716 11.1926 4.45481C10.7701 4.70001 10.4429 5.04329 10.2111 5.48466C9.97925 5.92357 9.86333 6.42991 9.86333 7.00368C9.86333 7.575 9.97668 8.08011 10.2034 8.51902C10.4326 8.95548 10.7585 9.29753 11.181 9.54519Z" fill="currentColor"/>
</g>
</svg>
