<svg width="24" height="24" viewBox="0 0 24 24" fill="none" xmlns="http://www.w3.org/2000/svg">
<rect x="3.625" y="5.625" width="16.75" height="11.75" rx="2.875" stroke="white" stroke-width="1.25"/>
<path d="M9.43769 14.25C8.92984 14.25 8.49375 14.1386 8.12942 13.9157C7.7673 13.6928 7.48798 13.3849 7.29146 12.9921C7.09715 12.5971 7 12.1425 7 11.6283C7 11.1119 7.09936 10.6562 7.29809 10.2612C7.49681 9.86397 7.77723 9.55501 8.13936 9.33433C8.50368 9.11144 8.93425 9 9.43107 9C9.84397 9 10.2094 9.07613 10.5274 9.2284C10.8475 9.37847 11.1026 9.59142 11.2925 9.86728C11.4823 10.1409 11.5905 10.4609 11.617 10.8272H10.4711C10.4247 10.5823 10.3143 10.3782 10.1399 10.2148C9.96762 10.0493 9.73688 9.96658 9.44763 9.96658C9.20253 9.96658 8.98725 10.0328 8.80177 10.1652C8.6163 10.2954 8.47167 10.483 8.36789 10.7279C8.26632 10.9729 8.21553 11.2664 8.21553 11.6084C8.21553 11.9549 8.26632 12.2528 8.36789 12.5022C8.46946 12.7494 8.61188 12.9403 8.79515 13.0749C8.98062 13.2073 9.19812 13.2735 9.44763 13.2735C9.62427 13.2735 9.78215 13.2404 9.92126 13.1742C10.0626 13.1058 10.1807 13.0076 10.2756 12.8796C10.3706 12.7516 10.4357 12.596 10.4711 12.4128H11.617C11.5883 12.7725 11.4823 13.0914 11.2991 13.3695C11.1158 13.6453 10.8663 13.8616 10.5505 14.0183C10.2348 14.1728 9.86385 14.25 9.43769 14.25Z" fill="white"/>
<path d="M14.8207 14.25C14.3128 14.25 13.8767 14.1386 13.5124 13.9157C13.1503 13.6928 12.8709 13.3849 12.6744 12.9921C12.4801 12.5971 12.383 12.1425 12.383 11.6283C12.383 11.1119 12.4823 10.6562 12.681 10.2612C12.8798 9.86397 13.1602 9.55501 13.5223 9.33433C13.8866 9.11144 14.3172 9 14.814 9C15.2269 9 15.5924 9.07613 15.9103 9.2284C16.2305 9.37847 16.4855 9.59142 16.6754 9.86728C16.8653 10.1409 16.9735 10.4609 17 10.8272H15.854C15.8077 10.5823 15.6972 10.3782 15.5228 10.2148C15.3506 10.0493 15.1198 9.96658 14.8306 9.96658C14.5855 9.96658 14.3702 10.0328 14.1847 10.1652C13.9993 10.2954 13.8546 10.483 13.7508 10.7279C13.6493 10.9729 13.5985 11.2664 13.5985 11.6084C13.5985 11.9549 13.6493 12.2528 13.7508 12.5022C13.8524 12.7494 13.9948 12.9403 14.1781 13.0749C14.3636 13.2073 14.5811 13.2735 14.8306 13.2735C15.0072 13.2735 15.1651 13.2404 15.3042 13.1742C15.4455 13.1058 15.5637 13.0076 15.6586 12.8796C15.7536 12.7516 15.8187 12.596 15.854 12.4128H17C16.9713 12.7725 16.8653 13.0914 16.682 13.3695C16.4988 13.6453 16.2493 13.8616 15.9335 14.0183C15.6178 14.1728 15.2468 14.25 14.8207 14.25Z" fill="white"/>
</svg>
