<svg width="48" height="48" viewBox="0 0 48 48" fill="none" xmlns="http://www.w3.org/2000/svg">
<path d="M48 27C48 33.63 42.63 39 36 39C34.2 39 11.34 39 9.5 39C4.25 39 0 34.75 0 29.5C0 24.96 3.18 21.16 7.45 20.22C9.15 13.21 15.46 8 23 8C28.51 8 33.36 10.78 36.24 15.01C42.76 15.13 48 20.45 48 27Z" fill="url(#paint0_linear_5910_4150)"/>
<path opacity="0.05" d="M21.0001 24.441V31.441C21.0001 32.546 21.8951 33.441 23.0001 33.441H25.0001C26.1051 33.441 27.0001 32.546 27.0001 31.441V24.441H29.6481C30.9841 24.441 31.6541 22.825 30.7091 21.88L25.4141 16.585C24.6331 15.804 23.3671 15.804 22.5861 16.585L17.2911 21.88C16.3461 22.825 17.0151 24.441 18.3521 24.441H21.0001Z" fill="black"/>
<path opacity="0.07" d="M21.5002 23.941V31.441C21.5002 32.269 22.1722 32.941 23.0002 32.941H25.0002C25.8282 32.941 26.5002 32.269 26.5002 31.441V23.941H29.5212C30.4592 23.941 30.9292 22.807 30.2662 22.143L25.1372 17.013C24.5102 16.386 23.4932 16.386 22.8662 17.013L17.7372 22.143C17.0742 22.806 17.5432 23.941 18.4822 23.941H21.5002Z" fill="black"/>
<path d="M18.607 23.4409H22V31.4409C22 31.9929 22.448 32.4409 23 32.4409H25C25.552 32.4409 26 31.9929 26 31.4409V23.4409H29.393C29.933 23.4409 30.203 22.7879 29.821 22.4069L24.857 17.4429C24.384 16.9699 23.616 16.9699 23.143 17.4429L18.179 22.4069C17.797 22.7879 18.067 23.4409 18.607 23.4409Z" fill="white"/>
<defs>
<linearGradient id="paint0_linear_5910_4150" x1="14.242" y1="9.358" x2="30.172" y2="39.695" gradientUnits="userSpaceOnUse">
<stop stop-color="#2F80FF"/>
<stop offset="1" stop-color="#468EFF"/>
</linearGradient>
</defs>
</svg>
