<svg width="24" height="24" viewBox="0 0 24 24" fill="none" xmlns="http://www.w3.org/2000/svg">
<path fill-rule="evenodd" clip-rule="evenodd" d="M14.8264 6.06244C14.9612 5.63114 14.7208 5.17224 14.2895 5.03746C13.8582 4.90268 13.3993 5.14306 13.2645 5.57436L9.17362 18.6653C9.03883 19.0966 9.27921 19.5555 9.71051 19.6902C10.1418 19.825 10.6007 19.5847 10.7355 19.1534L14.8264 6.06244ZM7.66945 8.51258C7.98897 8.8321 7.98897 9.35015 7.66945 9.66967L4.97527 12.3639L7.66945 15.058C7.98897 15.3776 7.98897 15.8956 7.66945 16.2151C7.34993 16.5346 6.83189 16.5346 6.51237 16.2151L3.23964 12.9424C2.92012 12.6229 2.92012 12.1048 3.23964 11.7853L6.51237 8.51258C6.83189 8.19306 7.34993 8.19306 7.66945 8.51258ZM16.3306 8.51258C16.6501 8.19306 17.1681 8.19306 17.4877 8.51258L20.7604 11.7853C21.0799 12.1048 21.0799 12.6229 20.7604 12.9424L17.4877 16.2151C17.1681 16.5346 16.6501 16.5346 16.3306 16.2151C16.0111 15.8956 16.0111 15.3776 16.3306 15.058L19.0248 12.3639L16.3306 9.66967C16.0111 9.35015 16.0111 8.8321 16.3306 8.51258Z" fill="white"/>
</svg>
