<svg width="24" height="24" viewBox="0 0 24 24" fill="none" xmlns="http://www.w3.org/2000/svg">
<path d="M14.5248 3.03604C15.0643 3.18186 15.3851 3.73598 15.2393 4.27759L10.7168 21.0948C10.596 21.5468 10.1877 21.8447 9.73983 21.8447C9.65234 21.8447 9.56276 21.8343 9.47527 21.8093C8.93574 21.6635 8.61494 21.1094 8.76076 20.5677L13.2833 3.75056C13.4291 3.20894 13.9894 2.88814 14.5248 3.03604ZM7.01717 7.39605C7.41296 7.79185 7.41296 8.43346 7.01717 8.82925L3.44174 12.4045L7.02133 16.0223C7.41505 16.4202 7.41088 17.0618 7.013 17.4555C6.8151 17.6493 6.55888 17.7472 6.30057 17.7472C6.04018 17.7472 5.77978 17.6472 5.5798 17.4472L1.2927 13.1143C1.0843 12.9037 0.987374 12.6248 1.00131 12.3505C1.01298 12.1077 1.11153 11.8685 1.29687 11.6832L5.58397 7.39605C5.97976 7.00234 6.62137 7.00234 7.01717 7.39605ZM18.3661 7.38981L22.699 11.6769C22.8648 11.8409 22.9619 12.048 22.9904 12.2625C23.0324 12.5661 22.9366 12.885 22.7032 13.1184L18.3703 17.4514C18.1724 17.6472 17.912 17.7472 17.6537 17.7472C17.3954 17.7472 17.135 17.6472 16.9371 17.4514C16.5413 17.0556 16.5413 16.414 16.9371 16.0182L20.5515 12.4034L16.9412 8.83134C16.5434 8.43762 16.5413 7.79602 16.9329 7.39814C17.3245 7.00026 17.9662 6.99609 18.3661 7.38981Z" fill="white"/>
</svg>
