<svg width="40" height="40" viewBox="0 0 40 40" fill="none" xmlns="http://www.w3.org/2000/svg">
<g clip-path="url(#clip0_2669_9336)">
<path d="M5.74676 10.3589C5.75147 10.3554 5.75619 10.3542 5.7609 10.3506L5.76031 10.3489L5.74676 10.3589Z" fill="url(#paint0_linear_2669_9336)"/>
<path d="M9.00536 8.57939C8.05194 7.62598 7.0284 7.78684 6.2388 8.57645L5.10625 23.1075C5.10625 23.2454 5.11863 23.3815 5.12629 23.5188L13.278 15.367C9.86685 16.2574 10.8692 13.4095 9.68595 12.673C9.68654 12.6724 10.9935 10.5675 9.00536 8.57939Z" fill="url(#paint1_linear_2669_9336)"/>
<path d="M34.5702 17.645C33.9191 16.9939 32.8643 16.9939 32.2132 17.645L27.3955 22.4628L26.8598 21.8199L34.8649 13.8148C35.6786 13.0011 35.6786 11.6823 34.8649 10.8686C34.0511 10.0548 32.7323 10.0548 31.9186 10.8686L24.1799 18.6073L23.6443 17.9644L31.9186 9.69006C32.7323 8.8763 32.7323 7.55754 31.9186 6.74378C31.1048 5.93002 29.7861 5.93002 28.9723 6.74378L20.9637 14.7524L20.4281 14.1095L26.531 8.00656C27.3018 7.23581 27.4491 5.97952 26.7597 5.1357C25.9659 4.1652 24.5329 4.11216 23.669 4.97601C23.5294 5.11567 5.12631 23.5187 5.12631 23.5187C5.22118 25.1456 5.90118 26.6883 7.06025 27.8474L13.357 34.1442C15.3098 36.097 18.4753 36.097 20.4281 34.1442L34.5702 20.002C35.2214 19.3509 35.2214 18.2961 34.5702 17.645Z" fill="url(#paint2_linear_2669_9336)"/>
<path d="M24.2582 7.33305C24.7464 7.8212 25.5378 7.8212 26.026 7.33305C26.5141 6.84489 26.5141 6.05344 26.026 5.56528C25.5378 5.07712 24.7464 5.07712 24.2582 5.56528C23.7701 6.05344 23.7701 6.84489 24.2582 7.33305Z" fill="#FFF0C9"/>
<path d="M29.5614 9.10081C30.0496 9.58896 30.841 9.58896 31.3292 9.10081C31.8174 8.61265 31.8174 7.8212 31.3292 7.33304C30.841 6.84489 30.0496 6.84489 29.5614 7.33304C29.0733 7.8212 29.0733 8.61265 29.5614 9.10081Z" fill="#FFF0C9"/>
<path d="M32.5077 13.2257C32.9959 13.7138 33.7873 13.7138 34.2755 13.2257C34.7636 12.7375 34.7636 11.9461 34.2755 11.4579C33.7873 10.9698 32.9959 10.9698 32.5077 11.4579C32.0196 11.9461 32.0196 12.7375 32.5077 13.2257Z" fill="#FFF0C9"/>
<path d="M32.8023 19.4128C33.1278 19.7383 33.6554 19.7383 33.9809 19.4128C34.3063 19.0874 34.3063 18.5598 33.9809 18.2343C33.6554 17.9089 33.1278 17.9089 32.8023 18.2343C32.4769 18.5598 32.4769 19.0874 32.8023 19.4128Z" fill="#FFF0C9"/>
</g>
<defs>
<linearGradient id="paint0_linear_2669_9336" x1="5.74212" y1="10.3761" x2="5.74309" y2="10.3774" gradientUnits="userSpaceOnUse">
<stop stop-color="#FFC430"/>
<stop offset="0.57" stop-color="#F8BD29"/>
<stop offset="1" stop-color="#F0B421"/>
</linearGradient>
<linearGradient id="paint1_linear_2669_9336" x1="5.60182" y1="15.7153" x2="14.9014" y2="15.7801" gradientUnits="userSpaceOnUse">
<stop offset="0.282" stop-color="#FFC430"/>
<stop offset="0.401" stop-color="#F8BD2D"/>
<stop offset="0.574" stop-color="#E5AA23"/>
<stop offset="0.78" stop-color="#C58A14"/>
<stop offset="1" stop-color="#9C6000"/>
</linearGradient>
<linearGradient id="paint2_linear_2669_9336" x1="20.3639" y1="14.5991" x2="19.817" y2="43.5622" gradientUnits="userSpaceOnUse">
<stop stop-color="#FFC430"/>
<stop offset="0.41" stop-color="#FEC130"/>
<stop offset="0.72" stop-color="#FCB730"/>
<stop offset="0.998" stop-color="#F7A72F"/>
<stop offset="1" stop-color="#F7A72F"/>
</linearGradient>
<clipPath id="clip0_2669_9336">
<rect width="40" height="40" fill="white"/>
</clipPath>
</defs>
</svg>
