<svg width="24" height="24" viewBox="0 0 24 24" fill="none" xmlns="http://www.w3.org/2000/svg">
<path fill-rule="evenodd" clip-rule="evenodd" d="M5.45455 5.63636C5.00268 5.63636 4.63636 6.00268 4.63636 6.45455V14.6364C4.63636 15.0882 5.00268 15.4545 5.45455 15.4545H18.5455C18.9973 15.4545 19.3636 15.0882 19.3636 14.6364V6.45455C19.3636 6.00268 18.9973 5.63636 18.5455 5.63636H5.45455ZM3 6.45455C3 5.09894 4.09894 4 5.45455 4H18.5455C19.9011 4 21 5.09894 21 6.45455V14.6364C21 15.992 19.9011 17.0909 18.5455 17.0909H12.8182V18.7273H15.2728C15.7247 18.7273 16.091 19.0936 16.091 19.5454C16.091 19.9973 15.7247 20.3636 15.2728 20.3636H12.0036C12.0024 20.3636 12.0012 20.3636 12 20.3636C11.9989 20.3636 11.9977 20.3636 11.9965 20.3636H8.72734C8.27547 20.3636 7.90915 19.9973 7.90915 19.5454C7.90915 19.0936 8.27547 18.7273 8.72734 18.7273H11.1819V17.0909H5.45455C4.09894 17.0909 3 15.992 3 14.6364V6.45455Z" fill="white"/>
</svg>
