<svg width="24" height="24" viewBox="0 0 24 24" fill="none" xmlns="http://www.w3.org/2000/svg">
<path fill-rule="evenodd" clip-rule="evenodd" d="M4.48078 10.4779C6.62437 8.75752 9.291 7.82035 12.0396 7.82142C14.7882 7.8225 17.4541 8.76176 19.5963 10.4839C19.9884 10.799 20.5616 10.7367 20.8767 10.3446C21.1919 9.95263 21.1295 9.37938 20.7375 9.06425C18.272 7.08226 15.2037 6.00124 12.0403 6C8.8769 5.99876 5.80782 7.07737 3.34071 9.05743C2.94845 9.37225 2.88567 9.94545 3.20049 10.3377C3.51531 10.73 4.08852 10.7927 4.48078 10.4779ZM17.3997 13.9999C15.9277 12.6586 14.0067 11.9172 12.0152 11.9215C10.0237 11.9259 8.10608 12.6758 6.63993 14.0236C6.26963 14.364 5.69351 14.3397 5.35313 13.9694C5.01274 13.5991 5.03698 13.023 5.40727 12.6826C7.20855 11.0268 9.56454 10.1055 12.0112 10.1001C14.4579 10.0947 16.8179 11.0057 18.6265 12.6535C18.9983 12.9923 19.025 13.5683 18.6863 13.9401C18.3475 14.3119 17.7715 14.3386 17.3997 13.9999ZM12.0323 14.1983C12.6009 14.1979 13.169 14.2827 13.7173 14.4519C13.7402 14.459 13.7627 14.4669 13.7847 14.4756C14.6372 14.7518 15.4145 15.2257 16.0519 15.861C16.4081 16.2161 16.4091 16.7927 16.054 17.149C15.6989 17.5052 15.1223 17.5061 14.7661 17.1511C14.2672 16.6538 13.6423 16.3018 12.9584 16.1329C12.654 16.0577 12.343 16.02 12.0323 16.0197C11.7215 16.02 11.4106 16.0577 11.1061 16.1329C10.4223 16.3018 9.79737 16.6538 9.29847 17.1511C8.94224 17.5061 8.36561 17.5052 8.01054 17.149C7.65546 16.7927 7.6564 16.2161 8.01263 15.861C8.65 15.2257 9.42733 14.7518 10.2798 14.4756C10.3018 14.4669 10.3243 14.459 10.3473 14.4519C10.8955 14.2827 11.4636 14.1979 12.0323 14.1983Z" fill="white"/>
</svg>
