<svg width="24" height="24" viewBox="0 0 24 24" fill="none" xmlns="http://www.w3.org/2000/svg">
<path fill-rule="evenodd" clip-rule="evenodd" d="M12.7455 5.3729C12.6393 4.94516 12.6502 4.49682 12.777 4.07494C12.7914 4.03151 12.8022 3.98648 12.8091 3.94018C12.8236 3.84455 12.8207 3.74921 12.8023 3.65794C12.7785 3.53785 12.7283 3.42724 12.6581 3.33234C12.5881 3.23733 12.4971 3.15685 12.3894 3.09869C12.3076 3.05432 12.2173 3.02349 12.1216 3.00921C12.0742 3.00201 12.0268 2.9991 11.9799 3.00024C10.2069 3.00418 8.4743 3.53176 6.99982 4.51697C5.5198 5.50589 4.36626 6.91148 3.68508 8.556C3.0039 10.2005 2.82567 12.0101 3.17293 13.7559C3.5202 15.5017 4.37735 17.1053 5.63601 18.364C6.89467 19.6226 8.49829 20.4798 10.2441 20.8271C11.9899 21.1743 13.7995 20.9961 15.444 20.3149C17.0885 19.6337 18.4941 18.4802 19.483 17.0002C20.4719 15.5202 20.9998 13.7801 20.9998 12.0001C20.9998 11.7404 20.8765 11.4962 20.6676 11.3419C20.4587 11.1877 20.189 11.1417 19.9408 11.2182C19.5144 11.3495 19.0602 11.3621 18.6271 11.2545C18.194 11.147 17.7984 10.9235 17.4829 10.6079C17.1674 10.2924 16.9438 9.89684 16.8363 9.46376C16.7288 9.03068 16.7414 8.57649 16.8727 8.15002C16.9619 7.86032 16.8836 7.54505 16.6693 7.33071C16.4549 7.11638 16.1397 7.0381 15.85 7.12731C15.4235 7.25862 14.9693 7.2712 14.5362 7.16368C14.1032 7.05616 13.7076 6.83261 13.3921 6.51708C13.0765 6.20155 12.853 5.80598 12.7455 5.3729ZM7.90893 5.87754C8.85127 5.24789 9.92245 4.84669 11.0376 4.6997C11.0305 5.05761 11.0703 5.41655 11.1573 5.76718C11.3365 6.48898 11.7091 7.14827 12.235 7.67415C12.7609 8.20003 13.4202 8.57261 14.142 8.75181C14.4659 8.83223 14.7969 8.87234 15.1277 8.87234C15.1277 9.20309 15.1678 9.53411 15.2482 9.85804C15.4274 10.5798 15.8 11.2391 16.3258 11.765C16.8517 12.2909 17.511 12.6635 18.2328 12.8427C18.5834 12.9297 18.9424 12.9695 19.3003 12.9624C19.1533 14.0775 18.7521 15.1487 18.1225 16.0911C17.3133 17.302 16.1633 18.2458 14.8178 18.8031C13.4723 19.3605 11.9917 19.5063 10.5633 19.2222C9.13495 18.938 7.82289 18.2367 6.79308 17.2069C5.76327 16.1771 5.06196 14.8651 4.77784 13.4367C4.49371 12.0083 4.63953 10.5277 5.19686 9.1822C5.75419 7.83669 6.698 6.68666 7.90893 5.87754ZM9.95448 9.13648C9.95448 8.68462 9.58817 8.31831 9.13631 8.31831C8.68444 8.31831 8.31813 8.68462 8.31813 9.13648V9.14466C8.31813 9.59653 8.68444 9.96283 9.13631 9.96283C9.58817 9.96283 9.95448 9.59653 9.95448 9.14466V9.13648ZM15.2726 14.0455C15.7244 14.0455 16.0907 14.4118 16.0907 14.8637V14.8718C16.0907 15.3237 15.7244 15.69 15.2726 15.69C14.8207 15.69 14.4544 15.3237 14.4544 14.8718V14.8637C14.4544 14.4118 14.8207 14.0455 15.2726 14.0455ZM12.8181 12.0002C12.8181 11.5483 12.4518 11.182 11.9999 11.182C11.5481 11.182 11.1818 11.5483 11.1818 12.0002V12.0083C11.1818 12.4602 11.5481 12.8265 11.9999 12.8265C12.4518 12.8265 12.8181 12.4602 12.8181 12.0083V12.0002ZM11.1817 15.2728C11.6336 15.2728 11.9999 15.6391 11.9999 16.0909V16.0991C11.9999 16.551 11.6336 16.9173 11.1817 16.9173C10.7298 16.9173 10.3635 16.551 10.3635 16.0991V16.0909C10.3635 15.6391 10.7298 15.2728 11.1817 15.2728ZM8.72722 13.6364C8.72722 13.1846 8.36091 12.8182 7.90905 12.8182C7.45718 12.8182 7.09088 13.1846 7.09088 13.6364V13.6446C7.09088 14.0965 7.45718 14.4628 7.90905 14.4628C8.36091 14.4628 8.72722 14.0965 8.72722 13.6446V13.6364Z" fill="white"/>
</svg>
