<svg width="24" height="24" viewBox="0 0 24 24" fill="none" xmlns="http://www.w3.org/2000/svg">
<path fill-rule="evenodd" clip-rule="evenodd" d="M19.124 4.876C18.9706 4.72256 18.7624 4.63636 18.5455 4.63636H11.1818C10.9648 4.63636 10.7567 4.72256 10.6033 4.876C10.4498 5.02944 10.3636 5.23755 10.3636 5.45455V6.27273C10.3636 6.7246 9.99732 7.09091 9.54545 7.09091C9.09358 7.09091 8.72727 6.7246 8.72727 6.27273V5.45455C8.72727 4.80356 8.98588 4.17924 9.44619 3.71892C9.90651 3.2586 10.5308 3 11.1818 3H18.5455C19.1964 3 19.8208 3.2586 20.2811 3.71892C20.7414 4.17924 21 4.80356 21 5.45455V12.8182C21 13.4692 20.7414 14.0935 20.2811 14.5538C19.8208 15.0141 19.1964 15.2727 18.5455 15.2727H17.7273C17.2754 15.2727 16.9091 14.9064 16.9091 14.4545C16.9091 14.0027 17.2754 13.6364 17.7273 13.6364H18.5455C18.7624 13.6364 18.9706 13.5502 19.124 13.3967C19.2774 13.2433 19.3636 13.0352 19.3636 12.8182V5.45455C19.3636 5.23755 19.2774 5.02944 19.124 4.876ZM13.6364 11.1818C13.6364 10.73 13.2701 10.3637 12.8182 10.3637H5.45454C5.00267 10.3637 4.63636 10.73 4.63636 11.1818V18.5455C4.63636 18.9973 5.00267 19.3637 5.45454 19.3637H12.8182C13.2701 19.3637 13.6364 18.9973 13.6364 18.5455V11.1818ZM12.8182 8.72729C14.1738 8.72729 15.2727 9.82623 15.2727 11.1818V18.5455C15.2727 19.9011 14.1738 21 12.8182 21H5.45454C4.09894 21 3 19.9011 3 18.5455V11.1818C3 9.82623 4.09894 8.72729 5.45454 8.72729H12.8182Z" fill="white"/>
</svg>
