<svg width="24" height="24" viewBox="0 0 24 24" fill="none" xmlns="http://www.w3.org/2000/svg">
<path fill-rule="evenodd" clip-rule="evenodd" d="M7.70829 4.16668C7.70829 3.36126 8.36121 2.70834 9.16663 2.70834H15C15.8054 2.70834 16.4583 3.36126 16.4583 4.16668V11.6667C16.4583 12.4721 15.8054 13.125 15 13.125H13.3333V11.875H15C15.115 11.875 15.2083 11.7817 15.2083 11.6667V4.16668C15.2083 4.05162 15.115 3.95834 15 3.95834H9.16663C9.05157 3.95834 8.95829 4.05162 8.95829 4.16668V5.83334H7.70829V4.16668ZM4.99996 6.87501C4.19454 6.87501 3.54163 7.52793 3.54163 8.33334V15.8333C3.54163 16.6388 4.19454 17.2917 4.99996 17.2917H10.8333C11.6387 17.2917 12.2916 16.6388 12.2916 15.8333V8.33334C12.2916 7.52793 11.6387 6.87501 10.8333 6.87501H4.99996ZM4.79163 8.33334C4.79163 8.21828 4.8849 8.12501 4.99996 8.12501H10.8333C10.9484 8.12501 11.0416 8.21828 11.0416 8.33334V15.8333C11.0416 15.9484 10.9484 16.0417 10.8333 16.0417H4.99996C4.8849 16.0417 4.79163 15.9484 4.79163 15.8333V8.33334Z" fill="white"/>
</svg>
