<svg width="24" height="24" viewBox="0 0 24 24" fill="none" xmlns="http://www.w3.org/2000/svg">
<path fill-rule="evenodd" clip-rule="evenodd" d="M12 4.63636C7.93318 4.63636 4.63636 7.93318 4.63636 12C4.63636 16.0668 7.93318 19.3636 12 19.3636C16.0668 19.3636 19.3636 16.0668 19.3636 12C19.3636 7.93318 16.0668 4.63636 12 4.63636ZM3 12C3 7.02944 7.02944 3 12 3C16.9706 3 21 7.02944 21 12C21 16.9706 16.9706 21 12 21C7.02944 21 3 16.9706 3 12ZM15.0331 8.96693C15.3526 9.28645 15.3526 9.80449 15.0331 10.124L13.1571 12L15.0331 13.876C15.3526 14.1955 15.3526 14.7136 15.0331 15.0331C14.7136 15.3526 14.1955 15.3526 13.876 15.0331L12 13.1571L10.124 15.0331C9.80447 15.3526 9.28643 15.3526 8.96691 15.0331C8.64739 14.7136 8.64739 14.1955 8.96691 13.876L10.8429 12L8.96691 10.124C8.64739 9.80449 8.64739 9.28645 8.96691 8.96693C9.28643 8.64741 9.80447 8.64741 10.124 8.96693L12 10.8429L13.876 8.96693C14.1955 8.64741 14.7136 8.64741 15.0331 8.96693Z" fill="white"/>
</svg>
