<svg width="24" height="24" viewBox="0 0 24 24" fill="none" xmlns="http://www.w3.org/2000/svg">
<path d="M5.19343 17.3833C4.82429 17.7525 4.80671 18.4116 5.20222 18.7983C5.58894 19.1851 6.24812 19.1763 6.61726 18.8071L11.9962 13.4194L17.3839 18.8071C17.7618 19.1851 18.4122 19.1851 18.7989 18.7983C19.1768 18.4028 19.1856 17.7612 18.7989 17.3833L13.42 11.9956L18.7989 6.61671C19.1856 6.23878 19.1856 5.58839 18.7989 5.20167C18.4034 4.82374 17.7618 4.81495 17.3839 5.19288L11.9962 10.5806L6.61726 5.19288C6.24812 4.82374 5.58015 4.80616 5.20222 5.20167C4.8155 5.58839 4.82429 6.24757 5.19343 6.61671L10.5811 11.9956L5.19343 17.3833Z" fill="white"/>
</svg>
