<svg width="18" height="18" viewBox="0 0 18 18" fill="none" xmlns="http://www.w3.org/2000/svg">
<path fill-rule="evenodd" clip-rule="evenodd" d="M9 18C13.9706 18 18 13.9706 18 9C18 4.02944 13.9706 0 9 0C4.02944 0 0 4.02944 0 9C0 13.9706 4.02944 18 9 18ZM10.6931 4.25C11.5603 4.39554 12.3911 4.65631 13.1734 5.01409C14.5318 6.99712 15.2055 9.24089 14.9447 11.8242C13.9072 12.5823 12.8944 13.0432 11.9059 13.3464C11.6634 13.0189 11.4451 12.6672 11.2571 12.2973C11.6149 12.1638 11.9544 12.0001 12.2819 11.806C12.2231 11.7641 12.1672 11.7192 12.1102 11.6734C12.0849 11.653 12.0594 11.6325 12.0333 11.612C10.0806 12.5156 7.93932 12.5156 5.96238 11.612C5.88354 11.6787 5.79864 11.7454 5.71374 11.806C6.04121 12.0001 6.38081 12.1638 6.7386 12.2973C6.55061 12.6672 6.33229 13.0189 6.08972 13.3464C5.10064 13.0432 4.09396 12.5823 3.05091 11.8242C2.83866 9.5926 3.26316 7.33064 4.8338 5.01409C5.61063 4.65631 6.44144 4.39554 7.31467 4.25C7.41777 4.43799 7.54513 4.69269 7.63003 4.89281C8.53967 4.75939 9.45538 4.75939 10.3777 4.89281C10.4626 4.69269 10.5839 4.43799 10.6931 4.25ZM5.93204 9.24695C5.93204 9.90795 6.41718 10.4477 7.01148 10.4477C7.61184 10.4477 8.0909 9.90795 8.0909 9.24695C8.10303 8.58596 7.61184 8.04621 7.01148 8.04621C6.40505 8.04621 5.93204 8.58596 5.93204 9.24695ZM9.91625 9.24695C9.91625 9.90795 10.402 10.4477 10.9963 10.4477C11.6027 10.4477 12.0757 9.90795 12.0757 9.24695C12.0879 8.58596 11.5967 8.04621 10.9963 8.04621C10.3899 8.04621 9.91625 8.58596 9.91625 9.24695Z" fill="white"/>
</svg>
