<svg width="24" height="24" viewBox="0 0 24 24" fill="none" xmlns="http://www.w3.org/2000/svg">
<path d="M17.5645 7.01879C16.5215 6.54174 15.4137 6.19406 14.2575 6C14.1119 6.25066 13.9502 6.59025 13.837 6.85708C12.6072 6.67919 11.3862 6.67919 10.1734 6.85708C10.0602 6.59025 9.89036 6.25066 9.7529 6C8.58858 6.19406 7.48084 6.54174 6.44507 7.01879C4.35088 10.1075 3.78488 13.1235 4.06788 16.099C5.45862 17.1097 6.80085 17.7242 8.11963 18.1285C8.44305 17.6919 8.73414 17.2229 8.9848 16.7297C8.50774 16.5518 8.05494 16.3335 7.61832 16.0747C7.73152 15.9939 7.84472 15.905 7.94984 15.816C10.5858 17.0208 13.4408 17.0208 16.0444 15.816C16.1576 15.905 16.2627 15.9939 16.3759 16.0747C15.9393 16.3335 15.4865 16.5518 15.0094 16.7297C15.2601 17.2229 15.5512 17.6919 15.8746 18.1285C17.1925 17.7242 18.5429 17.1097 19.9263 16.099C20.274 12.6545 19.3757 9.66283 17.5645 7.01879ZM9.34865 14.2635C8.55624 14.2635 7.90939 13.5439 7.90939 12.6626C7.90939 11.7813 8.54007 11.0616 9.34865 11.0616C10.1491 11.0616 10.804 11.7813 10.7879 12.6626C10.7879 13.5439 10.1491 14.2635 9.34865 14.2635ZM14.6618 14.2635C13.8693 14.2635 13.2217 13.5439 13.2217 12.6626C13.2217 11.7813 13.8532 11.0616 14.6618 11.0616C15.4622 11.0616 16.1172 11.7813 16.101 12.6626C16.101 13.5439 15.4703 14.2635 14.6618 14.2635Z" fill="#66A1FF"/>
</svg>
