<svg width="24" height="24" viewBox="0 0 24 24" fill="none" xmlns="http://www.w3.org/2000/svg">
<path fill-rule="evenodd" clip-rule="evenodd" d="M4 6C4 5.44772 4.39797 5 4.88889 5H19.1111C19.602 5 20 5.44772 20 6C20 6.55228 19.602 7 19.1111 7H4.88889C4.39797 7 4 6.55228 4 6ZM4 12C4 11.4477 4.39797 11 4.88889 11H19.1111C19.602 11 20 11.4477 20 12C20 12.5523 19.602 13 19.1111 13H4.88889C4.39797 13 4 12.5523 4 12ZM4.88889 17C4.39797 17 4 17.4477 4 18C4 18.5523 4.39797 19 4.88889 19H19.1111C19.602 19 20 18.5523 20 18C20 17.4477 19.602 17 19.1111 17H4.88889Z" fill="white"/>
</svg>
