<svg width="32" height="32" viewBox="0 0 32 32" fill="none" xmlns="http://www.w3.org/2000/svg">
<path fill-rule="evenodd" clip-rule="evenodd" d="M8.7335 7.60004C8.43292 7.60004 8.14465 7.71944 7.93211 7.93199C7.71957 8.14453 7.60016 8.4328 7.60016 8.73337V24.6C7.60016 24.9006 7.71957 25.1889 7.93211 25.4014C8.14465 25.614 8.43292 25.7334 8.7335 25.7334H13.2668C13.8928 25.7334 14.4002 26.2408 14.4002 26.8667C14.4002 27.4926 13.8928 28 13.2668 28H8.7335C7.83176 28 6.96696 27.6418 6.32933 27.0042C5.69171 26.3666 5.3335 25.5018 5.3335 24.6V8.73337C5.3335 7.83164 5.69171 6.96683 6.32933 6.32921C6.96696 5.69159 7.83176 5.33337 8.7335 5.33337H13.2668C13.8928 5.33337 14.4002 5.84078 14.4002 6.46671C14.4002 7.09263 13.8928 7.60004 13.2668 7.60004H8.7335ZM20.3988 10.1987C20.8414 9.75607 21.559 9.75607 22.0016 10.1987L27.6645 15.8616C27.6774 15.8744 27.6901 15.8875 27.7024 15.901C27.7885 15.9948 27.8559 16.0996 27.9047 16.2107C27.9661 16.3502 28.0002 16.5045 28.0002 16.6667C28.0002 16.829 27.9661 16.9832 27.9047 17.1228C27.8564 17.2328 27.7897 17.3368 27.7047 17.43C27.6916 17.4443 27.6781 17.4584 27.6643 17.472L22.0016 23.1348C21.559 23.5774 20.8414 23.5774 20.3988 23.1348C19.9562 22.6922 19.9562 21.9746 20.3988 21.532L24.1307 17.8H13.2669C12.6409 17.8 12.1335 17.2926 12.1335 16.6667C12.1335 16.0408 12.6409 15.5334 13.2669 15.5334H24.1307L20.3988 11.8014C19.9562 11.3588 19.9562 10.6413 20.3988 10.1987Z" fill="currentColor" fill-opacity="0.95"/>
</svg>
