<svg width="24" height="24" viewBox="0 0 24 24" fill="none" xmlns="http://www.w3.org/2000/svg">
<path d="M19.5674 10.3799C19.1016 10.3799 18.7676 10.0283 18.7676 9.5625V8.82422L18.9434 5.75684L16.6318 8.19141L13.9248 10.916C13.7754 11.0742 13.582 11.1445 13.3711 11.1445C12.8701 11.1445 12.501 10.8193 12.501 10.3271C12.501 10.0898 12.5801 9.87891 12.7383 9.7207L15.4541 7.01367L17.8887 4.70215L14.8125 4.87793H14.083C13.6172 4.87793 13.2568 4.55273 13.2568 4.07812C13.2568 3.60352 13.6084 3.26953 14.083 3.26953H18.9609C19.8574 3.26953 20.376 3.78809 20.376 4.68457V9.5625C20.376 10.0195 20.0332 10.3799 19.5674 10.3799ZM9.92578 20.0391H5.04785C4.15137 20.0391 3.62402 19.5205 3.62402 18.624V13.7461C3.62402 13.2891 3.9668 12.9287 4.44141 12.9287C4.89844 12.9287 5.24121 13.2803 5.24121 13.7461V14.4844L5.05664 17.5518L7.37695 15.1172L10.0752 12.3926C10.2246 12.2344 10.4268 12.1641 10.6377 12.1641C11.1299 12.1641 11.5078 12.4893 11.5078 12.9814C11.5078 13.2188 11.4199 13.4297 11.2617 13.5879L8.55469 16.2949L6.11133 18.6064L9.1875 18.4307H9.92578C10.3916 18.4307 10.752 18.7559 10.752 19.2305C10.752 19.7051 10.3916 20.0391 9.92578 20.0391Z" fill="white"/>
</svg>
