<svg width="24" height="24" viewBox="0 0 24 24" fill="none" xmlns="http://www.w3.org/2000/svg">
<path d="M19.7195 4.19376C19.7509 4.22078 19.7801 4.2502 19.8069 4.28173C19.8535 4.33633 19.8915 4.39572 19.921 4.45813C19.97 4.56179 19.9975 4.67769 19.9975 4.8V9.6C19.9975 10.0418 19.6394 10.4 19.1976 10.4C18.7558 10.4 18.3977 10.0418 18.3977 9.6V6.73134L10.9646 14.1657C10.6522 14.4781 10.1457 14.4781 9.83337 14.1657C9.521 13.8533 9.521 13.3467 9.83337 13.0343L17.2665 5.6H14.3984C13.9566 5.6 13.5985 5.24183 13.5985 4.8C13.5985 4.35817 13.9566 4 14.3984 4H19.1974C19.1974 4 19.1975 4 19.1974 4C19.3119 4 19.421 4.02406 19.5195 4.0674C19.5906 4.09865 19.6581 4.14077 19.7195 4.19376Z" fill="currentColor"/>
<path d="M6.39962 8.00002C6.18748 8.00002 5.98403 8.0843 5.83402 8.23433C5.68402 8.38436 5.59975 8.58784 5.59975 8.80002V17.6C5.59975 17.8122 5.68402 18.0157 5.83402 18.1657C5.98403 18.3157 6.18748 18.4 6.39962 18.4H15.1982C15.4104 18.4 15.6138 18.3157 15.7638 18.1657C15.9138 18.0157 15.9981 17.8122 15.9981 17.6V12.8C15.9981 12.3582 16.3562 12 16.798 12C17.2397 12 17.5978 12.3582 17.5978 12.8V17.6C17.5978 18.2365 17.345 18.847 16.895 19.2971C16.445 19.7472 15.8346 20 15.1982 20H6.39962C5.7632 20 5.15285 19.7472 4.70283 19.2971C4.25282 18.847 4 18.2365 4 17.6V8.80002C4 8.1635 4.25282 7.55305 4.70283 7.10296C5.15285 6.65287 5.7632 6.40002 6.39962 6.40002H11.1989C11.6406 6.40002 11.9987 6.75819 11.9987 7.20002C11.9987 7.64184 11.6406 8.00002 11.1989 8.00002H6.39962Z" fill="currentColor"/>
</svg>
