<svg width="16" height="16" viewBox="0 0 16 16" fill="none" xmlns="http://www.w3.org/2000/svg">
<path fill-rule="evenodd" clip-rule="evenodd" d="M15.7195 0.193759C15.7509 0.220785 15.7801 0.250202 15.8069 0.281727C15.8535 0.336334 15.8915 0.395717 15.921 0.458127C15.97 0.561791 15.9975 0.67769 15.9975 0.8V5.6C15.9975 6.04182 15.6394 6.4 15.1976 6.4C14.7558 6.4 14.3977 6.04182 14.3977 5.6V2.73134L6.96456 10.1657C6.65219 10.4781 6.14574 10.4781 5.83337 10.1657C5.521 9.85326 5.521 9.34673 5.83337 9.03431L13.2665 1.6H10.3984C9.9566 1.6 9.59849 1.24183 9.59849 0.8C9.59849 0.358172 9.9566 0 10.3984 0H15.1974C15.1975 0 15.1975 0 15.1976 0C15.3121 0 15.421 0.0240602 15.5195 0.0674014C15.5906 0.098653 15.6581 0.140772 15.7195 0.193759ZM2.39962 4.00002C2.18748 4.00002 1.98403 4.0843 1.83402 4.23433C1.68402 4.38436 1.59975 4.58784 1.59975 4.80002V13.6C1.59975 13.8122 1.68402 14.0157 1.83402 14.1657C1.98403 14.3157 2.18748 14.4 2.39962 14.4H11.1982C11.4104 14.4 11.6138 14.3157 11.7638 14.1657C11.9138 14.0157 11.9981 13.8122 11.9981 13.6V8.80001C11.9981 8.35819 12.3562 8.00001 12.798 8.00001C13.2397 8.00001 13.5978 8.35819 13.5978 8.80001V13.6C13.5978 14.2365 13.345 14.847 12.895 15.2971C12.445 15.7472 11.8346 16 11.1982 16H2.39962C1.7632 16 1.15285 15.7472 0.702832 15.2971C0.252816 14.847 0 14.2365 0 13.6V4.80002C0 4.1635 0.252816 3.55305 0.702832 3.10296C1.15285 2.65287 1.7632 2.40002 2.39962 2.40002H7.19885C7.64061 2.40002 7.99873 2.75819 7.99873 3.20002C7.99873 3.64184 7.64061 4.00002 7.19885 4.00002H2.39962Z" fill="white"/>
</svg>
