<svg width="24" height="24" viewBox="0 0 24 24" fill="none" xmlns="http://www.w3.org/2000/svg">
<path d="M12.0001 3.03748C7.02951 3.03748 3 7.06699 3 12.0375C3 16.4955 6.2447 20.1875 10.499 20.9024V13.9152H8.32795V11.4008H10.499V9.54673C10.499 7.39552 11.8129 6.22323 13.7322 6.22323C14.6515 6.22323 15.4414 6.29173 15.6708 6.3219V8.57049L14.3396 8.57113C13.296 8.57113 13.0948 9.06693 13.0948 9.79474V11.3995H15.5849L15.2601 13.9139H13.0948V20.9625C17.5478 20.4206 21 16.6346 21 12.035C21 7.06699 16.9705 3.03748 12.0001 3.03748Z" fill="white"/>
</svg>
