<svg width="24" height="24" viewBox="0 0 24 24" fill="none" xmlns="http://www.w3.org/2000/svg">
<path fill-rule="evenodd" clip-rule="evenodd" d="M9 3C7.344 3 6 4.344 6 6C6 7.656 7.344 9 9 9C7.344 9 6 10.344 6 12C6 13.656 7.344 14.9999 9 14.9999H12V12C12 13.656 13.344 14.9999 15 14.9999C16.656 14.9999 18.0001 13.656 18.0001 12C18.0001 10.344 16.656 9 15 9C16.656 9 18.0001 7.656 18.0001 6C18.0001 4.344 16.656 3 15 3H12H9ZM15 9H12V12C12 10.344 13.344 9 15 9ZM9 21.0002C10.656 21.0002 12 19.6561 12 18.0001V15H9C7.344 15 6 16.344 6 18.0001C6 19.6561 7.344 21.0002 9 21.0002Z" fill="white"/>
</svg>
