<svg width="24" height="24" viewBox="0 0 24 24" fill="none" xmlns="http://www.w3.org/2000/svg">
<path fill-rule="evenodd" clip-rule="evenodd" d="M7.92144 3.64873C8.28173 3.28845 8.80662 3 9.39999 3H14.6363H15.0454C15.2624 3 15.4706 3.0862 15.624 3.23964L19.3058 6.92146C19.4593 7.0749 19.5455 7.28301 19.5455 7.5V15.6C19.5455 16.1934 19.257 16.7183 18.8967 17.0786C18.5364 17.4388 18.0115 17.7273 17.4182 17.7273H9.39999C8.80662 17.7273 8.28173 17.4388 7.92144 17.0786C7.56116 16.7183 7.27271 16.1934 7.27271 15.6V5.12727C7.27271 4.5339 7.56116 4.00901 7.92144 3.64873ZM13.8181 4.63637H9.39999C9.33881 4.63637 9.20915 4.67519 9.07853 4.80582C8.9479 4.93644 8.90908 5.0661 8.90908 5.12727V15.6C8.90908 15.6612 8.9479 15.7908 9.07853 15.9215C9.20915 16.0521 9.33881 16.0909 9.39999 16.0909H17.4182C17.4794 16.0909 17.609 16.0521 17.7396 15.9215C17.8703 15.7908 17.9091 15.6612 17.9091 15.6V8.72728H14.6363C14.1844 8.72728 13.8181 8.36097 13.8181 7.9091V4.63637ZM17.1611 7.09091H15.4545V5.38432L17.1611 7.09091ZM4.81818 7.58188C5.27005 7.58188 5.63637 7.94819 5.63637 8.40006V18.8728C5.63637 18.934 5.67519 19.0636 5.80582 19.1943C5.93644 19.3249 6.0661 19.3637 6.12727 19.3637H14.1455C14.5973 19.3637 14.9636 19.73 14.9636 20.1819C14.9636 20.6338 14.5973 21.0001 14.1455 21.0001H6.12727C5.5339 21.0001 5.00901 20.7116 4.64873 20.3513C4.28845 19.9911 4 19.4662 4 18.8728V8.40006C4 7.94819 4.36631 7.58188 4.81818 7.58188Z" fill="white"/>
</svg>
