<svg width="24" height="24" viewBox="0 0 24 24" fill="none" xmlns="http://www.w3.org/2000/svg">
<path fill-rule="evenodd" clip-rule="evenodd" d="M5.71892 3.71892C6.17924 3.2586 6.80356 3 7.45455 3H14H14.4091C14.6261 3 14.8342 3.0862 14.9876 3.23964L19.4876 7.73964C19.6411 7.89308 19.7273 8.10119 19.7273 8.31818V18.5455C19.7273 19.1964 19.4687 19.8208 19.0084 20.2811C18.548 20.7414 17.9237 21 17.2727 21H7.45455C6.80356 21 6.17924 20.7414 5.71892 20.2811C5.2586 19.8208 5 19.1964 5 18.5455V5.45455C5 4.80356 5.2586 4.17924 5.71892 3.71892ZM7.45455 4.63636H13.1818V8.72727C13.1818 9.17914 13.5481 9.54545 14 9.54545H18.0909V18.5455C18.0909 18.7624 18.0047 18.9706 17.8513 19.124C17.6978 19.2774 17.4897 19.3636 17.2727 19.3636H7.45455C7.23755 19.3636 7.02944 19.2774 6.876 19.124C6.72256 18.9706 6.63636 18.7625 6.63636 18.5455V5.45455C6.63636 5.23755 6.72256 5.02944 6.876 4.876C7.02944 4.72256 7.23755 4.63636 7.45455 4.63636ZM14.8182 7.90909H17.3429L14.8182 5.38435V7.90909ZM9.09089 12C8.63902 12 8.27271 12.3663 8.27271 12.8182C8.27271 13.2701 8.63902 13.6364 9.09089 13.6364H15.6363C16.0882 13.6364 16.4545 13.2701 16.4545 12.8182C16.4545 12.3663 16.0882 12 15.6363 12H9.09089ZM8.27271 16.0909C8.27271 15.639 8.63902 15.2727 9.09089 15.2727H15.6363C16.0882 15.2727 16.4545 15.639 16.4545 16.0909C16.4545 16.5428 16.0882 16.9091 15.6363 16.9091H9.09089C8.63902 16.9091 8.27271 16.5428 8.27271 16.0909ZM9.09089 8.72729C8.63902 8.72729 8.27271 9.0936 8.27271 9.54547C8.27271 9.99734 8.63902 10.3637 9.09089 10.3637H10.7273C11.1791 10.3637 11.5454 9.99734 11.5454 9.54547C11.5454 9.0936 11.1791 8.72729 10.7273 8.72729H9.09089Z" fill="white"/>
</svg>
