<svg width="24" height="24" viewBox="0 0 24 24" fill="none" xmlns="http://www.w3.org/2000/svg">
<path d="M16.5 6.90903C15.6776 6.90903 14.9128 7.13267 14.25 7.50772V7.08511C14.25 6.30794 14.5621 5.5779 15.1288 5.0283L14.0682 4C13.2539 4.78982 12.7499 5.88074 12.7499 7.08532V7.50794C12.0873 7.13289 11.3216 6.90925 10.4986 6.90925C9.16837 6.90925 7.9752 7.47325 7.15125 8.36387H5.25V8.36453C4.00777 8.36453 3 9.34111 3 10.5457V14.9098C3 16.1153 4.00777 17.0916 5.25 17.0916H7.51102C8.87992 18.8545 11.0494 20 13.5001 20C17.6419 19.9998 21 16.7436 21 12.7273V11.2727C21 8.86286 18.9851 6.90903 16.5 6.90903ZM5.25 9.81872V9.81806H6.26003C6.09375 10.2736 5.99857 10.7619 5.99857 11.2727V11.2733H5.25C4.83532 11.2733 4.50007 10.9476 4.50007 10.5461C4.50007 10.1447 4.83532 9.81872 5.25 9.81872ZM7.5 15.637V14.1826H5.99992V15.637H5.25C4.83532 15.637 4.50007 15.3119 4.50007 14.9096L4.4985 14.9091H4.50007V12.5944C4.73587 12.6754 4.98562 12.7277 5.25 12.7277H12V15.637H10.4999V14.1826H9.00007V15.637H7.5ZM19.4999 12.7273C19.4999 15.9353 16.8082 18.5454 13.5001 18.5454C11.9847 18.5454 10.6025 17.9936 9.5457 17.0914H13.5001V11.2733H7.49843V11.2712C7.49843 9.66883 8.8446 8.36344 10.4986 8.36344C11.2352 8.36344 11.9444 8.62831 12.4972 9.10919L13.4985 9.98061L14.5011 9.10919C15.0541 8.62831 15.7638 8.36344 16.5 8.36344C18.1546 8.36344 19.4999 9.66795 19.4999 11.2725V12.7273Z" fill="white"/>
</svg>
