<svg width="24" height="24" viewBox="0 0 24 24" fill="none" xmlns="http://www.w3.org/2000/svg">
<path fill-rule="evenodd" clip-rule="evenodd" d="M4.70294 4.70294C5.15303 4.25286 5.76348 4 6.4 4H8.8C9.24183 4 9.6 4.35817 9.6 4.8C9.6 5.24183 9.24183 5.6 8.8 5.6H6.4C6.18783 5.6 5.98434 5.68429 5.83431 5.83431C5.68429 5.98434 5.6 6.18783 5.6 6.4V8.8C5.6 9.24183 5.24183 9.6 4.8 9.6C4.35817 9.6 4 9.24183 4 8.8V6.4C4 5.76348 4.25286 5.15303 4.70294 4.70294ZM14.4 4.8C14.4 4.35817 14.7582 4 15.2 4H17.6C18.2365 4 18.847 4.25286 19.2971 4.70294C19.7471 5.15303 20 5.76348 20 6.4V8.8C20 9.24183 19.6418 9.6 19.2 9.6C18.7582 9.6 18.4 9.24183 18.4 8.8V6.4C18.4 6.18783 18.3157 5.98434 18.1657 5.83431C18.0157 5.68429 17.8122 5.6 17.6 5.6H15.2C14.7582 5.6 14.4 5.24183 14.4 4.8ZM4.8 14.4C5.24183 14.4 5.6 14.7582 5.6 15.2V17.6C5.6 17.8122 5.68429 18.0157 5.83431 18.1657C5.98434 18.3157 6.18783 18.4 6.4 18.4H8.8C9.24183 18.4 9.6 18.7582 9.6 19.2C9.6 19.6418 9.24183 20 8.8 20H6.4C5.76348 20 5.15303 19.7471 4.70294 19.2971C4.25286 18.847 4 18.2365 4 17.6V15.2C4 14.7582 4.35817 14.4 4.8 14.4ZM19.2 14.4C19.6418 14.4 20 14.7582 20 15.2V17.6C20 18.2365 19.7471 18.847 19.2971 19.2971C18.847 19.7471 18.2365 20 17.6 20H15.2C14.7582 20 14.4 19.6418 14.4 19.2C14.4 18.7582 14.7582 18.4 15.2 18.4H17.6C17.8122 18.4 18.0157 18.3157 18.1657 18.1657C18.3157 18.0157 18.4 17.8122 18.4 17.6V15.2C18.4 14.7582 18.7582 14.4 19.2 14.4Z" fill="white"/>
</svg>
