<svg width="20" height="24" viewBox="0 0 20 24" fill="none" xmlns="http://www.w3.org/2000/svg">
<path d="M12.0467 0.00806393L19.3798 0L7.07678 12.2706L3.87037 15.4523L0.222198 11.8074L12.0467 0.00806393ZM11.9784 10.9642C12.0736 10.8388 12.2487 10.9006 12.3816 10.8845L19.3735 10.8863L13.0011 17.2389L9.3341 13.602L11.9784 10.9642Z" fill="#44D1FD"/>
<path d="M5.67874 17.2452L9.3341 13.6021L13.0011 17.2389L13.0164 17.255L9.335 20.8945L5.67874 17.2452Z" fill="#1FBCFD"/>
<path d="M9.33502 20.8945L13.0164 17.255L19.3763 23.6076C16.9807 23.6129 14.5859 23.6058 12.1912 23.6111C12.0548 23.6416 11.9704 23.5171 11.8833 23.44L9.33502 20.8945Z" fill="#08589C"/>
</svg>
