<svg width="24" height="24" viewBox="0 0 24 24" fill="none" xmlns="http://www.w3.org/2000/svg">
<path fill-rule="evenodd" clip-rule="evenodd" d="M5.45455 5.63636C5.23755 5.63636 5.02944 5.72256 4.876 5.876C4.72256 6.02944 4.63636 6.23755 4.63636 6.45455V17.9091C4.63636 18.1261 4.72256 18.3342 4.876 18.4876C5.02944 18.6411 5.23755 18.7273 5.45455 18.7273H18.5455C18.7624 18.7273 18.9706 18.6411 19.124 18.4876C19.2774 18.3342 19.3636 18.1261 19.3636 17.9091V8.90909C19.3636 8.6921 19.2774 8.48399 19.124 8.33055C18.9706 8.17711 18.7625 8.09091 18.5455 8.09091H11.1818C10.9083 8.09091 10.6528 7.95419 10.501 7.72657L9.10758 5.63636H5.45455ZM3.71892 4.71892C4.17924 4.2586 4.80356 4 5.45455 4H9.54545C9.81902 4 10.0745 4.13672 10.2262 4.36434L11.6197 6.45455H18.5455C19.1964 6.45455 19.8208 6.71315 20.2811 7.17347C20.7414 7.63378 21 8.2581 21 8.90909V17.9091C21 18.5601 20.7414 19.1844 20.2811 19.6447C19.8208 20.105 19.1964 20.3636 18.5455 20.3636H5.45455C4.80356 20.3636 4.17924 20.105 3.71892 19.6447C3.2586 19.1844 3 18.5601 3 17.9091V6.45455C3 5.80356 3.2586 5.17924 3.71892 4.71892Z" fill="white"/>
</svg>
