<svg width="24" height="24" viewBox="0 0 24 24" fill="none" xmlns="http://www.w3.org/2000/svg">
<path fill-rule="evenodd" clip-rule="evenodd" d="M5.45455 5.63636C5.23755 5.63636 5.02944 5.72256 4.876 5.876C4.72256 6.02944 4.63636 6.23755 4.63636 6.45454V17.9091C4.63636 18.1261 4.72256 18.3342 4.876 18.4876C5.02944 18.6411 5.23755 18.7273 5.45455 18.7273H16.0909C16.1263 18.7273 16.1616 18.7296 16.1966 18.7341C16.3582 18.7552 16.5224 18.7275 16.6682 18.6546C16.7982 18.5896 16.9083 18.4913 16.9874 18.3701L19.0012 13H9.28121L7.85057 16.5766C7.68275 16.9961 7.20659 17.2002 6.78704 17.0324C6.36749 16.8646 6.16343 16.3884 6.33125 15.9689L7.96761 11.878C8.09186 11.5673 8.39271 11.3636 8.72727 11.3636H17.7273V8.90909C17.7273 8.69209 17.6411 8.48399 17.4876 8.33055C17.3342 8.17711 17.1261 8.09091 16.9091 8.09091H11.1818C10.9083 8.09091 10.6528 7.95419 10.501 7.72657L9.10758 5.63636H5.45455ZM19.3636 11.3636V8.90909C19.3636 8.2581 19.105 7.63378 18.6447 7.17346C18.1844 6.71315 17.5601 6.45454 16.9091 6.45454H11.6197L10.2262 4.36434C10.0745 4.13672 9.81901 4 9.54545 4H5.45455C4.80356 4 4.17924 4.2586 3.71892 4.71892C3.2586 5.17924 3 5.80356 3 6.45454V17.9091C3 18.5601 3.2586 19.1844 3.71892 19.6447C4.17924 20.105 4.80356 20.3636 5.45455 20.3636H16.0432C16.5092 20.4131 16.9801 20.3282 17.4 20.1182C17.8373 19.8996 18.1994 19.5553 18.4397 19.1295C18.4606 19.0926 18.4785 19.0542 18.4934 19.0146L20.9479 12.4691C21.0421 12.2178 21.0071 11.9363 20.8543 11.7158C20.7015 11.4952 20.4502 11.3636 20.1818 11.3636H19.3636Z" fill="white"/>
</svg>
