<svg width="20" height="20" viewBox="0 0 20 20" fill="none" xmlns="http://www.w3.org/2000/svg">
<path fill-rule="evenodd" clip-rule="evenodd" d="M9.79164 12.9165C9.72772 12.9165 9.6759 12.9683 9.6759 13.0322C9.6759 13.0962 9.72772 13.148 9.79164 13.148C9.85557 13.148 9.90738 13.0962 9.90738 13.0322C9.90738 12.9683 9.85557 12.9165 9.79164 12.9165ZM8.4259 13.0322C8.4259 12.278 9.03737 11.6665 9.79164 11.6665C10.5459 11.6665 11.1574 12.278 11.1574 13.0322C11.1574 13.7865 10.5459 14.398 9.79164 14.398C9.03737 14.398 8.4259 13.7865 8.4259 13.0322Z" fill="white"/>
<path fill-rule="evenodd" clip-rule="evenodd" d="M16.4584 5C16.8035 5 17.0834 5.27982 17.0834 5.625V10.0694C17.0834 10.4146 16.8035 10.6944 16.4584 10.6944H12.0139C11.6687 10.6944 11.3889 10.4146 11.3889 10.0694C11.3889 9.72427 11.6687 9.44444 12.0139 9.44444H15.8334V5.625C15.8334 5.27982 16.1132 5 16.4584 5Z" fill="white"/>
<path fill-rule="evenodd" clip-rule="evenodd" d="M9.79137 6.99072C8.18913 6.9908 6.65252 7.62732 5.51956 8.76029C4.38653 9.89332 3.75 11.43 3.75 13.0324C3.75 13.3776 3.47018 13.6574 3.125 13.6574C2.77982 13.6574 2.5 13.3776 2.5 13.0324C2.5 11.0985 3.26823 9.24386 4.63568 7.8764C6.00313 6.50895 7.8578 5.74072 9.79167 5.74072H9.7923C11.5868 5.74255 13.3175 6.40601 14.6534 7.60415L14.6542 7.60487L16.8764 9.60487C17.133 9.83578 17.1538 10.231 16.9229 10.4875C16.692 10.7441 16.2968 10.7649 16.0402 10.534L13.8188 8.5347C13.8186 8.53453 13.8184 8.53436 13.8182 8.5342C12.7115 7.54185 11.2778 6.99232 9.79137 6.99072Z" fill="white"/>
</svg>
