<svg width="24" height="24" viewBox="0 0 24 24" fill="none" xmlns="http://www.w3.org/2000/svg">
<path fill-rule="evenodd" clip-rule="evenodd" d="M15.2952 6.26035C14.9481 5.91322 14.3853 5.91322 14.0381 6.26035C13.691 6.60748 13.691 7.1703 14.0381 7.51743L16.9651 10.4445H8.44444C7.2657 10.4445 6.13524 10.9127 5.30175 11.7462C4.46825 12.5797 4 13.7102 4 14.8889V16.6667C4 17.1576 4.39797 17.5556 4.88889 17.5556C5.37981 17.5556 5.77778 17.1576 5.77778 16.6667V14.8889C5.77778 14.1817 6.05873 13.5034 6.55883 13.0033C7.05892 12.5032 7.7372 12.2222 8.44444 12.2222H16.9651L14.0381 15.1492C13.691 15.4964 13.691 16.0592 14.0381 16.4063C14.3853 16.7534 14.9481 16.7534 15.2952 16.4063L19.7371 11.9645C19.7458 11.9558 19.7543 11.947 19.7627 11.938C19.9099 11.7794 20 11.5669 20 11.3333C20 11.2128 19.976 11.0979 19.9326 10.9931C19.8892 10.8882 19.8249 10.79 19.7396 10.7048L15.2952 6.26035Z" fill="white"/>
</svg>
