<svg width="24" height="24" viewBox="0 0 24 24" fill="none" xmlns="http://www.w3.org/2000/svg">
<path d="M13.57 10.8071L8.06524 6.28693C7.8805 6.13527 7.65653 6.03912 7.41934 6.00965C7.18214 5.98017 6.94145 6.01857 6.72521 6.1204C6.50897 6.22223 6.32605 6.38331 6.19768 6.58493C6.06931 6.78655 6.00077 7.02045 6 7.25947V16.7582C6.0009 16.997 6.06949 17.2308 6.19781 17.4322C6.32614 17.6337 6.50894 17.7947 6.72503 17.8965C6.94111 17.9983 7.18163 18.0367 7.41868 18.0074C7.65574 17.978 7.87962 17.8821 8.06438 17.7307L13.57 13.2105C13.7473 13.065 13.8902 12.882 13.9882 12.6747C14.0863 12.4673 14.1372 12.2408 14.1372 12.0114C14.1372 11.782 14.0863 11.5555 13.9882 11.3481C13.8902 11.1408 13.7473 10.9578 13.57 10.8123V10.8071Z" fill="white"/>
<path d="M15.4249 6.00028H18V18.0175H15.4249V6.00028Z" fill="white"/>
</svg>
