<svg width="24" height="24" viewBox="0 0 24 24" fill="none" xmlns="http://www.w3.org/2000/svg">
<path d="M20 9.14286L20 4.85714C20 4.38376 19.602 4 19.1111 4L4.88889 4C4.39797 4 4 4.38376 4 4.85714L4 9.14286C4 9.61624 4.39797 10 4.88889 10L19.1111 10C19.602 10 20 9.61624 20 9.14286Z" stroke="currentColor" stroke-width="1.5" stroke-linecap="round" stroke-linejoin="round"/>
<path d="M20 19.1429L20 14.8571C20 14.3838 19.6162 14 19.1429 14L14.8571 14C14.3838 14 14 14.3838 14 14.8571L14 19.1429C14 19.6162 14.3838 20 14.8571 20L19.1429 20C19.6162 20 20 19.6162 20 19.1429Z" stroke="currentColor" stroke-width="1.5" stroke-linecap="round" stroke-linejoin="round"/>
<path d="M10 19.1429L10 14.8571C10 14.3838 9.61624 14 9.14286 14L4.85714 14C4.38376 14 4 14.3838 4 14.8571L4 19.1429C4 19.6162 4.38376 20 4.85714 20L9.14286 20C9.61624 20 10 19.6162 10 19.1429Z" stroke="currentColor" stroke-width="1.5" stroke-linecap="round" stroke-linejoin="round"/>
</svg>
