<svg width="24" height="24" viewBox="0 0 24 24" fill="none" xmlns="http://www.w3.org/2000/svg">
<path fill-rule="evenodd" clip-rule="evenodd" d="M4.90636 6.05545C4.15364 6.73455 3.68727 7.66727 3.58091 8.67364L3.56455 8.78C3.43364 9.88454 3 13.5909 3 14.8182C3 15.6936 3.34364 16.5118 3.95727 17.1336C4.57091 17.7391 5.41364 18.0909 6.27273 18.0909C7.42636 18.0909 8.04 17.4773 8.49 17.0273L9.64364 15.8736C9.79909 15.7264 10.0118 15.6364 10.2245 15.6364H13.7755C13.9964 15.6364 14.2009 15.7182 14.3564 15.8818L15.51 17.0355L15.523 17.0483C15.9719 17.489 16.5847 18.0909 17.7273 18.0909C18.6027 18.0909 19.4209 17.7473 20.0427 17.1336C20.6564 16.5118 21 15.6936 21 14.8182C21 13.5827 20.5664 9.88454 20.4273 8.78L20.4191 8.67364C20.3209 7.66727 19.8464 6.73455 19.0936 6.05545C18.3409 5.37636 17.3673 5 16.3527 5H7.64727C6.63273 5 5.65909 5.37636 4.90636 6.05545ZM13.7755 14H10.2245C9.57 14 8.94818 14.2536 8.48182 14.72L7.32818 15.8736C6.92727 16.2745 6.73091 16.4545 6.27273 16.4545C5.83909 16.4545 5.43 16.2745 5.11909 15.9718C4.80818 15.6691 4.63636 15.2518 4.63636 14.8182C4.63636 13.9182 4.92273 11.21 5.19273 8.98454L5.20909 8.83727C5.26636 8.23182 5.55273 7.67545 6.00273 7.26636C6.45273 6.85727 7.04182 6.63636 7.64727 6.63636H16.3527C16.9582 6.63636 17.5473 6.85727 17.9973 7.26636C18.4473 7.67545 18.7336 8.23182 18.7991 8.88636C18.7991 8.88636 18.8073 8.96818 18.8073 8.97636C19.0773 11.2018 19.3636 13.91 19.3636 14.8182C19.3636 15.2518 19.1918 15.6691 18.8891 15.9718C18.5782 16.2827 18.1609 16.4545 17.7273 16.4545C17.2691 16.4545 17.0727 16.2745 16.6636 15.8736L15.51 14.72C15.0436 14.2536 14.43 14 13.7755 14ZM8.72727 13.1818C8.27727 13.1818 7.90909 12.8136 7.90909 12.3636V11.5455H7.09091C6.64091 11.5455 6.27273 11.1773 6.27273 10.7273C6.27273 10.2773 6.64091 9.9091 7.09091 9.9091H7.90909V9.09089C7.90909 8.64089 8.27727 8.27271 8.72727 8.27271C9.17727 8.27271 9.54545 8.64089 9.54545 9.09089V9.9091H10.3636C10.8136 9.9091 11.1818 10.2773 11.1818 10.7273C11.1818 11.1773 10.8136 11.5455 10.3636 11.5455H9.54545V12.3636C9.54545 12.8136 9.17727 13.1818 8.72727 13.1818ZM13.6445 11.5455C13.6445 11.9955 14.0127 12.3637 14.4627 12.3637C14.9127 12.3637 15.2809 11.9955 15.2809 11.5455C15.2809 11.0955 14.9127 10.7273 14.4627 10.7273H14.4545C14.0045 10.7273 13.6445 11.0955 13.6445 11.5455ZM16.9173 10.7273C16.4673 10.7273 16.0991 10.3591 16.0991 9.90909C16.0991 9.45909 16.4591 9.0909 16.9091 9.0909H16.9173C17.3673 9.0909 17.7355 9.45909 17.7355 9.90909C17.7355 10.3591 17.3673 10.7273 16.9173 10.7273Z" fill="white"/>
</svg>
