<svg width="24" height="24" viewBox="0 0 24 24" fill="none" xmlns="http://www.w3.org/2000/svg">
<path fill-rule="evenodd" clip-rule="evenodd" d="M8.31821 4.63636C7.99272 4.63636 7.68056 4.76566 7.4504 4.99582C7.22024 5.22598 7.09094 5.53814 7.09094 5.86364C7.09094 6.18913 7.22024 6.50129 7.4504 6.73145C7.67764 6.95868 7.98481 7.08761 8.30582 7.09085H10.8988C10.7989 6.82955 10.6724 6.54223 10.5161 6.25793C10.0015 5.32228 9.29504 4.63636 8.31821 4.63636ZM5.45458 5.86364C5.45458 6.29221 5.55065 6.71088 5.73086 7.09085H3.81818C3.36631 7.09085 3 7.45716 3 7.90903V11.9999C3 12.4518 3.36631 12.8181 3.81818 12.8181H4.63636V20.1819C4.63636 20.6337 5.00267 21 5.45454 21H18.5454C18.9973 21 19.3636 20.6337 19.3636 20.1819V12.8181H20.1818C20.6337 12.8181 21 12.4518 21 11.9999V7.90903C21 7.45716 20.6337 7.09085 20.1818 7.09085H18.2692C18.4494 6.71088 18.5455 6.29221 18.5455 5.86364C18.5455 5.10415 18.2437 4.37578 17.7067 3.83874C17.1697 3.3017 16.4413 3 15.6818 3C13.795 3 12.6605 4.35954 12.0501 5.46934C12.0331 5.50027 12.0164 5.53117 12 5.56203C11.9836 5.53117 11.9669 5.50027 11.9499 5.46934C11.3395 4.35954 10.205 3 8.31821 3C7.55873 3 6.83035 3.3017 6.29332 3.83874C5.75628 4.37578 5.45458 5.10415 5.45458 5.86364ZM15.6942 7.09085H13.1013C13.2012 6.82955 13.3276 6.54223 13.4839 6.25793C13.9986 5.32228 14.705 4.63636 15.6818 4.63636C16.0073 4.63636 16.3195 4.76566 16.5496 4.99582C16.7798 5.22598 16.9091 5.53814 16.9091 5.86364C16.9091 6.18913 16.7798 6.50129 16.5496 6.73145C16.3224 6.95868 16.0152 7.08761 15.6942 7.09085ZM12.8182 8.72727V11.1818H19.3636V8.72721H15.7007C15.6944 8.72725 15.6881 8.72727 15.6818 8.72727H12.8182ZM4.63636 8.72721H8.29929L8.31821 8.72727H11.1818V11.1818H4.63636V8.72721ZM11.1818 12.8181H6.27272V19.3637H11.1818V12.8181ZM12.8182 19.3637V12.8181H17.7273V19.3637H12.8182Z" fill="white"/>
</svg>
