<svg width="18" height="18" viewBox="0 0 18 18" fill="none" xmlns="http://www.w3.org/2000/svg">
<path d="M3.66667 7.22222H2.91667H3.66667ZM9.75 9C9.75 8.58579 9.41421 8.25 9 8.25C8.58579 8.25 8.25 8.58579 8.25 9H9.75ZM10.9167 14.3333C10.9167 15.3919 10.0585 16.25 9 16.25V17.75C10.887 17.75 12.4167 16.2203 12.4167 14.3333H10.9167ZM9 16.25C7.94145 16.25 7.08333 15.3919 7.08333 14.3333H5.58333C5.58333 16.2203 7.11303 17.75 9 17.75V16.25ZM7.08333 14.3333C7.08333 13.2748 7.94145 12.4167 9 12.4167V10.9167C7.11303 10.9167 5.58333 12.4464 5.58333 14.3333H7.08333ZM9 12.4167C10.0585 12.4167 10.9167 13.2748 10.9167 14.3333H12.4167C12.4167 12.4464 10.887 10.9167 9 10.9167V12.4167ZM5.58333 3.66667C5.58333 4.72521 4.72521 5.58333 3.66667 5.58333V7.08333C5.55364 7.08333 7.08333 5.55364 7.08333 3.66667H5.58333ZM3.66667 5.58333C2.60812 5.58333 1.75 4.72521 1.75 3.66667H0.25C0.25 5.55364 1.77969 7.08333 3.66667 7.08333V5.58333ZM1.75 3.66667C1.75 2.60812 2.60812 1.75 3.66667 1.75V0.25C1.77969 0.25 0.25 1.77969 0.25 3.66667H1.75ZM3.66667 1.75C4.72521 1.75 5.58333 2.60812 5.58333 3.66667H7.08333C7.08333 1.77969 5.55364 0.25 3.66667 0.25V1.75ZM16.25 3.66667C16.25 4.72521 15.3919 5.58333 14.3333 5.58333V7.08333C16.2203 7.08333 17.75 5.55364 17.75 3.66667H16.25ZM14.3333 5.58333C13.2748 5.58333 12.4167 4.72521 12.4167 3.66667H10.9167C10.9167 5.55364 12.4464 7.08333 14.3333 7.08333V5.58333ZM12.4167 3.66667C12.4167 2.60812 13.2748 1.75 14.3333 1.75V0.25C12.4464 0.25 10.9167 1.77969 10.9167 3.66667H12.4167ZM14.3333 1.75C15.3919 1.75 16.25 2.60812 16.25 3.66667H17.75C17.75 1.77969 16.2203 0.25 14.3333 0.25V1.75ZM13.5833 6.33333V7.22222H15.0833V6.33333H13.5833ZM13.5833 7.22222C13.5833 7.49481 13.475 7.75622 13.2823 7.94897L14.343 9.00963C14.817 8.53558 15.0833 7.89263 15.0833 7.22222H13.5833ZM13.2823 7.94897C13.0896 8.14172 12.8281 8.25 12.5556 8.25V9.75C13.226 9.75 13.8689 9.48368 14.343 9.00963L13.2823 7.94897ZM12.5556 8.25H5.44444V9.75H12.5556V8.25ZM5.44444 8.25C5.17186 8.25 4.91044 8.14172 4.7177 7.94897L3.65704 9.00963C4.13109 9.48368 4.77404 9.75 5.44444 9.75V8.25ZM4.7177 7.94897C4.52495 7.75622 4.41667 7.49481 4.41667 7.22222H2.91667C2.91667 7.89263 3.18299 8.53558 3.65704 9.00963L4.7177 7.94897ZM4.41667 7.22222V6.33333H2.91667V7.22222H4.41667ZM8.25 9V11.6667H9.75V9H8.25Z" fill="white"/>
</svg>
