<svg width="24" height="24" viewBox="0 0 24 24" fill="none" xmlns="http://www.w3.org/2000/svg">
<path d="M12 3C7.0305 3 3 7.02975 3 12C3 15.9765 5.5785 19.35 9.15525 20.5402C9.6045 20.6235 9.75 20.3445 9.75 20.1075V18.432C7.2465 18.9765 6.72525 17.37 6.72525 17.37C6.31575 16.3298 5.7255 16.053 5.7255 16.053C4.90875 15.4942 5.78775 15.5062 5.78775 15.5062C6.6915 15.5692 7.167 16.434 7.167 16.434C7.9695 17.8095 9.27225 17.412 9.786 17.1818C9.86625 16.6005 10.0995 16.203 10.3575 15.9788C8.35875 15.75 6.25725 14.9782 6.25725 11.5305C6.25725 10.5472 6.609 9.74475 7.18425 9.11475C7.09125 8.8875 6.783 7.97175 7.272 6.73275C7.272 6.73275 8.028 6.49125 9.74775 7.65525C10.4655 7.45575 11.235 7.356 12 7.35225C12.765 7.356 13.5352 7.45575 14.2545 7.65525C15.9727 6.49125 16.7272 6.73275 16.7272 6.73275C17.217 7.9725 16.9087 8.88825 16.8158 9.11475C17.3932 9.74475 17.742 10.548 17.742 11.5305C17.742 14.9872 15.6368 15.7485 13.6327 15.9713C13.9552 16.2502 14.25 16.7978 14.25 17.6378V20.1075C14.25 20.3468 14.394 20.628 14.8507 20.5395C18.4245 19.3477 21 15.975 21 12C21 7.02975 16.9703 3 12 3Z" fill="white"/>
</svg>
