<svg width="24" height="24" viewBox="0 0 24 24" fill="none" xmlns="http://www.w3.org/2000/svg">
<path fill-rule="evenodd" clip-rule="evenodd" d="M11.3169 4.41483C11.0148 4.44169 10.7177 4.4862 10.4268 4.54731C10.0504 5.16283 9.71694 5.96904 9.45242 6.9197H11.3169V4.41483ZM8.56942 5.19925C7.71757 5.6298 6.9576 6.2157 6.32676 6.9197H8.0201C8.17573 6.30245 8.3598 5.72558 8.56942 5.19925ZM5.33989 8.30431C4.83719 9.20831 4.5132 10.2254 4.41566 11.3077H7.44081C7.47128 10.2597 7.57055 9.24911 7.73052 8.30431H5.33989ZM4.41566 12.6923C4.50212 13.6518 4.76654 14.5599 5.17566 15.3835H7.68025C7.54967 14.5295 7.46795 13.6257 7.44081 12.6923H4.41566ZM6.06172 16.7681C6.74009 17.6119 7.59459 18.308 8.56942 18.8008C8.32485 18.1866 8.11504 17.5037 7.94461 16.7681H6.06172ZM10.4268 19.4527C10.7177 19.5138 11.0148 19.5583 11.3169 19.5852V16.7681H9.36937C9.6456 17.8551 10.0099 18.7709 10.4268 19.4527ZM12.7015 19.5835C12.9973 19.5565 13.2882 19.5126 13.5732 19.4527C13.9901 18.7709 14.3544 17.8551 14.6306 16.7681H12.7015V19.5835ZM15.4306 18.8008C16.4054 18.308 17.2599 17.6119 17.9383 16.7681H16.0554C15.885 17.5037 15.6752 18.1866 15.4306 18.8008ZM18.816 15.4003C19.2298 14.5723 19.4973 13.6583 19.5843 12.6923H16.5592C16.5321 13.6257 16.4503 14.5295 16.3198 15.3835H18.6635C18.7159 15.3835 18.7669 15.3893 18.816 15.4003ZM21 12C21 7.02944 16.9706 3 12 3C7.02944 3 3 7.02944 3 12C3 16.9706 7.02944 21 12 21C16.9706 21 21 16.9706 21 12ZM19.5843 11.3077H16.5592C16.5287 10.2597 16.4295 9.24911 16.2695 8.30431H18.6601C19.1628 9.20831 19.4868 10.2254 19.5843 11.3077ZM17.6732 6.9197C17.0424 6.2157 16.2824 5.62981 15.4306 5.19925C15.6402 5.72558 15.8243 6.30245 15.9799 6.9197H17.6732ZM13.5732 4.54731C13.2882 4.48744 12.9973 4.44351 12.7015 4.4165V6.9197H14.5476C14.2831 5.96904 13.9496 5.16283 13.5732 4.54731ZM15.174 12.6923C15.1447 13.6448 15.0555 14.5487 14.9179 15.3835H12.7015V12.6923H15.174ZM11.3169 12.6923V15.3835H9.08207C8.94453 14.5487 8.85533 13.6448 8.826 12.6923H11.3169ZM9.13633 8.30431C8.96795 9.22439 8.85903 10.2352 8.826 11.3077H11.3169V8.30431H9.13633ZM12.7015 8.30431V11.3077H15.174C15.141 10.2352 15.0321 9.22439 14.8637 8.30431H12.7015Z" fill="white"/>
</svg>
