<svg width="24" height="24" viewBox="0 0 24 24" fill="none" xmlns="http://www.w3.org/2000/svg">
<path fill-rule="evenodd" clip-rule="evenodd" d="M8.72567 5.40259C9.71194 4.91215 10.8238 4.63636 12 4.63636C14.5531 4.63636 16.8027 5.93567 18.1237 7.90911H16.9091C16.2581 7.90911 15.6338 8.16772 15.1735 8.62803C14.7132 9.08835 14.4546 9.71267 14.4546 10.3637C14.4546 10.5807 14.3684 10.7888 14.2149 10.9422C14.0615 11.0956 13.8534 11.1818 13.6364 11.1818C13.4194 11.1818 13.2113 11.0956 13.0578 10.9422C12.9044 10.7888 12.8182 10.5807 12.8182 10.3637C12.8182 9.71267 12.5596 9.08835 12.0993 8.62803C11.639 8.16772 11.0146 7.90911 10.3637 7.90911V8.72729L10.3173 7.91042C9.96319 7.93051 9.61211 7.83498 9.31698 7.63822C9.05689 7.46483 8.85266 7.2211 8.7273 6.93666V5.45457C8.7273 5.43711 8.72675 5.41977 8.72567 5.40259ZM7.09093 6.51135C5.97294 7.51197 5.16249 8.84915 4.81884 10.3636H6.27274C6.92372 10.3636 7.54805 10.6222 8.00836 11.0825C8.46868 11.5429 8.72728 12.1672 8.72728 12.8182V13.6363C8.72728 13.8533 8.81348 14.0614 8.96692 14.2149C9.12036 14.3683 9.32847 14.4545 9.54547 14.4545C10.1965 14.4545 10.8208 14.7131 11.2811 15.1734C11.7414 15.6338 12 16.2581 12 16.9091L12 19.3636C12.5624 19.3636 13.1101 19.3006 13.6364 19.1812V16.0909C13.6364 15.4399 13.895 14.8156 14.3553 14.3553C14.8156 13.895 15.4399 13.6364 16.0909 13.6364H19.1812C19.3006 13.1101 19.3636 12.5624 19.3636 12C19.3636 11.1394 19.216 10.3132 18.9446 9.54548H16.9091C16.6921 9.54548 16.484 9.63168 16.3306 9.78512C16.1771 9.93856 16.0909 10.1467 16.0909 10.3637C16.0909 11.0146 15.8323 11.639 15.372 12.0993C14.9117 12.5596 14.2874 12.8182 13.6364 12.8182C12.9854 12.8182 12.3611 12.5596 11.9008 12.0993C11.4404 11.639 11.1818 11.0146 11.1818 10.3637C11.1818 10.1467 11.0956 9.93856 10.9422 9.78512C10.7929 9.63583 10.5919 9.5502 10.3813 9.54566C9.68275 9.57913 8.99158 9.38795 8.40929 8.99976C7.81902 8.60625 7.3726 8.03159 7.13726 7.36234C7.1066 7.27514 7.09093 7.18337 7.09093 7.09093V6.51135ZM18.5982 15.2727H16.0909C15.8739 15.2727 15.6658 15.3589 15.5124 15.5124C15.3589 15.6658 15.2727 15.8739 15.2727 16.0909V18.5982C16.7115 17.8832 17.8832 16.7115 18.5982 15.2727ZM11.3698 20.9783C11.578 20.9927 11.7881 21 12 21C16.9706 21 21 16.9706 21 12C21 7.02944 16.9706 3 12 3C7.02944 3 3 7.02944 3 12C3 16.5781 6.41825 20.3578 10.8417 20.9262C10.9453 20.9736 11.0605 21 11.1818 21C11.2465 21 11.3095 20.9925 11.3698 20.9783ZM10.3636 19.1812V16.9091C10.3636 16.6921 10.2774 16.484 10.124 16.3305C9.97057 16.1771 9.76246 16.0909 9.54547 16.0909C8.89448 16.0909 8.27016 15.8323 7.80984 15.372C7.34952 14.9117 7.09092 14.2873 7.09092 13.6363V12.8182C7.09092 12.6012 7.00472 12.3931 6.85128 12.2396C6.69784 12.0862 6.48973 12 6.27274 12H4.63637C4.63637 12 4.63637 12 4.63636 12C4.63636 12 4.63636 12 4.63636 12C4.63636 15.5044 7.08439 18.4371 10.3636 19.1812Z" fill="white"/>
</svg>
