<svg width="32" height="32" viewBox="0 0 32 32" fill="none" xmlns="http://www.w3.org/2000/svg">
<path fill-rule="evenodd" clip-rule="evenodd" d="M9.05743 8.52923C9.48348 8.10306 9.48337 7.4122 9.0572 6.98615C8.63102 6.56011 7.94016 6.56021 7.51412 6.98639C5.26403 9.23715 4 12.2894 4 15.472C4 18.6546 5.26403 21.7069 7.51412 23.9577C7.94016 24.3839 8.63102 24.384 9.0572 23.9579C9.48337 23.5319 9.48348 22.841 9.05743 22.4148C7.21645 20.5733 6.18224 18.076 6.18224 15.472C6.18224 12.8681 7.21645 10.3708 9.05743 8.52923ZM24.4859 6.98639C24.0598 6.56021 23.369 6.56011 22.9428 6.98615C22.5166 7.4122 22.5165 8.10306 22.9426 8.52923C24.7836 10.3708 25.8178 12.8681 25.8178 15.472C25.8178 18.076 24.7836 20.5733 22.9426 22.4148C22.5165 22.841 22.5166 23.5319 22.9428 23.9579C23.369 24.384 24.0598 24.3839 24.4859 23.9577C26.736 21.7069 28 18.6546 28 15.472C28 12.2894 26.736 9.23715 24.4859 6.98639ZM12.1448 11.6067C12.5711 11.1809 12.5715 10.49 12.1456 10.0637C11.7197 9.63731 11.0289 9.63693 10.6025 10.0628C9.8924 10.7722 9.32904 11.6145 8.94467 12.5417C8.5603 13.469 8.36246 14.4628 8.36246 15.4666C8.36246 16.4703 8.5603 17.4642 8.94467 18.3914C9.32904 19.3186 9.8924 20.161 10.6025 20.8704C11.0289 21.2962 11.7197 21.2958 12.1456 20.8695C12.5715 20.4431 12.5711 19.7523 12.1448 19.3264C11.6375 18.8197 11.2351 18.218 10.9606 17.5557C10.686 16.8934 10.5447 16.1835 10.5447 15.4666C10.5447 14.7496 10.686 14.0397 10.9606 13.3774C11.2351 12.7151 11.6375 12.1134 12.1448 11.6067ZM21.3975 10.0737C20.9711 9.64784 20.2803 9.64822 19.8544 10.0746C19.4285 10.5009 19.4289 11.1918 19.8552 11.6176C20.3625 12.1243 20.7649 12.726 21.0394 13.3883C21.314 14.0506 21.4553 14.7605 21.4553 15.4775C21.4553 16.1944 21.314 16.9044 21.0394 17.5667C20.7649 18.229 20.3625 18.8306 19.8552 19.3373C19.4289 19.7632 19.4285 20.4541 19.8544 20.8804C20.2803 21.3068 20.9711 21.3071 21.3975 20.8813C22.1076 20.1719 22.671 19.3295 23.0553 18.4023C23.4397 17.4751 23.6375 16.4812 23.6375 15.4775C23.6375 14.4738 23.4397 13.4799 23.0553 12.5526C22.671 11.6254 22.1076 10.7831 21.3975 10.0737ZM14.9089 15.4721C14.9089 14.8695 15.3974 14.3809 16 14.3809C16.6026 14.3809 17.0911 14.8695 17.0911 15.4721C17.0911 16.0747 16.6026 16.5632 16 16.5632C15.3974 16.5632 14.9089 16.0747 14.9089 15.4721ZM16 12.1987C14.1921 12.1987 12.7266 13.6642 12.7266 15.4721C12.7266 17.2799 14.1921 18.7454 16 18.7454C17.8078 18.7454 19.2733 17.2799 19.2733 15.4721C19.2733 13.6642 17.8078 12.1987 16 12.1987Z" fill="currentColor" fill-opacity="0.98"/>
</svg>
