<svg width="24" height="24" viewBox="0 0 24 24" fill="none" xmlns="http://www.w3.org/2000/svg">
<path d="M20.2988 12.157C20.2988 11.4604 20.2423 10.9521 20.12 10.425H12.1657V13.569H16.8347C16.7406 14.3503 16.2323 15.527 15.1026 16.3177L15.0868 16.423L17.6018 18.3713L17.776 18.3887C19.3763 16.9108 20.2988 14.7363 20.2988 12.157Z" fill="#4285F4"/>
<path d="M12.167 20.4412C14.4544 20.4412 16.3747 19.6881 17.7774 18.3891L15.1039 16.3181C14.3885 16.817 13.4283 17.1653 12.167 17.1653C9.92657 17.1653 8.02506 15.6874 7.34723 13.6447L7.24788 13.6531L4.63272 15.677L4.59852 15.7721C5.9917 18.5397 8.85339 20.4412 12.167 20.4412Z" fill="#34A853"/>
<path d="M7.34723 13.6447C7.16838 13.1176 7.06426 12.5527 7.06426 11.9691C7.06426 11.3855 7.16777 10.8207 7.33721 10.2935L7.33247 10.1813L4.68457 8.12489L4.59794 8.1661C4.02375 9.31454 3.69427 10.6042 3.69427 11.9691C3.69427 13.3341 4.02433 14.6237 4.59852 15.7721L7.34723 13.6447Z" fill="#FABB05"/>
<path d="M12.1669 6.77286C13.7577 6.77286 14.8308 7.46003 15.4427 8.03429L17.8337 5.69976C16.3653 4.33483 14.4543 3.49703 12.1669 3.49703C8.85335 3.49703 5.9911 5.39859 4.59794 8.1661L7.33721 10.2935C8.02445 8.25085 9.92652 6.77286 12.1669 6.77286Z" fill="#E94235"/>
</svg>
