<svg width="24" height="24" viewBox="0 0 24 24" fill="none" xmlns="http://www.w3.org/2000/svg">
<path fill-rule="evenodd" clip-rule="evenodd" d="M12.3659 5.08638C12.1356 4.97121 11.8644 4.97121 11.6341 5.08638L3.45228 9.17729C3.17509 9.31588 3 9.59919 3 9.90909C3 10.219 3.17509 10.5023 3.45228 10.6409L6.27271 12.0511V15.6364C6.27271 15.8534 6.35891 16.0615 6.51235 16.2149C7.92778 17.6304 9.99668 18.2955 12 18.2955C14.0033 18.2955 16.0722 17.6304 17.4876 16.2149C17.6411 16.0615 17.7273 15.8534 17.7273 15.6364V12.0511L19.3636 11.2329V14.8182C19.3636 15.2701 19.7299 15.6364 20.1818 15.6364C20.6337 15.6364 21 15.2701 21 14.8182V9.90909C21 9.7052 20.9254 9.51873 20.8021 9.37547C20.7278 9.28924 20.6359 9.21866 20.5319 9.16937L12.3659 5.08638ZM16.5587 10.8059C16.5486 10.8107 16.5386 10.8157 16.5287 10.8209L12 13.0852L7.47059 10.8205C7.46113 10.8156 7.45156 10.8108 7.44189 10.8062L5.64769 9.90909L12 6.73294L18.3523 9.90909L16.5587 10.8059ZM7.90907 12.8693L11.6341 14.7318C11.8644 14.847 12.1356 14.847 12.3659 14.7318L16.0909 12.8693V15.2804C15.0526 16.177 13.5544 16.6591 12 16.6591C10.4455 16.6591 8.94737 16.177 7.90907 15.2804V12.8693Z" fill="white"/>
</svg>
