<svg width="24" height="24" viewBox="0 0 24 24" fill="none" xmlns="http://www.w3.org/2000/svg">
<path fill-rule="evenodd" clip-rule="evenodd" d="M4 5C4 4.44771 4.44772 4 5 4H7.86076C8.41304 4 8.86076 4.44772 8.86076 5V7.86076C8.86076 8.41304 8.41304 8.86076 7.86076 8.86076H5C4.44771 8.86076 4 8.41304 4 7.86076V5ZM9.56964 5C9.56964 4.44771 10.0174 4 10.5696 4H13.4304C13.9827 4 14.4304 4.44772 14.4304 5V7.86076C14.4304 8.41304 13.9827 8.86076 13.4304 8.86076H10.5696C10.0174 8.86076 9.56964 8.41304 9.56964 7.86076V5ZM16.1393 4C15.587 4 15.1393 4.44771 15.1393 5V7.86076C15.1393 8.41304 15.587 8.86076 16.1393 8.86076H19C19.5523 8.86076 20 8.41304 20 7.86076V5C20 4.44772 19.5523 4 19 4H16.1393ZM4 10.5696C4 10.0173 4.44772 9.56962 5 9.56962H7.86076C8.41304 9.56962 8.86076 10.0173 8.86076 10.5696V13.4304C8.86076 13.9827 8.41304 14.4304 7.86076 14.4304H5C4.44771 14.4304 4 13.9827 4 13.4304V10.5696ZM5 15.1392C4.44772 15.1392 4 15.587 4 16.1392V19C4 19.5523 4.44771 20 5 20H7.86076C8.41304 20 8.86076 19.5523 8.86076 19V16.1392C8.86076 15.587 8.41304 15.1392 7.86076 15.1392H5ZM9.56964 10.5696C9.56964 10.0173 10.0174 9.56962 10.5696 9.56962H13.4304C13.9827 9.56962 14.4304 10.0173 14.4304 10.5696V13.4304C14.4304 13.9827 13.9827 14.4304 13.4304 14.4304H10.5696C10.0174 14.4304 9.56964 13.9827 9.56964 13.4304V10.5696ZM10.5696 15.1392C10.0174 15.1392 9.56964 15.587 9.56964 16.1392V19C9.56964 19.5523 10.0174 20 10.5696 20H13.4304C13.9827 20 14.4304 19.5523 14.4304 19V16.1392C14.4304 15.587 13.9827 15.1392 13.4304 15.1392H10.5696ZM15.1393 10.5696C15.1393 10.0173 15.587 9.56962 16.1393 9.56962H19C19.5523 9.56962 20 10.0173 20 10.5696V13.4304C20 13.9827 19.5523 14.4304 19 14.4304H16.1393C15.587 14.4304 15.1393 13.9827 15.1393 13.4304V10.5696ZM16.1393 15.1392C15.587 15.1392 15.1393 15.587 15.1393 16.1392V19C15.1393 19.5523 15.587 20 16.1393 20H19C19.5523 20 20 19.5523 20 19V16.1392C20 15.587 19.5523 15.1392 19 15.1392H16.1393Z" fill="white"/>
</svg>
