<svg width="24" height="24" viewBox="0 0 24 24" fill="none" xmlns="http://www.w3.org/2000/svg">
<path fill-rule="evenodd" clip-rule="evenodd" d="M5 4C4.44772 4 4 4.44771 4 5V9.85714C4 10.4094 4.44771 10.8571 5 10.8571H9.85714C10.4094 10.8571 10.8571 10.4094 10.8571 9.85714V5C10.8571 4.44772 10.4094 4 9.85714 4H5ZM14.1428 4C13.5906 4 13.1428 4.44771 13.1428 5V9.85714C13.1428 10.4094 13.5906 10.8571 14.1428 10.8571H19C19.5523 10.8571 20 10.4094 20 9.85714V5C20 4.44772 19.5523 4 19 4H14.1428ZM4 14.1429C4 13.5906 4.44772 13.1429 5 13.1429H9.85714C10.4094 13.1429 10.8571 13.5906 10.8571 14.1429V19C10.8571 19.5523 10.4094 20 9.85714 20H5C4.44771 20 4 19.5523 4 19V14.1429ZM14.1428 13.1429C13.5906 13.1429 13.1428 13.5906 13.1428 14.1429V19C13.1428 19.5523 13.5906 20 14.1428 20H19C19.5523 20 20 19.5523 20 19V14.1429C20 13.5906 19.5523 13.1429 19 13.1429H14.1428Z" fill="white"/>
</svg>
