<svg xmlns="http://www.w3.org/2000/svg" width="24" height="24" viewBox="0 0 24 24" fill="none">
  <path fill-rule="evenodd" clip-rule="evenodd" d="M12 5C9.97496 5 8.33334 6.64162 8.33334 8.66667C8.33334 10.6917 9.97496 12.3333 12 12.3333C14.0251 12.3333 15.6667 10.6917 15.6667 8.66667C15.6667 6.64162 14.0251 5 12 5ZM9.80001 8.66667C9.80001 7.45164 10.785 6.46667 12 6.46667C13.215 6.46667 14.2 7.45164 14.2 8.66667C14.2 9.88169 13.215 10.8667 12 10.8667C10.785 10.8667 9.80001 9.88169 9.80001 8.66667Z" fill="currentColor"/>
  <path d="M9.06666 13.8C8.0942 13.8 7.16157 14.1863 6.47394 14.8739C5.7863 15.5616 5.4 16.4942 5.4 17.4667V18.9333C5.4 19.3383 5.72832 19.6666 6.13333 19.6666C6.53834 19.6666 6.86666 19.3383 6.86666 18.9333V17.4667C6.86666 16.8832 7.09845 16.3236 7.51103 15.911C7.92361 15.4984 8.48319 15.2667 9.06666 15.2667H14.9333C15.5168 15.2667 16.0764 15.4984 16.489 15.911C16.9016 16.3236 17.1333 16.8832 17.1333 17.4667V18.9333C17.1333 19.3383 17.4617 19.6666 17.8667 19.6666C18.2717 19.6666 18.6 19.3383 18.6 18.9333V17.4667C18.6 16.4942 18.2137 15.5616 17.5261 14.8739C16.8384 14.1863 15.9058 13.8 14.9333 13.8H9.06666Z" fill="currentColor"/>
  <path d="M19.3566 14.4454C19.4579 14.0532 19.8579 13.8174 20.25 13.9187C21.0366 14.1218 21.7335 14.5804 22.2313 15.2224C22.729 15.8645 22.9994 16.6537 23 17.4662V18.9334C23 19.3384 22.6717 19.6667 22.2667 19.6667C21.8617 19.6667 21.5333 19.3384 21.5333 18.9334V17.4672C21.5329 16.9799 21.3707 16.5062 21.0721 16.121C20.7734 15.7358 20.3553 15.4606 19.8833 15.3387C19.4912 15.2375 19.2554 14.8375 19.3566 14.4454Z" fill="currentColor"/>
  <path d="M17.3152 5.11822C16.9229 5.01776 16.5234 5.25439 16.4229 5.64674C16.3225 6.03909 16.5591 6.43859 16.9514 6.53905C17.4247 6.66022 17.8441 6.93544 18.1436 7.32132C18.4432 7.70721 18.6058 8.18181 18.6058 8.6703C18.6058 9.1588 18.4432 9.6334 18.1436 10.0193C17.8441 10.4052 17.4247 10.6804 16.9514 10.8016C16.5591 10.902 16.3225 11.3015 16.4229 11.6939C16.5234 12.0862 16.9229 12.3228 17.3152 12.2224C18.1039 12.0204 18.803 11.5617 19.3022 10.9186C19.8015 10.2755 20.0724 9.48446 20.0724 8.6703C20.0724 7.85615 19.8015 7.06515 19.3022 6.422C18.803 5.77886 18.1039 5.32016 17.3152 5.11822Z" fill="currentColor"/>
  <path fill-rule="evenodd" clip-rule="evenodd" d="M12 5C14.0251 5 15.6667 6.64162 15.6667 8.66667C15.6667 10.6917 14.0251 12.3333 12 12.3333C9.97496 12.3333 8.33334 10.6917 8.33334 8.66667C8.33334 6.64162 9.97496 5 12 5ZM14.2 8.66667C14.2 7.45164 13.215 6.46667 12 6.46667C10.785 6.46667 9.80001 7.45164 9.80001 8.66667C9.80001 9.88169 10.785 10.8667 12 10.8667C13.215 10.8667 14.2 9.88169 14.2 8.66667Z" fill="currentColor"/>
  <path d="M14.9333 13.8C15.9058 13.8 16.8384 14.1863 17.5261 14.8739C18.2137 15.5616 18.6 16.4942 18.6 17.4667V18.9333C18.6 19.3383 18.2717 19.6666 17.8667 19.6666C17.4617 19.6666 17.1333 19.3383 17.1333 18.9333V17.4667C17.1333 16.8832 16.9016 16.3236 16.489 15.911C16.0764 15.4984 15.5168 15.2667 14.9333 15.2667H9.06666C8.48319 15.2667 7.92361 15.4984 7.51103 15.911C7.09845 16.3236 6.86666 16.8832 6.86666 17.4667V18.9333C6.86666 19.3383 6.53834 19.6666 6.13333 19.6666C5.72832 19.6666 5.4 19.3383 5.4 18.9333V17.4667C5.4 16.4942 5.7863 15.5616 6.47394 14.8739C7.16157 14.1863 8.0942 13.8 9.06666 13.8H14.9333Z" fill="currentColor"/>
  <path d="M4.64338 14.4454C4.54213 14.0532 4.14215 13.8174 3.75 13.9187C2.96338 14.1218 2.26649 14.5804 1.76875 15.2224C1.27101 15.8645 1.0006 16.6537 1 17.4662V18.9334C1 19.3384 1.32832 19.6667 1.73333 19.6667C2.13834 19.6667 2.46667 19.3384 2.46667 18.9334V17.4672C2.46708 16.9799 2.62932 16.5062 2.92792 16.121C3.22656 15.7358 3.6447 15.4606 4.11667 15.3387C4.50882 15.2375 4.74463 14.8375 4.64338 14.4454Z" fill="currentColor"/>
  <path d="M6.68477 5.11822C7.07712 5.01776 7.47662 5.25439 7.57708 5.64674C7.67754 6.03909 7.44091 6.43859 7.04856 6.53905C6.57533 6.66022 6.15589 6.93544 5.85636 7.32132C5.55683 7.70721 5.39425 8.18181 5.39425 8.6703C5.39425 9.1588 5.55683 9.6334 5.85636 10.0193C6.15589 10.4052 6.57533 10.6804 7.04856 10.8016C7.44091 10.902 7.67754 11.3015 7.57708 11.6939C7.47662 12.0862 7.07712 12.3228 6.68477 12.2224C5.89605 12.0204 5.19698 11.5617 4.69777 10.9186C4.19855 10.2755 3.92758 9.48446 3.92758 8.6703C3.92758 7.85615 4.19855 7.06515 4.69777 6.422C5.19698 5.77886 5.89606 5.32016 6.68477 5.11822Z" fill="currentColor"/>
</svg>