<svg width="24" height="24" viewBox="0 0 24 24" fill="none" xmlns="http://www.w3.org/2000/svg">
<path fill-rule="evenodd" clip-rule="evenodd" d="M18.3934 8.70245C16.7067 6.99026 14.4089 6.01817 12.0056 6H11.9945C10.8042 6.00899 9.62741 6.25236 8.53123 6.71619C7.43505 7.18003 6.44097 7.85525 5.60576 8.7033C4.77056 9.55135 4.11059 10.5556 3.66353 11.6587C3.21684 12.761 2.99146 13.9404 3.00025 15.1296V16.6528C3.00025 17.1399 3.19376 17.607 3.5382 17.9515C3.88264 18.2959 4.34981 18.4894 4.83693 18.4894H9.79358L9.79598 18.4894L9.79837 18.4894H14.2016L14.204 18.4894L14.2064 18.4894H19.1631C19.6502 18.4894 20.1174 18.2959 20.4618 17.9515C20.8063 17.607 20.9998 17.1399 20.9998 16.6528V15.1273C21.0169 12.7249 20.0794 10.414 18.3934 8.70245ZM14.933 17.0201H19.1631C19.2605 17.0201 19.3539 16.9814 19.4228 16.9125C19.4917 16.8436 19.5304 16.7502 19.5304 16.6528V15.1192C19.5454 13.1054 18.7599 11.1682 17.3467 9.73362C15.9347 8.30033 14.0117 7.48603 12 7.46935C11.0046 7.4776 10.0206 7.68147 9.10381 8.06939C8.18535 8.45802 7.35244 9.02377 6.65265 9.73433C5.95285 10.4449 5.39988 11.2863 5.0253 12.2106C4.65073 13.1349 4.46189 14.1239 4.46957 15.1212L4.46962 15.1268L4.4696 16.6528C4.4696 16.7502 4.5083 16.8436 4.57719 16.9125C4.64608 16.9814 4.73951 17.0201 4.83693 17.0201H9.06704C9.11162 16.3077 9.41436 15.6335 9.92203 15.1258C10.3427 14.7051 10.8778 14.4251 11.4542 14.3162L12.9561 9.8106C13.0844 9.42567 13.5004 9.21764 13.8854 9.34595C14.2703 9.47426 14.4783 9.89032 14.35 10.2752L12.9657 14.4283C13.3804 14.5726 13.7616 14.8094 14.078 15.1258C14.5856 15.6335 14.8884 16.3077 14.933 17.0201ZM10.961 16.1648C11.2251 15.9007 11.5794 15.7475 11.9514 15.7352C11.9841 15.7374 12.0166 15.7374 12.0487 15.7352C12.4207 15.7476 12.7749 15.9007 13.039 16.1648C13.2709 16.3967 13.4173 16.6981 13.4578 17.0201H10.5422C10.5827 16.6981 10.7291 16.3967 10.961 16.1648ZM6.24954 14.0581C6.37036 13.9774 6.5124 13.9343 6.6577 13.9343C6.85255 13.9343 7.03942 14.0117 7.17719 14.1495C7.31497 14.2873 7.39238 14.4741 7.39238 14.669C7.39238 14.8143 7.34929 14.9563 7.26856 15.0772C7.18783 15.198 7.07309 15.2921 6.93885 15.3477C6.80461 15.4034 6.65689 15.4179 6.51437 15.3896C6.37186 15.3612 6.24096 15.2912 6.13821 15.1885C6.03546 15.0857 5.96549 14.9548 5.93714 14.8123C5.9088 14.6698 5.92335 14.5221 5.97895 14.3878C6.03456 14.2536 6.12872 14.1389 6.24954 14.0581ZM7.854 11.1344C7.7087 11.1344 7.56666 11.1775 7.44584 11.2582C7.32502 11.3389 7.23086 11.4537 7.17525 11.5879C7.11965 11.7222 7.1051 11.8699 7.13344 12.0124C7.16179 12.1549 7.23176 12.2858 7.33451 12.3886C7.43726 12.4913 7.56816 12.5613 7.71068 12.5896C7.85319 12.618 8.00091 12.6034 8.13515 12.5478C8.26939 12.4922 8.38413 12.398 8.46486 12.2772C8.54559 12.1564 8.58868 12.0144 8.58868 11.8691C8.58868 11.6742 8.51127 11.4874 8.3735 11.3496C8.23572 11.2118 8.04885 11.1344 7.854 11.1344ZM16.9341 14.011C17.0549 13.9303 17.197 13.8872 17.3423 13.8872C17.5371 13.8872 17.724 13.9646 17.8618 14.1024C17.9996 14.2402 18.077 14.427 18.077 14.6219C18.077 14.7672 18.0339 14.9092 17.9532 15.0301C17.8724 15.1509 17.7577 15.245 17.6234 15.3006C17.4892 15.3562 17.3415 15.3708 17.199 15.3424C17.0565 15.3141 16.9255 15.2441 16.8228 15.1414C16.7201 15.0386 16.6501 14.9077 16.6217 14.7652C16.5934 14.6227 16.6079 14.475 16.6635 14.3407C16.7191 14.2065 16.8133 14.0918 16.9341 14.011ZM16.2403 11.1344C16.095 11.1344 15.9529 11.1775 15.8321 11.2582C15.7113 11.3389 15.6171 11.4537 15.5615 11.5879C15.5059 11.7222 15.4914 11.8699 15.5197 12.0124C15.5481 12.1549 15.618 12.2858 15.7208 12.3886C15.8235 12.4913 15.9544 12.5613 16.097 12.5896C16.2395 12.618 16.3872 12.6034 16.5214 12.5478C16.6557 12.4922 16.7704 12.398 16.8511 12.2772C16.9319 12.1564 16.975 12.0144 16.975 11.8691C16.975 11.6742 16.8976 11.4874 16.7598 11.3496C16.622 11.2118 16.4351 11.1344 16.2403 11.1344ZM9.87819 9.20957C9.99901 9.12885 10.1411 9.08576 10.2864 9.08576C10.4812 9.08576 10.6681 9.16316 10.8059 9.30094C10.9436 9.43872 11.021 9.62559 11.021 9.82043C11.021 9.96574 10.9779 10.1078 10.8972 10.2286C10.8165 10.3494 10.7017 10.4436 10.5675 10.4992C10.4333 10.5548 10.2855 10.5693 10.143 10.541C10.0005 10.5126 9.86961 10.4427 9.76686 10.3399C9.66412 10.2372 9.59415 10.1063 9.5658 9.96376C9.53745 9.82125 9.552 9.67353 9.60761 9.53928C9.66321 9.40504 9.75738 9.2903 9.87819 9.20957Z" fill="white"/>
</svg>
