<svg
    width="24"
    height="24"
    viewBox="0 0 24 24"
    fill="none"
    xmlns="http://www.w3.org/2000/svg"
  >
    <path
      fillRule="evenodd"
      clipRule="evenodd"
      d="M5 6.5C5 6.08579 5.33579 5.75 5.75 5.75H18.25C18.6642 5.75 19 6.08579 19 6.5C19 6.91421 18.6642 7.25 18.25 7.25H5.75C5.33579 7.25 5 6.91421 5 6.5ZM5 12C5 11.5858 5.33579 11.25 5.75 11.25H18.25C18.6642 11.25 19 11.5858 19 12C19 12.4142 18.6642 12.75 18.25 12.75H5.75C5.33579 12.75 5 12.4142 5 12ZM5.75 16.75C5.33579 16.75 5 17.0858 5 17.5C5 17.9142 5.33579 18.25 5.75 18.25H18.25C18.6642 18.25 19 17.9142 19 17.5C19 17.0858 18.6642 16.75 18.25 16.75H5.75Z"
      fill="currentColor"
    />
  </svg>