<svg viewBox="0 0 24 24" version="1.1" xmlns="http://www.w3.org/2000/svg" xml:space="preserve" style="fill-rule:evenodd;clip-rule:evenodd;stroke-linecap:round;stroke-linejoin:round">
  <path d="M5.582 14.605c.002.011.004.021.006.032.378 1.815.999 3.326 1.988 4.387 1.007 1.079 2.354 1.649 4.077 1.649 1.268 0 2.35-.258 3.266-.802.912-.542 1.624-1.345 2.191-2.378.799-1.283 1.348-3.015 1.783-4.446.035-.109.072-.224.11-.343.089-.277.183-.57.263-.84.11-.371.215-.766.231-1.042.023-.354-.081-.692-.311-.949-.23-.257-.552-.398-.9-.422-.392-.028-.742.076-1.041.326-.278.232-.485.565-.664.941l-.003.004-.681 1.466.314-7.196V4.97c0-.787-.625-1.412-1.412-1.412-.777 0-1.396.619-1.404 1.396l-.122 2.022-.084-3.071c-.004-.784-.628-1.405-1.413-1.405-.782 0-1.404.628-1.404 1.412h0v.014l.105 3.766-.407-3.226c-.018-.764-.636-1.37-1.404-1.37-.784 0-1.412.622-1.412 1.404 0 .018.001.036.003.054l.493 4.601-.434-2.254c-.028-.755-.642-1.351-1.404-1.351-.784 0-1.412.622-1.412 1.404 0 .023.002.047.005.07l1.077 7.581Z" style="fill:none;fill-rule:nonzero;stroke:#fff;stroke-width:1px"/>
</svg>