<svg width="24" height="24" viewBox="0 0 24 24" fill="none" xmlns="http://www.w3.org/2000/svg">
<path d="M6.19331 14.8903C6.91812 18.3654 8.5216 20.4181 11.6594 20.4181C14.0108 20.4181 15.5373 19.4621 16.5858 17.5424C17.3336 16.3474 17.8579 14.7053 18.2896 13.2867C18.5209 12.5543 18.837 11.6292 18.8601 11.2205C18.891 10.758 18.5903 10.4265 18.1277 10.3956C17.5958 10.3571 17.2643 10.6655 16.9327 11.3593L15.8534 13.6799C15.7532 13.9112 15.6452 13.9883 15.5219 13.9883C15.3831 13.9883 15.2829 13.9112 15.2829 13.6568L15.638 5.51347C15.638 5.01235 15.2448 4.61916 14.7437 4.61916C14.2503 4.61916 13.8571 5.01235 13.8571 5.51347L13.502 11.4364C13.3015 11.367 13.0857 11.3054 12.8621 11.2591L12.6748 4.47634C12.6748 3.97522 12.2816 3.58203 11.7805 3.58203C11.2871 3.58203 10.8939 3.97522 10.8939 4.47634L11.0812 11.1743C10.8499 11.1974 10.6263 11.2283 10.4027 11.2668L9.61779 5.05289C9.61779 4.55947 9.2246 4.16629 8.73119 4.16629C8.23007 4.16629 7.83688 4.55947 7.83688 5.05289L8.55677 11.7725C8.32549 11.8804 8.02643 12.0429 7.82598 12.174L6.91812 7.45827C6.91812 6.96486 6.52493 6.57167 6.03152 6.57167C5.5304 6.57167 5.13721 6.96486 5.13721 7.45827L6.19331 14.8903Z" fill="#FAC919"/>
<path fill-rule="evenodd" clip-rule="evenodd" d="M4.72491 15.1966C4.71833 15.165 4.71276 15.1333 4.70823 15.1013L3.65213 7.66931C3.64219 7.5994 3.63721 7.52888 3.63721 7.45827C3.63721 6.12795 4.71047 5.07167 6.03152 5.07167C6.13518 5.07167 6.23725 5.07822 6.33736 5.09093C6.33704 5.07825 6.33688 5.06557 6.33688 5.05289C6.33688 3.72257 7.41014 2.66629 8.73119 2.66629C9.16256 2.66629 9.56656 2.77968 9.9151 2.97841C10.3504 2.43208 11.0207 2.08203 11.7805 2.08203C12.6757 2.08203 13.4509 2.56479 13.8618 3.28608C14.1339 3.17837 14.4313 3.11916 14.7437 3.11916C16.0733 3.11916 17.138 4.18392 17.138 5.51347C17.138 5.53526 17.1375 5.55705 17.1366 5.57882L16.9816 9.13357C17.3705 8.94297 17.7955 8.86831 18.2319 8.89924C18.8019 8.93824 19.3756 9.17451 19.7976 9.64686C20.2215 10.1214 20.3944 10.7252 20.3574 11.3117C20.3332 11.7181 20.1929 12.215 20.0911 12.5585C20.0093 12.8345 19.9109 13.1413 19.8226 13.4169C19.787 13.528 19.753 13.6341 19.7224 13.731C19.3047 15.1031 18.7372 16.9156 17.881 18.3001C17.2608 19.4232 16.4517 20.3517 15.377 20.9899C14.2904 21.6351 13.0423 21.9181 11.6594 21.9181C9.72296 21.9181 8.12334 21.2659 6.9245 19.9804C5.77622 18.7491 5.1143 17.0635 4.72491 15.1966ZM16.5858 17.5424C17.3336 16.3474 17.8579 14.7053 18.2896 13.2867C18.325 13.1746 18.3624 13.058 18.4004 12.9395C18.6108 12.2832 18.8405 11.5666 18.8601 11.2205C18.891 10.758 18.5903 10.4265 18.1277 10.3956C17.5958 10.3571 17.2643 10.6655 16.9327 11.3593L15.8534 13.6799C15.8532 13.6805 15.8529 13.681 15.8527 13.6816C15.7526 13.9116 15.6449 13.9883 15.5219 13.9883C15.3831 13.9883 15.2829 13.9112 15.2829 13.6568L15.638 5.51347C15.638 5.01235 15.2448 4.61916 14.7437 4.61916C14.5309 4.61916 14.3368 4.6923 14.1847 4.81568C13.9843 4.97839 13.8571 5.22847 13.8571 5.51347L13.502 11.4364C13.3015 11.367 13.0857 11.3053 12.8621 11.2591L12.6748 4.47634C12.6748 4.42781 12.6711 4.38029 12.664 4.33404C12.5976 3.90275 12.2331 3.58203 11.7805 3.58203C11.3957 3.58203 11.0719 3.82116 10.9479 4.16412C10.9129 4.26094 10.8939 4.36602 10.8939 4.47634L11.0812 11.1743C10.8499 11.1974 10.6263 11.2283 10.4027 11.2668L9.61779 5.05289C9.61779 4.85071 9.55177 4.66537 9.4399 4.517C9.42943 4.50312 9.41857 4.48956 9.40731 4.47634C9.40291 4.47117 9.39845 4.46605 9.39393 4.46099C9.23214 4.27963 8.99611 4.16629 8.73119 4.16629C8.23007 4.16629 7.83688 4.55947 7.83688 5.05289L8.55677 11.7725C8.32549 11.8804 8.02643 12.0429 7.82598 12.174L6.91812 7.45827C6.91812 7.13981 6.75432 6.86309 6.5055 6.7069C6.36881 6.6211 6.20646 6.57167 6.03152 6.57167C5.5304 6.57167 5.13721 6.96486 5.13721 7.45827L6.19331 14.8903C6.91812 18.3654 8.5216 20.4181 11.6594 20.4181C14.0108 20.4181 15.5373 19.4621 16.5858 17.5424Z" fill="#212121"/>
</svg>
