<svg width="20" height="20" viewBox="0 0 20 20" fill="none" xmlns="http://www.w3.org/2000/svg">
<path fill-rule="evenodd" clip-rule="evenodd" d="M10.4934 3.51396C10.414 3.51396 10.3354 3.52959 10.2621 3.55997C10.1888 3.59035 10.1221 3.63487 10.066 3.691C10.0099 3.74713 9.96533 3.81377 9.93495 3.88711C9.90457 3.96045 9.88894 4.03905 9.88894 4.11843V10.4167C9.88894 10.6967 9.66196 10.9236 9.38196 10.9236C9.10196 10.9236 8.87498 10.6967 8.87498 10.4167V5.60037C8.87498 5.44005 8.81129 5.2863 8.69793 5.17294C8.58457 5.05958 8.43082 4.9959 8.27051 4.9959C8.11019 4.9959 7.95644 5.05958 7.84308 5.17294C7.72972 5.2863 7.66603 5.44005 7.66603 5.60037L7.66603 11.1576C7.66603 11.3627 7.54251 11.5476 7.35307 11.626C7.16362 11.7045 6.94556 11.6611 6.80056 11.5161L5.71155 10.4271C5.57335 10.2892 5.39283 10.2011 5.19901 10.1773C5.0051 10.1535 4.80879 10.1951 4.64126 10.2957C4.50624 10.3766 4.40798 10.5071 4.36764 10.6593C4.3273 10.8115 4.34792 10.9734 4.42511 11.1106C5.82295 13.5953 6.62328 14.9896 6.84289 15.3267C6.89064 15.4002 6.9389 15.4741 6.98703 15.5474C7.34577 16.0919 7.83412 16.5389 8.40824 16.8482C8.98213 17.1574 9.62378 17.3193 10.2756 17.3194C10.2761 17.3194 10.2765 17.3194 10.277 17.3194H11.6049C12.6495 17.3194 13.6514 16.9044 14.39 16.1657C15.1287 15.427 15.5437 14.4252 15.5437 13.3805V7.08231C15.5437 6.92199 15.48 6.76824 15.3667 6.65488C15.2533 6.54152 15.0995 6.47783 14.9392 6.47783C14.7789 6.47783 14.6252 6.54152 14.5118 6.65488C14.3989 6.76775 14.3353 6.92066 14.3348 7.08022C14.3348 7.08091 14.3348 7.08161 14.3348 7.08231V10.4167C14.3348 10.6967 14.1078 10.9236 13.8278 10.9236C13.5478 10.9236 13.3208 10.6967 13.3208 10.4167V7.08231C13.3208 7.08117 13.3208 7.08003 13.3208 7.07889L13.3208 5.60037C13.3208 5.44005 13.2571 5.2863 13.1438 5.17294C13.0304 5.05958 12.8766 4.9959 12.7163 4.9959C12.556 4.9959 12.4023 5.05958 12.2889 5.17294C12.1848 5.27702 12.1226 5.41517 12.1131 5.56117C12.114 5.54728 12.114 5.57114 12.1138 5.6471C12.1138 5.6719 12.1137 5.70226 12.1136 5.73867L12.1121 8.08455L12.112 8.10668L12.112 8.10905L12.1119 8.11602C12.1119 8.11605 12.1119 8.11599 12.1119 8.11602L12.1118 10.4167C12.1118 10.6967 11.8849 10.9236 11.6049 10.9236C11.3249 10.9236 11.0979 10.6967 11.0979 10.4167V4.11843C11.0979 4.03905 11.0823 3.96045 11.0519 3.88711C11.0215 3.81377 10.977 3.74713 10.9208 3.691C10.8647 3.63487 10.7981 3.59035 10.7247 3.55997C10.6514 3.52959 10.5728 3.51396 10.4934 3.51396ZM12.112 8.09944C12.112 8.10063 12.112 8.1005 12.112 8.09944V8.09944ZM12.1117 4.09911C12.1093 3.89315 12.0675 3.68949 11.9886 3.49908C11.9073 3.30273 11.7881 3.12431 11.6378 2.97403C11.4875 2.82374 11.3091 2.70453 11.1128 2.6232C10.9164 2.54186 10.7059 2.5 10.4934 2.5C10.2809 2.5 10.0704 2.54186 9.87406 2.6232C9.67771 2.70453 9.49929 2.82374 9.34901 2.97403C9.19872 3.12431 9.07951 3.30273 8.99818 3.49908C8.91931 3.68949 8.87755 3.89315 8.8751 4.09911C8.68473 4.02244 8.47971 3.98194 8.27051 3.98194C7.84127 3.98194 7.42962 4.15245 7.1261 4.45597C6.82259 4.75948 6.65207 5.17114 6.65207 5.60037L6.65207 9.93368L6.42832 9.70992C6.13017 9.41212 5.74086 9.22227 5.3226 9.1709C4.90441 9.11955 4.48104 9.20937 4.11973 9.42612M12.1117 4.09911C12.3021 4.02244 12.5071 3.98194 12.7163 3.98194C13.1456 3.98194 13.5572 4.15245 13.8607 4.45597C14.1597 4.75492 14.3296 5.15879 14.3346 5.58104C14.525 5.50438 14.73 5.46388 14.9392 5.46388C15.3685 5.46388 15.7801 5.63439 16.0836 5.9379C16.3871 6.24142 16.5577 6.65307 16.5577 7.08231V13.3805C16.5577 14.6941 16.0358 15.9539 15.107 16.8827C14.1782 17.8115 12.9184 18.3333 11.6049 18.3333H10.2771C10.2771 18.3333 10.2772 18.3333 10.2771 18.3333H10.1229C10.0983 18.3333 10.0741 18.3316 10.0504 18.3282C9.30855 18.2943 8.58281 18.094 7.92735 17.7409C7.20523 17.3519 6.59103 16.7896 6.1399 16.1046C6.09083 16.0299 6.04164 15.9546 5.99295 15.8797C5.74978 15.5062 4.9275 14.0716 3.54141 11.6078C3.33474 11.2404 3.27953 10.8069 3.38753 10.3995C3.49552 9.99213 3.7583 9.64286 4.11973 9.42612" fill="currentColor"/>
</svg>
