<svg width="24" height="24" viewBox="0 0 24 24" fill="none" xmlns="http://www.w3.org/2000/svg">
<path fill-rule="evenodd" clip-rule="evenodd" d="M6.23664 4.40004C6.87266 4.13595 7.55456 4 8.24323 4C8.9319 4 9.6138 4.13595 10.2498 4.40004C10.8858 4.66414 11.4635 5.05119 11.9496 5.53899L11.9523 5.54172L12 5.59005L12.0477 5.54173L12.0504 5.53899C12.5365 5.05119 13.1142 4.66414 13.7502 4.40004C14.3862 4.13595 15.0681 4 15.7568 4C16.4455 4 17.1274 4.13595 17.7634 4.40004C18.3992 4.66405 18.9766 5.05092 19.4626 5.53849C21.5434 7.61979 21.5897 11.0611 19.1241 13.5728L19.1188 13.5783L12.5781 20.1189C12.4248 20.2722 12.2168 20.3583 12 20.3583C11.7832 20.3583 11.5752 20.2722 11.4219 20.1189L4.8759 13.5729C2.41033 11.0611 2.45662 7.61979 4.53738 5.53849C5.02339 5.05092 5.60084 4.66404 6.23664 4.40004ZM8.24323 5.63516C7.76977 5.63516 7.30096 5.72862 6.8637 5.91019C6.42644 6.09175 6.02932 6.35785 5.69511 6.69322L5.69411 6.69422C4.30944 8.07888 4.14287 10.4895 6.04028 12.4248L12 18.3845L17.9597 12.4248C19.8571 10.4896 19.6906 8.07889 18.3059 6.69422L18.3049 6.69322C17.9707 6.35785 17.5736 6.09175 17.1363 5.91019C16.699 5.72862 16.2302 5.63516 15.7568 5.63516C15.2833 5.63516 14.8145 5.72862 14.3773 5.91019C13.9406 6.09151 13.5439 6.35715 13.21 6.69189C13.2095 6.69233 13.2091 6.69278 13.2087 6.69322L12.5818 7.32819C12.4282 7.4838 12.2187 7.5714 12 7.5714C11.7813 7.5714 11.5718 7.4838 11.4182 7.32819L10.7914 6.69322C10.7909 6.69278 10.7905 6.69233 10.79 6.69189C10.4561 6.35715 10.0594 6.09151 9.62276 5.91019C9.1855 5.72862 8.71669 5.63516 8.24323 5.63516Z" fill="white"/>
</svg>
