<svg width="24" height="24" viewBox="0 0 24 24" fill="none" xmlns="http://www.w3.org/2000/svg">
<path fill-rule="evenodd" clip-rule="evenodd" d="M19.2 2C20.194 2 21 2.806 21 3.8V20.2C21 21.194 20.194 22 19.2 22H4.8C3.806 22 3 21.194 3 20.2V3.8C3 2.806 3.806 2 4.8 2H19.2ZM19.2 3H4.8C4.359 3 4 3.35875 4 3.8V20.2C4 20.641 4.359 21 4.8 21H19.2C19.6413 21 20 20.641 20 20.2V3.8C20 3.35875 19.6413 3 19.2 3ZM7.75 15L10 17L7.75 19V15ZM9.75 5V10.6777C10.7485 10.3527 12.1442 10 13.5 10C14.7362 10 15.4762 10.486 15.8792 10.8938C16.7037 11.7275 16.7488 12.7801 16.7501 12.979L16.7501 19H14.75V13.0275C14.7402 12.5608 14.5155 12 13.5 12C11.5576 12 9.38927 12.9332 9.17916 13.0257L9.16275 13.033L7.75 13.673V5H9.75ZM16.75 5C16.615 6.136 16.1545 7.225 15.25 8.25H13.25C14.036 7.21875 14.5295 6.1335 14.75 5H16.75Z" fill="white"/>
</svg>
