<svg width="24" height="24" viewBox="0 0 24 24" fill="none" xmlns="http://www.w3.org/2000/svg">
<path fill-rule="evenodd" clip-rule="evenodd" d="M12.6841 3.17235C12.3887 2.94255 11.975 2.94255 11.6795 3.17235L4.31587 8.89962C4.11657 9.05463 4 9.29297 4 9.54545V18.5455C4 19.1964 4.2586 19.8208 4.71892 20.2811C5.17924 20.7414 5.80356 21 6.45455 21H9.72472C9.72557 21 9.72641 21 9.72725 21C9.72809 21 9.72893 21 9.72977 21H14.6338C14.6347 21 14.6355 21 14.6363 21C14.6372 21 14.638 21 14.6389 21H17.9091C18.5601 21 19.1844 20.7414 19.6447 20.2811C20.105 19.8208 20.3636 19.1964 20.3636 18.5455V9.54545C20.3636 9.29297 20.2471 9.05463 20.0478 8.89962L12.6841 3.17235ZM15.4545 19.3636H17.9091C18.1261 19.3636 18.3342 19.2774 18.4876 19.124C18.6411 18.9706 18.7273 18.7624 18.7273 18.5455V9.94561L12.1818 4.8547L5.63636 9.94561V18.5455C5.63636 18.7625 5.72256 18.9706 5.876 19.124C6.02944 19.2774 6.23755 19.3636 6.45455 19.3636H8.90907V12C8.90907 11.5481 9.27538 11.1818 9.72725 11.1818H14.6363C15.0882 11.1818 15.4545 11.5481 15.4545 12V19.3636ZM10.5454 19.3636H13.8182V12.8182H10.5454V19.3636Z" fill="white"/>
</svg>
