<svg xmlns="http://www.w3.org/2000/svg" width="24" height="24" viewBox="0 0 24 24" fill="none">
<path d="M7.00313 12C7.00313 10.8774 6.12188 10 4.99688 10C3.89063 10 3 10.8962 3 12C3 13.0943 3.89063 14 4.99688 14C6.09375 14 7.00313 13.0943 7.00313 12ZM13.9781 12C13.9781 10.8774 13.1063 10 12 10C10.9031 10 10.0125 10.8962 10.0125 12C10.0125 13.0943 10.9031 14 12 14C13.0875 14 13.9781 13.0943 13.9781 12ZM21 12C21 10.8774 20.1188 10 19.0031 10C17.8875 10 16.9969 10.8962 16.9969 12C16.9969 13.0943 17.8875 14 19.0031 14C20.0906 14 21 13.0943 21 12Z" fill="white"/>
</svg>