<svg width="16" height="17" viewBox="0 0 16 17" fill="none" xmlns="http://www.w3.org/2000/svg">
<path d="M8 16.4756C12.2554 16.4756 15.7563 12.9746 15.7563 8.71924C15.7563 4.45654 12.2554 0.955566 7.99268 0.955566C3.72998 0.955566 0.236328 4.45654 0.236328 8.71924C0.236328 12.9746 3.7373 16.4756 8 16.4756ZM7.99268 6.36816C7.36279 6.36816 6.83545 5.84082 6.83545 5.21094C6.83545 4.55908 7.36279 4.04639 7.99268 4.04639C8.62256 4.04639 9.14258 4.55908 9.14258 5.21094C9.14258 5.84082 8.62256 6.36816 7.99268 6.36816ZM6.60107 12.8428C6.19092 12.8428 5.86865 12.5571 5.86865 12.125C5.86865 11.7368 6.19092 11.4219 6.60107 11.4219H7.44336V8.81445H6.74756C6.33008 8.81445 6.01514 8.52148 6.01514 8.104C6.01514 7.7085 6.33008 7.40088 6.74756 7.40088H8.24902C8.77637 7.40088 9.04736 7.75977 9.04736 8.31641V11.4219H9.71387C10.124 11.4219 10.4463 11.7368 10.4463 12.125C10.4463 12.5571 10.124 12.8428 9.71387 12.8428H6.60107Z" fill="white"/>
</svg>