<svg width="20" height="20" viewBox="0 0 20 20" fill="none" xmlns="http://www.w3.org/2000/svg">
<path fill-rule="evenodd" clip-rule="evenodd" d="M10 3.86364C6.61098 3.86364 3.86364 6.61098 3.86364 10C3.86364 13.389 6.61098 16.1364 10 16.1364C13.389 16.1364 16.1364 13.389 16.1364 10C16.1364 6.61098 13.389 3.86364 10 3.86364ZM2.5 10C2.5 5.85786 5.85786 2.5 10 2.5C14.1421 2.5 17.5 5.85786 17.5 10C17.5 14.1421 14.1421 17.5 10 17.5C5.85786 17.5 2.5 14.1421 2.5 10ZM9.99999 9.31822C10.3765 9.31822 10.6818 9.62348 10.6818 10V12.7273C10.6818 13.1039 10.3765 13.4091 9.99999 13.4091C9.62343 13.4091 9.31817 13.1039 9.31817 12.7273V10C9.31817 9.62348 9.62343 9.31822 9.99999 9.31822ZM9.99999 6.59096C9.62343 6.59096 9.31817 6.89622 9.31817 7.27278C9.31817 7.64934 9.62343 7.9546 9.99999 7.9546H10.0068C10.3834 7.9546 10.6886 7.64934 10.6886 7.27278C10.6886 6.89622 10.3834 6.59096 10.0068 6.59096H9.99999Z" fill="currentColor" fill-opacity="0.8"/>
</svg>
