<svg width="24" height="24" viewBox="0 0 24 24" fill="none" xmlns="http://www.w3.org/2000/svg">
<path d="M12 20.9707C17.1064 20.9707 21.3076 16.7695 21.3076 11.6631C21.3076 6.54785 17.1064 2.34668 11.9912 2.34668C6.87598 2.34668 2.68359 6.54785 2.68359 11.6631C2.68359 16.7695 6.88477 20.9707 12 20.9707ZM11.9912 8.8418C11.2354 8.8418 10.6025 8.20898 10.6025 7.45312C10.6025 6.6709 11.2354 6.05566 11.9912 6.05566C12.7471 6.05566 13.3711 6.6709 13.3711 7.45312C13.3711 8.20898 12.7471 8.8418 11.9912 8.8418ZM10.3213 16.6113C9.8291 16.6113 9.44238 16.2686 9.44238 15.75C9.44238 15.2842 9.8291 14.9062 10.3213 14.9062H11.332V11.7773H10.4971C9.99609 11.7773 9.61816 11.4258 9.61816 10.9248C9.61816 10.4502 9.99609 10.0811 10.4971 10.0811H12.2988C12.9316 10.0811 13.2568 10.5117 13.2568 11.1797V14.9062H14.0566C14.5488 14.9062 14.9355 15.2842 14.9355 15.75C14.9355 16.2686 14.5488 16.6113 14.0566 16.6113H10.3213Z" fill="white"/>
</svg>
