<svg width="32" height="32" viewBox="0 0 32 32" fill="none" xmlns="http://www.w3.org/2000/svg">
<path fill-rule="evenodd" clip-rule="evenodd" d="M22.9443 7.55801L20.1584 10.521L16.0058 9.00012L4.13128 13.345C4.05243 13.3738 4 13.4489 4 13.5328V21.6785L3.0563 22.1125C2.42897 22.401 2.01977 23.0206 2.0007 23.7108C1.98162 24.401 2.35597 25.0423 2.9664 25.365L4.60882 26.2333L4.82397 28.0789C4.90395 28.7649 5.36648 29.346 6.01708 29.5779C6.66768 29.8097 7.39349 29.6521 7.8893 29.1713L9.22388 27.877L11.0465 28.2432C11.7237 28.3792 12.4193 28.119 12.841 27.5719C13.1752 27.1382 13.2913 26.5839 13.1736 26.0638L15.9313 27.0732C15.9756 27.0895 16.0244 27.0895 16.0687 27.0732L27.8687 22.7541C27.9476 22.7252 28 22.6502 28 22.5663V15.2551L29.0346 14.1547C29.5028 13.6567 29.6435 12.9364 29.4056 12.3014C29.1661 11.6625 28.5763 11.204 27.8748 11.1542L25.6033 10.9929L25.9677 9.12294C26.1152 8.36648 25.7616 7.58027 25.0587 7.20649C24.3486 6.82896 23.4854 6.98244 22.9443 7.55801ZM22.771 15.0151L19.04 14.7502C18.8559 14.7372 18.6963 14.6164 18.6303 14.4404C18.5644 14.2645 18.604 14.0651 18.7321 13.9288L23.8879 8.44521C24.0344 8.28936 24.2636 8.25062 24.4506 8.35007C24.6376 8.44952 24.7378 8.66335 24.6965 8.87515L24.0521 12.1812L27.7831 12.4462C27.9671 12.4592 28.1268 12.58 28.1928 12.7559C28.2587 12.9319 28.219 13.1313 28.091 13.2676L22.9352 18.7512C22.7887 18.907 22.5595 18.9458 22.3725 18.8463C22.1855 18.7469 22.0853 18.533 22.1266 18.3212L22.771 15.0151ZM18.9482 16.0422L19.0492 16.0493L16.0685 17.1404C16.0242 17.1566 15.9754 17.1566 15.931 17.1404L7.67533 14.1184C7.50034 14.0544 7.50033 13.8069 7.67532 13.7428L15.931 10.7201C15.9754 10.7038 16.0242 10.7038 16.0686 10.7201L18.9718 11.7831L17.7885 13.0416C17.3202 13.5397 17.1795 14.26 17.4175 14.895C17.6569 15.5339 18.2468 15.9924 18.9482 16.0422ZM10.6209 23.9522L11.7656 26.287C11.8331 26.4247 11.8166 26.5888 11.723 26.7102C11.6294 26.8317 11.4749 26.8895 11.3245 26.8593L8.7741 26.347L6.90665 28.158C6.79655 28.2648 6.63538 28.2998 6.49091 28.2483C6.34644 28.1968 6.24373 28.0678 6.22597 27.9154L5.92485 25.3324L3.62609 24.1171C3.49054 24.0455 3.40742 23.9031 3.41165 23.7498C3.41589 23.5965 3.50675 23.459 3.64606 23.3949L6.00996 22.308L6.45684 19.7453C6.48318 19.5942 6.59299 19.4712 6.74012 19.4279C6.88725 19.3847 7.04617 19.4287 7.15007 19.5415L8.91247 21.4545L11.4888 21.0894C11.6406 21.0679 11.7914 21.1344 11.8779 21.261C11.9645 21.3876 11.9716 21.5523 11.8964 21.6859L10.6209 23.9522ZM12.2279 24.0231L14.9342 25.0138C15.0647 25.0616 15.203 24.965 15.203 24.826V18.7096C15.203 18.6257 15.1506 18.5506 15.0717 18.5218L5.86317 15.1508C5.73267 15.1031 5.59442 15.1997 5.59442 15.3386V18.5083C5.80113 18.3089 6.05592 18.1578 6.34203 18.0737C7.00459 17.8789 7.72027 18.0772 8.18819 18.5851L9.44834 19.953L11.2907 19.6919C11.9744 19.595 12.6538 19.8946 13.0433 20.4646C13.4329 21.0347 13.4651 21.7766 13.1264 22.3783L12.2152 23.9973L12.2279 24.0231ZM23.8788 19.6384L26.4057 16.9508V21.4551C26.4057 21.539 26.3533 21.614 26.2745 21.6429L17.0659 25.0138C16.9354 25.0616 16.7971 24.965 16.7971 24.826V18.7096C16.7971 18.6257 16.8496 18.5506 16.9284 18.5218L21.063 17.0083L20.8553 18.0735C20.7079 18.8299 21.0615 19.6161 21.7644 19.9899C22.4745 20.3674 23.3377 20.214 23.8788 19.6384Z" fill="currentColor" fill-opacity="0.95"/>
</svg>
