<svg width="32" height="32" viewBox="0 0 32 32" fill="none" xmlns="http://www.w3.org/2000/svg">
<path d="M16.0058 10C16.0058 10 16.0057 10.0001 16.0058 10.0001L27.9016 14.357C27.9607 14.3786 28 14.4349 28 14.4978V23.6012C28 23.6642 27.9607 23.7204 27.9016 23.7421L16.0516 28.0795C16.0183 28.0917 15.9817 28.0917 15.9484 28.0795L4.09844 23.7421C4.03932 23.7204 4 23.6642 4 23.6012V14.4979C4 14.4349 4.03933 14.3786 4.09846 14.357L16.0058 10.0001C16.0059 10.0001 16.0059 10 16.0058 10ZM16.8956 19.5338C16.8365 19.5554 16.7971 19.6117 16.7971 19.6747V25.8976C16.7971 26.0018 16.9008 26.0743 16.9987 26.0384L26.3073 22.6309C26.3664 22.6092 26.4057 22.553 26.4057 22.49V16.2671C26.4057 16.1629 26.302 16.0904 26.2041 16.1262L16.8956 19.5338ZM15.0014 26.0384C15.0993 26.0743 15.203 26.0018 15.203 25.8976V19.6747C15.203 19.6117 15.1637 19.5554 15.1046 19.5338L5.79599 16.1262C5.69811 16.0904 5.59442 16.1629 5.59442 16.2671V22.49C5.59442 22.553 5.63374 22.6092 5.69286 22.6309L15.0014 26.0384ZM7.54706 14.7898C7.41582 14.8378 7.41583 15.0234 7.54708 15.0715L15.9482 18.1467C15.9815 18.1589 16.0181 18.1589 16.0514 18.1467L24.4525 15.0715C24.5838 15.0234 24.5838 14.8378 24.4525 14.7898L16.0514 11.7138C16.0181 11.7016 15.9815 11.7016 15.9482 11.7138L7.54706 14.7898Z" fill="white"/>
<path fill-rule="evenodd" clip-rule="evenodd" d="M23.2586 10.0177C23.303 9.78977 23.1953 9.55967 22.994 9.45266C22.7927 9.34565 22.5462 9.38734 22.3885 9.55503L16.8406 15.4557C16.7028 15.6023 16.6601 15.8169 16.7311 16.0062C16.8021 16.1956 16.9739 16.3255 17.1719 16.3396L21.1867 16.6246L20.4933 20.1822C20.4489 20.4101 20.5566 20.6402 20.7579 20.7472C20.9591 20.8542 21.2057 20.8125 21.3634 20.6448L26.9112 14.7441C27.049 14.5976 27.0917 14.383 27.0208 14.1936C26.9498 14.0043 26.778 13.8743 26.58 13.8603L22.5652 13.5752L23.2586 10.0177Z" fill="#25C5C5"/>
<path fill-rule="evenodd" clip-rule="evenodd" d="M21.1868 16.6247L17.172 16.3397C16.974 16.3256 16.8022 16.1957 16.7312 16.0063C16.6602 15.817 16.7029 15.6024 16.8407 15.4558L22.3886 9.55512C22.5463 9.38742 22.7929 9.34573 22.9941 9.45275C23.1954 9.55976 23.3031 9.78985 23.2587 10.0178L22.5653 13.5753L26.5801 13.8603C26.7781 13.8744 26.9499 14.0043 27.0209 14.1937C27.0919 14.383 27.0492 14.5976 26.9114 14.7442L21.3635 20.6449C21.2058 20.8126 20.9592 20.8543 20.758 20.7473C20.5567 20.6402 20.449 20.4101 20.4934 20.1822L21.1868 16.6247ZM24.2345 12.2966L26.6788 12.4701C27.4336 12.5237 28.0683 13.0171 28.3259 13.7046C28.582 14.3878 28.4306 15.163 27.9267 15.6989L22.3789 21.5995C21.7966 22.2189 20.8677 22.384 20.1037 21.9778C19.3472 21.5756 18.9668 20.7296 19.1255 19.9156L19.5177 17.9034L17.0733 17.7299C16.3186 17.6763 15.6838 17.1829 15.4262 16.4954C15.1701 15.8122 15.3215 15.037 15.8254 14.5011L21.3732 8.60045C21.9556 7.9811 22.8844 7.81595 23.6484 8.22219C24.4049 8.6244 24.7853 9.4704 24.6267 10.2844L24.2345 12.2966Z" fill="white"/>
<path fill-rule="evenodd" clip-rule="evenodd" d="M8.58928 4.67336C8.47651 4.55095 8.30403 4.50317 8.14435 4.55011C7.98467 4.59705 7.86548 4.73057 7.8369 4.89453L7.35203 7.67561L4.78631 8.85556C4.63512 8.92509 4.5365 9.07441 4.53191 9.24075C4.52731 9.4071 4.61753 9.56164 4.76464 9.63941L7.25953 10.9584L7.58634 13.7618C7.60561 13.9271 7.71709 14.0672 7.87388 14.123C8.03068 14.1789 8.2056 14.1409 8.32509 14.025L10.3519 12.0595L13.1199 12.6155C13.2831 12.6483 13.4507 12.5856 13.5523 12.4538C13.6539 12.3219 13.6719 12.1438 13.5986 11.9944L12.3563 9.46008L13.7406 7.0008C13.8222 6.85578 13.8144 6.67701 13.7205 6.53961C13.6266 6.40222 13.4629 6.33002 13.2981 6.35337L10.502 6.74961L8.58928 4.67336Z" fill="#FF8000"/>
<path fill-rule="evenodd" clip-rule="evenodd" d="M7.35222 7.67523L7.83708 4.89416C7.86567 4.73019 7.98486 4.59668 8.14454 4.54974C8.30421 4.5028 8.4767 4.55057 8.58947 4.67298L10.5022 6.74923L13.2983 6.35299C13.4631 6.32964 13.6268 6.40184 13.7207 6.53923C13.8146 6.67663 13.8224 6.85541 13.7407 7.00042L12.3565 9.4597L13.5988 11.994C13.6721 12.1434 13.6541 12.3215 13.5525 12.4534C13.4509 12.5852 13.2833 12.6479 13.1201 12.6152L10.352 12.0591L8.32528 14.0247C8.20579 14.1405 8.03086 14.1785 7.87407 14.1227C7.71727 14.0668 7.6058 13.9267 7.58652 13.7614L7.25971 10.958L4.76483 9.63903C4.61771 9.56126 4.52749 9.40672 4.53209 9.24037C4.53669 9.07403 4.63531 8.92471 4.7865 8.85518L7.35222 7.67523ZM5.8314 11.9357L6.06491 13.9388C6.15171 14.6833 6.6537 15.314 7.3598 15.5657M5.8314 11.9357L4.04885 10.9933C3.38634 10.6431 2.98005 9.94716 3.00076 9.19805C3.02146 8.44894 3.46557 7.7765 4.14642 7.46339L5.98124 6.61957L6.32793 4.63104C6.45666 3.89267 6.9934 3.29139 7.71249 3.08C8.43157 2.86862 9.20831 3.08377 9.71615 3.63502L11.0838 5.11959L13.0834 4.83623C13.8254 4.73108 14.5627 5.0562 14.9855 5.67493C15.4083 6.29366 15.4433 7.09876 15.0757 7.75182L14.0867 9.50893L14.9744 11.3197C15.3043 11.9928 15.2235 12.7948 14.7659 13.3886C14.3083 13.9823 13.5533 14.2647 12.8184 14.1171L10.8402 13.7197L9.39176 15.1244C8.85365 15.6462 8.06591 15.8173 7.3598 15.5657" fill="white"/>
</svg>
