<svg width="27" height="22" viewBox="0 0 27 22" fill="none" xmlns="http://www.w3.org/2000/svg">
<path fill-rule="evenodd" clip-rule="evenodd" d="M6.5334 5.66668C6.5334 3.89937 7.96609 2.46668 9.7334 2.46668C11.5007 2.46668 12.9334 3.89937 12.9334 5.66668C12.9334 7.43399 11.5007 8.86668 9.7334 8.86668C7.96609 8.86668 6.5334 7.43399 6.5334 5.66668ZM9.7334 0.333344C6.78788 0.333344 4.40007 2.72116 4.40007 5.66668C4.40007 8.6122 6.78788 11 9.7334 11C12.6789 11 15.0667 8.6122 15.0667 5.66668C15.0667 2.72116 12.6789 0.333344 9.7334 0.333344ZM6.00002 13.1333C4.58553 13.1333 3.22898 13.6952 2.22878 14.6954C1.22859 15.6956 0.666687 17.0522 0.666687 18.4667V20.6C0.666687 21.1891 1.14425 21.6667 1.73335 21.6667C2.32246 21.6667 2.80002 21.1891 2.80002 20.6V18.4667C2.80002 17.618 3.13716 16.804 3.73728 16.2039C4.3374 15.6038 5.15133 15.2667 6.00002 15.2667H13.4667C14.3154 15.2667 15.1293 15.6038 15.7294 16.2039C16.3295 16.804 16.6667 17.618 16.6667 18.4667V20.6C16.6667 21.1891 17.1442 21.6667 17.7334 21.6667C18.3225 21.6667 18.8 21.1891 18.8 20.6V18.4667C18.8 17.0522 18.2381 15.6956 17.2379 14.6954C16.2377 13.6952 14.8812 13.1333 13.4667 13.1333H6.00002ZM22 5.66668C22.5891 5.66668 23.0666 6.14424 23.0666 6.73334V8.8667H25.2001C25.7892 8.8667 26.2667 9.34426 26.2667 9.93337C26.2667 10.5225 25.7892 11 25.2001 11H23.0666V13.1333C23.0666 13.7224 22.5891 14.2 22 14.2C21.4109 14.2 20.9333 13.7224 20.9333 13.1333V11H18.8001C18.211 11 17.7334 10.5225 17.7334 9.93337C17.7334 9.34426 18.211 8.8667 18.8001 8.8667H20.9333V6.73334C20.9333 6.14424 21.4109 5.66668 22 5.66668Z" fill="#F5F9FF" fill-opacity="0.95"/>
</svg>
