<svg width="24" height="24" viewBox="0 0 24 24" fill="none" xmlns="http://www.w3.org/2000/svg">
<path fill-rule="evenodd" clip-rule="evenodd" d="M8.69754 2.53259C7.70003 2.53259 6.74338 2.92885 6.03804 3.6342C5.33269 4.33954 4.93643 5.29619 4.93643 6.2937C4.93643 7.29121 5.33269 8.24786 6.03804 8.95321C6.74338 9.65856 7.70003 10.0548 8.69754 10.0548C9.69505 10.0548 10.6517 9.65856 11.357 8.95321C12.0624 8.24786 12.4587 7.29121 12.4587 6.2937C12.4587 5.2962 12.0624 4.33954 11.357 3.6342C10.6517 2.92885 9.69505 2.53259 8.69754 2.53259ZM7.07589 4.67205C7.50598 4.24196 8.08931 4.00034 8.69754 4.00034C9.30578 4.00034 9.8891 4.24196 10.3192 4.67205C10.7493 5.10214 10.9909 5.68547 10.9909 6.2937C10.9909 6.90194 10.7493 7.48527 10.3192 7.91535C9.8891 8.34544 9.30578 8.58706 8.69754 8.58706C8.08931 8.58706 7.50598 8.34544 7.07589 7.91535C6.6458 7.48527 6.40418 6.90194 6.40418 6.2937C6.40418 5.68547 6.6458 5.10214 7.07589 4.67205ZM10.3547 12.4496C9.71282 12.1761 9.01321 12.0659 8.3184 12.129C7.62359 12.192 6.95522 12.4262 6.37305 12.8107C5.79089 13.1951 5.31307 13.7179 4.98233 14.3322C4.65159 14.9465 4.47824 15.6331 4.47776 16.3308C4.47748 16.7361 4.14869 17.0645 3.74339 17.0642C3.33808 17.0639 3.00973 16.7351 3.01001 16.3298C3.01065 15.3896 3.24428 14.4642 3.69 13.6364C4.13572 12.8085 4.77964 12.104 5.56419 11.5859C6.34874 11.0678 7.24947 10.7521 8.18583 10.6672C9.12219 10.5823 10.065 10.7307 10.93 11.0993C11.3028 11.2581 11.4763 11.6892 11.3175 12.0621C11.1586 12.4349 10.7275 12.6084 10.3547 12.4496ZM12.2203 12.6978C13.1837 11.7344 14.4904 11.1932 15.8528 11.1932C17.2153 11.1932 18.5219 11.7344 19.4853 12.6978C20.4487 13.6612 20.99 14.9679 20.99 16.3303C20.99 17.6928 20.4487 18.9994 19.4853 19.9628C18.5219 20.9262 17.2153 21.4674 15.8528 21.4674C14.4904 21.4674 13.1837 20.9262 12.2203 19.9628C11.2569 18.9994 10.7157 17.6928 10.7157 16.3303C10.7157 14.9679 11.2569 13.6612 12.2203 12.6978ZM15.8528 12.6609C14.8796 12.6609 13.9463 13.0475 13.2582 13.7357C12.57 14.4238 12.1835 15.3571 12.1835 16.3303C12.1835 17.3035 12.57 18.2368 13.2582 18.925C13.9463 19.6131 14.8796 19.9997 15.8528 19.9997C16.826 19.9997 17.7593 19.6131 18.4475 18.925C19.1356 18.2368 19.5222 17.3035 19.5222 16.3303C19.5222 15.3571 19.1356 14.4238 18.4475 13.7357C17.7593 13.0475 16.826 12.6609 15.8528 12.6609ZM15.8528 13.3948C16.2581 13.3948 16.5867 13.7234 16.5867 14.1287V15.5964H18.0545C18.4598 15.5964 18.7883 15.925 18.7883 16.3303C18.7883 16.7356 18.4598 17.0642 18.0545 17.0642H16.5867V18.5319C16.5867 18.9373 16.2581 19.2658 15.8528 19.2658C15.4475 19.2658 15.119 18.9373 15.119 18.5319V17.0642H13.6512C13.2459 17.0642 12.9173 16.7356 12.9173 16.3303C12.9173 15.925 13.2459 15.5964 13.6512 15.5964H15.119V14.1287C15.119 13.7234 15.4475 13.3948 15.8528 13.3948Z" fill="white"/>
</svg>