<svg width="24" height="24" viewBox="0 0 24 24" fill="none" xmlns="http://www.w3.org/2000/svg">
<path fill-rule="evenodd" clip-rule="evenodd" d="M3 3H21V21H3V3ZM16.76 18.0897C15.9257 18.0897 15.454 17.6546 15.0914 17.0626L13.7168 17.8611C14.2134 18.8423 15.2282 19.5909 16.7991 19.5909C18.4057 19.5909 19.602 18.7566 19.602 17.2337C19.602 15.8211 18.7905 15.1929 17.3534 14.5766L16.9305 14.3954C16.2048 14.0811 15.8905 13.8757 15.8905 13.3683C15.8905 12.9577 16.2045 12.6434 16.7 12.6434C17.1857 12.6434 17.4985 12.8483 17.7885 13.3683L19.1057 12.5226C18.5485 11.5426 17.7754 11.1683 16.7 11.1683C15.1894 11.1683 14.2228 12.134 14.2228 13.4026C14.2228 14.7797 15.0337 15.4311 16.2542 15.9511L16.6771 16.1326C17.4485 16.47 17.9085 16.6754 17.9085 17.2554C17.9085 17.7394 17.4608 18.0897 16.76 18.0897ZM10.2048 18.0791C9.62367 18.0791 9.38195 17.6806 9.11624 17.2091L7.73938 18.0427C8.13824 18.8869 8.92252 19.5877 10.2768 19.5877C11.7757 19.5877 12.8025 18.7906 12.8025 17.0391V11.2649H11.1111V17.0163C11.1111 17.8617 10.7605 18.0791 10.2048 18.0791Z" fill="white"/>
</svg>
