<svg width="24" height="24" viewBox="0 0 24 24" fill="none" xmlns="http://www.w3.org/2000/svg">
<path fill-rule="evenodd" clip-rule="evenodd" d="M13.8 3.9C13.8 3.40294 14.2029 3 14.7 3H18.3C19.0161 3 19.7028 3.28446 20.2092 3.79081C20.7155 4.29716 21 4.98392 21 5.7V18.3C21 19.0161 20.7155 19.7028 20.2092 20.2092C19.7028 20.7155 19.0161 21 18.3 21H14.7C14.2029 21 13.8 20.5971 13.8 20.1C13.8 19.6029 14.2029 19.2 14.7 19.2H18.3C18.5387 19.2 18.7676 19.1052 18.9364 18.9364C19.1052 18.7676 19.2 18.5387 19.2 18.3V5.7C19.2 5.46131 19.1052 5.23239 18.9364 5.0636C18.7676 4.89482 18.5387 4.8 18.3 4.8H14.7C14.2029 4.8 13.8 4.39706 13.8 3.9ZM9.5636 6.86359C9.91507 6.51212 10.4849 6.51212 10.8364 6.86359L15.3344 11.3616C15.341 11.3681 15.3475 11.3748 15.3539 11.3816C15.5065 11.5428 15.6 11.7605 15.6 12C15.6 12.1249 15.5745 12.2439 15.5285 12.3521C15.4878 12.4481 15.4296 12.5385 15.3539 12.6184C15.3475 12.6252 15.341 12.6318 15.3344 12.6384L10.8364 17.1364C10.4849 17.4879 9.91507 17.4879 9.5636 17.1364C9.21213 16.7849 9.21213 16.2151 9.5636 15.8636L12.5272 12.9H3.9C3.40294 12.9 3 12.497 3 12C3 11.5029 3.40294 11.1 3.9 11.1H12.5272L9.5636 8.13638C9.21213 7.78491 9.21213 7.21506 9.5636 6.86359Z" fill="white"/>
</svg>
