<svg width="24" height="24" viewBox="0 0 24 24" fill="none" xmlns="http://www.w3.org/2000/svg">
<path fill-rule="evenodd" clip-rule="evenodd" d="M7.90902 3C7.45715 3 7.09085 3.36631 7.09085 3.81817C7.09085 4.27004 7.45715 4.63635 7.90902 4.63635H8.72719C9.17906 4.63635 9.54537 4.27004 9.54537 3.81817C9.54537 3.36631 9.17906 3 8.72719 3H7.90902ZM9.72778 8.20594L10.4712 7.09087H3.81817C3.36631 7.09087 3 6.72456 3 6.27269C3 5.82083 3.36631 5.45452 3.81817 5.45452H11.9869C11.9961 5.45437 12.0053 5.45436 12.0145 5.45452H13.6363C14.0881 5.45452 14.4544 5.82083 14.4544 6.27269C14.4544 6.72456 14.0881 7.09087 13.6363 7.09087H12.4378L11.0444 9.18103C11.0145 9.22586 10.9802 9.26762 10.9421 9.30572L9.47518 10.7727L11.7603 13.0578C12.0798 13.3773 12.0798 13.8953 11.7603 14.2148C11.4408 14.5344 10.9227 14.5344 10.6032 14.2148L8.3181 11.9298L6.03309 14.2148C5.71358 14.5343 5.19554 14.5343 4.87602 14.2148C4.55651 13.8952 4.55651 13.3772 4.87602 13.0577L7.16103 10.7727L5.69416 9.30581C5.37464 8.98629 5.37464 8.46825 5.69416 8.14873C6.01367 7.82922 6.53171 7.82922 6.85123 8.14873L8.3181 9.61561L9.72778 8.20594ZM16.0907 11.1818C16.4006 11.1818 16.6839 11.3568 16.8225 11.634L19.2696 16.5281C19.2749 16.5383 19.2801 16.5486 19.2851 16.5591L20.9134 19.8158C21.1155 20.2199 20.9517 20.7114 20.5475 20.9135C20.1433 21.1155 19.6519 20.9517 19.4498 20.5476L18.0396 17.7271H14.1419L12.7317 20.5476C12.5296 20.9517 12.0381 21.1155 11.634 20.9135C11.2298 20.7114 11.066 20.2199 11.2681 19.8158L12.8955 16.5609C12.901 16.5492 12.9068 16.5377 12.9128 16.5263L15.3589 11.634C15.4975 11.3568 15.7808 11.1818 16.0907 11.1818ZM14.9601 16.0907H17.2214L16.0907 13.8294L14.9601 16.0907Z" fill="white"/>
</svg>
