<svg width="24" height="24" viewBox="0 0 24 24" fill="none" xmlns="http://www.w3.org/2000/svg">
<path fill-rule="evenodd" clip-rule="evenodd" d="M11.6343 3.08638C11.8647 2.97121 12.1358 2.97121 12.3661 3.08638L20.548 7.17729C20.8251 7.31589 21.0002 7.59919 21.0002 7.9091C21.0002 8.219 20.8251 8.50231 20.548 8.6409L12.3661 12.7318C12.1358 12.847 11.8647 12.847 11.6343 12.7318L3.4525 8.6409C3.17531 8.50231 3.00022 8.219 3.00022 7.9091C3.00022 7.59919 3.17531 7.31589 3.4525 7.17729L11.6343 3.08638ZM5.64791 7.9091L12.0002 11.0853L18.3525 7.9091L12.0002 4.73294L5.64791 7.9091ZM3.08656 15.725C3.28864 15.3208 3.7801 15.157 4.18426 15.3591L12.0002 19.2671L19.8161 15.3591C20.2203 15.157 20.7117 15.3208 20.9138 15.725C21.1159 16.1292 20.9521 16.6206 20.5479 16.8227L12.3661 20.9136C12.1358 21.0288 11.8646 21.0288 11.6343 20.9136L3.45246 16.8227C3.04829 16.6206 2.88447 16.1292 3.08656 15.725ZM4.18426 11.2682C3.7801 11.0661 3.28864 11.2299 3.08656 11.6341C2.88447 12.0383 3.04829 12.5297 3.45246 12.7318L11.6343 16.8227C11.8646 16.9379 12.1358 16.9379 12.3661 16.8227L20.5479 12.7318C20.9521 12.5297 21.1159 12.0383 20.9138 11.6341C20.7117 11.2299 20.2203 11.0661 19.8161 11.2682L12.0002 15.1762L4.18426 11.2682Z" fill="white"/>
</svg>
