<svg width="24" height="24" viewBox="0 0 24 24" fill="none" xmlns="http://www.w3.org/2000/svg">
<path fill-rule="evenodd" clip-rule="evenodd" d="M3.33407 7.84112C3.5425 7.70369 3.80604 7.68016 4.03552 7.77851L12.0002 11.1919L19.9649 7.77851C20.1943 7.68016 20.4579 7.70369 20.6663 7.84112C20.8747 7.97856 21.0002 8.21152 21.0002 8.46119V16.7184C21.0002 17.0156 20.8231 17.2841 20.55 17.4011L12.2928 20.9399C12.1059 21.02 11.8945 21.02 11.7076 20.9399L3.45036 17.4011C3.17727 17.2841 3.00021 17.0156 3.00021 16.7184V8.46119C3.00021 8.21152 3.12564 7.97856 3.33407 7.84112ZM4.48567 9.58757V16.2287L12.0002 19.4492L19.5147 16.2287V9.58757L12.2928 12.6827C12.1059 12.7628 11.8945 12.7628 11.7076 12.6827L4.48567 9.58757Z" fill="white"/>
<path fill-rule="evenodd" clip-rule="evenodd" d="M12.0002 11.2573C12.4104 11.2573 12.7429 11.5898 12.7429 12V20.2572C12.7429 20.6674 12.4104 21 12.0002 21C11.59 21 11.2575 20.6674 11.2575 20.2572V12C11.2575 11.5898 11.59 11.2573 12.0002 11.2573Z" fill="white"/>
<path fill-rule="evenodd" clip-rule="evenodd" d="M9.14407 6.14679C9.30563 6.52383 9.13095 6.96045 8.7539 7.12202L4.03547 9.14387C3.65843 9.30543 3.2218 9.13075 3.06024 8.7537C2.89868 8.37666 3.07336 7.94004 3.4504 7.77847L8.16883 5.75662C8.54588 5.59506 8.9825 5.76974 9.14407 6.14679Z" fill="white"/>
<path fill-rule="evenodd" clip-rule="evenodd" d="M14.8563 6.14679C15.0179 5.76974 15.4545 5.59506 15.8316 5.75662L20.55 7.77847C20.927 7.94004 21.1017 8.37666 20.9401 8.7537C20.7786 9.13075 20.342 9.30543 19.9649 9.14387L15.2465 7.12202C14.8694 6.96045 14.6948 6.52383 14.8563 6.14679Z" fill="white"/>
<path fill-rule="evenodd" clip-rule="evenodd" d="M9.26299 3.38361C10.0233 3.13019 11.0073 3 12.0002 3C12.9931 3 13.9771 3.13019 14.7374 3.38361C15.1151 3.50951 15.4648 3.67464 15.7353 3.89229C15.9989 4.10442 16.2817 4.44845 16.2817 4.92234C16.2817 5.39623 15.9989 5.74026 15.7353 5.95239C15.4648 6.17004 15.1151 6.33517 14.7374 6.46107C13.9771 6.71449 12.9931 6.84468 12.0002 6.84468C11.0073 6.84468 10.0233 6.71449 9.26299 6.46107C8.8853 6.33517 8.53555 6.17004 8.26509 5.95239C8.00149 5.74026 7.71863 5.39623 7.71863 4.92234C7.71863 4.44845 8.00149 4.10442 8.26509 3.89229C8.53555 3.67464 8.8853 3.50951 9.26299 3.38361ZM12.0002 4.48547C11.116 4.48547 10.2998 4.60384 9.73273 4.79285C9.60041 4.83696 9.49323 4.88111 9.40815 4.92234C9.49323 4.96357 9.60041 5.00772 9.73273 5.05183C10.2998 5.24084 11.116 5.35922 12.0002 5.35922C12.8844 5.35922 13.7006 5.24084 14.2676 5.05183C14.4 5.00772 14.5071 4.96357 14.5922 4.92234C14.5071 4.88111 14.4 4.83696 14.2676 4.79285C13.7006 4.60384 12.8844 4.48547 12.0002 4.48547Z" fill="white"/>
<path fill-rule="evenodd" clip-rule="evenodd" d="M8.46136 4.1796C8.87156 4.1796 9.2041 4.51213 9.2041 4.92233V7.20333C9.21491 7.21637 9.23085 7.23388 9.25371 7.25582C9.35584 7.35381 9.53814 7.47996 9.80906 7.60494C10.3468 7.853 11.1247 8.0461 12.0002 8.0461C12.8757 8.0461 13.6536 7.853 14.1913 7.60494C14.4622 7.47996 14.6445 7.35381 14.7467 7.25582C14.7695 7.23388 14.7855 7.21637 14.7963 7.20333V4.92233C14.7963 4.51213 15.1288 4.1796 15.539 4.1796C15.9492 4.1796 16.2817 4.51214 16.2817 4.92234V7.28155C16.2817 7.74132 16.0137 8.09874 15.7751 8.32771C15.519 8.57338 15.1831 8.78335 14.8135 8.9538C14.0704 9.2966 13.0789 9.53157 12.0002 9.53157C10.9215 9.53157 9.92995 9.2966 9.18683 8.9538C8.81732 8.78335 8.48134 8.57338 8.22528 8.32771C7.98664 8.09874 7.71863 7.74132 7.71863 7.28155V4.92234C7.71863 4.51214 8.05116 4.1796 8.46136 4.1796Z" fill="white"/>
</svg>
