<svg width="24" height="24" viewBox="0 0 24 24" fill="none" xmlns="http://www.w3.org/2000/svg">
<path fill-rule="evenodd" clip-rule="evenodd" d="M16.1085 3.00019C14.8147 2.98894 13.5682 3.4863 12.6376 4.38515L12.6291 4.39347L11.2146 5.79978C10.8925 6.12001 10.891 6.64072 11.2112 6.96282C11.5314 7.28492 12.0521 7.28644 12.3742 6.96621L13.7843 5.56433C14.4043 4.96756 15.2335 4.63745 16.0942 4.64493C16.9567 4.65242 17.7818 4.99839 18.3917 5.6083C19.0016 6.21822 19.3476 7.0433 19.3551 7.90582C19.3625 8.7661 19.0327 9.59497 18.4365 10.2149L15.9746 12.6767L15.9745 12.6768C15.641 13.0105 15.2396 13.2684 14.7977 13.4333C14.3557 13.5982 13.8835 13.6661 13.413 13.6324C12.9425 13.5987 12.4847 13.4642 12.0707 13.238C11.6568 13.0118 11.2963 12.6993 11.0138 12.3216C10.7417 11.9579 10.2263 11.8836 9.8626 12.1556C9.49889 12.4277 9.4246 12.9431 9.69665 13.3068C10.1205 13.8734 10.6612 14.3422 11.2821 14.6814C11.9031 15.0207 12.5897 15.2224 13.2955 15.273C14.0012 15.3235 14.7096 15.2217 15.3725 14.9744C16.0355 14.7271 16.6375 14.3401 17.1377 13.8397L19.6048 11.3726L19.6149 11.3624C20.5137 10.4318 21.0111 9.18531 20.9998 7.89153C20.9886 6.59774 20.4696 5.36013 19.5547 4.44525C18.6399 3.53038 17.4023 3.01143 16.1085 3.00019ZM10.7045 8.71053C9.99877 8.65999 9.2904 8.76182 8.62745 9.00912C7.96455 9.2564 7.36248 9.64345 6.86226 10.1438L4.39516 12.6109L4.38515 12.6211C3.4863 13.5517 2.98894 14.7982 3.00019 16.092C3.01143 17.3858 3.53038 18.6234 4.44525 19.5382C5.36013 20.4531 6.59774 20.9721 7.89153 20.9833C9.18531 20.9946 10.4318 20.4972 11.3624 19.5984L11.3726 19.5883L12.7789 18.182C13.1001 17.8609 13.1001 17.3401 12.7789 17.019C12.4577 16.6978 11.937 16.6978 11.6158 17.019L10.2149 18.42C9.59496 19.0162 8.76609 19.3461 7.90582 19.3386C7.0433 19.3311 6.21822 18.9851 5.6083 18.3752C4.99839 17.7653 4.65242 16.9402 4.64493 16.0777C4.63745 15.2174 4.96728 14.3885 5.56355 13.7686L8.02552 11.3067C8.35901 10.973 8.76035 10.7151 9.20232 10.5502C9.64428 10.3853 10.1165 10.3174 10.587 10.3511C11.0575 10.3848 11.5153 10.5193 11.9293 10.7455C12.3432 10.9717 12.7037 11.2842 12.9862 11.6619C13.2583 12.0256 13.7737 12.0999 14.1374 11.8279C14.5011 11.5558 14.5754 11.0404 14.3033 10.6767C13.8795 10.1101 13.3388 9.64131 12.7179 9.30206C12.0969 8.96282 11.4103 8.76108 10.7045 8.71053Z" fill="white"/>
</svg>
