<svg width="24" height="24" viewBox="0 0 24 24" fill="none" xmlns="http://www.w3.org/2000/svg">
<path fill-rule="evenodd" clip-rule="evenodd" d="M5.59492 9.59492C6.20868 8.98117 7.04111 8.63636 7.90909 8.63636H9.54545C9.99732 8.63636 10.3636 8.27005 10.3636 7.81818C10.3636 7.36631 9.99732 7 9.54545 7H7.90909C6.60712 7 5.35847 7.51721 4.43784 8.43784C3.51721 9.35847 3 10.6071 3 11.9091C3 13.2111 3.51721 14.4597 4.43784 15.3803C5.35847 16.301 6.60712 16.8182 7.90909 16.8182H9.54545C9.99732 16.8182 10.3636 16.4519 10.3636 16C10.3636 15.5481 9.99732 15.1818 9.54545 15.1818H7.90909C7.04111 15.1818 6.20868 14.837 5.59492 14.2233C4.98117 13.6095 4.63636 12.7771 4.63636 11.9091C4.63636 11.0411 4.98117 10.2087 5.59492 9.59492ZM14.4545 7C14.0027 7 13.6364 7.36631 13.6364 7.81818C13.6364 8.27005 14.0027 8.63636 14.4545 8.63636H16.0909C16.9589 8.63636 17.7913 8.98117 18.4051 9.59492C19.0188 10.2087 19.3636 11.0411 19.3636 11.9091C19.3636 12.7771 19.0188 13.6095 18.4051 14.2233C17.7913 14.837 16.9589 15.1818 16.0909 15.1818H14.4545C14.0027 15.1818 13.6364 15.5481 13.6364 16C13.6364 16.4519 14.0027 16.8182 14.4545 16.8182H16.0909C17.3929 16.8182 18.6415 16.301 19.5622 15.3803C20.4828 14.4597 21 13.2111 21 11.9091C21 10.6071 20.4828 9.35847 19.5622 8.43784C18.6415 7.51721 17.3929 7 16.0909 7H14.4545ZM8.72728 11.0908C8.27541 11.0908 7.9091 11.4572 7.9091 11.909C7.9091 12.3609 8.27541 12.7272 8.72728 12.7272H15.2727C15.7246 12.7272 16.0909 12.3609 16.0909 11.909C16.0909 11.4572 15.7246 11.0908 15.2727 11.0908H8.72728Z" fill="white"/>
</svg>
