<svg width="24" height="24" viewBox="0 0 24 24" fill="none" xmlns="http://www.w3.org/2000/svg">
<path d="M12 3C7.0302 3 3 7.0302 3 12C3 16.9698 7.0302 21 12 21C16.9698 21 21 16.9698 21 12C21 7.0302 16.9698 3 12 3ZM9.3847 16.6055H7.19279V10.0111H9.3847V16.6055ZM8.28882 9.1106H8.27454C7.539 9.1106 7.06329 8.60426 7.06329 7.97145C7.06329 7.32436 7.55356 6.83203 8.30338 6.83203C9.05319 6.83203 9.51462 7.32436 9.5289 7.97145C9.5289 8.60426 9.05319 9.1106 8.28882 9.1106ZM17.2883 16.6055H15.0966V13.0776C15.0966 12.191 14.7793 11.5864 13.9862 11.5864C13.3807 11.5864 13.0201 11.9942 12.8616 12.388C12.8036 12.5289 12.7895 12.7258 12.7895 12.9229V16.6055H10.5977C10.5977 16.6055 10.6264 10.6297 10.5977 10.0111H12.7895V10.9448C13.0808 10.4954 13.6019 9.85629 14.7648 9.85629C16.2069 9.85629 17.2883 10.7988 17.2883 12.8242V16.6055Z" fill="white"/>
</svg>
