<svg width="24" height="24" viewBox="0 0 24 24" fill="none" xmlns="http://www.w3.org/2000/svg">
<path fill-rule="evenodd" clip-rule="evenodd" d="M5.5371 3.71892C5.99741 3.2586 6.62174 3 7.27272 3H13.8182H14.2273C14.4443 3 14.6524 3.0862 14.8058 3.23964L19.3058 7.73964C19.4592 7.89308 19.5455 8.10119 19.5455 8.31818V8.72475L19.5455 8.72727L19.5455 8.7298V18.5455C19.5455 19.1964 19.2868 19.8208 18.8265 20.2811C18.3662 20.7414 17.7419 21 17.0909 21H5.63636C5.18449 21 4.81818 20.6337 4.81818 20.1818C4.81818 19.7299 5.18449 19.3636 5.63636 19.3636H17.0909C17.3079 19.3636 17.516 19.2774 17.6694 19.124C17.8229 18.9706 17.9091 18.7624 17.9091 18.5455V9.54545H13.8182C13.3663 9.54545 13 9.17914 13 8.72727V4.63636H7.27272C7.05573 4.63636 6.84762 4.72256 6.69418 4.876C6.54074 5.02944 6.45454 5.23755 6.45454 5.45455V8.72727C6.45454 9.17914 6.08823 9.54545 5.63636 9.54545C5.18449 9.54545 4.81818 9.17914 4.81818 8.72727V5.45455C4.81818 4.80356 5.07678 4.17924 5.5371 3.71892ZM14.6364 7.90909V5.38436L17.1611 7.90909H14.6364ZM10.3058 13.3967C10.6253 13.0772 10.6253 12.5592 10.3058 12.2396C9.98629 11.9201 9.46825 11.9201 9.14873 12.2396L6.45455 14.9338L5.39672 13.876C5.0772 13.5565 4.55916 13.5565 4.23964 13.876C3.92012 14.1955 3.92012 14.7136 4.23964 15.0331L5.876 16.6695C6.19552 16.989 6.71357 16.989 7.03309 16.6695L10.3058 13.3967Z" fill="white"/>
</svg>
