<svg width="24" height="24" viewBox="0 0 24 24" fill="none" xmlns="http://www.w3.org/2000/svg">
<path fill-rule="evenodd" clip-rule="evenodd" d="M8.75199 3.47928C9.05887 3.1724 9.47508 3 9.90908 3H14.8182C15.2522 3 15.6684 3.1724 15.9753 3.47928C16.2821 3.78616 16.4545 4.20237 16.4545 4.63636V4.63638H17.2727C17.9237 4.63638 18.548 4.89499 19.0084 5.3553C19.4687 5.81562 19.7273 6.43994 19.7273 7.09093V18.5455C19.7273 19.1965 19.4687 19.8208 19.0084 20.2811C18.548 20.7414 17.9237 21 17.2727 21H7.45455C6.80356 21 6.17924 20.7414 5.71892 20.2811C5.2586 19.8208 5 19.1965 5 18.5455V7.09093C5 6.43994 5.2586 5.81562 5.71892 5.3553C6.17924 4.89499 6.80356 4.63638 7.45455 4.63638H8.27271V4.63636C8.27271 4.20237 8.44511 3.78616 8.75199 3.47928ZM15.9753 7.42981C16.2821 7.12294 16.4545 6.70673 16.4545 6.27275H17.2727C17.4897 6.27275 17.6978 6.35895 17.8513 6.51239C18.0047 6.66583 18.0909 6.87394 18.0909 7.09093V18.5455C18.0909 18.7625 18.0047 18.9706 17.8513 19.124C17.6978 19.2775 17.4897 19.3637 17.2727 19.3637H7.45455C7.23755 19.3637 7.02944 19.2775 6.876 19.124C6.72256 18.9706 6.63636 18.7625 6.63636 18.5455V7.09093C6.63636 6.87393 6.72256 6.66583 6.876 6.51239C7.02944 6.35895 7.23755 6.27275 7.45455 6.27275H8.27271C8.27272 6.70673 8.44512 7.12294 8.75199 7.42981C9.05887 7.73669 9.47508 7.90909 9.90908 7.90909H14.8182C15.2522 7.90909 15.6684 7.73669 15.9753 7.42981ZM9.90908 6.27273V5.45958L9.90909 5.45457L9.90908 5.44956V4.63636H14.8182V6.27273H9.90908ZM15.3967 11.7603C15.7162 11.4408 15.7162 10.9228 15.3967 10.6033C15.0772 10.2837 14.5592 10.2837 14.2396 10.6033L11.5454 13.2974L10.4876 12.2396C10.1681 11.9201 9.65006 11.9201 9.33054 12.2396C9.01102 12.5591 9.01102 13.0772 9.33054 13.3967L10.9669 15.0331C11.2864 15.3526 11.8045 15.3526 12.124 15.0331L15.3967 11.7603Z" fill="white"/>
</svg>
