<svg width="24" height="24" viewBox="0 0 24 24" fill="none" xmlns="http://www.w3.org/2000/svg">
<path fill-rule="evenodd" clip-rule="evenodd" d="M4.72364 7.08961C4.85894 6.82203 5.1372 6.63636 5.45463 6.63636H18.5455C18.8629 6.63636 19.1411 6.82202 19.2765 7.08958L12 12.1831L4.72364 7.08961ZM3.00014 7.43849C2.99997 7.4477 2.99995 7.4569 3.00009 7.46609V17.2727C3.00009 18.6245 4.10276 19.7272 5.45463 19.7272H18.5455C19.8973 19.7272 21 18.6245 21 17.2727V7.46281V7.45454M3.00014 7.43849C3.00883 6.09396 4.10811 5 5.45463 5H18.5455C19.8933 5 20.9935 6.09613 21 7.4425M4.63645 9.026L11.5308 13.8521C11.8126 14.0493 12.1875 14.0493 12.4692 13.8521L19.3637 9.02597V17.2727C19.3637 17.7208 18.9936 18.0909 18.5455 18.0909H5.45463C5.0065 18.0909 4.63645 17.7208 4.63645 17.2727V9.026Z" fill="white"/>
</svg>
