<svg width="24" height="24" viewBox="0 0 24 24" fill="none" xmlns="http://www.w3.org/2000/svg">
<path fill-rule="evenodd" clip-rule="evenodd" d="M7.25738 6.25738C8.38261 5.13216 9.90875 4.50001 11.5001 4.50001C13.0914 4.50001 14.6175 5.13216 15.7427 6.25738C16.868 7.38261 17.5001 8.90875 17.5001 10.5001C17.5001 12.8236 15.9883 15.0783 14.3306 16.828C13.5171 17.6867 12.7011 18.3897 12.0876 18.8783C11.8592 19.0601 11.6598 19.2115 11.5001 19.3296C11.3403 19.2115 11.1409 19.0601 10.9126 18.8783C10.299 18.3897 9.483 17.6867 8.6695 16.828C7.01183 15.0783 5.50001 12.8236 5.50001 10.5001C5.50001 8.90875 6.13216 7.38261 7.25738 6.25738ZM11.0836 20.8739C11.0838 20.874 11.084 20.8742 11.5001 20.2501L11.9161 20.8742C11.6642 21.0421 11.3355 21.0419 11.0836 20.8739ZM11.0836 20.8739L11.5001 20.2501C11.9161 20.8742 11.9168 20.8737 11.9171 20.8735L11.9186 20.8725L11.9236 20.8691L11.9408 20.8575C11.9554 20.8476 11.9763 20.8333 12.0029 20.8149C12.0562 20.778 12.1327 20.7242 12.2292 20.6545C12.4222 20.5152 12.6953 20.3118 13.0219 20.0517C13.6741 19.5324 14.5455 18.7822 15.4195 17.8597C17.1369 16.0469 19.0001 13.4265 19.0001 10.5001C19.0001 8.51092 18.2099 6.60325 16.8034 5.19672C15.3969 3.79018 13.4892 3 11.5001 3C9.51092 3 7.60325 3.79018 6.19672 5.19672C4.79018 6.60325 4 8.51092 4 10.5001C4 13.4265 5.86321 16.0469 7.58056 17.8597C8.45457 18.7822 9.32604 19.5324 9.97816 20.0517C10.3048 20.3118 10.578 20.5152 10.7709 20.6545C10.8674 20.7242 10.9439 20.778 10.9972 20.8149C11.0239 20.8333 11.0447 20.8476 11.0593 20.8575L11.0765 20.8691L11.0815 20.8725L11.0836 20.8739ZM10 10.5001C10 9.67165 10.6716 9.00007 11.5001 9.00007C12.3285 9.00007 13.0001 9.67165 13.0001 10.5001C13.0001 11.3285 12.3285 12.0001 11.5001 12.0001C10.6716 12.0001 10 11.3285 10 10.5001ZM11.5001 7.50006C9.84318 7.50006 8.50003 8.84321 8.50003 10.5001C8.50003 12.1569 9.84318 13.5001 11.5001 13.5001C13.1569 13.5001 14.5001 12.1569 14.5001 10.5001C14.5001 8.84321 13.1569 7.50006 11.5001 7.50006Z" fill="white"/>
</svg>
