<svg width="24" height="24" viewBox="0 0 24 24" fill="none" xmlns="http://www.w3.org/2000/svg">
<path fill-rule="evenodd" clip-rule="evenodd" d="M19.7657 4.23431C19.8602 4.32878 19.9261 4.441 19.9634 4.56022C19.9767 4.60258 19.9866 4.64645 19.9927 4.69151C19.998 4.73054 20.0004 4.76988 20 4.80919V9.6C20 10.0418 19.6418 10.4 19.2 10.4C18.7582 10.4 18.4 10.0418 18.4 9.6V6.73142L14.1657 10.9657C13.8533 11.2781 13.3468 11.2781 13.0343 10.9657C12.7219 10.6533 12.7219 10.1467 13.0343 9.83432L17.2687 5.6H14.4C13.9582 5.6 13.6 5.24183 13.6 4.8C13.6 4.35817 13.9582 4 14.4 4H19.1999H19.2L19.2074 4.00003C19.3011 4.00089 19.3947 4.01812 19.4836 4.05172C19.5864 4.09063 19.6829 4.1515 19.7657 4.23431ZM5.6 14.4001C5.6 13.9582 5.24183 13.6001 4.8 13.6001C4.35817 13.6001 4 13.9582 4 14.4001V19.1999C4 19.2 4 19.2 4 19.2001C4 19.3995 4.07301 19.582 4.19376 19.7221C4.26643 19.8064 4.35638 19.8754 4.45813 19.9235C4.56179 19.9726 4.67769 20.0001 4.8 20.0001H9.6C10.0418 20.0001 10.4 19.6419 10.4 19.2001C10.4 18.7582 10.0418 18.4001 9.6 18.4001H6.73134L10.9657 14.1657C11.2781 13.8533 11.2781 13.3468 10.9657 13.0343C10.6533 12.7219 10.1467 12.7219 9.83432 13.0343L5.6 17.2687V14.4001Z" fill="white"/>
</svg>
