<svg width="24" height="24" viewBox="0 0 24 24" fill="none" xmlns="http://www.w3.org/2000/svg">
<path fill-rule="evenodd" clip-rule="evenodd" d="M8.15001 11.6586V10.8606L9.64358 12.4164C9.86352 13.0462 10.3499 13.551 10.9677 13.7957L12.3897 15.277C12.202 15.3066 12.0095 15.322 11.8134 15.322C9.79018 15.322 8.15001 13.6818 8.15001 11.6586ZM14.1112 6.16343V10.5219L15.4667 11.9338C15.4734 11.843 15.4769 11.7512 15.4769 11.6586V6.16343C15.4769 4.14018 13.8367 2.5 11.8134 2.5C10.3293 2.5 9.0513 3.38254 8.47559 4.65144L9.54925 5.76983C9.73593 4.68833 10.6786 3.86566 11.8134 3.86566C13.0825 3.86566 14.1112 4.89441 14.1112 6.16343ZM11.8488 17.0824C12.5269 17.078 13.1755 16.9493 13.7728 16.7177L14.7803 17.7672C14.0782 18.1089 13.3083 18.3331 12.4963 18.4142V20.8172C12.4963 21.1943 12.1906 21.5 11.8134 21.5C11.4363 21.5 11.1306 21.1943 11.1306 20.8172V18.4142C7.70204 18.0718 5.02489 15.1783 5.02489 11.6596V9.82181C5.02489 9.4447 5.3306 9.13898 5.70772 9.13898C6.08484 9.13898 6.39055 9.4447 6.39055 9.82181V11.6596C6.39055 14.6428 8.79938 17.0634 11.7781 17.0824C11.7898 17.0818 11.8016 17.0815 11.8134 17.0815C11.8253 17.0815 11.8371 17.0818 11.8488 17.0824ZM16.9307 13.4589L17.9644 14.5356C18.3735 13.6624 18.602 12.6877 18.602 11.6596V9.82181C18.602 9.4447 18.2963 9.13898 17.9192 9.13898C17.5421 9.13898 17.2363 9.4447 17.2363 9.82181V11.6596C17.2363 12.2903 17.1287 12.8958 16.9307 13.4589ZM4.90302 3.28144C4.64185 3.00939 4.2096 3.00057 3.93755 3.26174C3.6655 3.5229 3.65668 3.95516 3.91785 4.2272L19.097 19.9076C19.3581 20.1796 19.7904 20.1884 20.0624 19.9273C20.3345 19.6661 20.3433 19.2339 20.0821 18.9618L4.90302 3.28144Z" fill="white"/>
</svg>
