<svg width="24" height="24" viewBox="0 0 24 24" fill="none" xmlns="http://www.w3.org/2000/svg">
<path fill-rule="evenodd" clip-rule="evenodd" d="M14.2978 11.6586V6.16343C14.2978 4.89441 13.269 3.86566 12 3.86566C10.731 3.86566 9.70223 4.89441 9.70223 6.16343V11.6586C9.70223 12.9276 10.731 13.9564 12 13.9564C13.269 13.9564 14.2978 12.9276 14.2978 11.6586ZM12 2.5C9.97674 2.5 8.33657 4.14017 8.33657 6.16343V11.6586C8.33657 13.6818 9.97674 15.322 12 15.322C14.0233 15.322 15.6634 13.6818 15.6634 11.6586V6.16343C15.6634 4.14018 14.0233 2.5 12 2.5ZM11.3172 18.4142V20.8172C11.3172 21.1943 11.6229 21.5 12 21.5C12.3771 21.5 12.6828 21.1943 12.6828 20.8172V18.4142C16.1114 18.0718 18.7886 15.1783 18.7886 11.6596V9.82182C18.7886 9.4447 18.4829 9.13898 18.1057 9.13898C17.7286 9.13898 17.4229 9.4447 17.4229 9.82182V11.6596C17.4229 14.6428 15.014 17.0634 12.0353 17.0824C12.0236 17.0818 12.0118 17.0815 12 17.0815C11.9882 17.0815 11.9764 17.0818 11.9648 17.0824C8.986 17.0634 6.57712 14.6428 6.57712 11.6596V9.82182C6.57712 9.4447 6.2714 9.13898 5.89429 9.13898C5.51717 9.13898 5.21146 9.4447 5.21146 9.82182V11.6596C5.21146 15.1783 7.8886 18.0718 11.3172 18.4142Z" fill="white"/>
</svg>
