<svg width="24" height="24" viewBox="0 0 24 24" fill="none" xmlns="http://www.w3.org/2000/svg">
<path fill-rule="evenodd" clip-rule="evenodd" d="M19.7657 4.23431C20.0781 4.54673 20.0781 5.05327 19.7657 5.36569L15.5314 9.60003H18.4C18.8419 9.60003 19.2 9.95821 19.2 10.4C19.2 10.8419 18.8419 11.2 18.4 11.2H13.6C13.4777 11.2 13.3618 11.1726 13.2582 11.1235C13.1958 11.094 13.1364 11.056 13.0818 11.0095C13.0502 10.9826 13.0208 10.9534 12.9938 10.922C12.9408 10.8606 12.8987 10.7931 12.8674 10.7219C12.8241 10.6234 12.8 10.5145 12.8 10.4V5.60003C12.8 5.15821 13.1582 4.80003 13.6 4.80003C14.0419 4.80003 14.4 5.15821 14.4 5.60003V8.46863L18.6343 4.23431C18.9468 3.9219 19.4533 3.9219 19.7657 4.23431ZM10.4 12.8H5.60003C5.15821 12.8 4.80003 13.1582 4.80003 13.6C4.80003 14.0419 5.15821 14.4 5.60003 14.4H8.46863L4.23431 18.6343C3.9219 18.9468 3.9219 19.4533 4.23431 19.7657C4.54673 20.0781 5.05327 20.0781 5.36569 19.7657L9.60003 15.5314V18.4C9.60003 18.8419 9.95821 19.2 10.4 19.2C10.8419 19.2 11.2 18.8419 11.2 18.4V13.6C11.2 13.4777 11.1726 13.3618 11.1235 13.2582C11.094 13.1958 11.056 13.1364 11.0095 13.0818C10.9316 12.9902 10.8334 12.9165 10.7219 12.8674C10.6234 12.8241 10.5145 12.8 10.4 12.8H10.4Z" fill="white"/>
</svg>
