<svg width="24" height="24" viewBox="0 0 24 24" fill="none" xmlns="http://www.w3.org/2000/svg">
<path fill-rule="evenodd" clip-rule="evenodd" d="M5.23125 5.23125C5.45733 5.00518 5.79744 4.93778 6.09265 5.06055L19.5137 10.6421C19.8167 10.7681 20.0101 11.0685 19.9996 11.3964C19.989 11.7244 19.7767 12.0117 19.4662 12.118L13.9754 13.9976L12.1186 19.4644C12.0129 19.7755 11.7257 19.9886 11.3974 19.9996C11.0691 20.0105 10.7683 19.817 10.6421 19.5137L5.06055 6.09265C4.93778 5.79744 5.00518 5.45733 5.23125 5.23125ZM7.25328 7.25328L11.2965 16.9753L12.6051 13.1224C12.6838 12.8907 12.8655 12.7086 13.097 12.6294L16.9823 11.2994L7.25328 7.25328Z" fill="white"/>
</svg>
