<svg width="24" height="24" viewBox="0 0 24 24" fill="none" xmlns="http://www.w3.org/2000/svg">
<path fill-rule="evenodd" clip-rule="evenodd" d="M8.66314 4.60692C8.54599 4.17012 8.09693 3.911 7.66014 4.02816C7.22335 4.14531 6.96423 4.59437 7.08138 5.03116L7.71761 7.40331C7.83476 7.84011 8.28382 8.09923 8.72061 7.98207C9.1574 7.86492 9.41652 7.41586 9.29937 6.97907L8.66314 4.60692ZM13.9882 6.88094C14.308 6.56117 14.308 6.04271 13.9882 5.72294C13.6684 5.40317 13.15 5.40317 12.8302 5.72294L11.0926 7.4605C10.7729 7.78028 10.7729 8.29873 11.0926 8.61851C11.4124 8.93828 11.9309 8.93828 12.2506 8.61851L13.9882 6.88094ZM4.03109 8.08054C3.59429 7.96343 3.14525 8.22259 3.02814 8.65939C2.91102 9.09619 3.17018 9.54522 3.60698 9.66234L5.97996 10.2986C6.41676 10.4157 6.8658 10.1565 6.98291 9.71972C7.10003 9.28292 6.84087 8.83389 6.40407 8.71677L4.03109 8.08054ZM7.61878 13.2496C7.9384 12.9296 7.93816 12.4112 7.61823 12.0915C7.29831 11.7719 6.77985 11.7722 6.46023 12.0921L4.7243 13.8297C4.40468 14.1496 4.40493 14.668 4.72485 14.9877C5.04478 15.3073 5.56323 15.307 5.88285 14.9871L7.61878 13.2496ZM8.77699 9.77615C9.01162 9.54153 9.36465 9.47169 9.67093 9.59931L19.4969 13.6935C19.8114 13.8245 20.0119 14.1365 20.0004 14.477C19.9889 14.8174 19.7678 15.1152 19.4452 15.2247L16.4129 16.254L19.1993 19.0404C19.519 19.3602 19.519 19.8787 19.1993 20.1984C18.8795 20.5182 18.361 20.5182 18.0413 20.1984L15.2549 17.412L14.2255 20.4444C14.116 20.7669 13.8183 20.988 13.4778 20.9995C13.1373 21.011 12.8253 20.8105 12.6943 20.4961L8.60015 10.6701C8.47253 10.3638 8.54237 10.0108 8.77699 9.77615ZM10.8767 11.8758L13.3719 17.8643L14.1274 15.6387C14.2092 15.3977 14.3985 15.2084 14.6396 15.1265L16.8652 14.371L10.8767 11.8758Z" fill="white"/>
</svg>
