<svg width="24" height="24" viewBox="0 0 24 24" fill="none" xmlns="http://www.w3.org/2000/svg">
<path fill-rule="evenodd" clip-rule="evenodd" d="M6.85127 8.96693C7.17079 9.28645 7.17079 9.8045 6.85127 10.124L4.97527 12L6.85127 13.876C7.17079 14.1955 7.17079 14.7136 6.85127 15.0331C6.53175 15.3526 6.01371 15.3526 5.69419 15.0331L3.23964 12.5786C2.92012 12.259 2.92012 11.741 3.23964 11.4215L5.69419 8.96693C6.01371 8.64741 6.53175 8.64741 6.85127 8.96693Z" fill="white"/>
<path fill-rule="evenodd" clip-rule="evenodd" d="M11.4215 3.23964C11.741 2.92012 12.259 2.92012 12.5785 3.23964L15.0331 5.69419C15.3526 6.01371 15.3526 6.53175 15.0331 6.85127C14.7136 7.17079 14.1955 7.17079 13.876 6.85127L12 4.97527L10.124 6.85127C9.80448 7.17079 9.28643 7.17079 8.96691 6.85127C8.64739 6.53175 8.64739 6.01371 8.96691 5.69419L11.4215 3.23964Z" fill="white"/>
<path fill-rule="evenodd" clip-rule="evenodd" d="M8.96691 17.1488C9.28643 16.8293 9.80448 16.8293 10.124 17.1488L12 19.0248L13.876 17.1488C14.1955 16.8293 14.7136 16.8293 15.0331 17.1488C15.3526 17.4683 15.3526 17.9864 15.0331 18.3059L12.5785 20.7604C12.259 21.08 11.741 21.08 11.4215 20.7604L8.96691 18.3059C8.64739 17.9864 8.64739 17.4683 8.96691 17.1488Z" fill="white"/>
<path fill-rule="evenodd" clip-rule="evenodd" d="M17.1487 8.96693C17.4682 8.64741 17.9863 8.64741 18.3058 8.96693L20.7604 11.4215C21.0799 11.741 21.0799 12.259 20.7604 12.5786L18.3058 15.0331C17.9863 15.3526 17.4682 15.3526 17.1487 15.0331C16.8292 14.7136 16.8292 14.1955 17.1487 13.876L19.0247 12L17.1487 10.124C16.8292 9.8045 16.8292 9.28645 17.1487 8.96693Z" fill="white"/>
<path fill-rule="evenodd" clip-rule="evenodd" d="M3 12.0001C3 11.5482 3.36631 11.1819 3.81818 11.1819H20.1818C20.6337 11.1819 21 11.5482 21 12.0001C21 12.4519 20.6337 12.8182 20.1818 12.8182H3.81818C3.36631 12.8182 3 12.4519 3 12.0001Z" fill="white"/>
<path fill-rule="evenodd" clip-rule="evenodd" d="M12 3C12.4519 3 12.8182 3.36631 12.8182 3.81818V20.1818C12.8182 20.6337 12.4519 21 12 21C11.5481 21 11.1818 20.6337 11.1818 20.1818V3.81818C11.1818 3.36631 11.5481 3 12 3Z" fill="white"/>
</svg>
