<svg width="24" height="24" viewBox="0 0 24 24" fill="none" xmlns="http://www.w3.org/2000/svg">
<path d="M5 16.9407C5 17.4867 5.21691 18.0104 5.60302 18.3965C5.98912 18.7826 6.51279 18.9995 7.05882 18.9995C7.60486 18.9995 8.12853 18.7826 8.51463 18.3965C8.90074 18.0104 9.11765 17.4867 9.11765 16.9407C9.11765 16.3946 8.90074 15.871 8.51463 15.4849C8.12853 15.0987 7.60486 14.8818 7.05882 14.8818C6.51279 14.8818 5.98912 15.0987 5.60302 15.4849C5.21691 15.871 5 16.3946 5 16.9407V16.9407Z" stroke="white" stroke-width="1.75" stroke-linecap="round" stroke-linejoin="round"/>
<path d="M14.8824 14.4701C14.8824 15.0162 15.0993 15.5398 15.4854 15.9259C15.8715 16.3121 16.3951 16.529 16.9412 16.529C17.4872 16.529 18.0109 16.3121 18.397 15.9259C18.7831 15.5398 19 15.0162 19 14.4701C19 13.9241 18.7831 13.4004 18.397 13.0143C18.0109 12.6282 17.4872 12.4113 16.9412 12.4113C16.3951 12.4113 15.8715 12.6282 15.4854 13.0143C15.0993 13.4004 14.8824 13.9241 14.8824 14.4701Z" stroke="white" stroke-width="1.75" stroke-linecap="round" stroke-linejoin="round"/>
<path d="M18.9999 14.4701V4.74583C18.9998 4.65796 18.9794 4.57129 18.9403 4.49261C18.9012 4.41392 18.8444 4.34534 18.7744 4.29224C18.7044 4.23913 18.6231 4.20293 18.5367 4.18648C18.4504 4.17002 18.3615 4.17374 18.2768 4.19736L9.5293 6.72066C9.40934 6.75403 9.30356 6.82566 9.22805 6.92466C9.15253 7.02366 9.11142 7.14462 9.11095 7.26913V16.9407" stroke="white" stroke-width="1.75" stroke-linecap="round" stroke-linejoin="round"/>
<path d="M9.11765 10.7642L19 8.29364" stroke="white" stroke-width="1.75" stroke-linecap="round" stroke-linejoin="round"/>
</svg>
