<svg width="24" height="24" viewBox="0 0 24 24" fill="none" xmlns="http://www.w3.org/2000/svg">
<path fill-rule="evenodd" clip-rule="evenodd" d="M21 6C21 5.44772 20.5523 5 20 5C19.4477 5 19 5.44772 19 6V18C19 18.5523 19.4477 19 20 19C20.5523 19 21 18.5523 21 18V6ZM15 9C15.5523 9 16 9.44772 16 10V18C16 18.5523 15.5523 19 15 19C14.4477 19 14 18.5523 14 18V10C14 9.44772 14.4477 9 15 9ZM11 14C11 13.4477 10.5523 13 10 13C9.44772 13 9 13.4477 9 14V18C9 18.5523 9.44772 19 10 19C10.5523 19 11 18.5523 11 18V14ZM5 17C4.44772 17 4 17.4477 4 18C4 18.5523 4.44772 19 5 19H5.01C5.56228 19 6.01 18.5523 6.01 18C6.01 17.4477 5.56228 17 5.01 17H5Z" fill="white"/>
</svg>
