<svg width="24" height="24" viewBox="0 0 24 24" fill="none" xmlns="http://www.w3.org/2000/svg">
<path d="M11.4106 3.00484C11.3718 3.00836 11.2487 3.02068 11.1378 3.02947C8.58123 3.25994 6.18651 4.63921 4.66979 6.75913C3.82522 7.93784 3.28504 9.27489 3.08094 10.6911C3.0088 11.1855 3 11.3315 3 12.0018C3 12.672 3.0088 12.8181 3.08094 13.3124C3.57009 16.692 5.97537 19.5314 9.23754 20.5835C9.8217 20.7717 10.4375 20.9002 11.1378 20.9776C11.4106 21.0075 12.5894 21.0075 12.8622 20.9776C14.071 20.8439 15.095 20.5448 16.105 20.0293C16.2598 19.9502 16.2897 19.929 16.2686 19.9114C16.2545 19.9009 15.5947 19.016 14.8029 17.9463L13.3636 16.0023L11.5601 13.3335C10.5677 11.8663 9.75132 10.6665 9.74428 10.6665C9.73724 10.6647 9.73021 11.8505 9.72669 13.2983C9.72141 15.8335 9.71965 15.9355 9.68798 15.9953C9.64223 16.0815 9.60704 16.1167 9.53314 16.1554C9.47683 16.1836 9.42757 16.1888 9.16188 16.1888H8.85748L8.77654 16.1378C8.72375 16.1044 8.68504 16.0604 8.65865 16.0094L8.6217 15.9302L8.62522 12.4029L8.6305 8.87378L8.68504 8.80516C8.7132 8.76822 8.77302 8.72072 8.81525 8.69785C8.88739 8.66266 8.91554 8.65914 9.21994 8.65914C9.57889 8.65914 9.63871 8.67322 9.73197 8.77526C9.75836 8.80341 10.7349 10.2742 11.9032 12.0457C13.0716 13.8173 14.6692 16.2363 15.454 17.4238L16.8792 19.5825L16.9513 19.535C17.59 19.1198 18.2657 18.5287 18.8006 17.9129C19.939 16.6058 20.6727 15.0119 20.9191 13.3124C20.9912 12.8181 21 12.672 21 12.0018C21 11.3315 20.9912 11.1855 20.9191 10.6911C20.4299 7.31154 18.0246 4.47208 14.7625 3.42003C14.1871 3.23355 13.5748 3.10512 12.8886 3.02771C12.7196 3.01012 11.5566 2.99077 11.4106 3.00484ZM15.095 8.44803C15.1795 8.49025 15.2481 8.57118 15.2727 8.65563C15.2868 8.70137 15.2903 9.67952 15.2868 11.8839L15.2815 15.0471L14.7238 14.1921L14.1642 13.3371V11.0377C14.1642 9.5511 14.1713 8.71544 14.1818 8.67498C14.21 8.57646 14.2716 8.49905 14.356 8.45331C14.4282 8.41637 14.4545 8.41285 14.7308 8.41285C14.9912 8.41285 15.037 8.41637 15.095 8.44803Z" fill="white"/>
</svg>
