<svg
    width="24"
    height="24"
    viewBox="0 0 24 24"
    fill="none"
    xmlns="http://www.w3.org/2000/svg"
  >
    <path
      d="M13.8316 10.6083L7.40944 5.33476C7.19391 5.15782 6.93262 5.04564 6.65589 5.01125C6.37917 4.97686 6.09836 5.02167 5.84608 5.14047C5.5938 5.25927 5.38039 5.44719 5.23063 5.68242C5.08087 5.91764 5.00089 6.19052 5 6.46938V17.5512C5.00105 17.8299 5.08107 18.1025 5.23078 18.3376C5.38049 18.5726 5.59376 18.7604 5.84586 18.8792C6.09796 18.998 6.37857 19.0428 6.65513 19.0086C6.9317 18.9744 7.1929 18.8625 7.40844 18.6858L13.8316 13.4123C14.0385 13.2426 14.2052 13.029 14.3196 12.7871C14.4341 12.5452 14.4934 12.2809 14.4934 12.0133C14.4934 11.7457 14.4341 11.4814 14.3196 11.2395C14.2052 10.9976 14.0385 10.784 13.8316 10.6143V10.6083Z"
      fill="currentColor"
    />
    <path
      d="M15.9957 5.00027H19V19.0203H15.9957V5.00027Z"
      fill="currentColor"
    />
  </svg>