<svg width="24" height="24" viewBox="0 0 24 24" fill="none" xmlns="http://www.w3.org/2000/svg">
<path fill-rule="evenodd" clip-rule="evenodd" d="M12.0498 4.40801C12.2049 4.68324 12.1838 5.02392 11.996 5.27798C11.3114 6.20427 10.9819 7.34555 11.0676 8.49423C11.1532 9.64291 11.6483 10.7227 12.4628 11.5372C13.2773 12.3517 14.3571 12.8468 15.5058 12.9325C16.6545 13.0181 17.7957 12.6886 18.722 12.004L19.1985 12.6485L19.9966 12.7223C19.8565 14.2382 19.2876 15.683 18.3563 16.8874C17.4251 18.0918 16.1702 19.0061 14.7383 19.5233C13.3064 20.0405 11.7568 20.1392 10.2709 19.8079C8.78498 19.4766 7.42414 18.7289 6.34763 17.6524C5.27111 16.5759 4.52345 15.215 4.19212 13.7291C3.86079 12.2432 3.95951 10.6936 4.47671 9.26171C4.99391 7.82984 5.90822 6.57487 7.11263 5.64366C8.31705 4.71245 9.76176 4.14351 11.2777 4.00341C11.5923 3.97434 11.8946 4.13278 12.0498 4.40801ZM18.045 14.1663C17.2009 14.4717 16.2955 14.5989 15.3866 14.5311C13.855 14.4169 12.4153 13.7567 11.3293 12.6707C10.2433 11.5847 9.58314 10.145 9.46893 8.61344C9.40115 7.70453 9.52831 6.7991 9.8337 5.95499C9.21042 6.1805 8.62275 6.50241 8.09316 6.91187C7.12963 7.65684 6.39819 8.66081 5.98443 9.80631C5.57066 10.9518 5.49169 12.1915 5.75676 13.3802C6.02182 14.569 6.61995 15.6576 7.48116 16.5188C8.34237 17.3801 9.43105 17.9782 10.6198 18.2432C11.8085 18.5083 13.0482 18.4293 14.1937 18.0156C15.3392 17.6018 16.3432 16.8704 17.0881 15.9068C17.4976 15.3772 17.8195 14.7896 18.045 14.1663Z" fill="white"/>
</svg>
