<svg width="24" height="24" viewBox="0 0 24 24" fill="none" xmlns="http://www.w3.org/2000/svg">
<path fill-rule="evenodd" clip-rule="evenodd" d="M4.63636 12C4.63636 7.93318 7.93318 4.63636 12 4.63636C16.0668 4.63636 19.3636 7.93318 19.3636 12C19.3636 16.0668 16.0668 19.3636 12 19.3636C7.93318 19.3636 4.63636 16.0668 4.63636 12ZM12 3C7.02944 3 3 7.02944 3 12C3 16.9706 7.02944 21 12 21C16.9706 21 21 16.9706 21 12C21 7.02944 16.9706 3 12 3ZM8.72728 11.1818C8.27541 11.1818 7.9091 11.5481 7.9091 12C7.9091 12.4519 8.27541 12.8182 8.72728 12.8182H15.2727C15.7246 12.8182 16.0909 12.4519 16.0909 12C16.0909 11.5481 15.7246 11.1818 15.2727 11.1818H8.72728Z" fill="white"/>
</svg>
