<svg width="24" height="24" viewBox="0 0 24 24" fill="none" xmlns="http://www.w3.org/2000/svg">
<path fill-rule="evenodd" clip-rule="evenodd" d="M19.2026 3.32737C18.9314 2.96582 18.4185 2.89255 18.0569 3.16371C17.6954 3.43488 17.6221 3.94779 17.8933 4.30935C18.8494 5.58417 19.3662 7.13471 19.3662 8.72823C19.3662 9.18017 19.7326 9.54654 20.1846 9.54654C20.6365 9.54654 21.0029 9.18017 21.0029 8.72823C21.0029 6.78059 20.3712 4.88549 19.2026 3.32737ZM5.95202 3.16832C6.31102 3.44285 6.3795 3.95644 6.10497 4.31544C5.15355 5.5596 4.63662 7.1022 4.63662 8.72823C4.63662 9.18017 4.27025 9.54654 3.81831 9.54654C3.36637 9.54654 3 9.18017 3 8.72823C3 6.75368 3.62871 4.85937 4.8049 3.32127C5.07944 2.96227 5.59302 2.89379 5.95202 3.16832ZM12.0014 3.00006C10.4822 3.00006 9.02524 3.60356 7.95099 4.6778C6.87675 5.75205 6.27325 7.20903 6.27325 8.72824C6.27325 11.4718 5.68646 13.1755 5.1457 14.1669C4.87419 14.6646 4.6098 14.9912 4.42615 15.185C4.33411 15.2822 4.26178 15.3466 4.21824 15.3829C4.19645 15.4011 4.18184 15.4122 4.17554 15.4169L4.1732 15.4186C3.87985 15.6201 3.75003 15.9887 3.85342 16.3302C3.95792 16.6753 4.27602 16.9114 4.63662 16.9114H19.3662C19.7268 16.9114 20.0449 16.6753 20.1494 16.3302C20.2528 15.9887 20.123 15.6201 19.8297 15.4186L19.8273 15.4169C19.821 15.4122 19.8064 15.4011 19.7846 15.3829C19.7411 15.3466 19.6688 15.2822 19.5767 15.185C19.3931 14.9912 19.1287 14.6646 18.8572 14.1669C18.3164 13.1755 17.7296 11.4718 17.7296 8.72824C17.7296 7.20903 17.1261 5.75205 16.0519 4.6778C14.9776 3.60356 13.5206 3.00006 12.0014 3.00006ZM17.6074 15.2747H6.39544C6.4577 15.1727 6.52021 15.0647 6.58248 14.9506C7.26919 13.6916 7.90987 11.7129 7.90987 8.72824C7.90987 7.64309 8.34094 6.60239 9.10826 5.83507C9.87558 5.06776 10.9163 4.63668 12.0014 4.63668C13.0866 4.63668 14.1273 5.06776 14.8946 5.83507C15.6619 6.60239 16.093 7.64309 16.093 8.72824C16.093 11.7129 16.7337 13.6916 17.4204 14.9506C17.4827 15.0647 17.5452 15.1727 17.6074 15.2747ZM11.2936 18.9557C11.0668 18.5648 10.5661 18.4317 10.1751 18.6585C9.78422 18.8852 9.65114 19.386 9.87791 19.7769C10.0937 20.1489 10.4035 20.4577 10.7761 20.6724C11.1488 20.887 11.5714 21 12.0014 21C12.4315 21 12.854 20.887 13.2267 20.6724C13.5994 20.4577 13.9092 20.1489 14.125 19.7769C14.3517 19.386 14.2186 18.8852 13.8277 18.6585C13.4368 18.4317 12.936 18.5648 12.7093 18.9557C12.6373 19.0797 12.5341 19.1826 12.4099 19.2542C12.2856 19.3257 12.1448 19.3634 12.0014 19.3634C11.8581 19.3634 11.7172 19.3257 11.593 19.2542C11.4688 19.1826 11.3655 19.0797 11.2936 18.9557Z" fill="currentColor" fill-opacity="0.8"/>
</svg>
