<svg width="24" height="24" viewBox="0 0 24 24" fill="none" xmlns="http://www.w3.org/2000/svg">
<path fill-rule="evenodd" clip-rule="evenodd" d="M20.705 12C20.711 11.2689 20.4877 10.5539 20.0661 9.95705C19.7917 9.56849 19.4432 9.24202 19.0426 8.99566C19.1588 8.538 19.1838 8.05831 19.1137 7.58562C19.0046 6.85857 18.6751 6.1826 18.1693 5.64983C17.6656 5.11906 17.0017 4.76956 16.2796 4.65339C15.83 4.58128 15.3733 4.60231 14.9377 4.71247C14.7134 4.3159 14.4089 3.9664 14.0414 3.68699C13.4545 3.24135 12.7375 3 12.0004 3C11.2634 3 10.5463 3.24135 9.95949 3.68699C9.59196 3.9664 9.28752 4.3159 9.06319 4.71247C8.62756 4.60231 8.1709 4.58128 7.72125 4.65339C6.99821 4.76956 6.33425 5.11906 5.83052 5.64983C5.32479 6.1836 4.99532 6.85958 4.88716 7.58663C4.81606 8.06031 4.8421 8.54201 4.95926 9.00167C4.56169 9.24903 4.21519 9.5745 3.9418 9.96206C3.52119 10.5579 3.29486 11.2699 3.29486 12C3.29486 12.7291 3.52119 13.4411 3.9418 14.0369C4.21519 14.4245 4.56169 14.751 4.95926 14.9983C4.8421 15.458 4.81606 15.9387 4.88716 16.4134C4.99532 17.1404 5.32479 17.8164 5.83052 18.3492C6.33425 18.8799 6.99821 19.2304 7.72025 19.3466C8.1709 19.4187 8.62756 19.3977 9.06319 19.2875C9.28752 19.6841 9.59196 20.0336 9.95949 20.313C10.5463 20.7587 11.2634 21 12.0004 21C12.7375 21 13.4545 20.7587 14.0414 20.313C14.4089 20.0336 14.7134 19.6841 14.9377 19.2875C15.3733 19.3977 15.83 19.4187 16.2796 19.3466C17.0017 19.2304 17.6656 18.8799 18.1693 18.3492C18.6751 17.8164 19.0046 17.1404 19.1137 16.4134C19.1838 15.9407 19.1588 15.462 19.0426 15.0033C19.4432 14.758 19.7917 14.4315 20.0661 14.043C20.4877 13.4461 20.711 12.7311 20.705 12ZM19.2038 11.992C19.2028 11.997 19.2028 12.003 19.2038 12.008C19.2078 12.4256 19.0797 12.8352 18.8393 13.1767C18.598 13.5182 18.2555 13.7756 17.8599 13.9108C17.6546 13.9819 17.4904 14.1371 17.4082 14.3374C17.3261 14.5377 17.3351 14.763 17.4313 14.9573C17.6226 15.3388 17.6907 15.7694 17.6276 16.1921C17.5645 16.6137 17.3732 17.0052 17.0798 17.3147V17.3157C16.8024 17.6071 16.4378 17.7994 16.0413 17.8635C15.6447 17.9266 15.2381 17.8585 14.8846 17.6682C14.6833 17.56 14.444 17.549 14.2337 17.6381C14.0244 17.7283 13.8661 17.9075 13.805 18.1279C13.6949 18.5214 13.4585 18.8689 13.1331 19.1163C12.8076 19.3636 12.409 19.4978 12.0004 19.4978C11.5908 19.4978 11.1933 19.3636 10.8678 19.1163C10.5413 18.8689 10.306 18.5214 10.1958 18.1279C10.1347 17.9075 9.97651 17.7283 9.76621 17.6381C9.55691 17.549 9.31756 17.56 9.11627 17.6682C8.76276 17.8585 8.35617 17.9266 7.9586 17.8635C7.56203 17.7994 7.1975 17.6071 6.9201 17.3157C6.62667 17.0062 6.4354 16.6137 6.37231 16.1921C6.31022 15.7694 6.37832 15.3388 6.56859 14.9573C6.66473 14.765 6.67374 14.5407 6.59363 14.3414C6.51351 14.1411 6.35128 13.9859 6.14898 13.9138C5.75341 13.7736 5.41092 13.5142 5.16957 13.1707C4.92722 12.8282 4.79703 12.4196 4.79703 12C4.79703 11.5804 4.92722 11.1708 5.16957 10.8283C5.41092 10.4858 5.75341 10.2264 6.14898 10.0852C6.35128 10.0131 6.51351 9.85791 6.59363 9.65862C6.67374 9.45933 6.66473 9.23501 6.56859 9.04173C6.37832 8.66018 6.31022 8.22955 6.37231 7.80795C6.4354 7.38533 6.62667 6.99377 6.9201 6.68432C7.1975 6.3929 7.56203 6.20062 7.9586 6.13653C8.35617 6.07344 8.76276 6.14154 9.11627 6.33181C9.31756 6.43997 9.55691 6.45098 9.76621 6.36186C9.97651 6.27173 10.1347 6.09247 10.1958 5.87215C10.306 5.47858 10.5413 5.13108 10.8678 4.88372C11.1933 4.63636 11.5908 4.50217 12.0004 4.50217C12.409 4.50217 12.8076 4.63636 13.1331 4.88372C13.4585 5.13108 13.6949 5.47858 13.805 5.87215C13.8661 6.09247 14.0244 6.27273 14.2347 6.36186C14.444 6.45098 14.6833 6.43997 14.8846 6.33181C15.2381 6.14154 15.6447 6.07244 16.0413 6.13653C16.4378 6.20062 16.8034 6.3929 17.0798 6.68432C17.3732 6.99377 17.5645 7.38533 17.6276 7.80795C17.6907 8.22955 17.6226 8.66018 17.4313 9.04273C17.3351 9.23601 17.3261 9.46133 17.4082 9.66262C17.4904 9.86291 17.6546 10.0181 17.8589 10.0882C18.2555 10.2244 18.598 10.4808 18.8393 10.8233C19.0807 11.1648 19.2078 11.5734 19.2038 11.992ZM15.7719 8.52298C16.0653 8.8164 16.0653 9.29209 15.7719 9.58551L9.88037 15.477C9.58695 15.7704 9.11126 15.7704 8.81784 15.477C8.52441 15.1836 8.52441 14.7079 8.81784 14.4145L14.7093 8.52298C15.0028 8.22955 15.4785 8.22955 15.7719 8.52298ZM13.8181 15.1896C13.5977 14.9693 13.4736 14.6689 13.4736 14.3564C13.4736 14.044 13.5977 13.7445 13.8181 13.5232C14.0394 13.3029 14.3388 13.1787 14.6513 13.1787C14.9637 13.1787 15.2642 13.3029 15.4845 13.5232C15.7058 13.7445 15.83 14.044 15.83 14.3564C15.83 14.6689 15.7058 14.9693 15.4845 15.1896C15.2642 15.4109 14.9637 15.5351 14.6513 15.5351C14.3388 15.5351 14.0394 15.4109 13.8181 15.1896ZM8.75975 9.6436C8.75975 9.95605 8.88393 10.2555 9.10525 10.4768C9.32557 10.6971 9.62601 10.8213 9.93846 10.8213C10.2509 10.8213 10.5503 10.6971 10.7717 10.4768C10.992 10.2555 11.1162 9.95605 11.1162 9.6436C11.1162 9.33115 10.992 9.03071 10.7717 8.81039C10.5503 8.58907 10.2509 8.46489 9.93846 8.46489C9.62601 8.46489 9.32557 8.58907 9.10525 8.81039C8.88393 9.03071 8.75975 9.33115 8.75975 9.6436Z" fill="white"/>
</svg>
