<svg width="24" height="24" viewBox="0 0 24 24" fill="currentColor" xmlns="http://www.w3.org/2000/svg">
<path fill-rule="evenodd" clip-rule="evenodd" d="M14.145 4.71081C13.468 4.84381 12.803 5.02981 12.155 5.26781C12.116 5.28181 12.075 5.28981 12.034 5.29281L12.001 5.29181L11.967 5.29281C11.933 5.28981 11.899 5.28381 11.866 5.27381C9.39601 4.30881 6.66901 4.25181 4.16801 5.11181C3.77501 5.23881 3.43301 5.48581 3.19001 5.81881C2.94501 6.15381 2.81301 6.55881 2.81401 6.97481C2.81401 6.97381 2.81401 17.7268 2.81401 17.7268C2.81201 18.0228 2.88001 18.3178 3.01001 18.5858C3.14101 18.8548 3.33101 19.0898 3.56701 19.2738C3.80301 19.4578 4.07701 19.5848 4.37001 19.6458C4.66201 19.7068 4.96501 19.6998 5.25401 19.6258C5.26001 19.6238 5.26501 19.6228 5.27001 19.6208C7.26601 19.0618 9.39001 19.1718 11.318 19.9328C11.325 19.9348 11.332 19.9378 11.339 19.9408C11.766 20.0948 12.234 20.0948 12.661 19.9408C12.668 19.9378 12.675 19.9348 12.682 19.9328C14.61 19.1718 16.734 19.0618 18.73 19.6208C18.735 19.6228 18.741 19.6238 18.746 19.6258C19.035 19.6998 19.337 19.7058 19.629 19.6458C19.921 19.5848 20.195 19.4578 20.43 19.2748C20.431 19.2748 20.431 19.2748 20.431 19.2748C20.666 19.0918 20.856 18.8578 20.987 18.5898C20.987 18.5898 20.987 18.5898 20.988 18.5898C21.118 18.3218 21.186 18.0278 21.186 17.7288V6.97381C21.186 6.55881 21.054 6.15581 20.81 5.82081C20.565 5.48681 20.221 5.23781 19.826 5.11181C19.326 4.95081 18.816 4.81981 18.3 4.71981C18.243 4.63981 18.178 4.56381 18.108 4.49381C17.757 4.14181 17.28 3.94481 16.782 3.94481H15.657C15.16 3.94481 14.683 4.14181 14.331 4.49381C14.263 4.56181 14.201 4.63481 14.145 4.71081ZM11.251 6.64481C9.13201 5.83281 6.79501 5.79281 4.64901 6.53281C4.64301 6.53481 4.63701 6.53681 4.63101 6.53781C4.53901 6.56781 4.45801 6.62581 4.40101 6.70381C4.34401 6.78181 4.31301 6.87581 4.31301 6.97281V17.7298C4.31301 17.7988 4.32901 17.8678 4.35901 17.9308C4.39001 17.9928 4.43401 18.0478 4.48901 18.0908C4.54401 18.1328 4.60801 18.1628 4.67601 18.1768C4.74301 18.1908 4.81201 18.1898 4.87001 18.1758C6.96901 17.5888 9.19001 17.6398 11.251 18.3138V6.64481ZM13.782 6.33081C13.434 6.41981 13.09 6.52581 12.751 6.64681V18.3138C14.809 17.6408 17.027 17.5888 19.131 18.1758C19.194 18.1898 19.26 18.1898 19.323 18.1768C19.391 18.1628 19.455 18.1328 19.51 18.0908C19.565 18.0478 19.609 17.9928 19.64 17.9308C19.67 17.8678 19.686 17.7998 19.686 17.7298V6.97481C19.686 6.87781 19.655 6.78381 19.599 6.70581C19.542 6.62781 19.461 6.56981 19.37 6.54081C19.369 6.54081 19.369 6.54081 19.368 6.54081C19.133 6.46481 18.896 6.39681 18.657 6.33681V11.4448C18.657 11.7478 18.475 12.0218 18.194 12.1378C17.914 12.2538 17.591 12.1898 17.377 11.9748L16.22 10.8178L15.063 11.9748C14.848 12.1898 14.526 12.2538 14.245 12.1378C13.965 12.0218 13.782 11.7478 13.782 11.4448V6.33081ZM17.157 9.63381L16.75 9.22681C16.457 8.93381 15.982 8.93381 15.689 9.22681L15.282 9.63381V5.81981C15.282 5.71981 15.322 5.62481 15.392 5.55481C15.462 5.48381 15.558 5.44481 15.657 5.44481H16.782C16.882 5.44481 16.977 5.48381 17.047 5.55481C17.118 5.62481 17.157 5.71981 17.157 5.81981V9.63381Z" fill="currentColor"/>
</svg>
