<svg width="24" height="24" viewBox="0 0 24 24" fill="none" xmlns="http://www.w3.org/2000/svg">
<path fill-rule="evenodd" clip-rule="evenodd" d="M9.86763 5.59492C10.4814 4.98117 11.3138 4.63636 12.1818 4.63636C13.0498 4.63636 13.8822 4.98117 14.496 5.59492C15.1097 6.20868 15.4545 7.04111 15.4545 7.90909V10.3636H8.90907V7.90909C8.90907 7.04111 9.25388 6.20868 9.86763 5.59492ZM8.08497 12C8.08694 12 8.08892 12 8.09089 12C8.09287 12 8.09484 12 8.09682 12H16.2668C16.2688 12 16.2707 12 16.2727 12C16.2747 12 16.2767 12 16.2786 12H17.9091C18.361 12 18.7273 12.3663 18.7273 12.8182V18.5454C18.7273 18.9973 18.361 19.3636 17.9091 19.3636H6.45455C6.00268 19.3636 5.63636 18.9973 5.63636 18.5454V12.8182C5.63636 12.3663 6.00268 12 6.45455 12H8.08497ZM7.27271 10.3636V7.90909C7.27271 6.60712 7.78992 5.35847 8.71055 4.43784C9.63118 3.51721 10.8798 3 12.1818 3C13.4838 3 14.7324 3.51721 15.6531 4.43784C16.5737 5.35847 17.0909 6.60712 17.0909 7.90909V10.3636H17.9091C19.2647 10.3636 20.3636 11.4626 20.3636 12.8182V18.5454C20.3636 19.901 19.2647 21 17.9091 21H6.45455C5.09894 21 4 19.901 4 18.5454V12.8182C4 11.4626 5.09894 10.3636 6.45455 10.3636H7.27271Z" fill="white"/>
</svg>
