<svg width="24" height="24" viewBox="0 0 24 24" fill="none" xmlns="http://www.w3.org/2000/svg">
<path fill-rule="evenodd" clip-rule="evenodd" d="M12 3C7.04813 3 3 7.04813 3 12C3 16.9519 7.04813 21 12 21C13.2299 21 14.1665 20.0026 14.1665 18.8007C14.1665 18.2179 13.9282 17.7045 13.6031 17.3376C13.5919 17.325 13.5803 17.3127 13.5684 17.3007C13.5002 17.2328 13.4506 17.1515 13.4506 16.9598L13.4505 16.9457C13.4493 16.8755 13.4623 16.8057 13.4886 16.7405C13.5149 16.6753 13.5541 16.6161 13.6038 16.5664C13.6535 16.5167 13.7127 16.4776 13.7779 16.4512C13.843 16.4249 13.9128 16.4119 13.9831 16.4131L13.9972 16.4133H15.6303C18.5782 16.4133 20.9935 13.9992 20.9935 11.0509L20.9934 11.0463C20.9684 6.56059 16.8276 3 12 3ZM4.63636 12C4.63636 7.95187 7.95187 4.63636 12 4.63636C16.1077 4.63636 19.3366 7.63953 19.3571 11.0532C19.3558 13.0964 17.6741 14.7769 15.6303 14.7769H14.0034C13.7162 14.773 13.431 14.8264 13.1647 14.9341C12.8959 15.0427 12.6517 15.2044 12.4467 15.4094C12.2417 15.6144 12.0801 15.8585 11.9714 16.1273C11.8637 16.3939 11.8103 16.6794 11.8143 16.9669C11.8158 17.5349 12.0011 18.0365 12.3898 18.4361C12.4784 18.5417 12.5302 18.6738 12.5302 18.8007C12.5302 19.1403 12.2854 19.3636 12 19.3636C7.95187 19.3636 4.63636 16.0481 4.63636 12ZM13.2273 7.90907C13.4532 7.90907 13.6364 7.72592 13.6364 7.49998C13.6364 7.27405 13.4532 7.09089 13.2273 7.09089C13.0013 7.09089 12.8182 7.27405 12.8182 7.49998C12.8182 7.72592 13.0013 7.90907 13.2273 7.90907ZM12 7.49998C12 6.82218 12.5495 6.27271 13.2273 6.27271C13.9051 6.27271 14.4545 6.82218 14.4545 7.49998C14.4545 8.17779 13.9051 8.72726 13.2273 8.72726C12.5495 8.72726 12 8.17779 12 7.49998ZM16.5 11.1818C16.7259 11.1818 16.9091 10.9986 16.9091 10.7727C16.9091 10.5468 16.7259 10.3636 16.5 10.3636C16.274 10.3636 16.0909 10.5468 16.0909 10.7727C16.0909 10.9986 16.274 11.1818 16.5 11.1818ZM15.2727 10.7727C15.2727 10.0949 15.8222 9.54542 16.5 9.54542C17.1778 9.54542 17.7273 10.0949 17.7273 10.7727C17.7273 11.4505 17.1778 12 16.5 12C15.8222 12 15.2727 11.4505 15.2727 10.7727ZM9.54543 8.31812C9.54543 8.54405 9.36227 8.72721 9.13634 8.72721C8.91041 8.72721 8.72725 8.54405 8.72725 8.31812C8.72725 8.09218 8.91041 7.90903 9.13634 7.90903C9.36227 7.90903 9.54543 8.09218 9.54543 8.31812ZM9.13634 7.09085C8.45854 7.09085 7.90907 7.64031 7.90907 8.31812C7.90907 8.99592 8.45854 9.54539 9.13634 9.54539C9.81414 9.54539 10.3636 8.99592 10.3636 8.31812C10.3636 7.64031 9.81414 7.09085 9.13634 7.09085ZM7.49998 12.8182C7.72592 12.8182 7.90907 12.6351 7.90907 12.4091C7.90907 12.1832 7.72592 12 7.49998 12C7.27405 12 7.09089 12.1832 7.09089 12.4091C7.09089 12.6351 7.27405 12.8182 7.49998 12.8182ZM6.27271 12.4091C6.27271 11.7313 6.82218 11.1819 7.49998 11.1819C8.17779 11.1819 8.72726 11.7313 8.72726 12.4091C8.72726 13.0869 8.17779 13.6364 7.49998 13.6364C6.82218 13.6364 6.27271 13.0869 6.27271 12.4091Z" fill="white"/>
</svg>
