<svg width="24" height="24" viewBox="0 0 24 24" fill="none" xmlns="http://www.w3.org/2000/svg">
<path fill-rule="evenodd" clip-rule="evenodd" d="M12 4.63636C7.93318 4.63636 4.63636 7.93318 4.63636 12C4.63636 16.0668 7.93318 19.3636 12 19.3636C16.0668 19.3636 19.3636 16.0668 19.3636 12C19.3636 7.93318 16.0668 4.63636 12 4.63636ZM3 12C3 7.02944 7.02944 3 12 3C16.9706 3 21 7.02944 21 12C21 16.9706 16.9706 21 12 21C7.02944 21 3 16.9706 3 12ZM10.3636 8.72729C10.8155 8.72729 11.1818 9.0936 11.1818 9.54547V14.4546C11.1818 14.9064 10.8155 15.2727 10.3636 15.2727C9.91174 15.2727 9.54542 14.9064 9.54542 14.4546V9.54547C9.54542 9.0936 9.91174 8.72729 10.3636 8.72729ZM14.4546 9.54547C14.4546 9.0936 14.0882 8.72729 13.6364 8.72729C13.1845 8.72729 12.8182 9.0936 12.8182 9.54547V14.4546C12.8182 14.9064 13.1845 15.2727 13.6364 15.2727C14.0882 15.2727 14.4546 14.9064 14.4546 14.4546V9.54547Z" fill="white"/>
</svg>
