<svg width="24" height="24" viewBox="0 0 24 24" fill="none" xmlns="http://www.w3.org/2000/svg">
<path d="M11.875 4C10.3175 4 8.79492 4.46186 7.49989 5.32718C6.20485 6.19249 5.19549 7.4224 4.59945 8.86137C4.00341 10.3003 3.84746 11.8837 4.15132 13.4113C4.45518 14.9389 5.2052 16.3421 6.30654 17.4435C7.40788 18.5448 8.81107 19.2948 10.3387 19.5987C11.8663 19.9025 13.4497 19.7466 14.8886 19.1505C16.3276 18.5545 17.5575 17.5451 18.4228 16.2501C19.2881 14.9551 19.75 13.4325 19.75 11.875C19.75 9.78642 18.9203 7.78338 17.4435 6.30653C15.9666 4.82968 13.9636 4 11.875 4ZM10.75 14.6875C10.75 14.9859 10.6315 15.272 10.4205 15.483C10.2095 15.694 9.92337 15.8125 9.625 15.8125C9.32663 15.8125 9.04049 15.694 8.82951 15.483C8.61853 15.272 8.5 14.9859 8.5 14.6875V9.0625C8.5 8.76413 8.61853 8.47798 8.82951 8.267C9.04049 8.05603 9.32663 7.9375 9.625 7.9375C9.92337 7.9375 10.2095 8.05603 10.4205 8.267C10.6315 8.47798 10.75 8.76413 10.75 9.0625V14.6875ZM15.25 14.6875C15.25 14.9859 15.1315 15.272 14.9205 15.483C14.7095 15.694 14.4234 15.8125 14.125 15.8125C13.8266 15.8125 13.5405 15.694 13.3295 15.483C13.1185 15.272 13 14.9859 13 14.6875V9.0625C13 8.76413 13.1185 8.47798 13.3295 8.267C13.5405 8.05603 13.8266 7.9375 14.125 7.9375C14.4234 7.9375 14.7095 8.05603 14.9205 8.267C15.1315 8.47798 15.25 8.76413 15.25 9.0625V14.6875Z" fill="white"/>
</svg>
