<svg width="30" height="30" viewBox="0 0 30 30" fill="none" xmlns="http://www.w3.org/2000/svg">
<path fill-rule="evenodd" clip-rule="evenodd" d="M23.4347 3.25C22.6266 3.25 21.8516 3.57101 21.2802 4.14241L12.2117 13.2109L12.2099 13.2127L12.2081 13.2146L10.7306 14.6921C10.673 14.7475 10.6221 14.8106 10.5797 14.8806C10.5353 14.9536 10.5018 15.0312 10.4792 15.1113L9.17848 19.3832C9.07762 19.7145 9.16756 20.0743 9.41241 20.3192C9.65726 20.564 10.0171 20.654 10.3484 20.5531L14.6211 19.2522C14.6967 19.2307 14.7701 19.1996 14.8394 19.1588C14.9143 19.1149 14.9816 19.0613 15.0403 19.0003L16.5188 17.5217L25.5892 8.45136C26.1606 7.87996 26.4816 7.10497 26.4816 6.29689C26.4816 5.4888 26.1606 4.71382 25.5892 4.14241C25.0178 3.57101 24.2428 3.25 23.4347 3.25ZM12.2099 15.8644L12.8728 15.2015L14.5301 16.8588L13.8671 17.5217L11.4843 18.2473L12.2099 15.8644ZM14.1986 13.8757L15.8559 15.533L24.2633 7.12554C24.4831 6.90577 24.6066 6.60769 24.6066 6.29689C24.6066 5.98608 24.4831 5.68801 24.2633 5.46824C24.0436 5.24847 23.7455 5.125 23.4347 5.125C23.1239 5.125 22.8258 5.24847 22.6061 5.46824L14.1986 13.8757ZM6.5625 20.125C5.75442 20.125 4.97943 20.446 4.40803 21.0174C3.83663 21.5888 3.51562 22.3638 3.51562 23.1719C3.51562 23.98 3.83663 24.7549 4.40803 25.3263C4.97943 25.8977 5.75442 26.2188 6.5625 26.2188H21.3281C21.8459 26.2188 22.2656 25.799 22.2656 25.2812C22.2656 24.7635 21.8459 24.3438 21.3281 24.3438H6.5625C6.2517 24.3438 5.95363 24.2203 5.73386 24.0005C5.51409 23.7807 5.39062 23.4827 5.39062 23.1719C5.39062 22.8611 5.51409 22.563 5.73386 22.3432C5.95363 22.1235 6.2517 22 6.5625 22H7.26281C7.78058 22 8.20031 21.5803 8.20031 21.0625C8.20031 20.5447 7.78058 20.125 7.26281 20.125H6.5625Z" fill="currentColor"/>
</svg>
