<svg width="24" height="24" viewBox="0 0 24 24" fill="none" xmlns="http://www.w3.org/2000/svg">
<path fill-rule="evenodd" clip-rule="evenodd" d="M3.23967 3.23964C3.45261 3.0267 3.75372 2.95567 4.02549 3.02655L15.8738 5.88649C16.1835 5.96125 16.4216 6.20897 16.4841 6.52138L17.4276 11.2385C17.7213 11.1231 18.0684 11.1841 18.3058 11.4215L20.7604 13.8761C21.0799 14.1956 21.0799 14.7136 20.7604 15.0331L15.0331 20.7604C14.7136 21.0799 14.1956 21.0799 13.876 20.7604L11.4215 18.3059C11.184 18.0684 11.1231 17.7213 11.2385 17.4276L6.52138 16.4841C6.20897 16.4216 5.96125 16.1835 5.88649 15.8738L3.02604 4.02336C3.01601 3.98447 3.00888 3.94498 3.00465 3.90525C2.97939 3.66788 3.05773 3.42158 3.23967 3.23964ZM8.96652 10.1236L5.29584 6.45289L7.35459 14.982L12.5493 16.0209L16.0209 12.5493L14.982 7.35459L6.45297 5.29586L10.1236 8.96649C10.444 8.81316 10.8029 8.72729 11.1818 8.72729C12.5374 8.72729 13.6364 9.82623 13.6364 11.1818C13.6364 12.5374 12.5374 13.6364 11.1818 13.6364C9.82623 13.6364 8.7273 12.5374 8.7273 11.1818C8.7273 10.8029 8.81317 10.444 8.96652 10.1236ZM10.5934 10.6134C10.4512 10.7606 10.3637 10.961 10.3637 11.1818C10.3637 11.6337 10.73 12 11.1818 12C11.6337 12 12 11.6337 12 11.1818C12 10.73 11.6337 10.3637 11.1818 10.3637C10.961 10.3637 10.7606 10.4511 10.6134 10.5933C10.6101 10.5967 10.6068 10.6001 10.6035 10.6035C10.6001 10.6068 10.5968 10.6101 10.5934 10.6134ZM14.4546 19.0248L13.1571 17.7273L17.7273 13.1571L19.0248 14.4546L14.4546 19.0248Z" fill="white"/>
</svg>
