<svg width="24" height="24" viewBox="0 0 24 24" fill="none" xmlns="http://www.w3.org/2000/svg">
<path fill-rule="evenodd" clip-rule="evenodd" d="M6.40003 8C6.40003 6.67452 7.47455 5.6 8.80003 5.6C10.1255 5.6 11.2 6.67452 11.2 8C11.2 9.32548 10.1255 10.4 8.80003 10.4C7.47455 10.4 6.40003 9.32548 6.40003 8ZM8.80003 4C6.5909 4 4.80003 5.79086 4.80003 8C4.80003 10.2091 6.5909 12 8.80003 12C11.0092 12 12.8 10.2091 12.8 8C12.8 5.79086 11.0092 4 8.80003 4ZM6 13.6C4.93913 13.6 3.92172 14.0214 3.17157 14.7716C2.42143 15.5217 2 16.5391 2 17.6V19.2C2 19.6418 2.35817 20 2.8 20C3.24183 20 3.6 19.6418 3.6 19.2V17.6C3.6 16.9635 3.85286 16.353 4.30294 15.9029C4.75303 15.4528 5.36348 15.2 6 15.2H11.6C12.2365 15.2 12.847 15.4528 13.2971 15.9029C13.7471 16.353 14 16.9635 14 17.6V19.2C14 19.6418 14.3582 20 14.8 20C15.2418 20 15.6 19.6418 15.6 19.2V17.6C15.6 16.5391 15.1786 15.5217 14.4284 14.7716C13.6783 14.0214 12.6609 13.6 11.6 13.6H6ZM18 8C18.4418 8 18.8 8.35817 18.8 8.8V10.4H20.4C20.8419 10.4 21.2 10.7582 21.2 11.2C21.2 11.6418 20.8419 12 20.4 12H18.8V13.6C18.8 14.0418 18.4418 14.4 18 14.4C17.5581 14.4 17.2 14.0418 17.2 13.6V12H15.6C15.1582 12 14.8 11.6418 14.8 11.2C14.8 10.7582 15.1582 10.4 15.6 10.4H17.2V8.8C17.2 8.35817 17.5581 8 18 8Z" fill="white"/>
</svg>
