<svg width="24" height="24" viewBox="0 0 32 32" fill="none" xmlns="http://www.w3.org/2000/svg">
<path fill-rule="evenodd" clip-rule="evenodd" d="M9.067 10.666a3.2 3.2 0 1 1 6.4 0 3.2 3.2 0 0 1 -6.4 0Zm3.2 -5.333a5.333 5.333 0 1 0 0 10.667 5.333 5.333 0 0 0 0 -10.667ZM8 18.133a5.333 5.333 0 0 0 -5.333 5.333V25.6a1.067 1.067 0 1 0 2.133 0v-2.134a3.2 3.2 0 0 1 3.2 -3.2h8.533a3.2 3.2 0 0 1 3.2 3.2V25.6a1.067 1.067 0 1 0 2.134 0v-2.134a5.333 5.333 0 0 0 -5.334 -5.333H8Zm14.967 0.939c0.148 -0.57 0.73 -0.914 1.3 -0.766a5.334 5.334 0 0 1 4 5.16V25.6a1.067 1.067 0 1 1 -2.134 0v-2.133a3.201 3.201 0 0 0 -2.4 -3.096 1.067 1.067 0 0 1 -0.766 -1.3ZM19.998 5.505a1.067 1.067 0 0 0 -0.53 2.067 3.2 3.2 0 0 1 0 6.2 1.067 1.067 0 1 0 0.53 2.066 5.333 5.333 0 0 0 0 -10.333Z" fill="white"/></svg>