<svg width="24" height="24" viewBox="0 0 20 20" fill="none" xmlns="http://www.w3.org/2000/svg">
<path fill-rule="evenodd" clip-rule="evenodd" d="M3.7049 12.8716C4.34305 12.2335 5.20856 11.875 6.11103 11.875H10.2777C11.1802 11.875 12.0457 12.2335 12.6838 12.8716C13.322 13.5098 13.6805 14.3753 13.6805 15.2777V16.6666C13.6805 17.0118 13.4007 17.2916 13.0555 17.2916C12.7103 17.2916 12.4305 17.0118 12.4305 16.6666V15.2777C12.4305 14.7068 12.2037 14.1592 11.7999 13.7555C11.3962 13.3518 10.8486 13.125 10.2777 13.125H6.11103C5.54008 13.125 4.99251 13.3518 4.58879 13.7555C4.18506 14.1592 3.95825 14.7068 3.95825 15.2777V16.6666C3.95825 17.0118 3.67843 17.2916 3.33325 17.2916C2.98807 17.2916 2.70825 17.0118 2.70825 16.6666V15.2777C2.70825 14.3753 3.06676 13.5098 3.7049 12.8716Z" fill="white"/>
<path fill-rule="evenodd" clip-rule="evenodd" d="M8.19453 4.79166C7.00558 4.79166 6.04175 5.75549 6.04175 6.94443C6.04175 8.13338 7.00558 9.09721 8.19453 9.09721C9.38347 9.09721 10.3473 8.13338 10.3473 6.94443C10.3473 5.75549 9.38347 4.79166 8.19453 4.79166ZM4.79175 6.94443C4.79175 5.06513 6.31522 3.54166 8.19453 3.54166C10.0738 3.54166 11.5973 5.06513 11.5973 6.94443C11.5973 8.82374 10.0738 10.3472 8.19453 10.3472C6.31522 10.3472 4.79175 8.82374 4.79175 6.94443Z" fill="white"/>
<path fill-rule="evenodd" clip-rule="evenodd" d="M15.1386 8.95834C14.7168 8.95834 14.3748 9.30035 14.3748 9.72223C14.3748 10.1441 14.7168 10.4861 15.1386 10.4861C15.5605 10.4861 15.9025 10.1441 15.9025 9.72223C15.9025 9.30035 15.5605 8.95834 15.1386 8.95834ZM13.1248 9.72223C13.1248 8.60999 14.0264 7.70834 15.1386 7.70834C16.2509 7.70834 17.1525 8.60999 17.1525 9.72223C17.1525 10.8345 16.2509 11.7361 15.1386 11.7361C14.0264 11.7361 13.1248 10.8345 13.1248 9.72223Z" fill="white"/>
<path fill-rule="evenodd" clip-rule="evenodd" d="M15.1387 7.01395C15.4838 7.01395 15.7637 7.29377 15.7637 7.63895V8.33339C15.7637 8.67857 15.4838 8.95839 15.1387 8.95839C14.7935 8.95839 14.5137 8.67857 14.5137 8.33339V7.63895C14.5137 7.29377 14.7935 7.01395 15.1387 7.01395Z" fill="white"/>
<path fill-rule="evenodd" clip-rule="evenodd" d="M15.1387 10.4862C15.4838 10.4862 15.7637 10.766 15.7637 11.1112V11.8056C15.7637 12.1508 15.4838 12.4306 15.1387 12.4306C14.7935 12.4306 14.5137 12.1508 14.5137 11.8056V11.1112C14.5137 10.766 14.7935 10.4862 15.1387 10.4862Z" fill="white"/>
<path fill-rule="evenodd" clip-rule="evenodd" d="M17.4862 8.36916C17.6582 8.66843 17.5551 9.05047 17.2558 9.22247L16.6516 9.56969C16.3523 9.74169 15.9703 9.63851 15.7983 9.33924C15.6263 9.03996 15.7295 8.65792 16.0288 8.48592L16.6329 8.1387C16.9322 7.96671 17.3142 8.06989 17.4862 8.36916Z" fill="white"/>
<path fill-rule="evenodd" clip-rule="evenodd" d="M14.4792 10.1052C14.6512 10.4045 14.548 10.7866 14.2487 10.9586L13.6445 11.3058C13.3453 11.4778 12.9632 11.3746 12.7912 11.0753C12.6192 10.776 12.7224 10.394 13.0217 10.222L13.6259 9.87479C13.9251 9.70279 14.3072 9.80597 14.4792 10.1052Z" fill="white"/>
<path fill-rule="evenodd" clip-rule="evenodd" d="M15.7983 10.1052C15.9703 9.80597 16.3523 9.70279 16.6516 9.87479L17.2558 10.222C17.5551 10.394 17.6582 10.776 17.4862 11.0753C17.3142 11.3746 16.9322 11.4778 16.6329 11.3058L16.0288 10.9586C15.7295 10.7866 15.6263 10.4045 15.7983 10.1052Z" fill="white"/>
<path fill-rule="evenodd" clip-rule="evenodd" d="M12.7912 8.36916C12.9632 8.06989 13.3453 7.96671 13.6445 8.1387L14.2487 8.48592C14.548 8.65792 14.6512 9.03996 14.4792 9.33924C14.3072 9.63851 13.9251 9.74169 13.6259 9.56969L13.0217 9.22247C12.7224 9.05047 12.6192 8.66843 12.7912 8.36916Z" fill="white"/>
</svg>
