<svg width="24" height="24" viewBox="0 0 24 24" fill="none" xmlns="http://www.w3.org/2000/svg">
<path fill-rule="evenodd" clip-rule="evenodd" d="M9.62058 7.68764C10.2517 7.05656 11.1076 6.70203 12.0001 6.70203C12.8925 6.70203 13.7485 7.05656 14.3796 7.68764C15.0106 8.31872 15.3652 9.17465 15.3652 10.0671C15.3652 10.9596 15.0106 11.8155 14.3796 12.4466C13.7485 13.0777 12.8925 13.4322 12.0001 13.4322C11.1076 13.4322 10.2517 13.0777 9.62058 12.4466C8.9895 11.8155 8.63496 10.9596 8.63496 10.0671C8.63496 9.17465 8.9895 8.31872 9.62058 7.68764ZM12.0001 8.20203C11.5054 8.20203 11.031 8.39853 10.6812 8.7483C10.3315 9.09808 10.135 9.57247 10.135 10.0671C10.135 10.5618 10.3315 11.0362 10.6812 11.386C11.031 11.7357 11.5054 11.9322 12.0001 11.9322C12.4947 11.9322 12.9691 11.7357 13.3189 11.386C13.6687 11.0362 13.8652 10.5618 13.8652 10.0671C13.8652 9.57247 13.6687 9.09808 13.3189 8.7483C12.9691 8.39853 12.4947 8.20203 12.0001 8.20203Z" fill="white"/>
<path fill-rule="evenodd" clip-rule="evenodd" d="M12.0001 15.8347C10.8884 15.8347 9.82221 16.2763 9.03612 17.0624C8.39461 17.7039 7.98248 18.532 7.85261 19.4191L6.36843 19.2019C6.54477 17.9973 7.10433 16.8729 7.97546 16.0017C9.04285 14.9344 10.4905 14.3347 12.0001 14.3347C13.5096 14.3347 14.9573 14.9344 16.0247 16.0017C16.8958 16.8729 17.4554 17.9973 17.6317 19.2019L16.1475 19.4191C16.0176 18.532 15.6055 17.7039 14.964 17.0624C14.1779 16.2763 13.1118 15.8347 12.0001 15.8347Z" fill="white"/>
<path fill-rule="evenodd" clip-rule="evenodd" d="M19.9076 5.42529H4.09253C3.81639 5.42529 3.59253 5.64915 3.59253 5.92529V18.0748C3.59253 18.351 3.81639 18.5748 4.09253 18.5748H19.9076C20.1837 18.5748 20.4076 18.351 20.4076 18.0748V5.92529C20.4076 5.64915 20.1837 5.42529 19.9076 5.42529ZM4.09253 3.92529C2.98796 3.92529 2.09253 4.82072 2.09253 5.92529V18.0748C2.09253 19.1794 2.98796 20.0748 4.09253 20.0748H19.9076C21.0122 20.0748 21.9076 19.1794 21.9076 18.0748V5.92529C21.9076 4.82072 21.0122 3.92529 19.9076 3.92529H4.09253Z" fill="white"/>
</svg>
