<svg width="24" height="24" viewBox="0 0 24 24" fill="none" xmlns="http://www.w3.org/2000/svg">
<path fill-rule="evenodd" clip-rule="evenodd" d="M15.4545 3C15.9064 3 16.2727 3.36631 16.2727 3.81818V4.63638H17.9091C19.261 4.63638 20.3636 5.73906 20.3636 7.09093V18.5455C20.3636 19.8973 19.261 21 17.9091 21H6.45455C5.10268 21 4 19.8973 4 18.5455V7.09093C4 5.73906 5.10268 4.63638 6.45455 4.63638H8.09093V3.81818C8.09093 3.36631 8.45725 3 8.90911 3C9.36098 3 9.7273 3.36631 9.7273 3.81818V4.63638H14.6364V3.81818C14.6364 3.36631 15.0027 3 15.4545 3ZM6.45455 6.27275C6.00641 6.27275 5.63636 6.6428 5.63636 7.09093V18.5455C5.63636 18.9936 6.00641 19.3637 6.45455 19.3637H17.9091C18.3572 19.3637 18.7273 18.9936 18.7273 18.5455V7.09093C18.7273 6.6428 18.3572 6.27275 17.9091 6.27275H6.45455ZM12.1818 9.54552C11.2781 9.54552 10.5454 10.2781 10.5454 11.1819C10.5454 12.0856 11.2781 12.8182 12.1818 12.8182C13.0855 12.8182 13.8182 12.0856 13.8182 11.1819C13.8182 10.2781 13.0855 9.54552 12.1818 9.54552ZM8.90907 11.1819C8.90907 9.3744 10.3743 7.90915 12.1818 7.90915C13.9893 7.90915 15.4545 9.3744 15.4545 11.1819C15.4545 12.9894 13.9893 14.4546 12.1818 14.4546C10.3743 14.4546 8.90907 12.9894 8.90907 11.1819ZM12.1818 15.2727C10.4504 15.2727 8.90806 15.8202 7.64844 16.6299C7.26834 16.8743 7.15829 17.3805 7.40264 17.7606C7.64699 18.1407 8.15321 18.2508 8.53332 18.0064C9.56461 17.3434 10.804 16.9091 12.1818 16.9091C13.5895 16.9091 14.8085 17.2778 15.7971 17.9839C16.1648 18.2466 16.6758 18.1614 16.9385 17.7937C17.2011 17.426 17.116 16.915 16.7483 16.6524C15.4459 15.7222 13.8832 15.2727 12.1818 15.2727Z" fill="white"/>
</svg>
