<svg width="24" height="24" viewBox="0 0 16 16" fill="none" xmlns="http://www.w3.org/2000/svg">
<path fill-rule="evenodd" clip-rule="evenodd" d="M6.53329 5.33341C6.53329 4.44976 7.24963 3.73341 8.13329 3.73341C9.01695 3.73341 9.73329 4.44976 9.73329 5.33341C9.73329 6.21707 9.01695 6.93341 8.13329 6.93341C7.24963 6.93341 6.53329 6.21707 6.53329 5.33341ZM8.13329 2.66675C6.66053 2.66675 5.46662 3.86066 5.46662 5.33341C5.46662 6.80617 6.66053 8.00008 8.13329 8.00008C9.60605 8.00008 10.8 6.80617 10.8 5.33341C10.8 3.86066 9.60605 2.66675 8.13329 2.66675ZM5.99998 9.06679C5.29274 9.06679 4.61446 9.34775 4.11436 9.84784C3.61426 10.3479 3.33331 11.0262 3.33331 11.7335V12.8001C3.33331 13.0947 3.57209 13.3335 3.86665 13.3335C4.1612 13.3335 4.39998 13.0947 4.39998 12.8001V11.7335C4.39998 11.3091 4.56855 10.9021 4.86861 10.6021C5.16867 10.302 5.57563 10.1335 5.99998 10.1335H10.2666C10.691 10.1335 11.098 10.302 11.398 10.6021C11.6981 10.9021 11.8666 11.3091 11.8666 11.7335V12.8001C11.8666 13.0947 12.1054 13.3335 12.4 13.3335C12.6945 13.3335 12.9333 13.0947 12.9333 12.8001V11.7335C12.9333 11.0262 12.6524 10.3479 12.1523 9.84784C11.6522 9.34775 10.9739 9.06679 10.2666 9.06679H5.99998Z" fill="white"/>
</svg>
