<svg width="14" height="18" viewBox="0 0 14 18" fill="none" xmlns="http://www.w3.org/2000/svg">
<path fill-rule="evenodd" clip-rule="evenodd" d="M1.63636 2.45455C1.63636 2.00268 2.00268 1.63636 2.45455 1.63636H10.6364C11.0882 1.63636 11.4545 2.00268 11.4545 2.45455V15.5455C11.4545 15.9973 11.0882 16.3636 10.6364 16.3636H2.45455C2.00268 16.3636 1.63636 15.9973 1.63636 15.5455V2.45455ZM2.45455 0C1.09894 0 0 1.09894 0 2.45455V15.5455C0 16.9011 1.09894 18 2.45455 18H10.6364C11.992 18 13.0909 16.9011 13.0909 15.5455V2.45455C13.0909 1.09894 11.992 0 10.6364 0H2.45455ZM6.54547 13.0909C6.0936 13.0909 5.72729 13.4572 5.72729 13.9091C5.72729 14.361 6.0936 14.7273 6.54547 14.7273H6.55365C7.00552 14.7273 7.37183 14.361 7.37183 13.9091C7.37183 13.4572 7.00552 13.0909 6.55365 13.0909H6.54547Z" fill="white"/>
</svg>
