<svg width="24" height="24" viewBox="0 0 24 24" fill="none" xmlns="http://www.w3.org/2000/svg">
<path fill-rule="evenodd" clip-rule="evenodd" d="M6.63636 5.45455C6.63636 5.00268 7.00268 4.63636 7.45455 4.63636H15.6364C16.0882 4.63636 16.4545 5.00268 16.4545 5.45455V18.5455C16.4545 18.9973 16.0882 19.3636 15.6364 19.3636H7.45455C7.00268 19.3636 6.63636 18.9973 6.63636 18.5455V5.45455ZM7.45455 3C6.09894 3 5 4.09894 5 5.45455V18.5455C5 19.9011 6.09894 21 7.45455 21H15.6364C16.992 21 18.0909 19.9011 18.0909 18.5455V5.45455C18.0909 4.09894 16.992 3 15.6364 3H7.45455ZM11.5455 16.0909C11.0936 16.0909 10.7273 16.4572 10.7273 16.9091C10.7273 17.361 11.0936 17.7273 11.5455 17.7273H11.5537C12.0055 17.7273 12.3718 17.361 12.3718 16.9091C12.3718 16.4572 12.0055 16.0909 11.5537 16.0909H11.5455Z" fill="white"/>
</svg>
