<svg width="24" height="24" viewBox="0 0 24 24" fill="none" xmlns="http://www.w3.org/2000/svg">
<path fill-rule="evenodd" clip-rule="evenodd" d="M6.4 5.6C5.95817 5.6 5.6 5.95817 5.6 6.4V17.6C5.6 17.943 5.81591 18.2356 6.11925 18.3493L14.6343 9.8343C14.9467 9.52188 15.4532 9.52188 15.7657 9.8343L18.4 12.4686V6.4C18.4 5.95817 18.0418 5.6 17.6 5.6H6.4ZM18.4 14.7314L15.2 11.5314L8.33134 18.4H17.6C18.0418 18.4 18.4 18.0418 18.4 17.6V14.7314ZM4 6.4C4 5.07452 5.07452 4 6.4 4H17.6C18.9255 4 20 5.07452 20 6.4V17.6C20 18.9255 18.9255 20 17.6 20H6.4C5.07452 20 4 18.9255 4 17.6V6.4ZM9.19997 8.80001C8.97905 8.80001 8.79997 8.97909 8.79997 9.20001C8.79997 9.42092 8.97905 9.60001 9.19997 9.60001C9.42088 9.60001 9.59997 9.42092 9.59997 9.20001C9.59997 8.97909 9.42088 8.80001 9.19997 8.80001ZM7.19997 9.20001C7.19997 8.09544 8.0954 7.20001 9.19997 7.20001C10.3045 7.20001 11.2 8.09544 11.2 9.20001C11.2 10.3046 10.3045 11.2 9.19997 11.2C8.0954 11.2 7.19997 10.3046 7.19997 9.20001Z" fill="white"/>
</svg>
