<svg xmlns="http://www.w3.org/2000/svg" width="24" height="24" viewBox="0 0 24 24" fill="none">
<path d="M18.2679 15.9286H10.375C10.0168 15.9302 9.66179 15.861 9.33038 15.725C8.99897 15.589 8.69769 15.3889 8.44383 15.1362C8.18996 14.8835 7.98852 14.5831 7.85107 14.2523C7.71362 13.9215 7.64286 13.5668 7.64287 13.2086V7.74429C7.64286 7.01855 7.93032 6.32237 8.44235 5.80806C8.95438 5.29376 9.64929 5.00321 10.375 5H18.2679C18.9936 5.00321 19.6885 5.29376 20.2005 5.80806C20.7126 6.32237 21 7.01855 21 7.74429V13.2086C21 13.5668 20.9293 13.9215 20.7918 14.2523C20.6544 14.5831 20.4529 14.8835 20.1991 15.1362C19.9452 15.3889 19.6439 15.589 19.3125 15.725C18.9811 15.861 18.6261 15.9302 18.2679 15.9286ZM10.375 6.82143C10.1324 6.82462 9.90074 6.92326 9.73029 7.09598C9.55984 7.26871 9.46428 7.50162 9.4643 7.74429V13.2086C9.46749 13.448 9.56485 13.6765 9.73529 13.8447C9.90574 14.0129 10.1356 14.1072 10.375 14.1071H18.2679C18.5073 14.1072 18.7371 14.0129 18.9076 13.8447C19.078 13.6765 19.1754 13.448 19.1786 13.2086V7.74429C19.1786 7.50162 19.083 7.26871 18.9126 7.09598C18.7421 6.92326 18.5105 6.82462 18.2679 6.82143H10.375Z" fill="white"/>
<path d="M16.75 18.6729C16.7468 18.9123 16.6495 19.1408 16.479 19.309C16.3086 19.4772 16.0787 19.5715 15.8393 19.5714H6.125C5.56351 19.5714 5.02484 19.3492 4.62667 18.9533C4.22851 18.5574 4.00321 18.0201 4 17.4586V10.1729C3.99998 9.93019 4.09554 9.69728 4.26599 9.52455C4.43644 9.35183 4.66807 9.25319 4.91071 9.25C5.15336 9.25319 5.38499 9.35183 5.55544 9.52455C5.72589 9.69728 5.82145 9.93019 5.82143 10.1729V17.4586C5.82457 17.537 5.85793 17.6111 5.91452 17.6654C5.97112 17.7198 6.04655 17.7501 6.125 17.75H15.8393C16.0819 17.7532 16.3136 17.8518 16.484 18.0246C16.6545 18.1973 16.75 18.4302 16.75 18.6729Z" fill="white"/>
</svg>