<svg width="49" height="48" viewBox="0 0 49 48" fill="none" xmlns="http://www.w3.org/2000/svg">
<path d="M34.3403 21.2168L19.9128 10.6695C19.4286 10.3156 18.8416 10.0913 18.22 10.0225C17.5983 9.95373 16.9675 10.0433 16.4007 10.2809C15.834 10.5186 15.3545 10.8944 15.0181 11.3649C14.6817 11.8353 14.502 12.3811 14.5 12.9388V35.1028C14.5024 35.6602 14.6821 36.2055 15.0185 36.6756C15.3548 37.1457 15.8339 37.5213 16.4002 37.7589C16.9666 37.9964 17.597 38.0861 18.2183 38.0177C18.8396 37.9492 19.4264 37.7254 19.9106 37.3721L34.3403 26.8249C34.8051 26.4854 35.1795 26.0583 35.4366 25.5745C35.6937 25.0907 35.827 24.5621 35.827 24.0268C35.827 23.4916 35.6937 22.963 35.4366 22.4792C35.1795 21.9953 34.8051 21.5683 34.3403 21.2288V21.2168Z" fill="white"/>
</svg>
