<svg width="24" height="24" viewBox="0 0 24 24" fill="none" xmlns="http://www.w3.org/2000/svg">
<path d="M12 4.125C10.4425 4.125 8.91992 4.58686 7.62489 5.45218C6.32985 6.31749 5.32049 7.5474 4.72445 8.98637C4.12841 10.4253 3.97246 12.0087 4.27632 13.5363C4.58018 15.0639 5.3302 16.4671 6.43154 17.5685C7.53288 18.6698 8.93607 19.4198 10.4637 19.7237C11.9913 20.0275 13.5747 19.8716 15.0136 19.2755C16.4526 18.6795 17.6825 17.6701 18.5478 16.3751C19.4131 15.0801 19.875 13.5575 19.875 12C19.875 9.91142 19.0453 7.90838 17.5685 6.43153C16.0916 4.95468 14.0886 4.125 12 4.125ZM15.5719 12.6952L11.0719 15.789C10.9313 15.886 10.7645 15.9378 10.5938 15.9375C10.4829 15.9378 10.373 15.9162 10.2705 15.8739C10.168 15.8316 10.0749 15.7694 9.99647 15.691C9.91806 15.6126 9.85592 15.5195 9.81362 15.417C9.77133 15.3145 9.74971 15.2046 9.75 15.0937V8.90625C9.74999 8.75249 9.792 8.60166 9.87148 8.47004C9.95097 8.33842 10.0649 8.23102 10.201 8.15944C10.3371 8.08787 10.4901 8.05484 10.6436 8.06393C10.7971 8.07302 10.9452 8.12387 11.0719 8.211L15.5719 11.3047C15.6846 11.3823 15.7769 11.4861 15.8406 11.6072C15.9043 11.7283 15.9376 11.8631 15.9376 12C15.9376 12.1369 15.9043 12.2717 15.8406 12.3928C15.7769 12.5139 15.6846 12.6177 15.5719 12.6952Z" fill="white"/>
</svg>
