<svg
    width="24"
    height="24"
    viewBox="0 0 24 24"
    fill="none"
    xmlns="http://www.w3.org/2000/svg"
  >
    <path
      d="M5.89744 6.79487H18.1026C18.3406 6.79487 18.5688 6.70032 18.7371 6.53202C18.9054 6.36372 19 6.13545 19 5.89744C19 5.65942 18.9054 5.43115 18.7371 5.26285C18.5688 5.09455 18.3406 5 18.1026 5H5.89744C5.65942 5 5.43115 5.09455 5.26285 5.26285C5.09455 5.43115 5 5.65942 5 5.89744C5 6.13545 5.09455 6.36372 5.26285 6.53202C5.43115 6.70032 5.65942 6.79487 5.89744 6.79487Z"
      fill="currentColor"
    />
    <path
      d="M18.1025 8.94873H12C11.762 8.94873 11.5337 9.04328 11.3654 9.21158C11.1971 9.37989 11.1025 9.60815 11.1025 9.84617C11.1025 10.0842 11.1971 10.3124 11.3654 10.4808C11.5337 10.6491 11.762 10.7436 12 10.7436H18.1025C18.3406 10.7436 18.5688 10.6491 18.7371 10.4808C18.9054 10.3124 19 10.0842 19 9.84617C19 9.60815 18.9054 9.37989 18.7371 9.21158C18.5688 9.04328 18.3406 8.94873 18.1025 8.94873Z"
      fill="currentColor"
    />
    <path
      d="M18.1025 13.2564H12C11.762 13.2564 11.5337 13.351 11.3654 13.5193C11.1971 13.6876 11.1025 13.9158 11.1025 14.1538C11.1025 14.3919 11.1971 14.6201 11.3654 14.7884C11.5337 14.9567 11.762 15.0513 12 15.0513H18.1025C18.3406 15.0513 18.5688 14.9567 18.7371 14.7884C18.9054 14.6201 19 14.3919 19 14.1538C19 13.9158 18.9054 13.6876 18.7371 13.5193C18.5688 13.351 18.3406 13.2564 18.1025 13.2564Z"
      fill="currentColor"
    />
    <path
      d="M18.1026 17.2051H5.89744C5.65942 17.2051 5.43115 17.2996 5.26285 17.4679C5.09455 17.6362 5 17.8645 5 18.1025C5 18.3405 5.09455 18.5688 5.26285 18.7371C5.43115 18.9054 5.65942 19 5.89744 19H18.1026C18.3406 19 18.5688 18.9054 18.7371 18.7371C18.9054 18.5688 19 18.3405 19 18.1025C19 17.8645 18.9054 17.6362 18.7371 17.4679C18.5688 17.2996 18.3406 17.2051 18.1026 17.2051Z"
      fill="currentColor"
    />
    <path
      d="M5.98214 9.18279C5.85085 9.23706 5.73861 9.32906 5.65963 9.44715C5.58065 9.56524 5.53848 9.7041 5.53845 9.84617V14.1539C5.53848 14.2959 5.58065 14.4348 5.65963 14.5529C5.73861 14.671 5.85085 14.763 5.98214 14.8172C6.06903 14.8535 6.16226 14.872 6.2564 14.8718C6.35075 14.872 6.4442 14.8536 6.53142 14.8176C6.61864 14.7816 6.69791 14.7288 6.76471 14.6622L8.91856 12.5083C8.98541 12.4416 9.03846 12.3624 9.07465 12.2752C9.11085 12.188 9.12948 12.0945 9.12948 12C9.12948 11.9056 9.11085 11.8121 9.07465 11.7249C9.03846 11.6376 8.98541 11.5584 8.91856 11.4917L6.76471 9.33786C6.66423 9.23752 6.53625 9.16923 6.39695 9.14162C6.25765 9.11402 6.1133 9.12835 5.98214 9.18279Z"
      fill="currentColor"
    />
  </svg>