<svg width="24" height="24" viewBox="0 0 24 24" fill="none" xmlns="http://www.w3.org/2000/svg">
<path fill-rule="evenodd" clip-rule="evenodd" d="M4.63636 12C4.63636 7.93318 7.93318 4.63636 12 4.63636C16.0668 4.63636 19.3636 7.93318 19.3636 12C19.3636 16.0668 16.0668 19.3636 12 19.3636C7.93318 19.3636 4.63636 16.0668 4.63636 12ZM12 3C7.02944 3 3 7.02944 3 12C3 16.9706 7.02944 21 12 21C16.9706 21 21 16.9706 21 12C21 7.02944 16.9706 3 12 3ZM10.8175 8.04657C10.5664 7.87919 10.2436 7.86359 9.97757 8.00597C9.71153 8.14835 9.54545 8.4256 9.54545 8.72734V15.2728C9.54545 15.5745 9.71153 15.8518 9.97757 15.9942C10.2436 16.1365 10.5664 16.1209 10.8175 15.9536L15.7266 12.6808C15.9542 12.5291 16.0909 12.2736 16.0909 12.0001C16.0909 11.7265 15.9542 11.471 15.7266 11.3193L10.8175 8.04657ZM13.7977 12.0001L11.1818 13.744V10.2561L13.7977 12.0001Z" fill="white"/>
</svg>
