<svg xmlns="http://www.w3.org/2000/svg" width="20" height="20" viewBox="0 0 20 20" fill="none">
<path d="M14.1001 8.84016L8.08866 4.44547C7.88691 4.29802 7.64233 4.20454 7.3833 4.17588C7.12427 4.14722 6.86143 4.18456 6.62528 4.28357C6.38914 4.38257 6.18937 4.53917 6.04919 4.7352C5.90901 4.93122 5.83415 5.15862 5.83331 5.39101V14.626C5.83429 14.8583 5.9092 15.0855 6.04933 15.2814C6.18947 15.4772 6.3891 15.6337 6.62508 15.7327C6.86106 15.8317 7.12371 15.8691 7.38259 15.8405C7.64147 15.812 7.88596 15.7188 8.08772 15.5716L14.1001 11.1769C14.2938 11.0354 14.4498 10.8575 14.5569 10.6559C14.664 10.4543 14.7196 10.234 14.7196 10.011C14.7196 9.788 14.664 9.56776 14.5569 9.36616C14.4498 9.16456 14.2938 8.98662 14.1001 8.84516V8.84016Z" fill="white"/>
</svg>