<svg width="24" height="24" viewBox="0 0 24 24" fill="none" xmlns="http://www.w3.org/2000/svg">
<path fill-rule="evenodd" clip-rule="evenodd" d="M12 22C17.5228 22 22 17.5228 22 12C22 6.47715 17.5228 2 12 2C6.47715 2 2 6.47715 2 12C2 17.5228 6.47715 22 12 22ZM6.03072 6.73782C5.83546 6.54256 5.83546 6.22597 6.03072 6.03071C6.22598 5.83545 6.54256 5.83545 6.73782 6.03071L17.9693 17.2622C18.1645 17.4574 18.1645 17.774 17.9693 17.9693C17.774 18.1645 17.4574 18.1645 17.2622 17.9693L6.03072 6.73782ZM7.65109 9.27774C7.14188 9.5484 6.65621 9.86756 6.20124 10.2327C5.93974 10.4426 5.89789 10.8247 6.10777 11.0862C6.31765 11.3477 6.69978 11.3896 6.96129 11.1797C7.45508 10.7834 7.9905 10.4494 8.55543 10.1821L7.65109 9.27774ZM9.71334 11.34C8.93066 11.6322 8.20461 12.0744 7.57895 12.6495C7.33209 12.8764 7.31593 13.2605 7.54286 13.5074C7.76978 13.7542 8.15386 13.7704 8.40072 13.5435C9.05196 12.9448 9.83681 12.5231 10.6808 12.3075L9.71334 11.34ZM14.2892 12.6625L12.5807 10.9541C13.9944 11.0812 15.3345 11.6668 16.3918 12.6301C16.6396 12.8559 16.6575 13.2399 16.4316 13.4878C16.2058 13.7357 15.8218 13.7535 15.5739 13.5277C15.187 13.1752 14.7536 12.8848 14.2892 12.6625ZM12.0335 13.6601L14.1747 15.8013C14.0444 15.7858 13.9182 15.7282 13.8182 15.6285C13.4856 15.2969 13.0689 15.0623 12.613 14.9497C12.4101 14.8995 12.2028 14.8744 11.9956 14.8742C11.7885 14.8744 11.5811 14.8995 11.3782 14.9497C10.9223 15.0623 10.5057 15.2969 10.1731 15.6285C9.9356 15.8652 9.55118 15.8645 9.31446 15.6271C9.07775 15.3896 9.07837 15.0052 9.31586 14.7684C9.74077 14.3449 10.259 14.0289 10.8273 13.8448C10.842 13.839 10.857 13.8338 10.8723 13.829C11.2378 13.7162 11.6165 13.6597 11.9956 13.66L12.0335 13.6601ZM11.087 9.46036L10.032 8.40538C10.6749 8.26573 11.3348 8.19416 12.001 8.19442C14.1099 8.19525 16.1554 8.91593 17.7991 10.2373C18.0605 10.4473 18.102 10.8295 17.8919 11.0909C17.6818 11.3522 17.2997 11.3937 17.0383 11.1837C15.6102 10.0356 13.8329 9.40942 12.0005 9.4087C11.694 9.40858 11.389 9.42596 11.087 9.46036Z" fill="white"/>
</svg>
