<svg width="24" height="24" viewBox="0 0 24 24" fill="none" xmlns="http://www.w3.org/2000/svg">
<path fill-rule="evenodd" clip-rule="evenodd" d="M3.04609 3.04609C2.75319 3.33898 2.75319 3.81385 3.04609 4.10675L19.8933 20.9539C20.1862 21.2468 20.661 21.2468 20.9539 20.9539C21.2468 20.661 21.2468 20.1862 20.9539 19.8933L4.10675 3.04609C3.81385 2.75319 3.33898 2.75319 3.04609 3.04609ZM3.30188 9.34908C3.98432 8.80137 4.71283 8.32262 5.47665 7.91664L6.83315 9.27314C5.98577 9.67418 5.18263 10.1751 4.44195 10.7696C4.04969 11.0844 3.47648 11.0216 3.16166 10.6294C2.84684 10.2371 2.90962 9.6639 3.30188 9.34908ZM5.36844 12.9743C6.30693 12.1116 7.396 11.4483 8.57002 11.01L10.0212 12.4612C8.75522 12.7847 7.57794 13.4173 6.6011 14.3152C6.2308 14.6556 5.65468 14.6314 5.31429 14.2611C4.97391 13.8908 4.99815 13.3147 5.36844 12.9743ZM12.871 10.4311L15.4338 12.9938C16.1305 13.3272 16.7806 13.7628 17.3609 14.2915C17.7327 14.6303 18.3087 14.6035 18.6475 14.2317C18.9862 13.8599 18.9594 13.2839 18.5876 12.9452C17.0017 11.5002 14.9917 10.6218 12.871 10.4311ZM15.262 17.702L12.0502 14.4902L11.9934 14.49C11.4248 14.4896 10.8567 14.5743 10.3084 14.7436C10.2855 14.7507 10.263 14.7586 10.241 14.7673C9.3885 15.0434 8.61117 15.5174 7.9738 16.1527C7.61757 16.5078 7.61663 17.0844 7.9717 17.4406C8.32678 17.7968 8.90341 17.7978 9.25964 17.4427C9.75854 16.9454 10.3835 16.5934 11.0673 16.4245C11.3717 16.3493 11.6827 16.3117 11.9934 16.3114C12.3042 16.3117 12.6152 16.3493 12.9196 16.4245C13.6034 16.5934 14.2283 16.9454 14.7272 17.4427C14.8774 17.5924 15.0667 17.6788 15.262 17.702ZM9.04802 6.60809L10.6305 8.19056C11.0836 8.13897 11.541 8.1129 12.0008 8.11308C14.7494 8.11416 17.4153 9.05342 19.5575 10.7755C19.9495 11.0906 20.5228 11.0283 20.8379 10.6363C21.153 10.2443 21.0907 9.67103 20.6987 9.35591C18.2331 7.37392 15.1649 6.2929 12.0015 6.29166C11.0023 6.29127 10.0124 6.39862 9.04802 6.60809Z" fill="white"/>
</svg>
