<svg
    width="24"
    height="24"
    viewBox="0 0 24 24"
    fill="none"
    xmlns="http://www.w3.org/2000/svg"
  >
    <path
      d="M10.1684 13.3917L16.5906 18.6652C16.8061 18.8422 17.0674 18.9544 17.3441 18.9887C17.6208 19.0231 17.9016 18.9783 18.1539 18.8595C18.4062 18.7407 18.6196 18.5528 18.7694 18.3176C18.9191 18.0824 18.9991 17.8095 19 17.5306L19 6.44879C18.999 6.17012 18.9189 5.89745 18.7692 5.66241C18.6195 5.42736 18.4062 5.23957 18.1541 5.12081C17.902 5.00204 17.6214 4.95717 17.3449 4.99139C17.0683 5.02562 16.8071 5.13754 16.5916 5.31417L10.1684 10.5877C9.96149 10.7574 9.79482 10.971 9.68038 11.2129C9.56594 11.4548 9.50658 11.7191 9.50658 11.9867C9.50658 12.2543 9.56594 12.5186 9.68038 12.7605C9.79482 13.0024 9.96149 13.216 10.1684 13.3857L10.1684 13.3917Z"
      fill="currentColor"
    />
    <path
      d="M8.00427 18.9997L4.99998 18.9997L4.99998 4.9797L8.00427 4.9797L8.00427 18.9997Z"
      fill="currentColor"
    />
  </svg>