<svg width="24" height="24" viewBox="0 0 24 24" fill="none" xmlns="http://www.w3.org/2000/svg">
<path fill-rule="evenodd" clip-rule="evenodd" d="M3 3.81818C3 3.36631 3.36631 3 3.81818 3H10.3636C10.8155 3 11.1818 3.36631 11.1818 3.81818V10.3636C11.1818 10.8155 10.8155 11.1818 10.3636 11.1818H3.81818C3.36631 11.1818 3 10.8155 3 10.3636V3.81818ZM4.63636 4.63636V9.54545H9.54545V4.63636H4.63636ZM6.27271 7.09089C6.27271 6.63902 6.63902 6.27271 7.09089 6.27271H7.09908C7.55094 6.27271 7.91726 6.63902 7.91726 7.09089C7.91726 7.54276 7.55094 7.90907 7.09908 7.90907H7.09089C6.63902 7.90907 6.27271 7.54276 6.27271 7.09089ZM13.6364 3C13.1845 3 12.8182 3.36631 12.8182 3.81818V10.3636C12.8182 10.8155 13.1845 11.1818 13.6364 11.1818H20.1818C20.6337 11.1818 21 10.8155 21 10.3636V3.81818C21 3.36631 20.6337 3 20.1818 3H13.6364ZM14.4546 9.54545V4.63636H19.3636V9.54545H14.4546ZM16.0909 7.09089C16.0909 6.63902 16.4572 6.27271 16.9091 6.27271H16.9173C17.3692 6.27271 17.7355 6.63902 17.7355 7.09089C17.7355 7.54276 17.3692 7.90907 16.9173 7.90907H16.9091C16.4572 7.90907 16.0909 7.54276 16.0909 7.09089ZM3.81818 12.8181C3.36631 12.8181 3 13.1844 3 13.6363V20.1818C3 20.6336 3.36631 21 3.81818 21H10.3636C10.8155 21 11.1818 20.6336 11.1818 20.1818V13.6363C11.1818 13.1844 10.8155 12.8181 10.3636 12.8181H3.81818ZM4.63636 19.3636V14.4545H9.54545V19.3636H4.63636ZM6.27271 16.909C6.27271 16.4572 6.63902 16.0908 7.09089 16.0908H7.09908C7.55094 16.0908 7.91726 16.4572 7.91726 16.909C7.91726 17.3609 7.55094 17.7272 7.09908 17.7272H7.09089C6.63902 17.7272 6.27271 17.3609 6.27271 16.909ZM13.6364 12.8181C13.1845 12.8181 12.8182 13.1844 12.8182 13.6363C12.8182 14.0882 13.1845 14.4545 13.6364 14.4545H13.6446C14.0964 14.4545 14.4627 14.0882 14.4627 13.6363C14.4627 13.1844 14.0964 12.8181 13.6446 12.8181H13.6364ZM16.0909 16.909C16.0909 16.4572 16.4572 16.0908 16.9091 16.0908H16.9173C17.3692 16.0908 17.7355 16.4572 17.7355 16.909C17.7355 17.3609 17.3692 17.7272 16.9173 17.7272H16.9091C16.4572 17.7272 16.0909 17.3609 16.0909 16.909ZM21 16.909C21 16.4572 20.6337 16.0908 20.1818 16.0908C19.73 16.0908 19.3637 16.4572 19.3637 16.909V19.3636H16.9091C16.4572 19.3636 16.0909 19.7299 16.0909 20.1818C16.0909 20.6336 16.4572 20.9999 16.9091 20.9999H20.1818C20.6337 20.9999 21 20.6336 21 20.1818V16.909ZM13.6364 16.0908C14.0882 16.0908 14.4546 16.4572 14.4546 16.909V20.1818C14.4546 20.6336 14.0882 20.9999 13.6364 20.9999C13.1845 20.9999 12.8182 20.6336 12.8182 20.1818V16.909C12.8182 16.4572 13.1845 16.0908 13.6364 16.0908ZM16.9091 12.8181C16.4572 12.8181 16.0909 13.1844 16.0909 13.6363C16.0909 14.0882 16.4572 14.4545 16.9091 14.4545H20.1818C20.6337 14.4545 21 14.0882 21 13.6363C21 13.1844 20.6337 12.8181 20.1818 12.8181H16.9091Z" fill="white"/>
</svg>
