<svg width="24" height="24" viewBox="0 0 24 24" fill="none" xmlns="http://www.w3.org/2000/svg">
<path d="M11.9912 20.7422C16.9746 20.7422 21.0879 16.6289 21.0879 11.6543C21.0879 6.67969 16.9658 2.56641 11.9824 2.56641C7.00781 2.56641 2.90332 6.67969 2.90332 11.6543C2.90332 16.6289 7.0166 20.7422 11.9912 20.7422ZM11.7803 13.4648C11.209 13.4648 10.8926 13.2012 10.8926 12.6738V12.5771C10.8926 11.751 11.3672 11.2852 12.0176 10.8281C12.791 10.292 13.1689 10.002 13.1689 9.43945C13.1689 8.83301 12.7031 8.42871 11.9824 8.42871C11.4551 8.42871 11.0684 8.69238 10.7783 9.14062C10.4971 9.45703 10.3652 9.72949 9.83789 9.72949C9.40723 9.72949 9.05566 9.44824 9.05566 9.00879C9.05566 8.83301 9.09082 8.6748 9.15234 8.5166C9.44238 7.65527 10.4971 6.95215 12.0703 6.95215C13.7051 6.95215 15.085 7.82227 15.085 9.35156C15.085 10.4062 14.5049 10.9336 13.5908 11.5225C13.0107 11.9004 12.6768 12.2168 12.6504 12.6914C12.6504 12.7178 12.6416 12.7617 12.6416 12.7969C12.6152 13.1748 12.29 13.4648 11.7803 13.4648ZM11.7715 16.2773C11.1738 16.2773 10.6816 15.8467 10.6816 15.2666C10.6816 14.6865 11.165 14.2559 11.7715 14.2559C12.3691 14.2559 12.8525 14.6865 12.8525 15.2666C12.8525 15.8555 12.3604 16.2773 11.7715 16.2773Z" fill="white"/>
</svg>
