<svg width="24" height="24" viewBox="0 0 24 24" fill="none" xmlns="http://www.w3.org/2000/svg">
<path fill-rule="evenodd" clip-rule="evenodd" d="M12 4.63636C7.93318 4.63636 4.63636 7.93318 4.63636 12C4.63636 16.0668 7.93318 19.3636 12 19.3636C16.0668 19.3636 19.3636 16.0668 19.3636 12C19.3636 7.93318 16.0668 4.63636 12 4.63636ZM3 12C3 7.02944 7.02944 3 12 3C16.9706 3 21 7.02944 21 12C21 16.9706 16.9706 21 12 21C7.02944 21 3 16.9706 3 12ZM12.2112 8.74713C11.8303 8.6818 11.4386 8.75337 11.1054 8.94917C10.7723 9.14498 10.5191 9.45238 10.3909 9.81692C10.241 10.2432 9.77385 10.4672 9.34758 10.3172C8.92132 10.1673 8.69732 9.70017 8.84727 9.2739C9.10375 8.54481 9.60998 7.93002 10.2763 7.53841C10.9426 7.1468 11.7261 7.00365 12.4878 7.13432C13.2496 7.26498 13.9405 7.66102 14.4383 8.2523C14.9359 8.84345 15.2083 9.59162 15.2073 10.3643C15.2069 11.6164 14.2786 12.4433 13.6157 12.8853C13.2592 13.1229 12.9086 13.2976 12.6504 13.4124C12.5201 13.4703 12.4103 13.5142 12.3313 13.5444C12.2917 13.5595 12.2596 13.5711 12.2362 13.5795L12.2078 13.5894L12.1987 13.5925L12.1956 13.5936L12.1943 13.594C12.1941 13.5941 12.1933 13.5943 11.9345 12.8181L12.1933 13.5943C11.7646 13.7372 11.3012 13.5056 11.1584 13.0769C11.0156 12.6485 11.2468 12.1855 11.675 12.0422L11.688 12.0376C11.7006 12.0332 11.7212 12.0257 11.7487 12.0152C11.8039 11.9942 11.886 11.9614 11.9858 11.9171C12.1877 11.8273 12.4508 11.6952 12.708 11.5237C13.2722 11.1476 13.5709 10.7474 13.5709 10.3636L13.5709 10.3624C13.5715 9.97593 13.4353 9.60176 13.1864 9.30612C12.9375 9.01048 12.5921 8.81246 12.2112 8.74713ZM12 15.2727C11.5481 15.2727 11.1818 15.639 11.1818 16.0909C11.1818 16.5428 11.5481 16.9091 12 16.9091H12.0082C12.4601 16.9091 12.8264 16.5428 12.8264 16.0909C12.8264 15.639 12.4601 15.2727 12.0082 15.2727H12Z" fill="white"/>
</svg>
