<svg width="24" height="24" viewBox="0 0 32 32" fill="none" xmlns="http://www.w3.org/2000/svg">
<path fill-rule="evenodd" clip-rule="evenodd" d="M25.1499 14.5679C24.7764 14.6328 24.3921 14.6667 24 14.6667C23.8826 14.6667 23.7659 14.6636 23.6499 14.6576V24.05H8.34994V10.4C8.34994 9.49421 9.09415 8.75 9.99994 8.75H17.3751C17.3475 8.5038 17.3333 8.25356 17.3333 8C17.3333 7.74644 17.3475 7.4962 17.3751 7.25H9.99994C8.26572 7.25 6.84994 8.66579 6.84994 10.4V24.05H4C3.58579 24.05 3.25 24.3858 3.25 24.8C3.25 25.2142 3.58579 25.55 4 25.55H7.59268L7.59994 25.55H24.3999L24.4072 25.55H28C28.4142 25.55 28.75 25.2142 28.75 24.8C28.75 24.3858 28.4142 24.05 28 24.05H25.1499V14.5679Z" fill="white"/>
<path d="M12.4 16.4L14.8 18.8L19.6 14" stroke="white" stroke-width="1.5" stroke-linecap="round" stroke-linejoin="round"/>
<path d="M24 13.3337C26.9455 13.3337 29.3333 10.9458 29.3333 8.00033C29.3333 5.05481 26.9455 2.66699 24 2.66699C21.0544 2.66699 18.6666 5.05481 18.6666 8.00033C18.6666 10.9458 21.0544 13.3337 24 13.3337Z" fill="#2672ED"/>
</svg>
