<svg width="24" height="24" viewBox="0 0 24 24" fill="none" xmlns="http://www.w3.org/2000/svg">
<path fill-rule="evenodd" clip-rule="evenodd" d="M15.2595 4.03615C14.6249 4.26947 13.8721 4.73111 13.0815 5.41919C12.9213 5.55852 12.7599 5.70673 12.5978 5.86334C13.177 6.48707 13.7532 7.19932 14.3066 7.98025C15.275 8.07023 16.1939 8.21596 17.0351 8.41004C17.0683 8.27391 17.0985 8.13974 17.1257 8.00772L17.1257 8.00764C17.3522 6.90821 17.383 5.96564 17.2642 5.25501C17.1427 4.52784 16.8815 4.12824 16.61 3.97168C16.3543 3.8242 15.9087 3.79746 15.2595 4.03615ZM13.1768 7.90194C12.7865 7.3875 12.3893 6.91223 11.9927 6.48301C11.5959 6.9124 11.1985 7.38789 10.8081 7.90256C11.2007 7.88426 11.5986 7.87489 11.9997 7.87489H12.0001C12.397 7.87489 12.7898 7.88405 13.1768 7.90194ZM11.9927 5.24517C12.1668 5.07686 12.3406 4.91718 12.5136 4.76667C13.3574 4.03231 14.1996 3.5042 14.961 3.22427C15.7078 2.94972 16.4593 2.88623 17.0421 3.22233L16.8454 3.56349L17.0421 3.22233C17.6446 3.56974 17.9789 4.28409 18.1174 5.11238C18.2586 5.9572 18.2141 7.0116 17.9729 8.18217C17.9429 8.32832 17.9094 8.47655 17.8726 8.62667C18.0972 8.69148 18.3146 8.76004 18.5241 8.83218L18.3838 9.23993L18.5241 8.83219C19.5818 9.19633 20.4601 9.66207 21.083 10.1818C21.6939 10.6915 22.1243 11.3108 22.1243 11.9837C22.1243 12.6791 21.6725 13.3256 21.0242 13.8593C20.3629 14.4037 19.4272 14.8919 18.2927 15.2678L18.1567 14.8572L18.2927 15.2678C18.1495 15.3152 18.0028 15.3607 17.8527 15.4043C17.9169 15.6605 17.9723 15.9109 18.0185 16.1544C18.2248 17.2408 18.2512 18.2159 18.1049 18.9995C17.961 19.7703 17.6332 20.4319 17.0588 20.763C16.4699 21.1026 15.6961 21.0505 14.9184 20.7759C14.1256 20.4959 13.2465 19.9582 12.3706 19.1925C12.2445 19.0823 12.1185 18.9669 11.9927 18.8465C11.8669 18.9669 11.7409 19.0823 11.6148 19.1925C10.7389 19.9582 9.85973 20.4959 9.06694 20.7759C8.28931 21.0505 7.51548 21.1026 6.92657 20.763C6.35219 20.4319 6.02436 19.7703 5.88044 18.9995C5.73415 18.2159 5.76055 17.2408 5.96683 16.1544C6.01139 15.9197 6.06445 15.6786 6.12571 15.432C5.93785 15.3781 5.75515 15.321 5.57807 15.2605L5.57804 15.2604C4.47711 14.8841 3.57218 14.3912 2.93358 13.8443C2.30719 13.3078 1.87549 12.6635 1.87549 11.9837C1.87549 11.3207 2.2848 10.7062 2.88068 10.1964C3.4863 9.67823 4.34415 9.21397 5.3883 8.84993L5.53069 9.25832L5.38831 8.84993C5.61944 8.76935 5.86085 8.69313 6.11147 8.62153C6.07521 8.47317 6.04215 8.32665 6.01242 8.18217C5.77127 7.0116 5.72673 5.9572 5.86798 5.11238C6.00645 4.28409 6.34079 3.56974 6.94322 3.22233L7.13996 3.56349L6.94323 3.22233C7.52607 2.88623 8.27757 2.94972 9.02434 3.22427C9.78573 3.5042 10.6279 4.03231 11.4718 4.76667C11.6447 4.91718 11.8185 5.07686 11.9927 5.24517ZM6.94953 8.40708C6.91662 8.27197 6.88663 8.13879 6.85965 8.00772L6.85964 8.00764C6.63314 6.90821 6.60233 5.96564 6.72114 5.25501C6.84272 4.52784 7.10384 4.12824 7.37534 3.97168C7.63108 3.8242 8.07662 3.79746 8.72585 4.03615C9.36047 4.26947 10.1133 4.73111 10.9039 5.41919C11.064 5.55852 11.2254 5.70673 11.3876 5.86334C10.8081 6.48727 10.2318 7.19977 9.67827 7.98099C8.71142 8.0706 7.79102 8.21507 6.94953 8.40708ZM6.3427 9.45509C6.10995 9.5217 5.88642 9.59234 5.67307 9.66672C4.69725 10.0069 3.94375 10.4252 3.44302 10.8537C2.93254 11.2904 2.7405 11.6864 2.7405 11.9837C2.7405 12.2935 2.9497 12.7192 3.49624 13.1873C4.03057 13.6449 4.83061 14.0908 5.85781 14.4419C6.01896 14.497 6.1857 14.5492 6.35762 14.5987C6.61029 13.775 6.94351 12.9067 7.34739 12.0252C6.93765 11.1466 6.59725 10.2798 6.3427 9.45509ZM7.84087 11.0106C7.58064 10.4033 7.35926 9.80972 7.18204 9.24132C7.76437 9.10995 8.3896 9.00162 9.04568 8.91968C8.88237 9.17446 8.72191 9.43498 8.56486 9.70064L8.56279 9.70046L8.42465 9.94006C8.21963 10.2957 8.02482 10.6532 7.84087 11.0106ZM8.3041 12.0221C8.54832 11.5123 8.81724 10.9978 9.10913 10.4854L9.1744 10.3722C9.48917 9.8264 9.81817 9.30367 10.1561 8.80885C10.7549 8.76362 11.3721 8.7399 11.9997 8.7399H12.0001C12.6245 8.7399 13.2363 8.76334 13.8288 8.80806C14.1669 9.30312 14.496 9.82611 14.811 10.3722L14.8762 10.4854C15.1681 10.9978 15.437 11.5123 15.6813 12.0221C15.4216 12.5554 15.1352 13.0942 14.8256 13.6311C14.5119 14.1752 14.1869 14.7 13.8543 15.1985C13.2523 15.2416 12.6314 15.2635 12.0001 15.2635C11.3641 15.2635 10.7395 15.2437 10.1345 15.2036C9.80074 14.7036 9.47459 14.177 9.15977 13.6311C8.85013 13.0942 8.56377 12.5554 8.3041 12.0221ZM7.84735 13.0375C7.59161 13.6458 7.37406 14.2404 7.19782 14.8094C7.77286 14.9346 8.39089 15.0334 9.04012 15.1065C8.82534 14.7667 8.61514 14.4182 8.41044 14.0633L8.7851 13.8472L8.41044 14.0633C8.21391 13.7225 8.02589 13.38 7.84735 13.0375ZM9.65369 16.0353C8.70295 15.9567 7.7956 15.8275 6.96441 15.6438C6.9073 15.8738 6.85797 16.0981 6.81665 16.3157C6.62387 17.3311 6.6098 18.1929 6.73075 18.8407C6.85407 19.5012 7.10118 19.8652 7.35858 20.0136L7.35871 20.0136C7.62705 20.1684 8.10037 20.1999 8.77888 19.9602C9.44223 19.7259 10.2282 19.2557 11.0455 18.5412L11.0455 18.5412C11.1593 18.4418 11.2733 18.3374 11.3875 18.2284C10.7954 17.586 10.2127 16.8439 9.65369 16.0353ZM12.5979 18.2284C12.7121 18.3374 12.8261 18.4418 12.9398 18.5412L12.9398 18.5412C13.7571 19.2557 14.5431 19.7259 15.2065 19.9602C15.885 20.1999 16.3583 20.1684 16.6267 20.0136L16.6268 20.0136C16.8842 19.8652 17.1313 19.5012 17.2546 18.8407C17.3756 18.1929 17.3615 17.3311 17.1687 16.3157C17.126 16.0906 17.0746 15.8582 17.015 15.6197C16.1878 15.8073 15.2843 15.9436 14.337 16.0276C13.7763 16.8392 13.1918 17.584 12.5979 18.2284ZM17.6193 14.5713C17.7565 14.5314 17.8903 14.4899 18.0207 14.4467C19.0862 14.0936 19.9181 13.6494 20.4744 13.1915C21.0436 12.7229 21.2593 12.2971 21.2593 11.9837C21.2593 11.6884 21.0599 11.2891 20.5288 10.846C20.0096 10.4128 19.2336 9.99128 18.2426 9.65008C18.0496 9.58365 17.8489 9.52027 17.6411 9.46016C17.3867 10.2833 17.0469 11.1484 16.638 12.0252C17.0374 12.8969 17.3677 13.7558 17.6193 14.5713ZM16.138 13.0375C16.3902 13.6374 16.6053 14.2241 16.7803 14.7859C16.2095 14.9137 15.5965 15.0167 14.9532 15.0939C15.1653 14.758 15.3728 14.4138 15.5749 14.0633L15.2003 13.8472L15.5749 14.0633C15.7715 13.7225 15.9595 13.38 16.138 13.0375ZM16.1445 11.0106C16.4043 10.4043 16.6254 9.81168 16.8024 9.24414C16.2203 9.11127 15.5958 9.00188 14.9395 8.91935C15.1029 9.17424 15.2634 9.43486 15.4205 9.70064L15.4226 9.70046L15.5607 9.94006C15.7657 10.2957 15.9606 10.6532 16.1445 11.0106ZM11.9927 17.6087C11.5801 17.1582 11.1687 16.6525 10.7646 16.1035C11.1719 16.1203 11.5845 16.1285 12.0001 16.1285C12.4112 16.1285 12.8193 16.1195 13.2222 16.1015C12.8177 16.6513 12.4058 17.1576 11.9927 17.6087ZM13.8082 11.9837C13.8082 12.9823 12.9986 13.7918 12 13.7918C11.0014 13.7918 10.1919 12.9823 10.1919 11.9837C10.1919 10.9851 11.0014 10.1756 12 10.1756C12.9986 10.1756 13.8082 10.9851 13.8082 11.9837Z" fill="white"/>
</svg>
