<svg width="24" height="24" viewBox="0 0 24 24" fill="none" xmlns="http://www.w3.org/2000/svg">
<path fill-rule="evenodd" clip-rule="evenodd" d="M18.9024 17.0739C19.9567 15.6486 20.583 13.8933 20.583 12.0068C20.583 7.30859 16.6899 3.42383 11.9834 3.42383C10.1003 3.42383 8.34916 4.04793 6.92678 5.09836L8.14116 6.31274C9.23448 5.5729 10.5557 5.14209 11.9834 5.14209C15.7935 5.14209 18.8564 8.19678 18.8647 12.0068C18.8679 13.4393 18.4357 14.7661 17.6927 15.8642L18.9024 17.0739ZM15.9377 17.6448L17.1439 18.851C15.7036 19.9402 13.9163 20.5898 11.9917 20.5898C7.29346 20.5898 3.40869 16.7051 3.40869 12.0068C3.40869 10.0832 4.05857 8.29586 5.14864 6.85575L6.36206 8.06917C5.58793 9.18168 5.13525 10.5381 5.13525 12.0068C5.13525 15.8169 8.18164 18.8799 11.9917 18.8799C13.4619 18.8799 14.822 18.4238 15.9377 17.6448ZM15.0281 13.1997C15.1739 12.8284 15.2539 12.4233 15.2539 11.9985C15.2539 10.2056 13.8013 8.74463 12 8.74463C11.5755 8.74463 11.1707 8.82502 10.7996 8.97122L15.0281 13.1997ZM9.00309 10.7102L13.2894 14.9965C12.8943 15.1666 12.4584 15.2607 12 15.2607C10.1904 15.2607 8.73779 13.8081 8.73779 11.9985C8.73779 11.5412 8.83228 11.1056 9.00309 10.7102Z" fill="white"/>
<rect x="2" y="3" width="1.5" height="27.1947" rx="0.75" transform="rotate(-45 2 3)" fill="white"/>
</svg>
