<svg width="24" height="24" viewBox="0 0 24 24" fill="none" xmlns="http://www.w3.org/2000/svg">
<path fill-rule="evenodd" clip-rule="evenodd" d="M19.5455 3C19.9973 3 20.3637 3.36631 20.3637 3.81818V8.72727C20.3637 9.17914 19.9973 9.54545 19.5455 9.54545H14.6364C14.1845 9.54545 13.8182 9.17914 13.8182 8.72727C13.8182 8.2754 14.1845 7.90909 14.6364 7.90909H18.7273V3.81818C18.7273 3.36631 19.0936 3 19.5455 3Z" fill="white"/>
<path fill-rule="evenodd" clip-rule="evenodd" d="M13.1912 5.53949C11.9432 5.34472 10.6656 5.51517 9.51237 6.03028C8.35914 6.54539 7.37957 7.38316 6.69182 8.44253C6.00407 9.50191 5.63751 10.7376 5.63636 12.0007C5.63595 12.4526 5.26931 12.8185 4.81744 12.8181C4.36557 12.8177 3.99959 12.4511 4 11.9992C4.00144 10.4204 4.45964 8.87572 5.31932 7.5515C6.17901 6.22728 7.40347 5.18007 8.84501 4.53619C10.2865 3.8923 11.8836 3.67924 13.4435 3.9227C15.0034 4.16616 16.4596 4.85575 17.6364 5.90829L17.6382 5.90997L20.0928 8.11907C20.4287 8.42135 20.4559 8.93868 20.1536 9.27455C19.8513 9.61042 19.334 9.63765 18.9981 9.33537L16.5455 7.12796C16.5452 7.12769 16.5449 7.12743 16.5446 7.12716C15.6033 6.28558 14.4387 5.7342 13.1912 5.53949Z" fill="white"/>
<path fill-rule="evenodd" clip-rule="evenodd" d="M4 15.2728C4 14.8209 4.36631 14.4546 4.81818 14.4546H9.72727C10.1791 14.4546 10.5455 14.8209 10.5455 15.2728C10.5455 15.7246 10.1791 16.091 9.72727 16.091H5.63636V20.1819C5.63636 20.6337 5.27005 21 4.81818 21C4.36631 21 4 20.6337 4 20.1819V15.2728Z" fill="white"/>
<path fill-rule="evenodd" clip-rule="evenodd" d="M19.5462 11.1819C19.9981 11.1823 20.3641 11.5489 20.3636 12.0008C20.3622 13.5796 19.904 15.1243 19.0443 16.4485C18.1846 17.7727 16.9602 18.8199 15.5186 19.4638C14.0771 20.1077 12.4801 20.3208 10.9201 20.0773C9.36021 19.8338 7.90405 19.1443 6.72728 18.0917L6.7254 18.09L6.7254 18.09L4.27085 15.8809C3.93498 15.5787 3.90775 15.0613 4.21004 14.7255C4.51232 14.3896 5.02965 14.3624 5.36552 14.6646L7.81819 16.872C7.8185 16.8723 7.81881 16.8726 7.81912 16.8729C8.76037 17.7144 9.92495 18.2658 11.1725 18.4605C12.4204 18.6553 13.698 18.4848 14.8513 17.9697C16.0045 17.4546 16.9841 16.6169 17.6718 15.5575C18.3596 14.4981 18.7261 13.2624 18.7273 11.9993C18.7277 11.5475 19.0943 11.1815 19.5462 11.1819Z" fill="white"/>
</svg>
