<svg width="24" height="24" viewBox="0 0 24 24" fill="none" xmlns="http://www.w3.org/2000/svg">
<path fill-rule="evenodd" clip-rule="evenodd" d="M21.0879 12.1543C21.0879 17.1289 16.9746 21.2422 11.9912 21.2422C7.0166 21.2422 2.90332 17.1289 2.90332 12.1543C2.90332 7.17969 7.00781 3.06641 11.9824 3.06641C16.9658 3.06641 21.0879 7.17969 21.0879 12.1543ZM7.51593 17.8977C8.74581 18.8598 10.2972 19.4316 11.9912 19.4316C16.0254 19.4316 19.2773 16.1885 19.2686 12.1543C19.2649 10.463 18.6927 8.91226 17.7321 7.68152L7.51593 17.8977ZM6.12612 16.4602L16.2969 6.2894C15.0911 5.40598 13.6004 4.88574 11.9824 4.88574C7.95703 4.88574 4.73145 8.12012 4.73145 12.1543C4.73145 13.7686 5.24796 15.2563 6.12612 16.4602Z" fill="white"/>
</svg>
