<svg width="20" height="20" viewBox="0 0 20 20" fill="none" xmlns="http://www.w3.org/2000/svg">
<path d="M8.38542 11.7708L5 8.38542L8.38542 5" stroke="currentColor" stroke-width="1.5" stroke-linecap="round" stroke-linejoin="round"/>
<path d="M5 8.38525H12.1094C12.5984 8.38525 13.0827 8.48158 13.5345 8.66872C13.9863 8.85587 14.3968 9.13017 14.7426 9.47598C15.0884 9.82178 15.3627 10.2323 15.5499 10.6841C15.737 11.1359 15.8333 11.6202 15.8333 12.1092C15.8333 12.5982 15.737 13.0825 15.5499 13.5343C15.3627 13.9861 15.0884 14.3966 14.7426 14.7424C14.3968 15.0882 13.9863 15.3626 13.5345 15.5497C13.0827 15.7368 12.5984 15.8332 12.1094 15.8332H9.73958" stroke="currentColor" stroke-width="1.5" stroke-linecap="round" stroke-linejoin="round"/>
</svg>
