<svg width="13" height="13" viewBox="0 0 13 13" fill="none" xmlns="http://www.w3.org/2000/svg">
<g id="Icon">
<path id="Vector" d="M4.38542 7.77083L1 4.38542L4.38542 1" stroke="#EFF0FA" stroke-width="1.5" stroke-linecap="round" stroke-linejoin="round"/>
<path id="Vector_2" d="M1 4.38538H8.10937C8.59841 4.38538 9.08266 4.4817 9.53447 4.66885C9.98628 4.85599 10.3968 5.1303 10.7426 5.4761C11.0884 5.8219 11.3627 6.23243 11.5499 6.68424C11.737 7.13605 11.8333 7.6203 11.8333 8.10933C11.8333 8.59837 11.737 9.08262 11.5499 9.53443C11.3627 9.98624 11.0884 10.3968 10.7426 10.7426C10.3968 11.0884 9.98628 11.3627 9.53447 11.5498C9.08266 11.737 8.59841 11.8333 8.10937 11.8333H5.73958" stroke="#EFF0FA" stroke-width="1.5" stroke-linecap="round" stroke-linejoin="round"/>
</g>
</svg>
