<svg width="18" height="19" viewBox="0 0 18 19" fill="none" xmlns="http://www.w3.org/2000/svg">
<path d="M6.63657 18.24C6.97241 18.5758 7.38062 18.8072 7.82553 18.9203L8.45922 17.2727C8.2292 17.2707 8.01634 17.1844 7.84566 17.0223C7.68156 16.8582 7.5952 16.6423 7.5952 16.4091V16.245C7.5952 15.7873 7.47429 15.3468 7.24975 14.9495C7.0252 14.5609 6.69702 14.2327 6.30838 14.0082L5.93702 13.7923C5.53975 13.5677 5.09929 13.4468 4.64157 13.4468C4.18384 13.4468 3.73475 13.5677 3.38066 13.7836L3.2252 13.87C3.02657 13.9823 2.79338 14.0168 2.56884 13.9564C2.34429 13.8959 2.15429 13.7491 2.04202 13.5505L1.85202 13.2223C1.73975 13.0236 1.7052 12.7905 1.76566 12.5659C1.82611 12.3414 1.96429 12.1514 2.1802 12.0305L2.29247 11.9614C2.68975 11.7368 3.01793 11.4086 3.24247 11.0114C3.47566 10.6141 3.58793 10.165 3.58793 9.71591V9.26682C3.58793 8.81773 3.45838 8.37727 3.23384 7.98C3.00929 7.58273 2.68111 7.26318 2.33566 7.06455L2.16293 6.95227C1.96429 6.84 1.81747 6.65864 1.75702 6.43409C1.7052 6.20955 1.73111 5.97636 1.84338 5.77773L2.04202 5.44955C2.15429 5.25091 2.34429 5.10409 2.5602 5.05227C2.78475 4.99182 3.01793 5.01773 3.24247 5.14727L3.34611 5.19909C4.12338 5.65682 5.14247 5.65682 5.93702 5.19909L6.30838 4.99182C6.70566 4.75864 7.03384 4.43045 7.25838 4.04182C7.48293 3.64455 7.60384 3.20409 7.60384 2.74636V2.59091C7.60384 2.36636 7.69884 2.14182 7.85429 1.97773C8.01838 1.82227 8.24293 1.72727 8.46747 1.72727H8.84747C9.07202 1.72727 9.29657 1.82227 9.46066 1.97773C9.61611 2.14182 9.71111 2.36636 9.71111 2.59091V2.755C9.71111 3.20409 9.83202 3.65318 10.0566 4.05045C10.2811 4.43909 10.6093 4.76727 10.9979 4.99182L11.3693 5.20773C12.1552 5.66545 13.2002 5.65682 13.9343 5.225L14.0897 5.13864C14.2884 5.02636 14.5302 4.99182 14.7461 5.05227C14.9707 5.11273 15.1607 5.25091 15.2729 5.44955L15.4629 5.77773C15.5752 5.97636 15.6097 6.21818 15.5493 6.43409C15.4888 6.65 15.3507 6.84 15.1434 6.96091L15.0225 7.03C14.6252 7.25455 14.297 7.58273 14.0725 7.98C13.8479 8.36864 13.727 8.82636 13.727 9.27545V9.70727C13.727 10.1564 13.8479 10.6055 14.0725 11.0027C14.297 11.4 14.6252 11.7282 15.0484 11.97L15.152 12.0218C15.3507 12.1341 15.4975 12.3327 15.5579 12.5486C15.6082 12.7663 15.5854 12.992 15.4738 13.1944H17.2808C17.34 12.8368 17.3227 12.4675 17.2247 12.1082C17.0434 11.4432 16.6116 10.8818 15.9897 10.5191L15.8861 10.4673C15.7479 10.3895 15.6443 10.2773 15.5666 10.1477C15.4975 10.0095 15.4543 9.86273 15.4543 9.70727V9.27545C15.4457 9.12864 15.4888 8.97318 15.5666 8.84364C15.6443 8.71409 15.7479 8.61045 15.8947 8.52409L16.0243 8.43773C16.6202 8.09227 17.0434 7.53091 17.2247 6.86591C17.4061 6.20091 17.3111 5.50136 16.9657 4.90545L16.7757 4.57727C16.4302 3.98136 15.8688 3.55818 15.2038 3.37682C14.5388 3.19545 13.8307 3.29045 13.2607 3.61864L13.1052 3.705C12.8375 3.85182 12.5007 3.85182 12.2416 3.705L11.8702 3.48909C11.732 3.42 11.6284 3.30773 11.5507 3.17818C11.4816 3.04864 11.4384 2.89318 11.4384 2.74636V2.59091C11.4384 1.9 11.1707 1.25227 10.6784 0.76C10.1861 0.267727 9.53838 0 8.84747 0H8.46747C7.77657 0 7.1202 0.267727 6.63657 0.76C6.14429 1.25227 5.87657 1.9 5.87657 2.59091V2.74636C5.87657 2.89318 5.83338 3.04864 5.76429 3.17818C5.68657 3.30773 5.57429 3.42 5.44475 3.49773L5.07338 3.705C4.80566 3.86045 4.49475 3.87773 4.1752 3.69636L4.07157 3.64455C3.47566 3.29909 2.77611 3.20409 2.11111 3.38545C1.45475 3.55818 0.876111 3.99864 0.539293 4.58591L0.349293 4.91409C0.00383841 5.51 -0.0825253 6.20955 0.090202 6.87455C0.271566 7.54818 0.694747 8.10091 1.25611 8.42909L1.42884 8.54136C1.55838 8.61046 1.67066 8.72273 1.73111 8.84364C1.8002 8.97318 1.84338 9.12 1.84338 9.26682V9.71591C1.84338 9.86273 1.80884 10.0182 1.73111 10.1477C1.65338 10.2859 1.54975 10.3895 1.40293 10.4759L1.29066 10.545C0.694747 10.8905 0.271566 11.4518 0.090202 12.1168C-0.0911616 12.7905 0.00383841 13.4814 0.349293 14.0859L0.547929 14.4055C0.884747 15.0014 1.46338 15.4332 2.11975 15.6145C2.78475 15.7959 3.48429 15.7009 4.05429 15.3727L4.20975 15.2864C4.47747 15.1395 4.81429 15.1395 5.07338 15.2864L5.44475 15.5023C5.58293 15.58 5.68657 15.6923 5.76429 15.8218C5.83338 15.9514 5.87657 16.1068 5.87657 16.2536V16.4091C5.87657 17.1 6.14429 17.7477 6.63657 18.24Z" fill="white"/>
<path fill-rule="evenodd" clip-rule="evenodd" d="M5.20297 9.50002C5.20297 11.4087 6.74888 12.9546 8.65752 12.9546C10.5575 12.9546 12.1121 11.4087 12.1121 9.50002C12.1121 7.59138 10.5662 6.04547 8.65752 6.04547C6.74888 6.04547 5.20297 7.59138 5.20297 9.50002ZM6.93025 9.50002C6.93025 8.55002 7.70752 7.77274 8.65752 7.77274C9.60752 7.77274 10.3848 8.55002 10.3848 9.50002C10.3848 10.45 9.60752 11.2273 8.65752 11.2273C7.70752 11.2273 6.93025 10.45 6.93025 9.50002Z" fill="white"/>
<path fill-rule="evenodd" clip-rule="evenodd" d="M12.2948 19L12.0163 17.9293H10.8398L10.567 19H9.81672L10.9307 14.7778H11.9652L13.0849 19H12.2948ZM11.4536 15.5581H11.4082L10.9705 17.2821H11.8913L11.4536 15.5581Z" fill="white"/>
<path fill-rule="evenodd" clip-rule="evenodd" d="M13.3782 19V14.7778H14.8844C15.2709 14.7778 15.5665 14.8947 15.7711 15.1286C15.9757 15.3625 16.078 15.6811 16.078 16.0844C16.078 16.4876 15.9757 16.8062 15.7711 17.0401C15.5665 17.274 15.2709 17.391 14.8844 17.391H14.1228V19H13.3782ZM14.1228 16.7437H14.731C14.9318 16.7437 15.0758 16.7014 15.1629 16.6167C15.2501 16.528 15.2936 16.3888 15.2936 16.1993V15.9694C15.2936 15.7799 15.2501 15.6428 15.1629 15.5581C15.0758 15.4694 14.9318 15.425 14.731 15.425H14.1228V16.7437Z" fill="white"/>
<path d="M16.4667 19H17.2056V14.7778H16.4667V19Z" fill="white"/>
</svg>
