<svg width="24" height="24" viewBox="0 0 24 24" fill="none" xmlns="http://www.w3.org/2000/svg">
<path d="M9.63657 20.24C9.97241 20.5758 10.3806 20.8072 10.8255 20.9203L11.4592 19.2727C11.2292 19.2707 11.0163 19.1844 10.8457 19.0223C10.6816 18.8582 10.5952 18.6423 10.5952 18.4091V18.245C10.5952 17.7873 10.4743 17.3468 10.2497 16.9495C10.0252 16.5609 9.69702 16.2327 9.30838 16.0082L8.93702 15.7923C8.53975 15.5677 8.09929 15.4468 7.64157 15.4468C7.18384 15.4468 6.73475 15.5677 6.38066 15.7836L6.2252 15.87C6.02657 15.9823 5.79338 16.0168 5.56884 15.9564C5.34429 15.8959 5.15429 15.7491 5.04202 15.5505L4.85202 15.2223C4.73975 15.0236 4.7052 14.7905 4.76566 14.5659C4.82611 14.3414 4.96429 14.1514 5.1802 14.0305L5.29247 13.9614C5.68975 13.7368 6.01793 13.4086 6.24247 13.0114C6.47566 12.6141 6.58793 12.165 6.58793 11.7159V11.2668C6.58793 10.8177 6.45838 10.3773 6.23384 9.98C6.00929 9.58273 5.68111 9.26318 5.33566 9.06455L5.16293 8.95227C4.96429 8.84 4.81747 8.65864 4.75702 8.43409C4.7052 8.20955 4.73111 7.97636 4.84338 7.77773L5.04202 7.44955C5.15429 7.25091 5.34429 7.10409 5.5602 7.05227C5.78475 6.99182 6.01793 7.01773 6.24247 7.14727L6.34611 7.19909C7.12338 7.65682 8.14247 7.65682 8.93702 7.19909L9.30838 6.99182C9.70566 6.75864 10.0338 6.43045 10.2584 6.04182C10.4829 5.64455 10.6038 5.20409 10.6038 4.74636V4.59091C10.6038 4.36636 10.6988 4.14182 10.8543 3.97773C11.0184 3.82227 11.2429 3.72727 11.4675 3.72727H11.8475C12.072 3.72727 12.2966 3.82227 12.4607 3.97773C12.6161 4.14182 12.7111 4.36636 12.7111 4.59091V4.755C12.7111 5.20409 12.832 5.65318 13.0566 6.05045C13.2811 6.43909 13.6093 6.76727 13.9979 6.99182L14.3693 7.20773C15.1552 7.66545 16.2002 7.65682 16.9343 7.225L17.0897 7.13864C17.2884 7.02636 17.5302 6.99182 17.7461 7.05227C17.9707 7.11273 18.1607 7.25091 18.2729 7.44955L18.4629 7.77773C18.5752 7.97636 18.6097 8.21818 18.5493 8.43409C18.4888 8.65 18.3507 8.84 18.1434 8.96091L18.0225 9.03C17.6252 9.25455 17.297 9.58273 17.0725 9.98C16.8479 10.3686 16.727 10.8264 16.727 11.2755V11.7073C16.727 12.1564 16.8479 12.6055 17.0725 13.0027C17.297 13.4 17.6252 13.7282 18.0484 13.97L18.152 14.0218C18.3507 14.1341 18.4975 14.3327 18.5579 14.5486C18.6082 14.7663 18.5854 14.992 18.4738 15.1944H20.2808C20.34 14.8368 20.3227 14.4675 20.2247 14.1082C20.0434 13.4432 19.6116 12.8818 18.9897 12.5191L18.8861 12.4673C18.7479 12.3895 18.6443 12.2773 18.5666 12.1477C18.4975 12.0095 18.4543 11.8627 18.4543 11.7073V11.2755C18.4457 11.1286 18.4888 10.9732 18.5666 10.8436C18.6443 10.7141 18.7479 10.6105 18.8947 10.5241L19.0243 10.4377C19.6202 10.0923 20.0434 9.53091 20.2247 8.86591C20.4061 8.20091 20.3111 7.50136 19.9657 6.90545L19.7757 6.57727C19.4302 5.98136 18.8688 5.55818 18.2038 5.37682C17.5388 5.19545 16.8307 5.29045 16.2607 5.61864L16.1052 5.705C15.8375 5.85182 15.5007 5.85182 15.2416 5.705L14.8702 5.48909C14.732 5.42 14.6284 5.30773 14.5507 5.17818C14.4816 5.04864 14.4384 4.89318 14.4384 4.74636V4.59091C14.4384 3.9 14.1707 3.25227 13.6784 2.76C13.1861 2.26773 12.5384 2 11.8475 2H11.4675C10.7766 2 10.1202 2.26773 9.63657 2.76C9.14429 3.25227 8.87657 3.9 8.87657 4.59091V4.74636C8.87657 4.89318 8.83338 5.04864 8.76429 5.17818C8.68657 5.30773 8.57429 5.42 8.44475 5.49773L8.07338 5.705C7.80566 5.86045 7.49475 5.87773 7.1752 5.69636L7.07157 5.64455C6.47566 5.29909 5.77611 5.20409 5.11111 5.38545C4.45475 5.55818 3.87611 5.99864 3.53929 6.58591L3.34929 6.91409C3.00384 7.51 2.91747 8.20955 3.0902 8.87455C3.27157 9.54818 3.69475 10.1009 4.25611 10.4291L4.42884 10.5414C4.55838 10.6105 4.67066 10.7227 4.73111 10.8436C4.8002 10.9732 4.84338 11.12 4.84338 11.2668V11.7159C4.84338 11.8627 4.80884 12.0182 4.73111 12.1477C4.65338 12.2859 4.54975 12.3895 4.40293 12.4759L4.29066 12.545C3.69475 12.8905 3.27157 13.4518 3.0902 14.1168C2.90884 14.7905 3.00384 15.4814 3.34929 16.0859L3.54793 16.4055C3.88475 17.0014 4.46338 17.4332 5.11975 17.6145C5.78475 17.7959 6.48429 17.7009 7.05429 17.3727L7.20975 17.2864C7.47747 17.1395 7.81429 17.1395 8.07338 17.2864L8.44475 17.5023C8.58293 17.58 8.68657 17.6923 8.76429 17.8218C8.83338 17.9514 8.87657 18.1068 8.87657 18.2536V18.4091C8.87657 19.1 9.14429 19.7477 9.63657 20.24Z" fill="white"/>
<path fill-rule="evenodd" clip-rule="evenodd" d="M8.20297 11.5C8.20297 13.4087 9.74888 14.9546 11.6575 14.9546C13.5575 14.9546 15.1121 13.4087 15.1121 11.5C15.1121 9.59138 13.5662 8.04547 11.6575 8.04547C9.74888 8.04547 8.20297 9.59138 8.20297 11.5ZM9.93025 11.5C9.93025 10.55 10.7075 9.77274 11.6575 9.77274C12.6075 9.77274 13.3848 10.55 13.3848 11.5C13.3848 12.45 12.6075 13.2273 11.6575 13.2273C10.7075 13.2273 9.93025 12.45 9.93025 11.5Z" fill="white"/>
<path fill-rule="evenodd" clip-rule="evenodd" d="M15.2948 21L15.0163 19.9293H13.8398L13.567 21H12.8167L13.9307 16.7778H14.9652L16.0849 21H15.2948ZM14.4536 17.5581H14.4082L13.9705 19.2821H14.8913L14.4536 17.5581Z" fill="white"/>
<path fill-rule="evenodd" clip-rule="evenodd" d="M16.3782 21V16.7778H17.8844C18.2709 16.7778 18.5665 16.8947 18.7711 17.1286C18.9757 17.3625 19.078 17.6811 19.078 18.0844C19.078 18.4876 18.9757 18.8062 18.7711 19.0401C18.5665 19.274 18.2709 19.391 17.8844 19.391H17.1228V21H16.3782ZM17.1228 18.7437H17.731C17.9318 18.7437 18.0758 18.7014 18.1629 18.6167C18.2501 18.528 18.2936 18.3888 18.2936 18.1993V17.9694C18.2936 17.7799 18.2501 17.6428 18.1629 17.5581C18.0758 17.4694 17.9318 17.425 17.731 17.425H17.1228V18.7437Z" fill="white"/>
<path d="M19.4667 21H20.2056V16.7778H19.4667V21Z" fill="white"/>
</svg>
