<svg width="19" height="19" viewBox="0 0 19 19" fill="none" xmlns="http://www.w3.org/2000/svg">
<path d="M9.28195 12.3334L6.66659 9.71805M9.28195 12.3334C10.4997 11.8703 11.6679 11.2862 12.7691 10.5898M9.28195 12.3334V16.6923C9.28195 16.6923 11.9235 16.2128 12.7691 14.9488C13.7106 13.5365 12.7691 10.5898 12.7691 10.5898M6.66659 9.71805C7.13051 8.5145 7.71466 7.36081 8.41016 6.27451C9.42595 4.65036 10.8404 3.3131 12.5189 2.38992C14.1974 1.46674 16.0842 0.988335 17.9998 1.00022C17.9998 3.37147 17.3198 7.53859 12.7691 10.5898M6.66659 9.71805H2.30768C2.30768 9.71805 2.78716 7.07655 4.05124 6.23092C5.46353 5.28939 8.41016 6.23092 8.41016 6.23092M2.74357 13.6411C1.43589 14.7395 1 18 1 18C1 18 4.26047 17.5641 5.35892 16.2564C5.97789 15.5241 5.96917 14.3995 5.28046 13.7195C4.9416 13.3961 4.49524 13.2092 4.02703 13.1948C3.55882 13.1803 3.10176 13.3392 2.74357 13.6411Z" stroke="white" stroke-width="1.5" stroke-linecap="round" stroke-linejoin="round"/>
</svg>
