<svg width="24" height="24" viewBox="0 0 24 24" fill="none" xmlns="http://www.w3.org/2000/svg">
<path d="M12.2819 15.3334L9.66659 12.7181M12.2819 15.3334C13.4997 14.8703 14.6679 14.2862 15.7691 13.5898M12.2819 15.3334V19.6923C12.2819 19.6923 14.9235 19.2128 15.7691 17.9488C16.7106 16.5365 15.7691 13.5898 15.7691 13.5898M9.66659 12.7181C10.1305 11.5145 10.7147 10.3608 11.4102 9.27451C12.4259 7.65036 13.8404 6.3131 15.5189 5.38992C17.1974 4.46674 19.0842 3.98833 20.9998 4.00022C20.9998 6.37147 20.3198 10.5386 15.7691 13.5898M9.66659 12.7181H5.30768C5.30768 12.7181 5.78716 10.0765 7.05124 9.23092C8.46353 8.28939 11.4102 9.23092 11.4102 9.23092M5.74357 16.6411C4.43589 17.7395 4 21 4 21C4 21 7.26047 20.5641 8.35892 19.2564C8.97789 18.5241 8.96917 17.3995 8.28046 16.7195C7.9416 16.3961 7.49524 16.2092 7.02703 16.1948C6.55882 16.1803 6.10176 16.3392 5.74357 16.6411Z" stroke="white" stroke-width="1.5" stroke-linecap="round" stroke-linejoin="round"/>
</svg>
