<svg width="24" height="24" viewBox="0 0 24 24" fill="none" xmlns="http://www.w3.org/2000/svg">
<path fill-rule="evenodd" clip-rule="evenodd" d="M6.4 5.6C6.18783 5.6 5.98434 5.68429 5.83431 5.83431C5.68429 5.98434 5.6 6.18783 5.6 6.4V17.6C5.6 17.8122 5.68429 18.0157 5.83431 18.1657C5.98434 18.3157 6.18783 18.4 6.4 18.4H7.19997V12.8C7.19997 12.3582 7.55814 12 7.99997 12H16C16.4418 12 16.8 12.3582 16.8 12.8V18.4H17.6C17.8122 18.4 18.0157 18.3157 18.1657 18.1657C18.3157 18.0157 18.4 17.8122 18.4 17.6V9.13137L14.8686 5.6H8.79997V8H14.4C14.8418 8 15.2 8.35817 15.2 8.8C15.2 9.24183 14.8418 9.6 14.4 9.6H7.99997C7.55814 9.6 7.19997 9.24183 7.19997 8.8V5.6H6.4ZM7.99997 4H6.4C5.76348 4 5.15303 4.25286 4.70294 4.70294C4.25286 5.15303 4 5.76348 4 6.4V17.6C4 18.2365 4.25286 18.847 4.70294 19.2971C5.15303 19.7471 5.76348 20 6.4 20H7.99997H16H17.6C18.2365 20 18.847 19.7471 19.2971 19.2971C19.7471 18.847 20 18.2365 20 17.6V8.8C20 8.58783 19.9157 8.38434 19.7657 8.23431L15.7657 4.23431C15.6157 4.08429 15.4122 4 15.2 4H7.99997ZM8.79997 13.6V18.4H15.2V13.6H8.79997Z" fill="white"/>
</svg>
