<svg width="24" height="24" viewBox="0 0 24 24" fill="none" xmlns="http://www.w3.org/2000/svg">
<path fill-rule="evenodd" clip-rule="evenodd" d="M5.6 11.2C5.6 8.1072 8.1072 5.6 11.2 5.6C14.2928 5.6 16.8 8.1072 16.8 11.2C16.8 12.7088 16.2033 14.0783 15.233 15.0852C15.2056 15.1063 15.1794 15.1293 15.1543 15.1543C15.1293 15.1794 15.1063 15.2056 15.0852 15.233C14.0783 16.2033 12.7088 16.8 11.2 16.8C8.1072 16.8 5.6 14.2928 5.6 11.2ZM15.6941 16.8255C14.4624 17.8108 12.9 18.4 11.2 18.4C7.22355 18.4 4 15.1764 4 11.2C4 7.22355 7.22355 4 11.2 4C15.1764 4 18.4 7.22355 18.4 11.2C18.4 12.9 17.8108 14.4624 16.8255 15.6941L19.7657 18.6343C20.0781 18.9467 20.0781 19.4533 19.7657 19.7657C19.4533 20.0781 18.9467 20.0781 18.6343 19.7657L15.6941 16.8255Z" fill="currentColor" fill-opacity="0.8"/>
</svg>
