<svg width="24" height="24" viewBox="0 0 24 24" fill="none" xmlns="http://www.w3.org/2000/svg">
<path fill-rule="evenodd" clip-rule="evenodd" d="M4.70062 3.19499C5.09445 3.12479 5.5004 3.18239 5.85916 3.35937L5.86706 3.36326L20.1275 10.6076C20.3434 10.7174 20.5251 10.8849 20.6517 11.0914C20.7769 11.2957 20.8439 11.5302 20.8453 11.7697C20.8453 11.7722 20.8454 11.7747 20.8454 11.7772C20.8454 11.7781 20.8453 11.779 20.8453 11.7798C20.8449 12.0213 20.7779 12.2579 20.6517 12.4638C20.5251 12.6703 20.3438 12.8377 20.1279 12.9475L5.85918 20.2056C5.50043 20.3826 5.09444 20.4402 4.70062 20.37C4.30679 20.2998 3.94574 20.1055 3.67022 19.8154C3.39471 19.5254 3.21918 19.1548 3.16929 18.7579C3.11939 18.361 3.19775 17.9585 3.39291 17.6093C3.39774 17.6007 3.40274 17.5921 3.40791 17.5837L6.96157 11.7776L3.40821 5.98174C3.40293 5.97314 3.39783 5.96443 3.39291 5.95562C3.19775 5.60642 3.11939 5.20395 3.16929 4.80704C3.21918 4.41013 3.39471 4.03958 3.67022 3.74954C3.94574 3.45951 4.30679 3.26519 4.70062 3.19499ZM18.3227 11.0272L5.19265 4.70317C5.12161 4.66889 5.04155 4.65786 4.96384 4.67171C4.88507 4.68575 4.81286 4.72462 4.75776 4.78262C4.70266 4.84063 4.66755 4.91474 4.65757 4.99412C4.64806 5.06984 4.66187 5.14656 4.69703 5.21408L8.43611 11.0272H18.3227ZM8.39894 12.5272H18.3232L5.19251 18.8618C5.12151 18.8961 5.04149 18.9071 4.96384 18.8932C4.88507 18.8792 4.81286 18.8403 4.75776 18.7823C4.70266 18.7243 4.66755 18.6502 4.65757 18.5708C4.64805 18.4951 4.6619 18.4183 4.69713 18.3507L8.39894 12.5272Z" fill="white"/>
</svg>
