<svg width="24" height="24" viewBox="0 0 24 24" fill="none" xmlns="http://www.w3.org/2000/svg">
<path d="M6.9091 7.63651C6.9091 7.23485 7.23471 6.90924 7.63637 6.90924H7.64365C8.04531 6.90924 8.37092 7.23485 8.37092 7.63651C8.37092 8.03817 8.04531 8.36378 7.64365 8.36378H7.63637C7.23471 8.36378 6.9091 8.03817 6.9091 7.63651Z" fill="white"/>
<path fill-rule="evenodd" clip-rule="evenodd" d="M6.18182 4C4.97683 4 4 4.97683 4 6.18182V9.09091C4 10.2959 4.97683 11.2727 6.18182 11.2727H17.8182C19.0232 11.2727 20 10.2959 20 9.09091V6.18182C20 4.97683 19.0232 4 17.8182 4H6.18182ZM5.45455 6.18182C5.45455 5.78016 5.78016 5.45455 6.18182 5.45455H17.8182C18.2198 5.45455 18.5455 5.78016 18.5455 6.18182V9.09091C18.5455 9.49257 18.2198 9.81818 17.8182 9.81818H6.18182C5.78016 9.81818 5.45455 9.49257 5.45455 9.09091V6.18182Z" fill="white"/>
<path d="M7.63637 15.6363C7.23471 15.6363 6.9091 15.9619 6.9091 16.3635C6.9091 16.7652 7.23471 17.0908 7.63637 17.0908H7.64365C8.04531 17.0908 8.37092 16.7652 8.37092 16.3635C8.37092 15.9619 8.04531 15.6363 7.64365 15.6363H7.63637Z" fill="white"/>
<path fill-rule="evenodd" clip-rule="evenodd" d="M6.18182 12.7275C4.97683 12.7275 4 13.7043 4 14.9093V17.8184C4 19.0234 4.97683 20.0002 6.18182 20.0002H17.8182C19.0232 20.0002 20 19.0234 20 17.8184V14.9093C20 13.7043 19.0232 12.7275 17.8182 12.7275H6.18182ZM5.45455 14.9093C5.45455 14.5076 5.78016 14.182 6.18182 14.182H17.8182C18.2198 14.182 18.5455 14.5076 18.5455 14.9093V17.8184C18.5455 18.2201 18.2198 18.5457 17.8182 18.5457H6.18182C5.78016 18.5457 5.45455 18.2201 5.45455 17.8184V14.9093Z" fill="white"/>
</svg>
