<svg width="16" height="16" viewBox="0 0 16 16" fill="none" xmlns="http://www.w3.org/2000/svg">
<path d="M2.9091 3.63651C2.9091 3.23485 3.23471 2.90924 3.63637 2.90924H3.64365C4.04531 2.90924 4.37092 3.23485 4.37092 3.63651C4.37092 4.03817 4.04531 4.36378 3.64365 4.36378H3.63637C3.23471 4.36378 2.9091 4.03817 2.9091 3.63651Z" fill="white"/>
<path fill-rule="evenodd" clip-rule="evenodd" d="M2.18182 0C0.976833 0 0 0.976833 0 2.18182V5.09091C0 6.29589 0.976833 7.27273 2.18182 7.27273H13.8182C15.0232 7.27273 16 6.29589 16 5.09091V2.18182C16 0.976833 15.0232 0 13.8182 0H2.18182ZM1.45455 2.18182C1.45455 1.78016 1.78016 1.45455 2.18182 1.45455H13.8182C14.2198 1.45455 14.5455 1.78016 14.5455 2.18182V5.09091C14.5455 5.49257 14.2198 5.81818 13.8182 5.81818H2.18182C1.78016 5.81818 1.45455 5.49257 1.45455 5.09091V2.18182Z" fill="white"/>
<path d="M3.63637 11.6363C3.23471 11.6363 2.9091 11.9619 2.9091 12.3635C2.9091 12.7652 3.23471 13.0908 3.63637 13.0908H3.64365C4.04531 13.0908 4.37092 12.7652 4.37092 12.3635C4.37092 11.9619 4.04531 11.6363 3.64365 11.6363H3.63637Z" fill="white"/>
<path fill-rule="evenodd" clip-rule="evenodd" d="M2.18182 8.72748C0.976833 8.72748 0 9.70432 0 10.9093V13.8184C0 15.0234 0.976833 16.0002 2.18182 16.0002H13.8182C15.0232 16.0002 16 15.0234 16 13.8184V10.9093C16 9.70432 15.0232 8.72748 13.8182 8.72748H2.18182ZM1.45455 10.9093C1.45455 10.5076 1.78016 10.182 2.18182 10.182H13.8182C14.2198 10.182 14.5455 10.5076 14.5455 10.9093V13.8184C14.5455 14.2201 14.2198 14.5457 13.8182 14.5457H2.18182C1.78016 14.5457 1.45455 14.2201 1.45455 13.8184V10.9093Z" fill="white"/>
</svg>
