<svg width="24" height="24" viewBox="0 0 24 24" fill="none" xmlns="http://www.w3.org/2000/svg">
<path fill-rule="evenodd" clip-rule="evenodd" d="M13.9889 4.36963L14.3081 5.28882C14.3386 5.3765 14.3865 5.45679 14.4502 5.52416C14.5139 5.59245 14.5904 5.64598 14.6762 5.68197C14.7611 5.71796 14.8533 5.73642 14.9465 5.73458C15.0388 5.73273 15.1301 5.7115 15.2141 5.67274C15.2159 5.67182 15.2168 5.6709 15.2177 5.6709C15.2177 5.6709 16.1006 5.26483 16.0978 5.26575C16.4816 5.08764 16.9106 5.03226 17.3257 5.10794C17.7418 5.18269 18.1246 5.3848 18.4208 5.68659C18.7169 5.98837 18.9134 6.37413 18.9817 6.79128C19.0499 7.20842 18.9881 7.63663 18.8036 8.01686L18.3802 8.88991C18.3405 8.97297 18.3174 9.06341 18.3147 9.15662C18.3119 9.24891 18.3276 9.3412 18.3626 9.42702C18.3968 9.51285 18.4494 9.59037 18.5158 9.65498C18.5822 9.71958 18.6615 9.76849 18.7483 9.80079L19.6597 10.134C20.0555 10.2788 20.3977 10.5437 20.6376 10.8907C20.8784 11.2386 21.0057 11.6521 21.002 12.0738C20.9983 12.4965 20.8636 12.9072 20.6173 13.2505C20.371 13.5938 20.025 13.8522 19.6256 13.9916L18.7077 14.3091C18.62 14.3395 18.5398 14.3884 18.4724 14.4512C18.4042 14.5149 18.3507 14.5924 18.3138 14.6773C18.2778 14.7631 18.2602 14.8554 18.2612 14.9486C18.263 15.0409 18.2842 15.1332 18.3239 15.2172L18.7335 16.0976C18.9116 16.4806 18.9669 16.9097 18.8922 17.326C18.8165 17.7422 18.6145 18.1252 18.3128 18.4214C18.0121 18.7177 17.6265 18.9133 17.2095 18.9825C16.7925 19.0508 16.3644 18.9881 15.9844 18.8044L15.1107 18.3808C15.0277 18.3402 14.9364 18.3171 14.8432 18.3144C14.7509 18.3116 14.6587 18.3273 14.5729 18.3624H14.572C14.4862 18.3974 14.4087 18.45 14.3441 18.5165C14.2795 18.5829 14.2297 18.6632 14.1983 18.75L13.8644 19.6655C13.7177 20.0605 13.4529 20.4001 13.107 20.6382C12.761 20.8772 12.3496 21.0027 11.9289 21C11.5092 20.9963 11.0996 20.8643 10.7573 20.6197C10.4151 20.3761 10.1558 20.0319 10.0156 19.6359L9.69548 18.714C9.66503 18.6263 9.61706 18.546 9.55341 18.4777C9.48975 18.4104 9.41318 18.3559 9.32739 18.3199C9.24159 18.2839 9.15026 18.2664 9.05709 18.2673C8.96391 18.2692 8.87258 18.2904 8.78863 18.3291L7.903 18.7389C7.52015 18.9152 7.09302 18.9696 6.6788 18.8939C6.26459 18.8183 5.88358 18.6162 5.58745 18.3162C5.29224 18.0163 5.09666 17.6324 5.02655 17.2171C4.95736 16.8008 5.01733 16.3745 5.19999 15.9942L5.62527 15.1184C5.66587 15.0345 5.68801 14.9431 5.6917 14.8508C5.69446 14.7576 5.67786 14.6653 5.6428 14.5795C5.60867 14.4936 5.55608 14.4152 5.48874 14.3515C5.42232 14.2869 5.34298 14.2371 5.25534 14.2048C5.25534 14.2048 4.34388 13.8725 4.3448 13.8725C3.94811 13.7286 3.60493 13.4646 3.36415 13.1176C3.12245 12.7706 2.99514 12.3572 2.99791 11.9345C3.00068 11.5118 3.13444 11.1002 3.37984 10.7569C3.62615 10.4127 3.9721 10.1533 4.37156 10.0149L5.28947 9.69651C5.37711 9.66605 5.45737 9.61714 5.52472 9.55438C5.59299 9.4907 5.64649 9.41318 5.68339 9.32828C5.71937 9.24245 5.7369 9.15016 5.73598 9.05695C5.73413 8.96466 5.71291 8.87237 5.67325 8.78839L5.26456 7.90335C5.08744 7.52127 5.03301 7.09306 5.10866 6.67776C5.1843 6.26246 5.38542 5.88131 5.68616 5.58507C5.98691 5.28975 6.37068 5.09317 6.78674 5.02396C7.2028 4.95474 7.62993 5.01657 8.01001 5.1993L8.88549 5.62383C8.96945 5.66444 9.05985 5.68751 9.15303 5.69028C9.2462 5.69397 9.33846 5.67736 9.42518 5.64229C9.51097 5.60722 9.58846 5.55461 9.65304 5.48724C9.71762 5.4208 9.76743 5.34051 9.7988 5.25375L10.1364 4.33826C10.2822 3.94234 10.5461 3.6018 10.8929 3.36277C11.2398 3.12282 11.6522 2.99639 12.0738 3.00008C12.4944 3.00285 12.905 3.13667 13.2472 3.38215C13.5904 3.62672 13.8487 3.97187 13.9889 4.36963ZM13.4391 6.46919C13.2435 6.2597 13.0941 6.01144 13 5.74011L13.0009 5.74196L12.6826 4.82831C12.6374 4.6991 12.5535 4.58743 12.4428 4.50807C12.3311 4.4287 12.1983 4.38532 12.0618 4.3844C11.9252 4.38255 11.7915 4.42408 11.6798 4.50161C11.5673 4.57913 11.4815 4.68987 11.4344 4.81723C11.4344 4.81723 11.0986 5.72812 11.1005 5.72442C11.0027 5.99483 10.8496 6.24124 10.6503 6.44796C10.451 6.65469 10.2102 6.81712 9.94456 6.92509C9.67887 7.03307 9.39289 7.08383 9.10598 7.07368C8.81907 7.06445 8.5377 6.99431 8.28032 6.8688L7.40945 6.44612C7.28675 6.38705 7.14837 6.36767 7.01368 6.38982C6.87899 6.41197 6.75445 6.47565 6.65759 6.57163C6.5598 6.66761 6.4943 6.79128 6.47031 6.92509C6.4454 7.05983 6.46385 7.19827 6.52105 7.32285C6.52105 7.32285 6.92881 8.20605 6.92789 8.20421C7.04874 8.46446 7.11424 8.74686 7.11885 9.03295C7.12439 9.31997 7.06903 9.60422 6.95741 9.86816C6.84578 10.1321 6.67973 10.3693 6.47031 10.5649C6.2609 10.7606 6.01366 10.9101 5.74244 11.0042L4.82636 11.3217C4.69721 11.3669 4.58466 11.4509 4.50532 11.5626C4.42598 11.6733 4.38263 11.8071 4.3817 11.9437C4.38078 12.0803 4.42229 12.2141 4.49979 12.3267C4.5782 12.4393 4.68891 12.5251 4.81806 12.5713L5.72952 12.9044C5.9989 13.0023 6.24429 13.1564 6.45002 13.3548C6.65666 13.5541 6.8181 13.7941 6.92604 14.0599C7.03305 14.3257 7.08379 14.6108 7.07457 14.8969C7.06442 15.184 6.99523 15.4654 6.86977 15.7229L6.44725 16.5923C6.38913 16.7159 6.36883 16.8534 6.3919 16.9882C6.41404 17.1229 6.47769 17.2475 6.57363 17.3444C6.66958 17.4422 6.7932 17.5069 6.92696 17.5318C7.06165 17.5567 7.20003 17.5392 7.32365 17.4819C7.32365 17.4819 8.20651 17.074 8.20467 17.0749C8.4639 16.9531 8.74619 16.8885 9.0331 16.8839C9.31908 16.8784 9.60322 16.9337 9.86707 17.0454C10.1309 17.1571 10.368 17.3232 10.5636 17.5327C10.7592 17.7413 10.9086 17.9895 11.0027 18.2599L11.3201 19.1745C11.3653 19.3019 11.4492 19.4135 11.5599 19.492C11.6715 19.5713 11.8035 19.6147 11.94 19.6156C12.0765 19.6166 12.2094 19.576 12.3219 19.4984C12.4335 19.4209 12.5193 19.3111 12.5664 19.1837C12.5664 19.1837 12.8985 18.2756 12.8985 18.2765C12.9963 18.0071 13.1494 17.7616 13.3487 17.5548C13.548 17.349 13.7878 17.1866 14.0535 17.0796C14.3183 16.9716 14.6033 16.9208 14.8902 16.931C15.1762 16.9402 15.4576 17.0103 15.715 17.1349L16.5877 17.5585C16.7113 17.6185 16.8497 17.6388 16.9844 17.6167C16.9853 17.6167 16.9853 17.6167 16.9853 17.6157C17.12 17.5936 17.2455 17.5308 17.3423 17.4349C17.4401 17.338 17.5056 17.2143 17.5305 17.0796C17.5545 16.9448 17.537 16.8055 17.4789 16.6818L17.0693 15.8014C16.9484 15.5411 16.8829 15.2587 16.8783 14.9726V14.9717C16.8728 14.6856 16.9281 14.4014 17.0397 14.1374C17.1514 13.8735 17.3174 13.6363 17.5268 13.4406C17.7362 13.245 17.9844 13.0955 18.2547 13.0013L19.1717 12.6839C19.3009 12.6387 19.4134 12.5547 19.4937 12.4439C19.573 12.3323 19.6164 12.1994 19.6182 12.0619C19.6191 11.9253 19.5776 11.7914 19.5001 11.6789C19.4217 11.5663 19.311 11.4804 19.1828 11.4334L18.2713 11.1002C18.0029 11.0015 17.7584 10.8483 17.5527 10.6489C17.3479 10.4505 17.1864 10.2105 17.0794 9.94568C16.9724 9.67989 16.9217 9.39565 16.9318 9.10955C16.941 8.82438 17.0102 8.54383 17.1348 8.28634L17.5582 7.41237C17.6182 7.28963 17.6385 7.15028 17.6163 7.01554C17.5942 6.87987 17.5305 6.75528 17.4346 6.65746C17.3386 6.55963 17.2141 6.49411 17.0794 6.47011C16.9447 6.44519 16.8054 6.46365 16.6818 6.52087C16.6813 6.52133 16.6809 6.52156 16.6804 6.52179C16.68 6.52202 16.6795 6.52226 16.679 6.52272C16.679 6.52272 15.7962 6.92878 15.7999 6.92694C15.5397 7.04784 15.2574 7.11336 14.9714 7.1189H14.9705C14.6845 7.12351 14.4004 7.06814 14.1365 6.95647H14.1356C13.8718 6.8448 13.6347 6.67868 13.4391 6.46919ZM8.472 13.4294C8.09284 12.4936 8.10207 11.4453 8.49506 10.5159C8.88898 9.58565 9.63531 8.85103 10.5717 8.47173C11.5071 8.09335 12.5542 8.10165 13.4841 8.49573C14.4131 8.88887 15.1484 9.63641 15.5266 10.5722C15.9057 11.508 15.8965 12.5564 15.5035 13.4857C15.1096 14.4151 14.3624 15.1506 13.4269 15.529C12.4915 15.9083 11.4444 15.9 10.5145 15.5059C9.58549 15.1119 8.85024 14.3652 8.472 13.4294ZM11.0901 9.75546C10.4951 9.99633 10.02 10.4642 9.76908 11.0558C9.51907 11.6474 9.51354 12.3137 9.75432 12.9099C9.99602 13.5051 10.4628 13.9804 11.0542 14.2314C11.6464 14.4815 12.3125 14.4871 12.9075 14.2462C13.5035 14.0053 13.9786 13.5374 14.2295 12.9459C14.4795 12.3543 14.4851 11.687 14.2443 11.0918C14.0026 10.4956 13.5348 10.0203 12.9435 9.77022C12.3522 9.5192 11.6861 9.51366 11.0901 9.75546Z" fill="white"/>
</svg>
