<svg width="24" height="24" viewBox="0 0 24 24" fill="none" xmlns="http://www.w3.org/2000/svg">
<path fill-rule="evenodd" clip-rule="evenodd" d="M12.0764 3.05209C12.2616 2.98264 12.4657 2.98264 12.651 3.05209L19.1965 5.50666C19.5158 5.62641 19.7274 5.93169 19.7274 6.27275V12.0001C19.7274 14.8199 17.8605 17.0731 16.1752 18.5477C15.3154 19.3 14.4594 19.8881 13.8201 20.2877C13.4995 20.488 13.2312 20.6424 13.0412 20.7476C12.9461 20.8002 12.8705 20.8406 12.8175 20.8684C12.791 20.8823 12.7702 20.8931 12.7554 20.9007L12.7378 20.9096L12.7325 20.9123L12.7308 20.9132C12.7305 20.9133 12.7296 20.9137 12.3637 20.1819C11.9978 20.9137 11.9975 20.9136 11.9973 20.9135L11.9949 20.9123L11.9896 20.9096L11.972 20.9007C11.9572 20.8931 11.9363 20.8823 11.9099 20.8684C11.8569 20.8406 11.7812 20.8002 11.6862 20.7476C11.4961 20.6424 11.2279 20.488 10.9073 20.2877C10.2679 19.8881 9.41198 19.3 8.55216 18.5477C6.8669 17.0731 5 14.8199 5 12.0001V6.27275C5 5.93169 5.21156 5.62641 5.5309 5.50666L12.0764 3.05209ZM12.3637 20.1819L11.9973 20.9135C12.2276 21.0287 12.4992 21.0289 12.7296 20.9137L12.3637 20.1819ZM12.3637 19.2515C12.5205 19.1626 12.721 19.0449 12.9528 18.9C13.5407 18.5326 14.3211 17.9957 15.0977 17.3162C16.6851 15.9271 18.091 14.0894 18.091 12.0001V6.83975L12.3637 4.69201L6.63637 6.83975V12.0001C6.63637 14.0894 8.04223 15.9271 9.62972 17.3162C10.4063 17.9957 11.1867 18.5326 11.7746 18.9C12.0064 19.0449 12.2069 19.1626 12.3637 19.2515Z" fill="white"/>
</svg>
