<svg width="24" height="24" viewBox="0 0 24 24" fill="none" xmlns="http://www.w3.org/2000/svg">
<path d="M18.9873 10.8105H14.1094C13.2129 10.8105 12.6943 10.2832 12.6943 9.38672V4.51758C12.6943 4.06055 13.0371 3.7002 13.5029 3.7002C13.9688 3.7002 14.3027 4.05176 14.3027 4.51758V5.25586L14.1182 8.32324L16.4385 5.88867L19.1367 3.16406C19.2861 3.00586 19.4883 2.92676 19.6992 2.92676C20.2002 2.92676 20.5693 3.26074 20.5693 3.75293C20.5693 3.98145 20.4814 4.20117 20.3232 4.35938L17.6162 7.06641L15.1816 9.37793L18.249 9.20215H18.9873C19.4531 9.20215 19.8135 9.52734 19.8135 10.002C19.8135 10.4678 19.4619 10.8105 18.9873 10.8105ZM10.5586 19.7314C10.0928 19.7314 9.75879 19.3887 9.75879 18.9141V18.0791L9.94336 15.0205L7.62305 17.4551L4.86328 20.2324C4.71387 20.3906 4.52051 20.4697 4.30078 20.4697C3.80859 20.4697 3.43945 20.1357 3.43945 19.6436C3.43945 19.415 3.51855 19.1953 3.67676 19.0371L6.44531 16.2686L8.88867 13.957L5.8125 14.1328H4.97754C4.51172 14.1328 4.15137 13.8076 4.15137 13.3418C4.15137 12.8672 4.50293 12.5332 4.97754 12.5332H9.95215C10.8486 12.5332 11.3672 13.0518 11.3672 13.9482V18.9141C11.3672 19.3799 11.0332 19.7314 10.5586 19.7314Z" fill="white"/>
</svg>
