<svg width="24" height="24" viewBox="0 0 24 24" fill="none" xmlns="http://www.w3.org/2000/svg">
<path fill-rule="evenodd" clip-rule="evenodd" d="M18.9813 4.25031C19.0485 4.32134 19.1002 4.40168 19.1365 4.48703C19.1774 4.58316 19.2 4.68894 19.2 4.8V8.8C19.2 9.24183 18.8418 9.6 18.4 9.6C17.9582 9.6 17.6 9.24183 17.6 8.8V6.73136L5.36569 18.9657C5.05327 19.2781 4.54673 19.2781 4.23431 18.9657C3.9219 18.6533 3.9219 18.1467 4.23431 17.8343L16.4686 5.6H14.4C13.9582 5.6 13.6 5.24183 13.6 4.8C13.6 4.35817 13.9582 4 14.4 4H18.3998H18.4C18.6129 4 18.8064 4.08315 18.9497 4.21875C18.9605 4.22898 18.971 4.2395 18.9813 4.25031ZM19.2 15.2C19.2 14.7582 18.8418 14.4 18.4 14.4C17.9582 14.4 17.6 14.7582 17.6 15.2V17.2686L14.1657 13.8343C13.8533 13.5219 13.3467 13.5219 13.0343 13.8343C12.7219 14.1467 12.7219 14.6532 13.0343 14.9657L16.4687 18.4H14.4C13.9582 18.4 13.6 18.7582 13.6 19.2C13.6 19.6418 13.9582 20 14.4 20H18.4C18.524 20 18.6415 19.9718 18.7463 19.9214C18.8477 19.8726 18.9373 19.8031 19.0095 19.7183C19.0598 19.6592 19.1002 19.5945 19.1306 19.5264C19.1752 19.4267 19.2 19.3163 19.2 19.2V15.2ZM5.36569 5.03435C5.05327 4.72193 4.54673 4.72193 4.23431 5.03435C3.9219 5.34677 3.9219 5.8533 4.23431 6.16572L8.23431 10.1657C8.54673 10.4781 9.05327 10.4781 9.36569 10.1657C9.67811 9.8533 9.67811 9.34677 9.36569 9.03435L5.36569 5.03435Z" fill="white"/>
</svg>
