<svg width="24" height="24" viewBox="0 0 24 24" fill="none" xmlns="http://www.w3.org/2000/svg">
<path d="M9.14286 4H4.85714C4.38376 4 4 4.39797 4 4.88889V19.1111C4 19.602 4.38376 20 4.85714 20H9.14286C9.61624 20 10 19.602 10 19.1111V4.88889C10 4.39797 9.61624 4 9.14286 4Z" stroke="currentColor" stroke-width="1.5" stroke-linecap="round" stroke-linejoin="round"/>
<path d="M19.1429 4H14.8571C14.3838 4 14 4.38376 14 4.85714V9.14286C14 9.61624 14.3838 10 14.8571 10H19.1429C19.6162 10 20 9.61624 20 9.14286V4.85714C20 4.38376 19.6162 4 19.1429 4Z" stroke="currentColor" stroke-width="1.5" stroke-linecap="round" stroke-linejoin="round"/>
<path d="M19.1429 14H14.8571C14.3838 14 14 14.3838 14 14.8571V19.1429C14 19.6162 14.3838 20 14.8571 20H19.1429C19.6162 20 20 19.6162 20 19.1429V14.8571C20 14.3838 19.6162 14 19.1429 14Z" stroke="currentColor" stroke-width="1.5" stroke-linecap="round" stroke-linejoin="round"/>
</svg>
