<svg width="24" height="24" viewBox="0 0 24 24" fill="none" xmlns="http://www.w3.org/2000/svg">
<path fill-rule="evenodd" clip-rule="evenodd" d="M12 21C16.9706 21 21 16.9706 21 12C21 7.02944 16.9706 3 12 3C7.02944 3 3 7.02944 3 12C3 16.9706 7.02944 21 12 21ZM10.5192 6.37073H10.5206C11.1726 6.37073 11.7013 6.89936 11.7017 7.55183V8.73763H10.5192C9.86582 8.73763 9.33578 8.20758 9.33578 7.55418C9.33578 6.90077 9.86582 6.37073 10.5192 6.37073ZM6.38018 13.4879C6.38018 14.1413 6.91023 14.6713 7.56363 14.6713C8.21704 14.6713 8.74708 14.1413 8.74708 13.4879V12.3044H7.56457H7.56363C6.91023 12.3044 6.38018 12.8345 6.38018 13.4879ZM10.5192 12.3053C9.8663 12.3053 9.33673 12.8349 9.33673 13.4879V16.4458C9.33673 17.0987 9.8663 17.6283 10.5192 17.6283C11.1722 17.6283 11.7017 17.0987 11.7017 16.4458V13.4879C11.7013 12.8349 11.1717 12.3053 10.5192 12.3053ZM7.55567 11.7044H10.5192C11.1726 11.7044 11.7027 11.1744 11.7027 10.521C11.7027 9.86759 11.1726 9.33755 10.5192 9.33755H7.55567C6.90227 9.33755 6.37222 9.86759 6.37222 10.521C6.37222 11.1744 6.90227 11.7044 7.55567 11.7044ZM15.2549 10.5182C15.2549 9.86573 15.7835 9.33709 16.436 9.33709H16.4374C17.0908 9.33709 17.6208 9.86713 17.6208 10.5205C17.6208 11.1739 17.0908 11.704 16.4374 11.704H15.2549V10.5205V10.5182ZM12.3007 7.55416V10.521C12.3007 11.1739 12.8303 11.7035 13.4832 11.7035C14.1362 11.7035 14.6657 11.1739 14.6657 10.521V7.55416C14.6657 6.90122 14.1362 6.37164 13.4832 6.37164C12.8303 6.37164 12.3007 6.90122 12.3007 7.55416ZM13.4828 15.2623C14.1357 15.2623 14.6653 15.7919 14.6653 16.4448C14.6653 17.0978 14.1357 17.6273 13.4828 17.6273C12.8298 17.6273 12.3007 17.0982 12.3003 16.4458V15.2623H13.4828ZM16.4463 12.3044H13.4828C12.8294 12.3044 12.2993 12.8345 12.2993 13.4879C12.2993 14.1413 12.8294 14.6713 13.4828 14.6713H16.4463C17.0997 14.6713 17.6297 14.1413 17.6297 13.4879C17.6297 12.8345 17.0997 12.3044 16.4463 12.3044Z" fill="white"/>
</svg>
