<svg width="24" height="24" viewBox="0 0 12 12" fill="none" xmlns="http://www.w3.org/2000/svg">
<path d="M3 8.375H8.95V7.627C8.94992 7.46886 8.90572 7.31389 8.82238 7.17949C8.73904 7.0451 8.61987 6.93662 8.47825 6.86625L7.72175 6.48375C7.58014 6.41338 7.46096 6.3049 7.37762 6.17051C7.29428 6.03611 7.25008 5.88114 7.25 5.723V3.7H7.675C7.90043 3.7 8.11664 3.61045 8.27604 3.45104C8.43545 3.29163 8.525 3.07543 8.525 2.85C8.525 2.62457 8.43545 2.40837 8.27604 2.24896C8.11664 2.08955 7.90043 2 7.675 2H4.275C4.04957 2 3.83337 2.08955 3.67396 2.24896C3.51455 2.40837 3.425 2.62457 3.425 2.85C3.425 3.07543 3.51455 3.29163 3.67396 3.45104C3.83337 3.61045 4.04957 3.7 4.275 3.7H4.7V5.723C4.69992 5.88114 4.65572 6.03611 4.57238 6.17051C4.48904 6.3049 4.36987 6.41338 4.22825 6.48375L3.47175 6.86625C3.33013 6.93662 3.21096 7.0451 3.12762 7.17949C3.04428 7.31389 3.00008 7.46886 3 7.627V8.375Z" fill="white"/>
<path d="M5.975 8.375V10.5M3 8.375H8.95V7.627C8.94992 7.46886 8.90572 7.31389 8.82238 7.17949C8.73904 7.0451 8.61987 6.93662 8.47825 6.86625L7.72175 6.48375C7.58014 6.41338 7.46096 6.3049 7.37762 6.17051C7.29428 6.03611 7.25008 5.88114 7.25 5.723V3.7H7.675C7.90043 3.7 8.11664 3.61045 8.27604 3.45104C8.43545 3.29163 8.525 3.07543 8.525 2.85C8.525 2.62457 8.43545 2.40837 8.27604 2.24896C8.11664 2.08955 7.90043 2 7.675 2H4.275C4.04957 2 3.83337 2.08955 3.67396 2.24896C3.51455 2.40837 3.425 2.62457 3.425 2.85C3.425 3.07543 3.51455 3.29163 3.67396 3.45104C3.83337 3.61045 4.04957 3.7 4.275 3.7H4.7V5.723C4.69992 5.88114 4.65572 6.03611 4.57238 6.17051C4.48904 6.3049 4.36987 6.41338 4.22825 6.48375L3.47175 6.86625C3.33013 6.93662 3.21096 7.0451 3.12762 7.17949C3.04428 7.31389 3.00008 7.46886 3 7.627V8.375Z" stroke="white" stroke-width="1.5" stroke-linecap="round" stroke-linejoin="round"/>
</svg>
