<svg width="24" height="24" viewBox="0 0 24 24" fill="none" xmlns="http://www.w3.org/2000/svg">
<path fill-rule="evenodd" clip-rule="evenodd" d="M3 12C3 7.02931 7.02931 3 12 3C16.9707 3 21 7.02931 21 12C21 16.9707 16.9707 21 12 21C7.02931 21 3 16.9707 3 12ZM15.7071 9.31242C16.0976 9.72898 16.0976 10.4044 15.7071 10.8209L11.7071 15.0876C11.3166 15.5041 10.6834 15.5041 10.2929 15.0876L8.29289 12.9542C7.90237 12.5377 7.90237 11.8623 8.29289 11.4458C8.68342 11.0292 9.31658 11.0292 9.70711 11.4458L11 12.8248L14.2929 9.31242C14.6834 8.89586 15.3166 8.89586 15.7071 9.31242Z" fill="white"/>
</svg>
