<svg width="24" height="24" viewBox="0 0 24 24" fill="none" xmlns="http://www.w3.org/2000/svg"><path d="m12.098 3.903 -1.658 5.041a1.734 1.734 0 0 1 -1.106 1.106L4.292 11.707l5.041 1.658a1.734 1.734 0 0 1 1.106 1.106l1.658 5.041 1.658 -5.041a1.734 1.734 0 0 1 1.106 -1.106L19.901 11.707l-5.04 -1.658a1.734 1.734 0 0 1 -1.106 -1.106l-1.658 -5.041Z" stroke="white" stroke-width="1.170731707317073" stroke-linecap="round" stroke-linejoin="round"/><path d="M6.027 3.903v3.469" stroke="white" stroke-width="1.170731707317073" stroke-linecap="round" stroke-linejoin="round"/><path d="M18.168 16.043v3.469" stroke="white" stroke-width="1.170731707317073" stroke-linecap="round" stroke-linejoin="round"/><path d="M4.292 5.637h3.469" stroke="white" stroke-width="1.170731707317073" stroke-linecap="round" stroke-linejoin="round"/><path d="M16.434 17.778H19.902" stroke="white" stroke-width="1.170731707317073" stroke-linecap="round" stroke-linejoin="round"/></svg>