<svg width="24" height="24" viewBox="0 0 24 24" fill="none" xmlns="http://www.w3.org/2000/svg">
<path fill-rule="evenodd" clip-rule="evenodd" d="M12 3C12.3114 3 12.5958 3.17679 12.7337 3.45603L15.0717 8.19255L20.3001 8.95677C20.6082 9.0018 20.864 9.21781 20.9601 9.51399C21.0561 9.81018 20.9757 10.1352 20.7527 10.3525L16.97 14.0367L17.8628 19.2416C17.9154 19.5486 17.7892 19.8589 17.5372 20.0419C17.2852 20.225 16.9512 20.2491 16.6755 20.1041L12 17.6453L7.32447 20.1041C7.04881 20.2491 6.71476 20.225 6.46278 20.0419C6.2108 19.8589 6.0846 19.5486 6.13724 19.2416L7.02995 14.0367L3.24733 10.3525C3.02428 10.1352 2.94388 9.81018 3.03991 9.51399C3.13595 9.21781 3.39178 9.0018 3.69987 8.95677L8.92834 8.19255L11.2663 3.45603C11.4042 3.17679 11.6886 3 12 3ZM12 5.66666L10.2055 9.30213C10.0864 9.54337 9.85635 9.71065 9.59016 9.74956L5.57599 10.3363L8.47997 13.1648C8.67296 13.3527 8.76105 13.6237 8.71551 13.8892L8.03034 17.8841L11.6192 15.9967C11.8576 15.8713 12.1424 15.8713 12.3808 15.9967L15.9697 17.8841L15.2845 13.8892C15.239 13.6237 15.327 13.3527 15.52 13.1648L18.424 10.3363L14.4098 9.74956C14.1436 9.71065 13.9136 9.54337 13.7945 9.30213L12 5.66666Z" fill="white"/>
</svg>
