<svg width="24" height="24" viewBox="0 0 24 24" fill="none" xmlns="http://www.w3.org/2000/svg">
<path fill-rule="evenodd" clip-rule="evenodd" d="M9.54547 8.72729C9.0936 8.72729 8.72729 9.0936 8.72729 9.54547V14.4546C8.72729 14.9064 9.0936 15.2727 9.54547 15.2727H14.4546C14.9064 15.2727 15.2727 14.9064 15.2727 14.4546V9.54547C15.2727 9.0936 14.9064 8.72729 14.4546 8.72729H9.54547ZM10.3637 13.6364V10.3637H13.6364V13.6364H10.3637Z" fill="white"/>
<path fill-rule="evenodd" clip-rule="evenodd" d="M12 3C7.02944 3 3 7.02944 3 12C3 16.9706 7.02944 21 12 21C16.9706 21 21 16.9706 21 12C21 7.02944 16.9706 3 12 3ZM4.63636 12C4.63636 7.93318 7.93318 4.63636 12 4.63636C16.0668 4.63636 19.3636 7.93318 19.3636 12C19.3636 16.0668 16.0668 19.3636 12 19.3636C7.93318 19.3636 4.63636 16.0668 4.63636 12Z" fill="white"/>
</svg>
