<svg width="24" height="24" viewBox="0 0 24 24" fill="none" xmlns="http://www.w3.org/2000/svg">
<path fill-rule="evenodd" clip-rule="evenodd" d="M12 3C12.4519 3 12.8182 3.36631 12.8182 3.81818V5.45455C12.8182 5.90641 12.4519 6.27273 12 6.27273C11.5481 6.27273 11.1818 5.90641 11.1818 5.45455V3.81818C11.1818 3.36631 11.5481 3 12 3ZM12 9.54552C10.6444 9.54552 9.54545 10.6445 9.54545 12.0001C9.54545 13.3557 10.6444 14.4546 12 14.4546C13.3556 14.4546 14.4545 13.3557 14.4545 12.0001C14.4545 10.6445 13.3556 9.54552 12 9.54552ZM7.90909 12.0001C7.90909 9.74072 9.74065 7.90915 12 7.90915C14.2593 7.90915 16.0909 9.74072 16.0909 12.0001C16.0909 14.2594 14.2593 16.091 12 16.091C9.74065 16.091 7.90909 14.2594 7.90909 12.0001ZM12.8182 18.5455C12.8182 18.0936 12.4519 17.7273 12 17.7273C11.5481 17.7273 11.1818 18.0936 11.1818 18.5455V20.1818C11.1818 20.6337 11.5481 21 12 21C12.4519 21 12.8182 20.6337 12.8182 20.1818V18.5455ZM5.69419 5.69422C6.01371 5.3747 6.53175 5.3747 6.85127 5.69422L8.07854 6.92149C8.39806 7.24101 8.39806 7.75905 8.07854 8.07857C7.75902 8.39809 7.24098 8.39809 6.92146 8.07857L5.69419 6.8513C5.37467 6.53178 5.37467 6.01374 5.69419 5.69422ZM17.0785 15.9215C16.759 15.602 16.241 15.602 15.9215 15.9215C15.6019 16.241 15.6019 16.7591 15.9215 17.0786L17.1487 18.3059C17.4683 18.6254 17.9863 18.6254 18.3058 18.3059C18.6253 17.9863 18.6253 17.4683 18.3058 17.1488L17.0785 15.9215ZM3 12C3 11.5482 3.36631 11.1819 3.81818 11.1819H5.45455C5.90641 11.1819 6.27273 11.5482 6.27273 12C6.27273 12.4519 5.90641 12.8182 5.45455 12.8182H3.81818C3.36631 12.8182 3 12.4519 3 12ZM18.5454 11.1819C18.0936 11.1819 17.7273 11.5482 17.7273 12C17.7273 12.4519 18.0936 12.8182 18.5454 12.8182H20.1818C20.6337 12.8182 21 12.4519 21 12C21 11.5482 20.6337 11.1819 20.1818 11.1819H18.5454ZM8.07854 15.9215C8.39806 16.241 8.39806 16.7591 8.07854 17.0786L6.85127 18.3059C6.53175 18.6254 6.01371 18.6254 5.69419 18.3059C5.37467 17.9863 5.37467 17.4683 5.69419 17.1488L6.92146 15.9215C7.24098 15.602 7.75902 15.602 8.07854 15.9215ZM18.3058 6.8513C18.6253 6.53178 18.6253 6.01374 18.3058 5.69422C17.9863 5.3747 17.4683 5.3747 17.1487 5.69422L15.9215 6.92149C15.6019 7.24101 15.6019 7.75905 15.9215 8.07857C16.241 8.39809 16.759 8.39809 17.0785 8.07857L18.3058 6.8513Z" fill="white"/>
</svg>
