<svg width="24" height="24" viewBox="0 0 24 24" fill="none" xmlns="http://www.w3.org/2000/svg">
<path fill-rule="evenodd" clip-rule="evenodd" d="M12.1499 3.61694C10.5729 3.61694 9.06046 4.2434 7.94536 5.35851C7.00542 6.29845 6.41267 7.52067 6.24964 8.82593C6.54087 8.86641 6.813 9.00066 7.0233 9.21095C7.27811 9.46576 7.42126 9.81136 7.42126 10.1717V16.2591C7.42126 16.6194 7.27811 16.965 7.0233 17.2198C6.76848 17.4746 6.42288 17.6178 6.06253 17.6178H5.45379C4.6091 17.6178 3.799 17.2822 3.20171 16.6849C2.60441 16.0877 2.26886 15.2776 2.26886 14.4329V11.9979C2.26886 11.1532 2.60441 10.3431 3.20171 9.74583C3.62622 9.32132 4.15823 9.02902 4.73376 8.89544C4.88943 7.16538 5.64652 5.53603 6.8847 4.29785C8.28111 2.90144 10.175 2.11694 12.1499 2.11694C14.1247 2.11694 16.0186 2.90144 17.415 4.29785C18.6532 5.53603 19.4103 7.16538 19.566 8.89544C20.1415 9.02902 20.6735 9.32132 21.098 9.74583C21.6953 10.3431 22.0309 11.1532 22.0309 11.9979V14.4329C22.0309 15.2776 21.6953 16.0877 21.098 16.6849C20.6808 17.1022 20.1597 17.3917 19.5955 17.5283C19.5821 18.3543 19.2482 19.1435 18.6631 19.7286C18.0658 20.3259 17.2557 20.6615 16.411 20.6615H15.1863C15.0883 20.8991 14.9438 21.1175 14.7585 21.3027C14.3896 21.6717 13.8891 21.879 13.3673 21.879H12.1499C11.6281 21.879 11.1276 21.6717 10.7587 21.3027C10.3897 20.9337 10.1824 20.4333 10.1824 19.9115C10.1824 19.3897 10.3897 18.8893 10.7587 18.5203C11.1276 18.1513 11.6281 17.944 12.1499 17.944H13.3673C13.8891 17.944 14.3896 18.1513 14.7585 18.5203C14.9438 18.7055 15.0883 18.9239 15.1862 19.1615H16.411C16.8579 19.1615 17.2865 18.9839 17.6024 18.668C17.8868 18.3836 18.0591 18.0079 18.0907 17.6099C17.7842 17.5766 17.4965 17.4399 17.2764 17.2198C17.0216 16.965 16.8785 16.6194 16.8785 16.2591V10.1717C16.8785 9.81136 17.0216 9.46576 17.2764 9.21095C17.4867 9.00066 17.7589 8.86642 18.0501 8.82593C17.8871 7.52068 17.2943 6.29845 16.3544 5.35851C15.2393 4.2434 13.7269 3.61694 12.1499 3.61694ZM5.4538 10.313L5.44882 10.313C5.00375 10.3143 4.57718 10.4917 4.26237 10.8065C3.94638 11.1225 3.76886 11.551 3.76886 11.9979V14.4329C3.76886 14.8797 3.94638 15.3083 4.26237 15.6243C4.57835 15.9403 5.00692 16.1178 5.45379 16.1178H5.92126V10.313H5.45984L5.4538 10.313ZM18.8459 10.313L18.8399 10.313H18.3785V16.1178H18.8459C19.2928 16.1178 19.7214 15.9403 20.0374 15.6243C20.3533 15.3083 20.5309 14.8797 20.5309 14.4329V11.9979C20.5309 11.551 20.3533 11.1225 20.0374 10.8065C19.7225 10.4917 19.296 10.3143 18.8509 10.313L18.8459 10.313ZM12.1499 19.444C12.0259 19.444 11.907 19.4933 11.8193 19.5809C11.7317 19.6686 11.6824 19.7875 11.6824 19.9115C11.6824 20.0355 11.7317 20.1544 11.8193 20.242C11.907 20.3297 12.0259 20.379 12.1499 20.379H13.3673C13.4913 20.379 13.6102 20.3297 13.6979 20.242C13.7856 20.1544 13.8348 20.0355 13.8348 19.9115C13.8348 19.7875 13.7856 19.6686 13.6979 19.5809C13.6102 19.4933 13.4913 19.444 13.3673 19.444H12.1499ZM10.2201 14.2373C9.91393 13.9583 9.43956 13.9803 9.16057 14.2865C8.88158 14.5926 8.9036 15.067 9.20976 15.346C10.0137 16.0786 11.0622 16.4847 12.1499 16.4847C13.2375 16.4847 14.286 16.0786 15.09 15.346C15.3961 15.067 15.4181 14.5926 15.1392 14.2865C14.8602 13.9803 14.3858 13.9583 14.0796 14.2373C13.552 14.7181 12.8638 14.9847 12.1499 14.9847C11.436 14.9847 10.7478 14.7181 10.2201 14.2373ZM9.71494 9.61243C10.1291 9.61243 10.4649 9.94821 10.4649 10.3624V11.4273C10.4649 11.8415 10.1291 12.1773 9.71494 12.1773C9.30072 12.1773 8.96494 11.8415 8.96494 11.4273V10.3624C8.96494 9.94821 9.30072 9.61243 9.71494 9.61243ZM15.3348 10.3624C15.3348 9.94821 14.999 9.61243 14.5848 9.61243C14.1706 9.61243 13.8348 9.94821 13.8348 10.3624V11.4273C13.8348 11.8415 14.1706 12.1773 14.5848 12.1773C14.999 12.1773 15.3348 11.8415 15.3348 11.4273V10.3624Z" fill="white"/>
</svg>
