<svg width="24" height="24" viewBox="0 0 24 24" fill="none" xmlns="http://www.w3.org/2000/svg">
<path fill-rule="evenodd" clip-rule="evenodd" d="M3.80315 4C3.35958 4 3 4.35958 3 4.80315V12.8347C3 13.0479 3.08475 13.2523 3.23557 13.4029L10.1342 20.2935C10.3579 20.5175 10.6236 20.6951 10.916 20.8163C11.2085 20.9376 11.5221 21 11.8387 21C12.1553 21 12.4689 20.9376 12.7614 20.8163C13.0537 20.6951 13.3197 20.5172 13.5434 20.2933L19.3017 14.535L18.7338 13.9671L19.3034 14.5334C19.7521 14.0819 20.004 13.4712 20.004 12.8347C20.004 12.1981 19.7521 11.5875 19.3034 11.136L12.4026 4.23524C12.252 4.08462 12.0477 4 11.8347 4H3.80315ZM18.1649 13.4002L18.1642 13.4009L12.4069 19.1581C12.3323 19.2328 12.2438 19.2921 12.1463 19.3325C12.0488 19.3729 11.9443 19.3937 11.8387 19.3937C11.7332 19.3937 11.6286 19.3729 11.5311 19.3325C11.4336 19.2921 11.3451 19.2328 11.2705 19.1581L11.2698 19.1575L4.60631 12.5017V5.60631H11.502L18.1642 12.2685L18.1649 12.2692C18.314 12.4196 18.3977 12.6229 18.3977 12.8347C18.3977 13.0465 18.314 13.2498 18.1649 13.4002ZM7.81892 8.01577C7.37535 8.01577 7.01577 8.37535 7.01577 8.81892C7.01577 9.26249 7.37535 9.62207 7.81892 9.62207H7.82695C8.27052 9.62207 8.6301 9.26249 8.6301 8.81892C8.6301 8.37535 8.27052 8.01577 7.82695 8.01577H7.81892Z" fill="white"/>
</svg>
