<svg width="24" height="24" viewBox="0 0 24 24" fill="none" xmlns="http://www.w3.org/2000/svg">
<path d="M18.6461 21C18.5763 21 18.5065 21 18.429 20.9922C15.9252 20.7209 13.491 19.8527 11.3903 18.4884C9.43678 17.2481 7.74686 15.5581 6.50655 13.6047C5.14221 11.4961 4.27399 9.05426 4.01042 6.55039C3.97941 6.21705 4.01817 5.89922 4.11895 5.58915C4.21972 5.27907 4.39027 5 4.60732 4.75969C4.82438 4.51938 5.08794 4.33333 5.38252 4.20155C5.68484 4.06977 6.00267 4 6.32825 4H8.65383C9.19647 4 9.75461 4.1938 10.1887 4.56589C10.6151 4.93023 10.8941 5.44186 10.9717 6C11.0647 6.68992 11.2352 7.37209 11.4755 8.0155C11.6306 8.43411 11.6693 8.88372 11.5686 9.31783C11.4755 9.75194 11.2585 10.155 10.9484 10.4651L10.3903 11.0233C11.305 12.4496 12.5143 13.6667 13.9484 14.5814L14.5065 14.0233C14.8244 13.7054 15.2275 13.4884 15.6616 13.4031C16.0957 13.3101 16.5453 13.3411 16.9639 13.4961C17.6073 13.7364 18.2895 13.907 18.9717 14C19.5453 14.0775 20.0569 14.3643 20.429 14.7984C20.7934 15.2326 20.9949 15.7829 20.9794 16.3488V18.6667C20.9794 18.9922 20.9174 19.3023 20.7856 19.6047C20.6538 19.8992 20.46 20.1705 20.2275 20.3876C19.9872 20.6047 19.7081 20.7752 19.398 20.876C19.15 20.9612 18.9019 21 18.6461 21ZM8.66934 5.55039H6.32825C6.21972 5.55039 6.11895 5.57364 6.01817 5.62015C5.9174 5.65891 5.82438 5.72093 5.75461 5.79845C5.67709 5.87597 5.62283 5.96899 5.59182 6.07752C5.56081 6.17829 5.54531 6.28682 5.55306 6.39535C5.79337 8.65116 6.57631 10.8527 7.80887 12.7674C8.9329 14.5349 10.46 16.062 12.2275 17.186C14.1345 18.4264 16.336 19.2016 18.5841 19.4496C18.6771 19.4574 18.7856 19.4419 18.8864 19.4109C18.9872 19.3798 19.0802 19.3178 19.1655 19.2481C19.2507 19.1783 19.3127 19.0853 19.3515 18.9845C19.398 18.8837 19.4135 18.7752 19.4135 18.6667V16.3411C19.4135 16.3333 19.4135 16.3256 19.4135 16.3256C19.4213 16.1318 19.3515 15.9535 19.2275 15.8062C19.1034 15.6589 18.9329 15.5659 18.7469 15.5426C17.9562 15.4419 17.1655 15.2403 16.4058 14.9612C16.2662 14.907 16.1112 14.8992 15.9717 14.9302C15.8244 14.9612 15.6926 15.031 15.5841 15.1395L14.6073 16.124C14.3593 16.3721 13.9794 16.4186 13.6771 16.2481C11.6151 15.0775 9.90965 13.3643 8.73135 11.3101C8.56856 10.9845 8.61507 10.6047 8.86314 10.3566L9.84763 9.37209C9.94841 9.27132 10.0182 9.13953 10.0492 8.99225C10.0802 8.84496 10.0724 8.69767 10.0182 8.55814C9.73135 7.79845 9.53755 7.00775 9.42903 6.2093C9.40577 6.03101 9.31275 5.86047 9.17321 5.73643C9.03368 5.62015 8.85538 5.55039 8.66934 5.55039Z" fill="white"/>
</svg>
