<svg width="24" height="24" viewBox="0 0 24 24" fill="none" xmlns="http://www.w3.org/2000/svg">
<path fill-rule="evenodd" clip-rule="evenodd" d="M5.6 6.4C5.6 5.95817 5.95817 5.6 6.4 5.6H17.6C18.0418 5.6 18.4 5.95817 18.4 6.4V17.6C18.4 18.0418 18.0418 18.4 17.6 18.4H6.4C5.95817 18.4 5.6 18.0418 5.6 17.6V6.4ZM6.4 4C5.07452 4 4 5.07452 4 6.4V17.6C4 18.9255 5.07452 20 6.4 20H17.6C18.9255 20 20 18.9255 20 17.6V6.4C20 5.07452 18.9255 4 17.6 4H6.4ZM7.43428 7.43428C7.7467 7.12186 8.25323 7.12186 8.56565 7.43428L10.1657 9.03428C10.4781 9.3467 10.4781 9.85323 10.1657 10.1657L8.56565 11.7657C8.25323 12.0781 7.7467 12.0781 7.43428 11.7657C7.12186 11.4532 7.12186 10.9467 7.43428 10.6343L8.46859 9.59997L7.43428 8.56565C7.12186 8.25323 7.12186 7.7467 7.43428 7.43428ZM10.4 12.8C10.4 12.3582 10.7582 12 11.2 12H14.4C14.8418 12 15.2 12.3582 15.2 12.8C15.2 13.2418 14.8418 13.6 14.4 13.6H11.2C10.7582 13.6 10.4 13.2418 10.4 12.8Z" fill="white"/>
</svg>
