<svg width="24" height="24" viewBox="0 0 24 24" fill="none" xmlns="http://www.w3.org/2000/svg">
<path fill-rule="evenodd" clip-rule="evenodd" d="M14.0996 2.8125C13.6854 2.8125 13.3496 3.14829 13.3496 3.5625C13.3496 3.97671 13.6854 4.3125 14.0996 4.3125C14.7958 4.3125 15.4635 4.58906 15.9558 5.08134C16.4481 5.57363 16.7246 6.24131 16.7246 6.9375V12.9375H15.2246C14.8104 12.9375 14.4746 13.2733 14.4746 13.6875C14.4746 14.1017 14.8104 14.4375 15.2246 14.4375H16.7246V17.0625C16.7246 17.7587 16.4481 18.4264 15.9558 18.9187C15.4635 19.4109 14.7958 19.6875 14.0996 19.6875C13.6854 19.6875 13.3496 20.0233 13.3496 20.4375C13.3496 20.8517 13.6854 21.1875 14.0996 21.1875C15.1937 21.1875 16.2429 20.7529 17.0165 19.9793C17.1858 19.81 17.3388 19.6275 17.4746 19.4342C17.6105 19.6275 17.7635 19.81 17.9328 19.9793C18.7064 20.7529 19.7556 21.1875 20.8496 21.1875C21.2639 21.1875 21.5996 20.8517 21.5996 20.4375C21.5996 20.0233 21.2639 19.6875 20.8496 19.6875C20.1534 19.6875 19.4858 19.4109 18.9935 18.9187C18.5012 18.4264 18.2246 17.7587 18.2246 17.0625V14.4375H19.7246C20.1389 14.4375 20.4746 14.1017 20.4746 13.6875C20.4746 13.2733 20.1389 12.9375 19.7246 12.9375H18.2246V6.9375C18.2246 6.24131 18.5012 5.57363 18.9935 5.08134C19.4858 4.58906 20.1534 4.3125 20.8496 4.3125C21.2639 4.3125 21.5996 3.97671 21.5996 3.5625C21.5996 3.14829 21.2639 2.8125 20.8496 2.8125C19.7556 2.8125 18.7064 3.2471 17.9328 4.02068C17.7635 4.18998 17.6105 4.37248 17.4746 4.56576C17.3388 4.37248 17.1858 4.18998 17.0165 4.02068C16.2429 3.2471 15.1937 2.8125 14.0996 2.8125ZM8.72849 17.209C8.72849 17.8418 8.3154 18.2373 7.68259 18.2373C7.04977 18.2373 6.64548 17.8418 6.64548 17.209V7.0752H3.32321C2.78708 7.0752 2.40036 6.72363 2.40036 6.17871C2.40036 5.64258 2.78708 5.29102 3.32321 5.29102H12.0508C12.5869 5.29102 12.9736 5.64258 12.9736 6.17871C12.9736 6.72363 12.5869 7.0752 12.0508 7.0752H8.72849V17.209Z" fill="white"/>
</svg>
