<svg width="24" height="24" viewBox="0 0 24 24" fill="none" xmlns="http://www.w3.org/2000/svg">
<path d="M13.75 6.74994H18.25C18.4498 6.74731 18.6405 6.66608 18.7809 6.52383C18.9213 6.38159 19 6.18978 19 5.98994C18.9973 5.79276 18.9172 5.60456 18.7768 5.46606C18.6364 5.32756 18.4472 5.24992 18.25 5.24994H13.75C13.5528 5.24992 13.3635 5.32756 13.2231 5.46606C13.0828 5.60456 13.0026 5.79276 13 5.98994C13 6.18978 13.0786 6.38159 13.219 6.52383C13.3594 6.66608 13.5501 6.74731 13.75 6.74994Z" fill="white"/>
<path d="M18.25 9.24994H13.75C13.5528 9.24992 13.3635 9.32756 13.2231 9.46606C13.0828 9.60456 13.0026 9.79276 13 9.98994C13 10.1898 13.0786 10.3816 13.219 10.5238C13.3594 10.6661 13.5501 10.7473 13.75 10.7499H18.25C18.4498 10.7473 18.6405 10.6661 18.7809 10.5238C18.9213 10.3816 19 10.1898 19 9.98994C18.9973 9.79276 18.9172 9.60456 18.7768 9.46606C18.6364 9.32756 18.4472 9.24992 18.25 9.24994Z" fill="white"/>
<path d="M18.25 17.25H5.75C5.55281 17.25 5.36354 17.3276 5.22317 17.4661C5.08281 17.6046 5.00263 17.7928 5 17.99C4.99998 18.1898 5.07868 18.3816 5.21905 18.5239C5.35942 18.6661 5.55017 18.7473 5.75 18.75H18.25C18.4498 18.7473 18.6406 18.6661 18.7809 18.5239C18.9213 18.3816 19 18.1898 19 17.99C18.9974 17.7928 18.9172 17.6046 18.7768 17.4661C18.6365 17.3276 18.4472 17.25 18.25 17.25Z" fill="white"/>
<path d="M18.25 13.2499H5.75C5.55281 13.2499 5.36354 13.3275 5.22317 13.466C5.08281 13.6045 5.00263 13.7927 5 13.9899C4.99998 14.1898 5.07868 14.3816 5.21905 14.5238C5.35942 14.666 5.55017 14.7473 5.75 14.7499H18.25C18.4498 14.7473 18.6406 14.666 18.7809 14.5238C18.9213 14.3816 19 14.1898 19 13.9899C18.9974 13.7927 18.9172 13.6045 18.7768 13.466C18.6365 13.3275 18.4472 13.2499 18.25 13.2499Z" fill="white"/>
<path d="M10.5 4.99997H6C5.44772 4.99997 5 5.44768 5 5.99997V10.5C5 11.0523 5.44772 11.5 6 11.5H10.5C11.0523 11.5 11.5 11.0523 11.5 10.5V5.99997C11.5 5.44768 11.0523 4.99997 10.5 4.99997Z" fill="white"/>
</svg>
