<svg width="24" height="24" viewBox="0 0 24 24" fill="none" xmlns="http://www.w3.org/2000/svg">
<path fill-rule="evenodd" clip-rule="evenodd" d="M18.7471 4.89486C18.5478 4.7238 18.2926 4.63186 18.03 4.6365L18.0156 4.63663H16.6492V12.0001H18.0156L18.03 12.0003C18.2926 12.0049 18.5478 11.913 18.7471 11.7419C18.9344 11.5812 19.06 11.361 19.1037 11.1191V5.51769C19.06 5.27574 18.9344 5.05562 18.7471 4.89486ZM15.0129 12.6447L12.0611 19.2863C11.8145 19.2076 11.5877 19.0708 11.4013 18.8844C11.0944 18.5775 10.922 18.1613 10.922 17.7273V14.4547C10.922 14.0028 10.5557 13.6365 10.1039 13.6365H5.47303L5.46377 13.6365C5.34517 13.6379 5.2277 13.6134 5.1195 13.5649C5.01129 13.5163 4.91494 13.4448 4.83711 13.3553C4.75929 13.2658 4.70185 13.1604 4.66878 13.0465C4.63576 12.9328 4.62782 12.8132 4.64553 12.6961C4.64551 12.6963 4.64555 12.696 4.64553 12.6961L5.77469 5.33202C5.80428 5.13693 5.90337 4.9591 6.05372 4.8313C6.20407 4.7035 6.39554 4.63435 6.59286 4.63658L15.0129 4.63663V12.6447ZM18.009 3.0003C18.6697 2.99053 19.3113 3.2227 19.8129 3.65321C20.3164 4.08544 20.6437 4.68751 20.7327 5.34513C20.7376 5.38148 20.7401 5.41812 20.7401 5.4548V11.182C20.7401 11.2187 20.7376 11.2553 20.7327 11.2916C20.6437 11.9493 20.3164 12.5513 19.8129 12.9836C19.3113 13.4141 18.6697 13.6462 18.009 13.6365H16.3628L13.306 20.5141C13.1747 20.8096 12.8817 21 12.5584 21C11.6904 21 10.858 20.6552 10.2442 20.0415C9.6305 19.4277 9.2857 18.5953 9.2857 17.7273V15.2728H5.47722C5.12315 15.2761 4.77255 15.2027 4.44948 15.0577C4.12486 14.912 3.8358 14.6975 3.60232 14.429C3.36884 14.1605 3.19654 13.8445 3.09733 13.5028C2.99813 13.1611 2.9744 12.8019 3.02779 12.4501L4.15685 5.08668C4.15689 5.08643 4.15681 5.08692 4.15685 5.08668C4.24575 4.50168 4.54309 3.96774 4.99395 3.58451C5.44371 3.20222 6.01612 2.99485 6.60626 3.0003H18.009Z" fill="white"/>
</svg>
