<svg width="24" height="24" viewBox="0 0 24 24" fill="none" xmlns="http://www.w3.org/2000/svg">
<path fill-rule="evenodd" clip-rule="evenodd" d="M10.4341 3.48588C10.5654 3.19042 10.8584 3 11.1818 3C12.0497 3 12.8822 3.3448 13.4959 3.95855C14.1097 4.57231 14.4545 5.40473 14.4545 6.27271V8.72724H18.263C18.6171 8.72396 18.9677 8.79733 19.2907 8.94233C19.6154 9.08802 19.9044 9.30255 20.1379 9.57105C20.3714 9.83956 20.5437 10.1556 20.6429 10.4973C20.7421 10.839 20.7658 11.1982 20.7124 11.55L19.5834 18.9135C19.5833 18.9137 19.5834 18.9133 19.5834 18.9135C19.4945 19.4985 19.1972 20.0324 18.7463 20.4157C18.2965 20.798 17.724 21.0054 17.1339 20.9999H5.45453C4.80355 20.9999 4.17923 20.7413 3.71892 20.281C3.2586 19.8207 3 19.1963 3 18.5454V12.8181C3 12.1671 3.2586 11.5428 3.71892 11.0825C4.17923 10.6222 4.80355 10.3636 5.45453 10.3636H7.37735L10.4341 3.48588ZM8.72724 11.3554L11.6791 4.71375C11.9257 4.79242 12.1524 4.92921 12.3388 5.11563C12.6457 5.42251 12.8181 5.83872 12.8181 6.27271V9.54542C12.8181 9.99728 13.1844 10.3636 13.6363 10.3636H18.2672L18.2764 10.3635C18.395 10.3622 18.5125 10.3867 18.6207 10.4352C18.7289 10.4838 18.8253 10.5553 18.9031 10.6448C18.9809 10.7343 19.0384 10.8396 19.0714 10.9535C19.1045 11.0673 19.1124 11.187 19.0947 11.3041C19.0947 11.304 19.0947 11.3042 19.0947 11.3041L17.9655 18.6681C17.9359 18.8632 17.8368 19.0411 17.6865 19.1689C17.5361 19.2967 17.3447 19.3658 17.1473 19.3636L8.72724 19.3635V11.3554ZM7.09089 19.3635V11.9999H5.45453C5.23754 11.9999 5.02943 12.0861 4.87599 12.2396C4.72255 12.393 4.63635 12.6011 4.63635 12.8181V18.5454C4.63635 18.7624 4.72255 18.9705 4.87599 19.1239C5.02943 19.2773 5.23754 19.3635 5.45453 19.3635H7.09089Z" fill="white"/>
</svg>
