<svg width="24" height="24" viewBox="0 0 17 17" fill="none" xmlns="http://www.w3.org/2000/svg">
<path d="M1.33333 1.33325L15.5 15.4999" stroke="white" stroke-width="1.5" stroke-linecap="round" stroke-linejoin="round"/>
<path d="M8.41666 11.9583V15.4999" stroke="white" stroke-width="1.5" stroke-linecap="round" stroke-linejoin="round"/>
<path d="M6.29166 6.2915V7.53817C6.29152 7.80173 6.21786 8.06002 6.07896 8.28401C5.94007 8.508 5.74144 8.6888 5.50541 8.80609L4.24458 9.44359C4.00855 9.56087 3.80992 9.74167 3.67103 9.96566C3.53213 10.1896 3.45847 10.4479 3.45833 10.7115V11.9582H11.9583" stroke="white" stroke-width="1.5" stroke-linecap="round" stroke-linejoin="round"/>
<path d="M10.5417 6.53242V4.16659H11.25C11.6257 4.16659 11.9861 4.01733 12.2517 3.75165C12.5174 3.48598 12.6667 3.12564 12.6667 2.74992C12.6667 2.3742 12.5174 2.01386 12.2517 1.74818C11.9861 1.48251 11.6257 1.33325 11.25 1.33325H5.50542" stroke="white" stroke-width="1.5" stroke-linecap="round" stroke-linejoin="round"/>
</svg>
