<svg width="24" height="24" viewBox="0 0 24 24" fill="none" xmlns="http://www.w3.org/2000/svg">
<path d="M10.4167 17.916V10.416" stroke="white" stroke-width="1.5" stroke-linecap="round" stroke-linejoin="round"/>
<path d="M7.08333 13.7493L10.4167 10.416L13.75 13.7493" stroke="white" stroke-width="1.5" stroke-linecap="round" stroke-linejoin="round"/>
<path d="M13.75 17.7306C15.0954 17.424 16.3302 16.7523 17.3184 15.7892C18.3067 14.8261 19.0101 13.609 19.3512 12.2719C19.6923 10.9348 19.6579 9.52957 19.2518 8.21077C18.8457 6.89197 18.0836 5.71077 17.0495 4.79717C16.0153 3.88357 14.7491 3.27299 13.3903 3.03263C12.0315 2.79226 10.6327 2.93144 9.3479 3.43483C8.06309 3.93822 6.94206 4.78632 6.10819 5.88578C5.27432 6.98524 4.75995 8.29344 4.62167 9.66641C3.61213 9.87123 2.71426 10.4428 2.10134 11.2707C1.48841 12.0986 1.2039 13.1242 1.30271 14.1495C1.40151 15.1749 1.87664 16.1273 2.63637 16.8229C3.39611 17.5186 4.3866 17.9081 5.41667 17.9164H7.08333" stroke="white" stroke-width="1.5" stroke-linecap="round" stroke-linejoin="round"/>
</svg>
