<svg width="64" height="64" viewBox="0 0 64 64" fill="none" xmlns="http://www.w3.org/2000/svg">
<path d="M57.3334 57.3333H6.66669L8.83202 48.9507C9.88802 42.2613 15.6547 37.3333 22.428 37.3333H41.5707C48.344 37.3333 54.1107 42.2613 55.1667 48.9507L57.3334 57.3333Z" fill="#004299"/>
<path d="M32 40C25.1533 40 19.3867 34.884 18.5707 28.0853L17.9067 22.552C16.892 14.1027 23.4893 6.66666 32 6.66666C40.5107 6.66666 47.108 14.1027 46.0933 22.5533L45.4293 28.0867C44.6133 34.884 38.8467 40 32 40Z" fill="#004299"/>
<path d="M8.66669 5.33334L7.16669 9.83334L2.66669 11.3333L7.16669 12.8333L8.66669 17.3333L10.1667 12.8333L14.6667 11.3333L10.1667 9.83334L8.66669 5.33334Z" fill="#FFAB00"/>
<path d="M55.3333 29.3333L53.8333 33.8333L49.3333 35.3333L53.8333 36.8333L55.3333 41.3333L56.8333 36.8333L61.3333 35.3333L56.8333 33.8333L55.3333 29.3333Z" fill="#FFAB00"/>
<path d="M45.3333 20H49.3333C50.8066 20 52 21.1933 52 22.6667V26.6667C52 28.14 50.8066 29.3333 49.3333 29.3333H45.3333V20Z" fill="#2572ED"/>
<path d="M18.6667 29.3333H14.6667C13.1933 29.3333 12 28.14 12 26.6667V22.6667C12 21.1933 13.1933 20 14.6667 20H18.6667V29.3333Z" fill="#2572ED"/>
<path d="M48 22.6667H45.3333V20C44.712 13.2107 38.9773 8.00001 32 8.00001C25.0227 8.00001 19.288 13.2107 18.6613 20.12L18.6667 22.6667H16V20C16.756 11.5867 23.6333 5.33334 32 5.33334C40.3667 5.33334 47.244 11.5867 47.9947 19.88L48 22.6667Z" fill="#2572ED"/>
<path d="M48 20H45.3333V29.3333H48V20Z" fill="#538DFF"/>
<path d="M16 29.3333H18.6667V20H16V29.3333Z" fill="#538DFF"/>
</svg>
