<svg width="24" height="24" viewBox="0 0 24 24" fill="none" xmlns="http://www.w3.org/2000/svg">
<path fill-rule="evenodd" clip-rule="evenodd" d="M12 20C11.384 19.992 10.776 19.832 10.24 19.536C9.864 19.328 9.52 19.048 9.24 18.72C8.8 18.76 8.36 18.72 7.936 18.592C7.336 18.424 6.792 18.096 6.352 17.656C5.912 17.216 5.6 16.672 5.432 16.08C5.312 15.664 5.264 15.224 5.296 14.792C4.96 14.504 4.68 14.16 4.464 13.776C4.16 13.24 4 12.624 4 12C4 11.376 4.16 10.76 4.464 10.216C4.68 9.84 4.96 9.496 5.288 9.208C5.256 8.776 5.296 8.344 5.416 7.928C5.584 7.336 5.904 6.792 6.328 6.352C6.992 5.688 7.872 5.304 8.808 5.264C8.952 5.264 9.072 5.264 9.208 5.28C9.496 4.944 9.84 4.672 10.224 4.456C10.76 4.16 11.376 4 11.992 4H12C12.616 4 13.224 4.16 13.768 4.456C14.152 4.664 14.496 4.944 14.776 5.272C15.216 5.24 15.656 5.288 16.08 5.408C16.672 5.584 17.216 5.904 17.656 6.336C18.096 6.776 18.416 7.32 18.584 7.912C18.704 8.336 18.752 8.776 18.72 9.208C19.048 9.496 19.328 9.84 19.544 10.224C19.84 10.768 20 11.384 20 12C20 12.616 19.84 13.224 19.544 13.768C19.336 14.152 19.056 14.496 18.728 14.776C18.76 15.216 18.712 15.656 18.592 16.08C18.416 16.672 18.096 17.216 17.656 17.656C17.216 18.096 16.672 18.416 16.08 18.592C15.656 18.712 15.216 18.76 14.784 18.728C14.496 19.056 14.152 19.336 13.768 19.552C13.232 19.84 12.616 20 12 20ZM9.592 17.064C9.864 17.064 10.12 17.2 10.264 17.432C10.448 17.728 10.712 17.968 11.008 18.136C11.32 18.304 11.664 18.4 12.008 18.4C12.352 18.4 12.696 18.312 13.008 18.144C13.312 17.976 13.576 17.728 13.76 17.44C13.944 17.152 14.28 17.016 14.608 17.088C14.952 17.168 15.304 17.152 15.64 17.056C15.976 16.96 16.28 16.776 16.528 16.528C16.776 16.28 16.96 15.976 17.056 15.64C17.152 15.304 17.16 14.944 17.088 14.608C17.016 14.28 17.152 13.944 17.44 13.76C17.736 13.568 17.976 13.312 18.144 13.008C18.312 12.696 18.4 12.344 18.4 12C18.4 11.648 18.312 11.304 18.144 11C17.976 10.696 17.728 10.432 17.44 10.248C17.152 10.064 17.016 9.728 17.088 9.4C17.168 9.056 17.152 8.704 17.056 8.368C16.96 8.032 16.776 7.72 16.528 7.48C16.28 7.232 15.976 7.048 15.64 6.952C15.304 6.856 14.944 6.848 14.608 6.92C14.28 7 13.944 6.856 13.76 6.568C13.576 6.272 13.312 6.032 13.008 5.864C12.696 5.688 12.344 5.6 12 5.6C11.648 5.6 11.296 5.688 10.992 5.856C10.688 6.024 10.424 6.272 10.24 6.568C10.056 6.864 9.704 7 9.368 6.92C9.2 6.88 9.024 6.856 8.856 6.864C8.344 6.88 7.848 7.104 7.472 7.472C7.232 7.712 7.056 8.024 6.96 8.36C6.864 8.696 6.856 9.048 6.936 9.392C7.008 9.72 6.872 10.064 6.584 10.248C6.28 10.432 6.032 10.696 5.864 11C5.696 11.304 5.6 11.656 5.6 12C5.6 12.352 5.688 12.696 5.864 13.008C6.032 13.312 6.28 13.576 6.576 13.76C6.864 13.944 7.008 14.28 6.936 14.616C6.856 14.952 6.872 15.312 6.968 15.648C7.064 15.984 7.24 16.288 7.488 16.536C7.736 16.776 8.04 16.96 8.376 17.056C8.712 17.152 9.072 17.16 9.416 17.08C9.472 17.072 9.536 17.064 9.592 17.064ZM10.632 14.1679C10.752 14.2819 10.8945 14.3554 11.046 14.3851L10.632 14.1679ZM10.632 14.1679C10.6314 14.1673 10.6307 14.1666 10.63 14.166L9.03202 12.5679C8.72002 12.2559 8.72002 11.7519 9.03202 11.4399C9.34402 11.1279 9.84802 11.1279 10.16 11.4399L11.196 12.4759L13.832 9.83993C14.144 9.52793 14.648 9.52793 14.96 9.83993C15.272 10.1519 15.272 10.6559 14.96 10.9679L11.764 14.1639C11.7627 14.1652 11.7614 14.1666 11.76 14.1679C11.608 14.3199 11.408 14.3999 11.2 14.3999C11.148 14.3999 11.0965 14.3949 11.046 14.3851" fill="white"/>
</svg>
