<svg width="24" height="24" viewBox="0 0 24 24" fill="none" xmlns="http://www.w3.org/2000/svg">
<path fill-rule="evenodd" clip-rule="evenodd" d="M3.0622 5.81342C1.92328 5.81342 1 6.73669 1 7.87561V16.1244C1 17.2633 1.92328 18.1866 3.0622 18.1866H14.0388C15.1777 18.1866 16.101 17.2633 16.101 16.1244V7.87561C16.101 6.73669 15.1777 5.81342 14.0388 5.81342H3.0622ZM2.3748 7.87561C2.3748 7.49597 2.68256 7.18821 3.0622 7.18821H14.0388C14.4184 7.18821 14.7262 7.49597 14.7262 7.87561V16.1244C14.7262 16.504 14.4184 16.8118 14.0388 16.8118H3.0622C2.68256 16.8118 2.3748 16.504 2.3748 16.1244V7.87561ZM21.0111 16.9408L18.6401 15.7566C18.2973 15.5852 18.0095 15.3222 17.8078 14.9959C17.6071 14.6705 17.5008 14.2948 17.5008 13.9117V10.1126C17.5008 9.72953 17.6071 9.35375 17.8078 9.02838V9.02746C18.0095 8.7021 18.2973 8.43905 18.6401 8.26766L21.0111 7.08258C21.2201 6.9781 21.4529 6.92861 21.6875 6.93961C21.9212 6.9506 22.1485 7.02026 22.3483 7.14399C22.5472 7.26681 22.7113 7.43912 22.8259 7.6435C22.9395 7.84789 23 8.07885 23 8.31257V15.7108C23 15.9454 22.9395 16.1755 22.8259 16.3808C22.7113 16.5852 22.5472 16.7575 22.3483 16.8803C22.1485 17.004 21.9212 17.0737 21.6875 17.0847C21.4529 17.0948 21.2201 17.0462 21.0111 16.9408ZM18.9783 14.2737C19.0452 14.3828 19.1414 14.4698 19.2551 14.5276L21.6252 15.7108V8.31257L19.2551 9.49673C19.1414 9.55355 19.0452 9.64154 18.9783 9.75061C18.9104 9.85876 18.8756 9.98432 18.8756 10.1117V13.9126C18.8756 14.04 18.9104 14.1655 18.9783 14.2737Z" fill="white"/>
</svg>
