<svg width="24" height="24" viewBox="0 0 24 24" fill="none" xmlns="http://www.w3.org/2000/svg">
<path fill-rule="evenodd" clip-rule="evenodd" d="M6.4 4C5.76348 4 5.15303 4.25286 4.70294 4.70294C4.25286 5.15303 4 5.76348 4 6.4V8.8C4 9.24183 4.35817 9.6 4.8 9.6C5.24183 9.6 5.6 9.24183 5.6 8.8V6.4C5.6 6.18783 5.68429 5.98434 5.83431 5.83431C5.98434 5.68429 6.18783 5.6 6.4 5.6H17.6C17.8122 5.6 18.0157 5.68429 18.1657 5.83431C18.3157 5.98434 18.4 6.18783 18.4 6.4V8.8C18.4 9.24183 18.7582 9.6 19.2 9.6C19.6418 9.6 20 9.24183 20 8.8V6.4C20 5.76348 19.7471 5.15303 19.2971 4.70294C18.847 4.25286 18.2365 4 17.6 4H6.4ZM5.6 15.2C5.6 14.7582 5.24183 14.4 4.8 14.4C4.35817 14.4 4 14.7582 4 15.2V17.6C4 18.2365 4.25286 18.847 4.70294 19.2971C5.15303 19.7471 5.76348 20 6.4 20H17.6C18.2365 20 18.847 19.7471 19.2971 19.2971C19.7471 18.847 20 18.2365 20 17.6V15.2C20 14.7582 19.6418 14.4 19.2 14.4C18.7582 14.4 18.4 14.7582 18.4 15.2V17.6C18.4 17.8122 18.3157 18.0157 18.1657 18.1657C18.0157 18.3157 17.8122 18.4 17.6 18.4H6.4C6.18783 18.4 5.98434 18.3157 5.83431 18.1657C5.68429 18.0157 5.6 17.8122 5.6 17.6V15.2ZM7.32361 12C7.35887 12.0567 7.39844 12.1188 7.44225 12.1855C7.66972 12.5314 8.00631 12.991 8.44218 13.4476C9.32746 14.3751 10.532 15.2 12 15.2C13.4676 15.2 14.6721 14.3751 15.5575 13.4476C15.9934 12.9909 16.3301 12.5313 16.5577 12.1854C16.6015 12.1188 16.641 12.0567 16.6763 12C16.641 11.9432 16.6015 11.8812 16.5577 11.8146C16.3301 11.4686 15.9934 11.009 15.5575 10.5524C14.6721 9.62481 13.4676 8.79997 12 8.79997C10.532 8.79997 9.32746 9.62485 8.44218 10.5523C8.00631 11.009 7.66972 11.4685 7.44225 11.8145C7.39844 11.8811 7.35887 11.9432 7.32361 12ZM17.6 12C18.3129 11.637 18.3127 11.6367 18.3126 11.6364L17.6 12ZM18.3126 11.6364L18.3115 11.6342L18.3093 11.6301L18.3028 11.6174C18.2974 11.6071 18.2899 11.5931 18.2805 11.5755C18.2616 11.5405 18.2346 11.4915 18.1997 11.4304C18.1298 11.3085 18.0278 11.1381 17.8945 10.9354C17.6287 10.5313 17.2335 9.99091 16.7149 9.44757C15.6911 8.37512 14.0956 7.19997 12 7.19997C9.90401 7.19997 8.3085 8.37508 7.28479 9.4476C6.76615 9.99095 6.371 10.5314 6.10534 10.9355C5.97202 11.1382 5.87001 11.3086 5.8002 11.4305C5.76526 11.4916 5.73829 11.5406 5.71941 11.5756C5.70997 11.5932 5.70254 11.6072 5.69714 11.6175L5.69056 11.6302L5.68841 11.6344L5.68762 11.6359C5.68748 11.6362 5.68703 11.6371 6.39998 12L5.68703 11.6371C5.57097 11.8651 5.57097 12.1348 5.68703 12.3629C5.68688 12.3626 5.68703 12.3629 6.39998 12L5.68703 12.3629L5.68762 12.364L5.68841 12.3656L5.69056 12.3697L5.69714 12.3824C5.70254 12.3927 5.70997 12.4068 5.71941 12.4243C5.73829 12.4593 5.76526 12.5084 5.8002 12.5694C5.87001 12.6913 5.97202 12.8617 6.10534 13.0645C6.371 13.4685 6.76615 14.009 7.28479 14.5523C8.3085 15.6248 9.90401 16.8 12 16.8C14.0956 16.8 15.6911 15.6248 16.7149 14.5524C17.2335 14.009 17.6287 13.4686 17.8945 13.0646C18.0278 12.8618 18.1298 12.6914 18.1997 12.5695C18.2346 12.5085 18.2616 12.4594 18.2805 12.4244C18.2899 12.4069 18.2974 12.3928 18.3028 12.3825L18.3093 12.3699L18.3115 12.3657L18.3123 12.3641C18.3124 12.3639 18.3129 12.363 17.6 12L18.3129 12.363C18.429 12.1349 18.4287 11.8645 18.3126 11.6364ZM10.8686 10.8686C11.1687 10.5685 11.5757 10.3999 12 10.3999C12.4244 10.3999 12.8313 10.5685 13.1314 10.8686C13.4314 11.1686 13.6 11.5756 13.6 11.9999C13.6 12.4243 13.4314 12.8312 13.1314 13.1313C12.8313 13.4314 12.4244 13.5999 12 13.5999C11.5757 13.5999 11.1687 13.4314 10.8686 13.1313C10.5686 12.8312 10.4 12.4243 10.4 11.9999C10.4 11.5756 10.5686 11.1686 10.8686 10.8686Z" fill="white"/>
</svg>
