<svg width="24" height="25" viewBox="0 0 24 25" fill="none" xmlns="http://www.w3.org/2000/svg">
<path fill-rule="evenodd" clip-rule="evenodd" d="M15.815 7.49712C15.656 7.33806 15.656 7.08018 15.815 6.92112L17.6169 5.11931C17.7759 4.96025 18.0338 4.96025 18.1929 5.11931C18.3519 5.27836 18.3519 5.53624 18.1929 5.6953L16.391 7.49712C16.232 7.65617 15.9741 7.65617 15.815 7.49712ZM3.12933 9.93018C2.97027 10.0892 2.97027 10.3471 3.12933 10.5062C3.28838 10.6652 3.54626 10.6652 3.70532 10.5062L8.49012 5.72138C8.64918 5.56232 8.64918 5.30444 8.49012 5.14538C8.33107 4.98633 8.07318 4.98633 7.91413 5.14538L3.12933 9.93018ZM3.16711 6.66688C3.00805 6.82593 3.00805 7.08381 3.16711 7.24287C3.32616 7.40193 3.58404 7.40193 3.7431 7.24287L5.25934 5.72663C5.41839 5.56758 5.41839 5.3097 5.25934 5.15064C5.10028 4.99158 4.8424 4.99158 4.68334 5.15064L3.16711 6.66688ZM3.11929 13.7417C2.96023 13.5826 2.96023 13.3248 3.11929 13.1657L11.1134 5.17154C11.2725 5.01249 11.5304 5.01249 11.6894 5.17154C11.8485 5.3306 11.8485 5.58848 11.6894 5.74754L3.69528 13.7417C3.53623 13.9008 3.27835 13.9008 3.11929 13.7417ZM13.3867 6.12401C13.2277 6.28306 13.2277 6.54094 13.3867 6.7C13.5458 6.85906 13.8037 6.85906 13.9627 6.7L14.9377 5.72504C15.0967 5.56598 15.0967 5.3081 14.9377 5.14904C14.7786 4.98999 14.5208 4.98999 14.3617 5.14904L13.3867 6.12401ZM3.132 16.9547C2.97295 16.7956 2.97295 16.5378 3.132 16.3787L7.07593 12.4348C7.23499 12.2757 7.49287 12.2757 7.65193 12.4348C7.81098 12.5938 7.81098 12.8517 7.65193 13.0108L3.70799 16.9547C3.54894 17.1137 3.29106 17.1137 3.132 16.9547ZM3.12231 19.6139C2.96325 19.773 2.96325 20.0308 3.12231 20.1899C3.28137 20.349 3.53925 20.349 3.6983 20.1899L8.2786 15.6096C8.43765 15.4505 8.43765 15.1927 8.2786 15.0336C8.11954 14.8746 7.86166 14.8746 7.7026 15.0336L3.12231 19.6139ZM16.8573 9.1044C16.6982 9.26345 16.6982 9.52134 16.8573 9.68039C17.0163 9.83945 17.2742 9.83945 17.4333 9.68039L21.3047 5.80893C21.4638 5.64987 21.4638 5.39199 21.3047 5.23294C21.1457 5.07388 20.8878 5.07388 20.7287 5.23294L16.8573 9.1044ZM16.8383 12.925C16.6793 12.7659 16.6793 12.5081 16.8383 12.349L20.7429 8.44446C20.9019 8.28541 21.1598 8.28541 21.3189 8.44446C21.4779 8.60352 21.4779 8.8614 21.3189 9.02046L17.4143 12.925C17.2553 13.0841 16.9974 13.0841 16.8383 12.925ZM17.1439 15.269C16.9849 15.4281 16.9849 15.6859 17.1439 15.845C17.303 16.004 17.5609 16.004 17.7199 15.845L21.3264 12.2385C21.4855 12.0794 21.4855 11.8215 21.3264 11.6625C21.1674 11.5034 20.9095 11.5034 20.7505 11.6625L17.1439 15.269ZM18.1589 18.0556C17.9998 17.8966 17.9998 17.6387 18.1589 17.4796L20.8047 14.8338C20.9638 14.6747 21.2217 14.6747 21.3807 14.8338C21.5398 14.9929 21.5398 15.2507 21.3807 15.4098L18.7349 18.0556C18.5758 18.2147 18.318 18.2147 18.1589 18.0556ZM18.9746 19.6587C18.8156 19.8177 18.8156 20.0756 18.9746 20.2347C19.1337 20.3937 19.3916 20.3937 19.5506 20.2347L21.3379 18.4474C21.4969 18.2884 21.4969 18.0305 21.3379 17.8714C21.1788 17.7124 20.921 17.7124 20.7619 17.8714L18.9746 19.6587ZM9.86444 8.81457C10.5048 8.17422 11.3733 7.81447 12.2789 7.81447C13.1845 7.81447 14.053 8.17422 14.6933 8.81457C15.3337 9.45492 15.6934 10.3234 15.6934 11.229C15.6934 12.1346 15.3337 13.0031 14.6933 13.6435C14.053 14.2838 13.1845 14.6436 12.2789 14.6436C11.3733 14.6436 10.5048 14.2838 9.86444 13.6435C9.22409 13.0031 8.86434 12.1346 8.86434 11.229C8.86434 10.3234 9.22409 9.45492 9.86444 8.81457ZM12.2789 9.03634C11.6974 9.03634 11.1396 9.26735 10.7284 9.67856C10.3172 10.0898 10.0862 10.6475 10.0862 11.229C10.0862 11.8106 10.3172 12.3683 10.7284 12.7795C11.1396 13.1907 11.6974 13.4217 12.2789 13.4217C12.8604 13.4217 13.4181 13.1907 13.8294 12.7795C14.2406 12.3683 14.4716 11.8106 14.4716 11.229C14.4716 10.6475 14.2406 10.0898 13.8294 9.67856C13.4181 9.26735 12.8604 9.03634 12.2789 9.03634ZM9.53059 17.6174C10.2595 16.8885 11.2481 16.479 12.2789 16.479C13.3097 16.479 14.2983 16.8885 15.0272 17.6174C15.6743 18.2645 16.0697 19.1163 16.1503 20.0206C16.1802 20.3566 16.4769 20.6048 16.813 20.5749C17.1491 20.5449 17.3973 20.2482 17.3673 19.9121C17.2614 18.7235 16.7418 17.604 15.8912 16.7534C14.9332 15.7954 13.6338 15.2571 12.2789 15.2571C10.924 15.2571 9.62464 15.7954 8.6666 16.7534C7.81606 17.604 7.29642 18.7235 7.1905 19.9121C7.16055 20.2482 7.40872 20.5449 7.74479 20.5749C8.08087 20.6048 8.37759 20.3566 8.40754 20.0206C8.48813 19.1163 8.8835 18.2645 9.53059 17.6174Z" fill="white"/>
</svg>
