<svg xmlns="http://www.w3.org/2000/svg" width="20" height="20" viewBox="0 0 20 20" fill="none">
<path d="M14.7836 5.19167C14.5281 4.93616 14.1139 4.9361 13.8584 5.19153C13.6029 5.44696 13.6029 5.86116 13.8583 6.11667C14.962 7.22075 15.5821 8.718 15.5821 10.2792C15.5821 11.8403 14.962 13.3376 13.8583 14.4417C13.6029 14.6972 13.6029 15.1114 13.8584 15.3668C14.1139 15.6222 14.5281 15.6222 14.7836 15.3667C16.1326 14.0172 16.8904 12.1873 16.8904 10.2792C16.8904 8.37108 16.1326 6.5411 14.7836 5.19167Z" fill="white"/>
<path d="M12.4743 7.5009C12.2189 7.24539 11.8047 7.24533 11.5492 7.50076C11.2937 7.75619 11.2936 8.17039 11.5491 8.4259C12.0396 8.9166 12.3152 9.58205 12.3152 10.2759C12.3152 10.9697 12.0396 11.6352 11.5491 12.1259C11.2936 12.3814 11.2937 12.7956 11.5492 13.051C11.8047 13.3065 12.2189 13.3064 12.4743 13.0509C13.2102 12.3148 13.6235 11.3167 13.6235 10.2759C13.6235 9.23512 13.2102 8.23695 12.4743 7.5009Z" fill="white"/>
<path fill-rule="evenodd" clip-rule="evenodd" d="M9.69589 5.69993C9.69589 5.44847 9.55175 5.21926 9.3251 5.11033C9.09845 5.00139 8.82942 5.03202 8.63306 5.18911L5.54139 7.66245H3.15417C2.79288 7.66245 2.5 7.95533 2.5 8.31662V12.2417C2.5 12.6029 2.79288 12.8958 3.15417 12.8958H5.54139L8.63306 15.3692C8.82942 15.5263 9.09845 15.5569 9.3251 15.4479C9.55175 15.339 9.69589 15.1098 9.69589 14.8583V5.69993ZM6.17952 8.82744L8.38755 7.06102V13.4973L6.17952 11.7308C6.06352 11.638 5.9194 11.5875 5.77086 11.5875H3.80834V8.97079H5.77086C5.9194 8.97079 6.06352 8.92024 6.17952 8.82744Z" fill="white"/>
</svg>