<svg xmlns="http://www.w3.org/2000/svg" width="40" height="40" viewBox="0 0 40 40" fill="none">
  <path fill-rule="evenodd" clip-rule="evenodd" d="M18.7696 10.1303C19.2269 10.35 19.5177 10.8125 19.5177 11.3198V29.7969C19.5177 30.3042 19.2269 30.7666 18.7696 30.9864C18.3124 31.2062 17.7696 31.1444 17.3734 30.8274L11.136 25.8375H6.31979C5.59089 25.8375 5 25.2466 5 24.5177V16.599C5 15.8701 5.59089 15.2792 6.31979 15.2792H11.136L17.3734 10.2892C17.7696 9.97229 18.3124 9.9105 18.7696 10.1303ZM16.8781 14.0658L12.4234 17.6295C12.1894 17.8168 11.8986 17.9188 11.599 17.9188H7.63958V23.1979H11.599C11.8986 23.1979 12.1894 23.2999 12.4234 23.4871L16.8781 27.0509V14.0658Z" fill="white"/>
  <path d="M34.9686 15.6658C35.484 16.1812 35.484 17.0168 34.9686 17.5322L31.9425 20.5584L34.9686 23.5845C35.484 24.0999 35.484 24.9355 34.9686 25.451C34.4532 25.9664 33.6176 25.9664 33.1022 25.451L30.076 22.4248L27.0499 25.451C26.5345 25.9664 25.6988 25.9664 25.1834 25.451C24.668 24.9355 24.668 24.0999 25.1834 23.5845L28.2096 20.5584L25.1834 17.5322C24.668 17.0168 24.668 16.1812 25.1834 15.6658C25.6988 15.1503 26.5345 15.1503 27.0499 15.6658L30.076 18.6919L33.1022 15.6658C33.6176 15.1503 34.4532 15.1503 34.9686 15.6658Z" fill="white"/>
</svg>