<svg width="24" height="24" viewBox="0 0 24 24" fill="none" xmlns="http://www.w3.org/2000/svg">
<path fill-rule="evenodd" clip-rule="evenodd" d="M14.7036 5.88215C14.7036 5.54305 14.5092 5.23397 14.2036 5.08707C13.898 4.94018 13.5352 4.98148 13.2704 5.19331L9.10129 8.52859H5.88215C5.39495 8.52859 5 8.92354 5 9.41074V14.7036C5 15.1908 5.39495 15.5858 5.88215 15.5858H9.10129L13.2704 18.921C13.5352 19.1329 13.898 19.1742 14.2036 19.0273C14.5092 18.8804 14.7036 18.5713 14.7036 18.2322V5.88215ZM9.9618 10.0996L12.9393 7.71757V16.3968L9.9618 14.0148C9.80539 13.8896 9.61104 13.8215 9.41073 13.8215H6.76429V10.2929H9.41073C9.61104 10.2929 9.80539 10.2247 9.9618 10.0996ZM18.4503 8.31066C18.1059 7.96611 17.5473 7.96603 17.2028 8.31048C16.8582 8.65492 16.8581 9.21347 17.2026 9.55802C17.8641 10.2197 18.2357 11.1171 18.2357 12.0527C18.2357 12.9884 17.8641 13.8857 17.2026 14.5474C16.8581 14.892 16.8582 15.4505 17.2028 15.795C17.5473 16.1394 18.1059 16.1393 18.4503 15.7948C19.4426 14.8022 20 13.4562 20 12.0527C20 10.6492 19.4426 9.30323 18.4503 8.31066Z" fill="white"/>
</svg>
