<svg width="24" height="24" viewBox="0 0 24 24" fill="none" xmlns="http://www.w3.org/2000/svg">
<path fill-rule="evenodd" clip-rule="evenodd" d="M6.4 6.6C5.96183 6.6 5.6 6.96183 5.6 7.4C5.6 7.61217 5.68429 7.81566 5.83431 7.96569C5.98434 8.11571 6.18783 8.2 6.4 8.2H15.2V6.6H6.4ZM16.8 8.2V5.8C16.8 5.35817 16.4418 5 16 5H6.4C5.07817 5 4 6.07817 4 7.4V7.40004V7.40007V17.0001C4 18.3219 5.07817 19.4001 6.4 19.4001H17.6C18.0418 19.4001 18.4 19.0419 18.4 18.6001V16.1999H19.2C19.6418 16.1999 20 15.8418 20 15.3999V12.1999C20 11.7581 19.6418 11.3999 19.2 11.3999H18.4V9C18.4 8.55817 18.0418 8.2 17.6 8.2H16.8ZM17.5894 12.9999C17.5929 13 17.5965 13 17.6 13C17.6035 13 17.6071 13 17.6106 12.9999H18.4V14.5999H16C15.5618 14.5999 15.2 14.2381 15.2 13.7999C15.2 13.5878 15.2843 13.3843 15.4343 13.2342C15.5843 13.0842 15.7878 12.9999 16 12.9999H17.5894ZM16.8 11.3999V9.8H6.4C6.12485 9.8 5.85456 9.75275 5.6 9.66274V17.0001C5.6 17.4382 5.96183 17.8001 6.4 17.8001H16.8V16.1999H16C14.6782 16.1999 13.6 15.1218 13.6 13.7999C13.6 13.1634 13.8529 12.553 14.3029 12.1029C14.753 11.6528 15.3635 11.3999 16 11.3999H16.8Z" fill="white"/>
</svg>
