<svg width="19" height="19" viewBox="0 0 19 19" fill="none" xmlns="http://www.w3.org/2000/svg">
<path d="M14.6 14.6282C15.0941 14.6282 15.4947 14.2277 15.4947 13.7336C15.4947 13.2395 15.0941 12.8389 14.6 12.8389V14.6282ZM7.4005 15.3486L6.61718 14.9161L6.61095 14.9278L7.4005 15.3486ZM1 13.7506L0.105326 13.7378L0.10533 13.7508L1 13.7506ZM2.24602 12.5202C2.50537 12.0996 2.37468 11.5484 1.9541 11.289C1.53353 11.0297 0.982337 11.1604 0.722983 11.581L2.24602 12.5202ZM3.61328 13.3245C3.37799 13.759 3.53948 14.302 3.97397 14.5373C4.40847 14.7726 4.95143 14.6111 5.18672 14.1766L3.61328 13.3245ZM7.0605 8.83757L6.27538 8.40858L6.27378 8.41154L7.0605 8.83757ZM6.6355 6.20257L5.87692 6.67689C5.87994 6.68172 5.883 6.68652 5.88612 6.6913L6.6355 6.20257ZM11.7095 3.18533C11.9491 3.61749 12.4936 3.77361 12.9258 3.53405C13.3579 3.29449 13.514 2.74996 13.2745 2.3178L11.7095 3.18533ZM10.2852 3.97167C10.0483 3.53804 9.50474 3.37853 9.07111 3.6154C8.63747 3.85227 8.47796 4.39583 8.71484 4.82946L10.2852 3.97167ZM12.1605 9.27107L11.3753 9.69996L11.3754 9.70005L12.1605 9.27107ZM14.6 10.3506V9.4559V10.3506ZM14.6 16.2559C14.1059 16.2559 13.7053 16.6565 13.7053 17.1506C13.7053 17.6447 14.1059 18.0452 14.6 18.0452V16.2559ZM14.6 12.8389H9.5085V14.6282H14.6V12.8389ZM9.5085 12.8389C8.04436 12.8389 7.09307 14.0543 6.61727 14.9162L8.18373 15.781C8.60893 15.0108 9.10264 14.6282 9.5085 14.6282V12.8389ZM6.61095 14.9278C6.34818 15.4209 5.92812 15.812 5.41755 16.0389L6.1443 17.674C7.01952 17.285 7.73959 16.6146 8.19005 15.7693L6.61095 14.9278ZM5.41755 16.0389C4.90699 16.2658 4.33521 16.3156 3.79313 16.1802L3.35969 17.9163C4.28894 18.1483 5.26908 18.063 6.1443 17.674L5.41755 16.0389ZM3.79313 16.1802C3.25104 16.0449 2.76975 15.7322 2.42577 15.2919L1.01574 16.3936C1.60541 17.1483 2.43044 17.6843 3.35969 17.9163L3.79313 16.1802ZM2.42577 15.2919C2.08178 14.8516 1.89484 14.309 1.89467 13.7503L0.10533 13.7508C0.105629 14.7086 0.42608 15.6388 1.01574 16.3936L2.42577 15.2919ZM1.89458 13.7633C1.90093 13.3185 2.02207 12.8833 2.24602 12.5202L0.722983 11.581C0.317925 12.2378 0.116066 12.9927 0.105421 13.7378L1.89458 13.7633ZM5.18672 14.1766L7.84722 9.2636L6.27378 8.41154L3.61328 13.3245L5.18672 14.1766ZM7.84562 9.26655C8.20232 8.61371 8.21252 7.91692 8.08273 7.31542C7.9541 6.71931 7.6791 6.16497 7.38489 5.71384L5.88612 6.6913C6.1019 7.02216 6.26465 7.37307 6.33365 7.69284C6.40148 8.00721 6.36918 8.23692 6.27538 8.40859L7.84562 9.26655ZM7.39408 5.72824C7.21672 5.44458 7.09796 5.12826 7.04482 4.79796L5.27819 5.08218C5.36929 5.6484 5.57287 6.19063 5.87692 6.67689L7.39408 5.72824ZM7.04482 4.79796C6.99167 4.46765 7.00523 4.13005 7.08467 3.80507L5.34651 3.38016C5.21033 3.93725 5.1871 4.51597 5.27819 5.08218L7.04482 4.79796ZM7.08467 3.80507C7.16412 3.48009 7.30784 3.17431 7.50738 2.90577L6.07113 1.83857C5.72908 2.2989 5.4827 2.82307 5.34651 3.38016L7.08467 3.80507ZM7.50738 2.90577C7.70691 2.63723 7.95821 2.41138 8.24644 2.24154L7.33804 0.699935C6.84395 0.991084 6.41317 1.37824 6.07113 1.83857L7.50738 2.90577ZM8.24644 2.24154C8.53468 2.07169 8.85401 1.9613 9.18559 1.91686L8.94795 0.143377C8.37953 0.219545 7.83213 0.408786 7.33804 0.699935L8.24644 2.24154ZM9.18559 1.91686C9.51718 1.87243 9.85431 1.89486 10.1771 1.98283L10.6476 0.256452C10.0943 0.105657 9.51636 0.0672088 8.94795 0.143377L9.18559 1.91686ZM10.1771 1.98283C10.4999 2.0708 10.8018 2.22252 11.065 2.42905L12.1696 1.02137C11.7184 0.667335 11.2009 0.407247 10.6476 0.256452L10.1771 1.98283ZM11.065 2.42905C11.3282 2.63558 11.5473 2.89273 11.7095 3.18533L13.2745 2.3178C12.9964 1.81622 12.6207 1.37541 12.1696 1.02137L11.065 2.42905ZM8.71484 4.82946L11.3753 9.69996L12.9457 8.84217L10.2852 3.97167L8.71484 4.82946ZM11.3754 9.70005C12.0793 10.9884 13.607 11.2452 14.6 11.2452V9.4559C13.723 9.4559 13.1427 9.20274 12.9456 8.84208L11.3754 9.70005ZM14.6 11.2452C15.2645 11.2452 15.9017 11.5092 16.3715 11.979L17.6368 10.7138C16.8314 9.90837 15.739 9.4559 14.6 9.4559V11.2452ZM16.3715 11.979C16.8414 12.4489 17.1053 13.0861 17.1053 13.7506H18.8947C18.8947 12.6115 18.4422 11.5192 17.6368 10.7138L16.3715 11.979ZM17.1053 13.7506C17.1053 14.415 16.8414 15.0523 16.3715 15.5221L17.6368 16.7874C18.4422 15.9819 18.8947 14.8896 18.8947 13.7506H17.1053ZM16.3715 15.5221C15.9017 15.9919 15.2645 16.2559 14.6 16.2559V18.0452C15.739 18.0452 16.8314 17.5928 17.6368 16.7874L16.3715 15.5221Z" fill="#F5F9FF" fill-opacity="0.95"/>
</svg>
