<svg width="24" height="24" viewBox="0 0 24 24" fill="none" xmlns="http://www.w3.org/2000/svg">
<path d="M17.6 17.6282C18.0941 17.6282 18.4947 17.2277 18.4947 16.7336C18.4947 16.2395 18.0941 15.8389 17.6 15.8389V17.6282ZM10.4005 18.3486L9.61718 17.9161L9.61095 17.9278L10.4005 18.3486ZM4 16.7506L3.10533 16.7378L3.10533 16.7508L4 16.7506ZM5.24602 15.5202C5.50537 15.0996 5.37468 14.5484 4.9541 14.289C4.53353 14.0297 3.98234 14.1604 3.72298 14.581L5.24602 15.5202ZM6.61328 16.3245C6.37799 16.759 6.53948 17.302 6.97397 17.5373C7.40847 17.7726 7.95143 17.6111 8.18672 17.1766L6.61328 16.3245ZM10.0605 11.8376L9.27538 11.4086L9.27378 11.4115L10.0605 11.8376ZM9.6355 9.20257L8.87692 9.67689C8.87994 9.68172 8.883 9.68652 8.88612 9.6913L9.6355 9.20257ZM14.7095 6.18533C14.9491 6.61749 15.4936 6.77361 15.9258 6.53405C16.3579 6.29449 16.514 5.74996 16.2745 5.3178L14.7095 6.18533ZM13.2852 6.97167C13.0483 6.53804 12.5047 6.37853 12.0711 6.6154C11.6375 6.85227 11.478 7.39583 11.7148 7.82946L13.2852 6.97167ZM15.1605 12.2711L14.3753 12.7L14.3754 12.7L15.1605 12.2711ZM17.6 13.3506V12.4559V13.3506ZM17.6 19.2559C17.1059 19.2559 16.7053 19.6565 16.7053 20.1506C16.7053 20.6447 17.1059 21.0452 17.6 21.0452V19.2559ZM17.6 15.8389H12.5085V17.6282H17.6V15.8389ZM12.5085 15.8389C11.0444 15.8389 10.0931 17.0543 9.61727 17.9162L11.1837 18.781C11.6089 18.0108 12.1026 17.6282 12.5085 17.6282V15.8389ZM9.61095 17.9278C9.34818 18.4209 8.92812 18.812 8.41755 19.0389L9.1443 20.674C10.0195 20.285 10.7396 19.6146 11.19 18.7693L9.61095 17.9278ZM8.41755 19.0389C7.90699 19.2658 7.33521 19.3156 6.79313 19.1802L6.35969 20.9163C7.28894 21.1483 8.26908 21.063 9.1443 20.674L8.41755 19.0389ZM6.79313 19.1802C6.25104 19.0449 5.76975 18.7322 5.42577 18.2919L4.01574 19.3936C4.60541 20.1483 5.43044 20.6843 6.35969 20.9163L6.79313 19.1802ZM5.42577 18.2919C5.08178 17.8516 4.89484 17.309 4.89467 16.7503L3.10533 16.7508C3.10563 17.7086 3.42608 18.6388 4.01574 19.3936L5.42577 18.2919ZM4.89458 16.7633C4.90093 16.3185 5.02207 15.8833 5.24602 15.5202L3.72298 14.581C3.31793 15.2378 3.11607 15.9927 3.10542 16.7378L4.89458 16.7633ZM8.18672 17.1766L10.8472 12.2636L9.27378 11.4115L6.61328 16.3245L8.18672 17.1766ZM10.8456 12.2665C11.2023 11.6137 11.2125 10.9169 11.0827 10.3154C10.9541 9.71931 10.6791 9.16497 10.3849 8.71384L8.88612 9.6913C9.1019 10.0222 9.26465 10.3731 9.33365 10.6928C9.40148 11.0072 9.36918 11.2369 9.27538 11.4086L10.8456 12.2665ZM10.3941 8.72824C10.2167 8.44458 10.098 8.12826 10.0448 7.79796L8.27819 8.08218C8.36929 8.6484 8.57287 9.19063 8.87692 9.67689L10.3941 8.72824ZM10.0448 7.79796C9.99167 7.46765 10.0052 7.13005 10.0847 6.80507L8.34651 6.38016C8.21033 6.93725 8.1871 7.51597 8.27819 8.08218L10.0448 7.79796ZM10.0847 6.80507C10.1641 6.48009 10.3078 6.17431 10.5074 5.90577L9.07113 4.83857C8.72908 5.2989 8.4827 5.82307 8.34651 6.38016L10.0847 6.80507ZM10.5074 5.90577C10.7069 5.63723 10.9582 5.41138 11.2464 5.24154L10.338 3.69993C9.84395 3.99108 9.41317 4.37824 9.07113 4.83857L10.5074 5.90577ZM11.2464 5.24154C11.5347 5.07169 11.854 4.9613 12.1856 4.91686L11.9479 3.14338C11.3795 3.21954 10.8321 3.40879 10.338 3.69993L11.2464 5.24154ZM12.1856 4.91686C12.5172 4.87243 12.8543 4.89486 13.1771 4.98283L13.6476 3.25645C13.0943 3.10566 12.5164 3.06721 11.9479 3.14338L12.1856 4.91686ZM13.1771 4.98283C13.4999 5.0708 13.8018 5.22252 14.065 5.42905L15.1696 4.02137C14.7184 3.66734 14.2009 3.40725 13.6476 3.25645L13.1771 4.98283ZM14.065 5.42905C14.3282 5.63558 14.5473 5.89273 14.7095 6.18533L16.2745 5.3178C15.9964 4.81622 15.6207 4.37541 15.1696 4.02137L14.065 5.42905ZM11.7148 7.82946L14.3753 12.7L15.9457 11.8422L13.2852 6.97167L11.7148 7.82946ZM14.3754 12.7C15.0793 13.9884 16.607 14.2452 17.6 14.2452V12.4559C16.723 12.4559 16.1427 12.2027 15.9456 11.8421L14.3754 12.7ZM17.6 14.2452C18.2645 14.2452 18.9017 14.5092 19.3715 14.979L20.6368 13.7138C19.8314 12.9084 18.739 12.4559 17.6 12.4559V14.2452ZM19.3715 14.979C19.8414 15.4489 20.1053 16.0861 20.1053 16.7506H21.8947C21.8947 15.6115 21.4422 14.5192 20.6368 13.7138L19.3715 14.979ZM20.1053 16.7506C20.1053 17.415 19.8414 18.0523 19.3715 18.5221L20.6368 19.7874C21.4422 18.9819 21.8947 17.8896 21.8947 16.7506H20.1053ZM19.3715 18.5221C18.9017 18.9919 18.2645 19.2559 17.6 19.2559V21.0452C18.739 21.0452 19.8314 20.5928 20.6368 19.7874L19.3715 18.5221Z" fill="white" fill-opacity="0.95"/>
</svg>
