<svg width="24" height="24" viewBox="0 0 24 24" fill="none" xmlns="http://www.w3.org/2000/svg">
<path fill-rule="evenodd" clip-rule="evenodd" d="M15.4763 4.74098C15.0624 4.69421 14.6416 4.70777 14.2271 4.78328C13.3703 4.93941 12.5813 5.35297 11.9654 5.96884C11.3496 6.58472 10.936 7.37367 10.7799 8.23055C10.6238 9.08743 10.7325 9.97154 11.0916 10.7651C11.2386 11.09 11.169 11.4721 10.9168 11.7243L4.99532 17.6458C4.81512 17.826 4.71388 18.0704 4.71388 18.3252C4.71388 18.5801 4.81512 18.8245 4.99532 19.0047C5.17553 19.1849 5.41994 19.2861 5.67479 19.2861C5.92963 19.2861 6.17404 19.1849 6.35425 19.0047L12.2757 13.0832C12.5279 12.831 12.91 12.7614 13.2349 12.9084C14.0285 13.2675 14.9126 13.3763 15.7695 13.2201C16.6263 13.064 17.4153 12.6504 18.0312 12.0346C18.647 11.4187 19.0606 10.6297 19.2167 9.77286C19.2922 9.3584 19.3058 8.93757 19.259 8.5237L17.055 10.7277C16.7346 11.0418 16.3039 11.2176 15.8552 11.2176C15.4066 11.2176 14.9759 11.0417 14.6555 10.7277L14.6494 10.7217L13.2723 9.34451C12.9582 9.02414 12.7824 8.59338 12.7824 8.14476C12.7824 7.69615 12.9583 7.26542 13.2723 6.94505L13.2783 6.93893L15.4763 4.74098ZM13.9199 3.09716C15.1196 2.87859 16.3573 3.0308 17.4682 3.53352C17.7245 3.64949 17.9076 3.88388 17.958 4.16063C18.0084 4.43739 17.9198 4.72127 17.7209 4.92019L14.4963 8.14476L15.8552 9.50369L19.0798 6.27911C19.2787 6.08019 19.5626 5.99158 19.8394 6.042C20.1161 6.09243 20.3505 6.27547 20.4665 6.53177C20.9692 7.64269 21.1214 8.88045 20.9028 10.0801C20.6843 11.2797 20.1053 12.3842 19.2431 13.2465C18.3808 14.1087 17.2763 14.6877 16.0767 14.9062C15.0762 15.0885 14.0493 15.0129 13.0915 14.6912L7.56614 20.2166C7.06453 20.7182 6.38418 21 5.67479 21C4.96539 21 4.28505 20.7182 3.78343 20.2166C3.28181 19.715 3 19.0346 3 18.3252C3 17.6158 3.28181 16.9355 3.78343 16.4339L9.30877 10.9085C8.98707 9.95072 8.91147 8.92377 9.09375 7.92333C9.31233 6.72371 9.89131 5.61918 10.7535 4.75695C11.6158 3.89472 12.7203 3.31574 13.9199 3.09716Z" fill="white"/>
</svg>
