<svg width="24" height="24" viewBox="0 0 24 24" fill="none" xmlns="http://www.w3.org/2000/svg">
<path fill-rule="evenodd" clip-rule="evenodd" d="M14.4688 2.86207C15.7181 2.69989 16.9867 2.93775 18.0924 3.54149C18.2998 3.65474 18.4417 3.85911 18.4753 4.09301C18.509 4.32692 18.4304 4.56299 18.2633 4.73009L15.5633 7.43009C15.5284 7.46491 15.5006 7.50643 15.4818 7.55194C15.4629 7.59746 15.4532 7.64624 15.4532 7.69551C15.4532 7.74477 15.4629 7.79355 15.4818 7.83907C15.5006 7.88458 15.5283 7.92593 15.5631 7.96076L16.1632 8.56085C16.1632 8.56087 16.1632 8.56082 16.1632 8.56085C16.2335 8.6311 16.3289 8.67064 16.4283 8.67064C16.5278 8.67064 16.6231 8.63115 16.6935 8.56085L19.3562 5.90113C19.5266 5.73089 19.7684 5.65287 20.0062 5.69142C20.244 5.72997 20.4488 5.88039 20.5567 6.09575C21.1178 7.21543 21.312 8.48337 21.1118 9.71967C20.9117 10.9559 20.3273 12.0976 19.4416 12.983C18.5705 13.8544 17.4504 14.4345 16.236 14.6431C15.1994 14.8212 14.1374 14.7213 13.157 14.3582L6.88675 20.6284C6.88668 20.6284 6.88682 20.6283 6.88675 20.6284C6.70967 20.8055 6.49921 20.9463 6.2678 21.0422C6.03631 21.1381 5.78817 21.1875 5.53758 21.1875C5.28699 21.1875 5.03885 21.1381 4.80736 21.0422C4.57586 20.9463 4.36554 20.8056 4.18841 20.6284L3.37069 19.8099C3.37064 19.8099 3.37073 19.8099 3.37069 19.8099C3.19347 19.6329 3.05276 19.4225 2.95683 19.1911C2.86088 18.9597 2.81149 18.7116 2.81149 18.461C2.81149 18.2105 2.86088 17.9624 2.95683 17.7309C3.05278 17.4995 3.19341 17.2892 3.37069 17.1121L9.64612 10.8409C9.27387 9.83489 9.1789 8.74351 9.37636 7.68236C9.60683 6.44382 10.2238 5.31016 11.1387 4.44413C12.0537 3.57809 13.2195 3.02424 14.4688 2.86207ZM16.404 4.4681C15.84 4.31509 15.2481 4.27349 14.6619 4.34959C13.727 4.47094 12.8546 4.88541 12.1699 5.53349C11.4852 6.18157 11.0235 7.02993 10.851 7.95677C10.6786 8.88361 10.8042 9.84126 11.2099 10.6922C11.3467 10.9791 11.2879 11.3209 11.0631 11.5455L4.43086 18.1733C4.39306 18.211 4.36294 18.256 4.34248 18.3053C4.32202 18.3547 4.31149 18.4076 4.31149 18.461C4.31149 18.5144 4.32202 18.5673 4.34248 18.6167C4.36294 18.666 4.39293 18.7109 4.43072 18.7486L5.2495 19.5681C5.28732 19.606 5.33223 19.636 5.38166 19.6565C5.43109 19.677 5.48407 19.6875 5.53758 19.6875C5.59109 19.6875 5.64407 19.677 5.6935 19.6565C5.74293 19.636 5.78784 19.606 5.82566 19.5681L12.4529 12.9409C12.6776 12.7162 13.0195 12.6575 13.3062 12.7944C14.1384 13.1915 15.0733 13.3209 15.982 13.1648C16.8908 13.0087 17.7289 12.5746 18.3808 11.9225C19.0437 11.2599 19.4813 10.4051 19.6311 9.47989C19.7222 8.91727 19.7042 8.3459 19.5816 7.79604L17.754 9.62167C17.7539 9.62174 17.754 9.62159 17.754 9.62167C17.4024 9.97304 16.9254 10.1706 16.4283 10.1706C15.9311 10.1706 15.4543 9.97317 15.1027 9.62167L14.5028 9.02176C14.5027 9.0217 14.5029 9.02181 14.5028 9.02176C14.3286 8.84766 14.1903 8.6408 14.096 8.41332C14.0017 8.18575 13.9532 7.94184 13.9532 7.69551C13.9532 7.44918 14.0017 7.20526 14.096 6.9777C14.1903 6.75021 14.3285 6.54352 14.5026 6.36943C14.5027 6.36937 14.5026 6.36948 14.5026 6.36943L16.404 4.4681Z" fill="black"/>
</svg>
