<svg width="24" height="24" viewBox="0 0 24 24" fill="none" xmlns="http://www.w3.org/2000/svg">
<path d="M21.9608 9.76549C21.877 9.45087 21.6697 9.18632 21.3766 9.02049C21.0933 8.8598 20.7621 8.81321 20.4417 8.88319C20.4316 8.88484 20.4215 8.88504 20.4114 8.8875C18.2312 9.41598 15.9855 9.70187 13.7369 9.73737H12.6047C13.9279 9.68463 14.9874 8.64533 14.9874 7.37146C14.9874 6.06372 13.8717 5 12.5003 5C11.1283 5 10.0123 6.06372 10.0123 7.37146C10.0123 8.64533 11.0725 9.68463 12.3956 9.73737H11.2635C9.01469 9.70187 6.7689 9.41618 4.58879 8.8875C4.56317 8.88135 4.53733 8.87786 4.51192 8.87663C3.8567 8.75698 3.20644 9.14076 3.03913 9.76549C2.87291 10.3896 3.25144 11.0213 3.8862 11.2161C3.90946 11.2269 3.93422 11.2356 3.96027 11.2419C5.92399 11.7181 7.94261 12.0115 9.96554 12.1203V15.5237C9.35425 15.6895 8.74683 15.8765 8.15815 16.0907C8.14953 16.0938 8.14264 16.0985 8.13446 16.102C7.78995 16.2342 7.51671 16.4821 7.36448 16.8058C7.2088 17.1374 7.19782 17.5072 7.33326 17.8467C7.54341 18.3702 8.07934 18.7222 8.66673 18.7222H11.9885H16.3332C17.1204 18.7222 17.7605 18.1121 17.7605 17.3619C17.7605 16.8017 17.3917 16.2906 16.842 16.0909C16.2529 15.8767 15.6455 15.6897 15.0344 15.5239V12.1205C17.0575 12.0118 19.0762 11.7183 21.0394 11.2421C21.0655 11.2358 21.0903 11.2271 21.1135 11.2165C21.7485 11.0217 22.1272 10.3896 21.9608 9.76549ZM10.7876 7.37125C10.7876 6.4709 11.5559 5.73863 12.5005 5.73863C13.4447 5.73863 14.2127 6.4709 14.2127 7.37125C14.2127 8.2714 13.4449 9.00346 12.5005 9.00346C11.5559 9.00346 10.7876 8.2714 10.7876 7.37125ZM3.7906 9.94773C3.85886 9.69345 4.13102 9.54014 4.39759 9.60335C4.39802 9.60335 4.39802 9.60356 4.39802 9.60356C6.63648 10.1462 8.94213 10.4395 11.2512 10.4762C11.2532 10.4762 11.2553 10.4762 11.2575 10.4762H11.2577H13.7431C13.7457 10.4762 13.7474 10.4762 13.7494 10.4762C16.0587 10.4395 18.3641 10.1462 20.6026 9.60356L20.603 9.60335C20.733 9.57216 20.8663 9.59083 20.9807 9.65569C21.095 9.72054 21.1766 9.82418 21.2093 9.94732C21.2769 10.2018 21.115 10.4614 20.8485 10.5261C18.8163 11.0184 16.7242 11.3136 14.6298 11.4026C14.6193 11.403 14.61 11.4057 14.5999 11.4069C14.5865 11.4084 14.573 11.4096 14.5598 11.4123C14.5475 11.4151 14.5364 11.419 14.5245 11.4227C14.5122 11.4268 14.4997 11.4303 14.4879 11.4355C14.4769 11.4402 14.4664 11.4465 14.456 11.4521C14.4446 11.458 14.4334 11.464 14.4233 11.4708C14.4132 11.4775 14.4044 11.4853 14.3951 11.4927C14.3854 11.5007 14.3757 11.5083 14.3673 11.5169C14.3589 11.5254 14.3518 11.5344 14.3443 11.5432C14.3363 11.5531 14.3284 11.5625 14.3212 11.5728C14.315 11.5824 14.3098 11.5925 14.3045 11.6025C14.2982 11.6138 14.2922 11.6245 14.2872 11.6364C14.2829 11.6468 14.2797 11.6577 14.2767 11.669C14.2728 11.6813 14.2687 11.6932 14.2666 11.706C14.264 11.7174 14.2635 11.7291 14.2627 11.7408C14.2614 11.7515 14.2592 11.7614 14.2592 11.7718V15.7997C14.2592 15.8073 14.2614 15.8145 14.2618 15.8221C14.2627 15.8358 14.2635 15.8492 14.2657 15.8625C14.2683 15.8738 14.2711 15.8849 14.2745 15.896C14.278 15.9079 14.2808 15.9192 14.2859 15.9309C14.2902 15.9422 14.2956 15.9526 14.301 15.9635C14.3068 15.9742 14.3124 15.9844 14.3187 15.9945C14.3204 15.9967 14.3212 15.999 14.323 16.0011H11.9887H10.6772C10.6787 15.999 10.6798 15.9967 10.6813 15.9943C10.6877 15.9842 10.6933 15.974 10.6989 15.9635C10.7043 15.9526 10.7101 15.9422 10.7142 15.9309C10.7189 15.9194 10.7222 15.9079 10.7256 15.896C10.7291 15.8849 10.7321 15.8738 10.7342 15.8623C10.7366 15.8492 10.7375 15.8358 10.7383 15.8225C10.7388 15.8147 10.7409 15.8073 10.7409 15.7997V11.7718C10.7409 11.7612 10.7385 11.7511 10.7375 11.7408C10.7366 11.7291 10.736 11.7174 10.7336 11.7062C10.7314 11.6934 10.7273 11.6813 10.7235 11.669C10.7202 11.6577 10.7172 11.6468 10.7129 11.6362C10.7082 11.6245 10.7017 11.6138 10.6957 11.6027C10.6903 11.5927 10.6851 11.5824 10.6789 11.5728C10.6718 11.5625 10.6638 11.5531 10.6559 11.5434C10.6485 11.5344 10.6412 11.5251 10.6328 11.5169C10.6244 11.5083 10.6147 11.5009 10.6055 11.4933C10.596 11.4855 10.587 11.4777 10.5766 11.4708C10.5667 11.464 10.5555 11.4584 10.5452 11.4527C10.534 11.4467 10.5234 11.4404 10.5118 11.4353C10.5004 11.4305 10.4886 11.427 10.4765 11.4231C10.4644 11.4192 10.4526 11.4151 10.4399 11.4123C10.4272 11.4094 10.4143 11.4084 10.4011 11.4069C10.3906 11.4057 10.3811 11.403 10.3708 11.4026C8.27657 11.3133 6.18431 11.0184 4.15169 10.5261C3.88491 10.4612 3.72299 10.2016 3.7906 9.94773ZM8.05759 17.5834C7.9958 17.4282 8.00075 17.2595 8.07202 17.1081C8.14307 16.9562 8.27184 16.8402 8.4344 16.7811C8.43462 16.7811 8.43483 16.7811 8.43483 16.7811C8.88227 16.6182 9.34198 16.4745 9.8047 16.3401C9.80362 16.3506 9.80147 16.3604 9.80147 16.3709C9.80147 16.5747 9.97502 16.7403 10.189 16.7403H11.9885H13.0112C13.3708 16.7403 13.6634 17.0192 13.6634 17.3619C13.6634 17.7047 13.3708 17.9834 13.0112 17.9834H11.9885H8.66695C8.39866 17.9834 8.15363 17.8225 8.05759 17.5834ZM16.3334 17.9834H14.2795C14.3809 17.7966 14.4388 17.5856 14.4388 17.3619C14.4388 17.1376 14.3807 16.9269 14.2795 16.7403H14.8111C15.0251 16.7403 15.1989 16.5747 15.1989 16.3709C15.1989 16.3602 15.1967 16.3504 15.1954 16.3401C15.658 16.4745 16.1181 16.6182 16.566 16.7811C16.817 16.8725 16.9856 17.1058 16.9856 17.3619C16.9858 17.7047 16.693 17.9834 16.3334 17.9834Z" fill="white"/>
</svg>
