<svg width="24" height="24" viewBox="0 0 24 24" fill="none" xmlns="http://www.w3.org/2000/svg">
<path fill-rule="evenodd" clip-rule="evenodd" d="M11.9371 6.66668L12 6.66659L12.0631 6.66667L12.2456 6.66726C12.4038 6.66794 12.6318 6.6693 12.91 6.67202C13.4668 6.67745 14.2231 6.68832 15.0231 6.71003C15.8243 6.73177 16.6631 6.76421 17.3866 6.81239C18.1186 6.86114 18.6705 6.92257 18.9538 6.98922C19.1993 7.06134 19.4221 7.1958 19.6004 7.37961C19.7763 7.56099 19.9029 7.7842 19.9683 8.02799C20.2198 9.43319 20.3419 10.8585 20.3329 12.2861L20.3329 12.2943C20.338 13.7004 20.2159 15.104 19.9683 16.488C19.9029 16.7318 19.7763 16.955 19.6004 17.1364C19.42 17.3223 19.1941 17.4577 18.9452 17.5292C18.6712 17.6014 18.1214 17.6692 17.3813 17.7232C16.6593 17.7759 15.8216 17.8114 15.0209 17.8352C14.2216 17.8589 13.4657 17.8708 12.9093 17.8768C12.6312 17.8798 12.4034 17.8812 12.2452 17.882L12.0629 17.8826H11.9371L11.7548 17.882C11.5966 17.8812 11.3688 17.8798 11.0907 17.8768C10.5343 17.8708 9.77842 17.8589 8.97906 17.8352C8.17837 17.8114 7.34072 17.7759 6.61869 17.7232C5.87546 17.669 5.32404 17.6008 5.05128 17.5283C4.80612 17.4608 4.58243 17.3314 4.40168 17.1525C4.22915 16.9818 4.10129 16.7714 4.02911 16.5401C3.77931 15.1396 3.65817 13.7192 3.6671 12.2966L3.66705 12.2872C3.66005 10.8704 3.78212 9.45593 4.03172 8.06131C4.09713 7.81752 4.22371 7.59431 4.39964 7.41294C4.58 7.227 4.80589 7.09157 5.05479 7.02006C5.32875 6.94791 5.87863 6.88007 6.61869 6.82609C7.34072 6.77343 8.17837 6.73793 8.97906 6.71413C9.77842 6.69038 10.5343 6.67848 11.0907 6.67253C11.3688 6.66955 11.5966 6.66807 11.7548 6.66733L11.9371 6.66668ZM12.0664 5.00009L11.9999 5L11.9334 5.0001L11.7469 5.00076C11.5859 5.00151 11.3547 5.00302 11.0729 5.00604C10.5096 5.01206 9.74263 5.02412 8.92956 5.04828C8.11783 5.0724 7.25347 5.10878 6.49745 5.16392C5.76474 5.21736 5.06307 5.29268 4.61838 5.41161L4.60682 5.41479C4.07344 5.56569 3.58933 5.85468 3.20338 6.25256C2.81743 6.65045 2.54332 7.14314 2.40873 7.68087C2.40422 7.69888 2.40031 7.71704 2.39702 7.73531C2.12594 9.23849 1.9932 10.7634 2.00046 12.2908C1.99109 13.8297 2.12384 15.3662 2.39703 16.8807C2.40191 16.9078 2.40813 16.9346 2.41566 16.961C2.56404 17.482 2.84429 17.956 3.22934 18.3371C3.61439 18.7181 4.09122 18.9935 4.61375 19.1365L4.61838 19.1377C5.06307 19.2566 5.76474 19.3319 6.49745 19.3854C7.25347 19.4405 8.11783 19.4769 8.92956 19.501C9.74263 19.5252 10.5096 19.5372 11.0729 19.5433C11.3547 19.5463 11.5859 19.5478 11.7469 19.5485L11.9334 19.5492L12.0004 19.5493L12.0666 19.5492L12.2531 19.5485C12.4141 19.5478 12.6453 19.5463 12.9271 19.5433C13.4904 19.5372 14.2574 19.5252 15.0704 19.501C15.8822 19.4769 16.7465 19.4405 17.5025 19.3854C18.2353 19.3319 18.9369 19.2566 19.3816 19.1377L19.3932 19.1345C19.9266 18.9836 20.4107 18.6946 20.7966 18.2967C21.1826 17.8989 21.4567 17.4062 21.5913 16.8684C21.5958 16.8504 21.5997 16.8323 21.603 16.814C21.872 15.3219 22.0047 13.8085 21.9995 12.2924C22.0089 10.7533 21.8762 9.21664 21.603 7.70194L20.7829 7.84986L21.5913 7.64753C21.4567 7.1098 21.1826 6.61712 20.7966 6.21923C20.4107 5.82135 19.9266 5.53236 19.3932 5.38146C19.3835 5.37872 19.3738 5.37615 19.364 5.37377C18.9259 5.26679 18.2303 5.19831 17.4973 5.14949C16.7427 5.09924 15.8795 5.06607 15.0683 5.04405C14.2558 5.02201 13.4893 5.01101 12.9263 5.00551C12.6447 5.00276 12.4136 5.00138 12.2527 5.00069L12.0664 5.00009ZM10.537 8.84208C10.2791 8.69539 9.96259 8.69694 9.7061 8.84614C9.4496 8.99535 9.2918 9.2697 9.2918 9.56644V15.0162C9.2918 15.3129 9.4496 15.5873 9.7061 15.7365C9.96259 15.8857 10.2791 15.8872 10.537 15.7405L15.3285 13.0157C15.5889 12.8675 15.7498 12.591 15.7498 12.2913C15.7498 11.9917 15.5889 11.7151 15.3285 11.567L10.537 8.84208ZM13.2309 12.2913L10.9584 13.5837V10.9989L13.2309 12.2913Z" fill="white"/>
</svg>
