<svg width="24" height="24" viewBox="0 0 24 24" fill="none" xmlns="http://www.w3.org/2000/svg">
<path fill-rule="evenodd" clip-rule="evenodd" d="M13.3258 3.06771C13.6589 3.21234 13.8569 3.5593 13.8118 3.91971L13.1086 9.54547H19.5454C19.8628 9.54547 20.1517 9.72912 20.2863 10.0166C20.421 10.3041 20.3772 10.6435 20.1739 10.8874L11.9921 20.7056C11.7596 20.9846 11.371 21.0769 11.0378 20.9323C10.7046 20.7877 10.5067 20.4407 10.5517 20.0803L11.255 14.4545H4.81819C4.50072 14.4545 4.21191 14.2709 4.07725 13.9834C3.9426 13.6959 3.98641 13.3565 4.18965 13.1126L12.3714 3.29444C12.6039 3.01541 12.9926 2.92308 13.3258 3.06771ZM6.56503 12.8182H12.1818C12.4165 12.8182 12.6398 12.9189 12.7952 13.0949C12.9505 13.2708 13.0228 13.505 12.9936 13.7378L12.5216 17.5141L17.7985 11.1818H12.1818C11.9471 11.1818 11.7237 11.0811 11.5684 10.9051C11.4131 10.7292 11.3408 10.495 11.3699 10.2622L11.842 6.48586L6.56503 12.8182Z" fill="white"/>
</svg>
