<svg width="24" height="24" viewBox="0 0 24 24" fill="none" xmlns="http://www.w3.org/2000/svg">
<path fill-rule="evenodd" clip-rule="evenodd" d="M11.2 5.6C8.1072 5.6 5.6 8.1072 5.6 11.2C5.6 14.2928 8.1072 16.8 11.2 16.8C12.7088 16.8 14.0783 16.2033 15.0852 15.233C15.1062 15.2057 15.1293 15.1794 15.1543 15.1544C15.1793 15.1293 15.2056 15.1063 15.2329 15.0853C16.2033 14.0783 16.8 12.7088 16.8 11.2C16.8 8.1072 14.2928 5.6 11.2 5.6ZM11.2 18.4C12.9 18.4 14.4624 17.8108 15.6941 16.8255L18.6343 19.7657C18.9467 20.0781 19.4532 20.0781 19.7657 19.7657C20.0781 19.4533 20.0781 18.9468 19.7657 18.6343L16.8255 15.6942C17.8108 14.4624 18.4 12.9 18.4 11.2C18.4 7.22355 15.1764 4 11.2 4C7.22355 4 4 7.22355 4 11.2C4 15.1764 7.22355 18.4 11.2 18.4ZM8.8 10.3999C8.35817 10.3999 8 10.7581 8 11.1999C8 11.6418 8.35817 11.9999 8.8 11.9999H13.6C14.0418 11.9999 14.4 11.6418 14.4 11.1999C14.4 10.7581 14.0418 10.3999 13.6 10.3999H8.8Z" fill="white"/>
</svg>
