<svg width="24" height="24" viewBox="0 0 24 24" fill="none" xmlns="http://www.w3.org/2000/svg">
<path fill-rule="evenodd" clip-rule="evenodd" d="M5.6 11.2C5.6 8.1072 8.1072 5.6 11.2 5.6C14.2928 5.6 16.8 8.1072 16.8 11.2C16.8 12.7089 16.2032 14.0783 15.2329 15.0853C15.2056 15.1063 15.1793 15.1293 15.1543 15.1544C15.1293 15.1794 15.1063 15.2056 15.0853 15.2329C14.0783 16.2033 12.7088 16.8 11.2 16.8C8.1072 16.8 5.6 14.2928 5.6 11.2ZM15.6941 16.8255C14.4624 17.8108 12.9 18.4 11.2 18.4C7.22355 18.4 4 15.1764 4 11.2C4 7.22355 7.22355 4 11.2 4C15.1764 4 18.4 7.22355 18.4 11.2C18.4 12.9 17.8108 14.4624 16.8255 15.6942L19.7657 18.6343C20.0781 18.9468 20.0781 19.4533 19.7657 19.7657C19.4533 20.0781 18.9467 20.0781 18.6343 19.7657L15.6941 16.8255ZM11.2 8C11.6418 8 12 8.35817 12 8.8V10.3999H13.6C14.0418 10.3999 14.4 10.7581 14.4 11.1999C14.4 11.6418 14.0418 11.9999 13.6 11.9999H12V13.6C12 14.0418 11.6418 14.4 11.2 14.4C10.7582 14.4 10.4 14.0418 10.4 13.6V11.9999H8.8C8.35817 11.9999 8 11.6418 8 11.1999C8 10.7581 8.35817 10.3999 8.8 10.3999H10.4V8.8C10.4 8.35817 10.7582 8 11.2 8Z" fill="white"/>
</svg>
