<svg width="24" height="24" viewBox="0 0 15 15" fill="none" xmlns="http://www.w3.org/2000/svg">
<path fill-rule="evenodd" clip-rule="evenodd" d="M3.65249 3.12598C3.59577 3.12598 3.54137 3.14851 3.50126 3.18862C3.46115 3.22872 3.43862 3.28312 3.43862 3.33984V9.75586C3.43862 9.81258 3.46115 9.86698 3.50126 9.90709C3.54137 9.94719 3.59577 9.96973 3.65249 9.96973H4.93569C5.17192 9.96973 5.36343 10.1612 5.36343 10.3975V11.4668L7.24546 10.0553C7.3195 9.99974 7.40955 9.96973 7.5021 9.96973H11.9933C12.05 9.96973 12.1044 9.94719 12.1445 9.90709C12.1846 9.86698 12.2072 9.81258 12.2072 9.75586V3.33984C12.2072 3.28312 12.1846 3.22873 12.1445 3.18862C12.1044 3.14851 12.05 3.12598 11.9933 3.12598H3.65249ZM2.89635 2.58371C3.09689 2.38317 3.36888 2.27051 3.65249 2.27051H11.9933C12.2769 2.27051 12.5489 2.38317 12.7494 2.58371C12.95 2.78425 13.0626 3.05624 13.0626 3.33984V9.75586C13.0626 10.0395 12.95 10.3115 12.7494 10.512C12.5489 10.7125 12.2769 10.8252 11.9933 10.8252H7.64468L5.19233 12.6645C5.06272 12.7617 4.88931 12.7773 4.7444 12.7048C4.59949 12.6324 4.50796 12.4843 4.50796 12.3223V10.8252H3.65249C3.36888 10.8252 3.09689 10.7125 2.89635 10.512C2.69581 10.3115 2.58315 10.0395 2.58315 9.75586V3.33984C2.58315 3.05624 2.69581 2.78425 2.89635 2.58371Z" fill="#ffffff"/>
</svg>
