<svg width="24" height="24" viewBox="0 0 24 24" fill="none" xmlns="http://www.w3.org/2000/svg">
<path d="M4.36057 17.7835L5.15438 19.1546C5.31933 19.4433 5.55644 19.6701 5.83479 19.835L8.66982 14.9278H2.99976C2.99976 15.2474 3.08223 15.567 3.24718 15.8557L4.36057 17.7835Z" fill="#0066DA"/>
<path d="M11.9997 9.15474L9.16467 4.24755C8.88632 4.4125 8.64921 4.6393 8.48426 4.92796L3.24718 14.0001C3.08526 14.2825 2.99997 14.6023 2.99976 14.9279H8.66982L11.9997 9.15474Z" fill="#00AC47"/>
<path d="M18.1647 19.835C18.4431 19.6701 18.6802 19.4433 18.8451 19.1546L19.175 18.5876L20.7523 15.8557C20.9173 15.567 20.9998 15.2474 20.9998 14.9278H15.3293L16.5359 17.299L18.1647 19.835Z" fill="#EA4335"/>
<path d="M11.9998 9.1546L14.8348 4.24742C14.5565 4.08247 14.2369 4 13.907 4H10.0926C9.76267 4 9.44308 4.09278 9.16473 4.24742L11.9998 9.1546Z" fill="#00832D"/>
<path d="M15.3296 14.9278H8.66987L5.83484 19.835C6.11319 20 6.43277 20.0825 6.76267 20.0825H17.2368C17.5667 20.0825 17.8863 19.9897 18.1647 19.835L15.3296 14.9278Z" fill="#2684FC"/>
<path d="M18.1338 9.46402L15.5153 4.92796C15.3503 4.6393 15.1132 4.4125 14.8349 4.24755L11.9998 9.15474L15.3297 14.9279H20.9895C20.9895 14.6083 20.907 14.2887 20.742 14.0001L18.1338 9.46402Z" fill="#FFBA00"/>
</svg>
