<svg width="20" height="20" viewBox="0 0 20 20" fill="none" xmlns="http://www.w3.org/2000/svg">
<path d="M5.16109 12.4089C5.7651 15.3048 7.10133 17.0154 9.71616 17.0154C11.6757 17.0154 12.9478 16.2187 13.8215 14.619C14.4447 13.6232 14.8816 12.2547 15.2414 11.0726C15.4341 10.4622 15.6975 9.69129 15.7168 9.35078C15.7425 8.9653 15.4919 8.68904 15.1064 8.66334C14.6631 8.63122 14.3869 8.88821 14.1106 9.46642L13.2112 11.4002C13.1277 11.593 13.0377 11.6572 12.9349 11.6572C12.8193 11.6572 12.7357 11.593 12.7357 11.381L13.0317 4.59488C13.0317 4.17728 12.704 3.84963 12.2864 3.84963C11.8752 3.84963 11.5476 4.17728 11.5476 4.59488L11.2517 9.53067C11.0846 9.47285 10.9047 9.42145 10.7184 9.3829L10.5623 3.73061C10.5623 3.31301 10.2347 2.98535 9.81707 2.98535C9.40589 2.98535 9.07823 3.31301 9.07823 3.73061L9.23431 9.31223C9.04157 9.33151 8.85526 9.3572 8.66894 9.38933L8.01482 4.21107C8.01482 3.79989 7.68717 3.47223 7.27599 3.47223C6.85839 3.47223 6.53073 3.79989 6.53073 4.21107L7.13064 9.81071C6.9379 9.90065 6.68869 10.0361 6.52165 10.1453L5.7651 6.21555C5.7651 5.80438 5.43744 5.47672 5.02626 5.47672C4.60866 5.47672 4.28101 5.80438 4.28101 6.21555L5.16109 12.4089Z" fill="#FAC919"/>
<path fill-rule="evenodd" clip-rule="evenodd" d="M3.93743 12.6641C3.93194 12.6378 3.9273 12.6114 3.92352 12.5848L3.04344 6.39141C3.03516 6.33316 3.03101 6.27439 3.03101 6.21555C3.03101 5.10695 3.9254 4.22672 5.02626 4.22672C5.11265 4.22672 5.19771 4.23218 5.28113 4.24276C5.28087 4.2322 5.28073 4.22163 5.28073 4.21107C5.28073 3.10246 6.17512 2.22223 7.27599 2.22223C7.63547 2.22223 7.97213 2.31673 8.26258 2.48233C8.62532 2.02706 9.18395 1.73535 9.81707 1.73535C10.5631 1.73535 11.2091 2.13765 11.5515 2.73873C11.7783 2.64896 12.026 2.59963 12.2864 2.59963C13.3944 2.59963 14.2817 3.48693 14.2817 4.59488C14.2817 4.61304 14.2813 4.6312 14.2805 4.64934L14.1513 7.61163C14.4754 7.4528 14.8296 7.39058 15.1932 7.41636C15.6683 7.44886 16.1464 7.64575 16.498 8.03938C16.8513 8.43483 16.9953 8.93801 16.9645 9.42673C16.9443 9.76537 16.8274 10.1795 16.7426 10.4657C16.6744 10.6957 16.5924 10.9514 16.5188 11.1811C16.4891 11.2737 16.4608 11.3621 16.4353 11.4428C16.0872 12.5862 15.6143 14.0966 14.9008 15.2504C14.384 16.1863 13.7098 16.9601 12.8142 17.4919C11.9087 18.0296 10.8686 18.2654 9.71616 18.2654C8.10247 18.2654 6.76945 17.7219 5.77042 16.6506C4.81352 15.6246 4.26191 14.2199 3.93743 12.6641ZM13.8215 14.619C14.4447 13.6232 14.8816 12.2547 15.2414 11.0726C15.2709 10.9792 15.302 10.882 15.3337 10.7832C15.509 10.2364 15.7005 9.63918 15.7168 9.35078C15.7425 8.9653 15.4919 8.68904 15.1064 8.66334C14.6631 8.63122 14.3869 8.88821 14.1106 9.46642L13.2112 11.4002C13.211 11.4007 13.2108 11.4012 13.2106 11.4017C13.1272 11.5933 13.0374 11.6572 12.9349 11.6572C12.8193 11.6572 12.7357 11.593 12.7357 11.381L13.0317 4.59488C13.0317 4.17728 12.704 3.84963 12.2864 3.84963C12.1091 3.84963 11.9473 3.91057 11.8206 4.01339C11.6536 4.14898 11.5476 4.35739 11.5476 4.59488L11.2517 9.53067C11.0846 9.47285 10.9047 9.42145 10.7184 9.3829L10.5623 3.73061C10.5623 3.69017 10.5593 3.65057 10.5533 3.61203C10.498 3.25262 10.1942 2.98535 9.81707 2.98535C9.49641 2.98535 9.22654 3.18462 9.12327 3.47043C9.09411 3.5511 9.07823 3.63868 9.07823 3.73061L9.23431 9.31223C9.04157 9.33151 8.85526 9.3572 8.66895 9.38933L8.01482 4.21107C8.01482 4.04259 7.95981 3.88813 7.86659 3.76449C7.85786 3.75292 7.8488 3.74162 7.83943 3.73061C7.83576 3.7263 7.83204 3.72204 7.82827 3.71781C7.69345 3.56669 7.49676 3.47223 7.27599 3.47223C6.85839 3.47223 6.53073 3.79989 6.53073 4.21107L7.13064 9.81071C6.9379 9.90065 6.68869 10.0361 6.52165 10.1453L5.7651 6.21555C5.7651 5.95016 5.6286 5.71957 5.42125 5.58941C5.30734 5.51791 5.17205 5.47672 5.02626 5.47672C4.60866 5.47672 4.28101 5.80438 4.28101 6.21555L5.16109 12.4089C5.7651 15.3048 7.10133 17.0154 9.71616 17.0154C11.6757 17.0154 12.9478 16.2187 13.8215 14.619Z" fill="#212121"/>
</svg>
