<svg width="24" height="24" viewBox="0 0 24 24" fill="none" xmlns="http://www.w3.org/2000/svg">
<path d="M21.5797 16.4183L21.5797 7.22202C21.5797 6.11745 20.6843 5.22202 19.5797 5.22202L4.42089 5.22202C3.31632 5.22202 2.42089 6.11745 2.42089 7.22202L2.42089 16.4183C2.42089 17.5229 3.31632 18.4183 4.42089 18.4183L8.17409 18.4183L16.2515 18.4183L19.5797 18.4183C20.6843 18.4183 21.5797 17.5229 21.5797 16.4183Z" fill="#2F80FF"/>
<path fill-rule="evenodd" clip-rule="evenodd" d="M7.67473 14.5821C7.28421 14.1916 7.2842 13.5584 7.67473 13.1679L11.4247 9.41789C11.6123 9.23036 11.8666 9.125 12.1318 9.125C12.3971 9.125 12.6514 9.23036 12.8389 9.41789L16.589 13.1679C16.9795 13.5584 16.9795 14.1916 16.589 14.5821C16.1984 14.9727 15.5653 14.9727 15.1748 14.5821L13.1318 12.5392L13.1318 19.9307C13.1318 20.4829 12.6841 20.9307 12.1318 20.9307C11.5796 20.9307 11.1318 20.4829 11.1318 19.9307L11.1318 12.5392L9.08894 14.5821C8.69842 14.9727 8.06526 14.9727 7.67473 14.5821Z" fill="white"/>
<path fill-rule="evenodd" clip-rule="evenodd" d="M9.08894 14.5821C8.69842 14.9727 8.06526 14.9727 7.67473 14.5821C7.28421 14.1916 7.2842 13.5584 7.67473 13.1679L11.4247 9.41789C11.6123 9.23036 11.8666 9.125 12.1318 9.125C12.3971 9.125 12.6514 9.23035 12.8389 9.41789L16.589 13.1679C16.9795 13.5584 16.9795 14.1916 16.589 14.5821C16.1984 14.9727 15.5653 14.9727 15.1748 14.5821L13.1318 12.5392L13.1318 19.9307C13.1318 20.4829 12.6841 20.9307 12.1318 20.9307C11.5796 20.9307 11.1318 20.4829 11.1318 19.9307L11.1318 12.5392L9.08894 14.5821ZM9.63184 16.0408L9.63184 19.9307C9.63184 21.3114 10.7511 22.4307 12.1318 22.4307C13.5125 22.4307 14.6318 21.3114 14.6318 19.9307L14.6318 16.0408C15.5879 16.5934 16.8317 16.4608 17.6496 15.6428C18.6259 14.6665 18.6259 13.0836 17.6496 12.1073L13.8996 8.35723C13.4308 7.88839 12.7949 7.625 12.1318 7.625C11.4688 7.625 10.8329 7.88839 10.3641 8.35724L6.61406 12.1073C5.63775 13.0836 5.63776 14.6665 6.61407 15.6428C7.43203 16.4607 8.67576 16.5934 9.63184 16.0408Z" fill="black"/>
</svg>
