<svg width="24" height="24" viewBox="0 0 24 24" fill="none" xmlns="http://www.w3.org/2000/svg">
<path fill-rule="evenodd" clip-rule="evenodd" d="M4.18212 1.54858C4.51349 1.54858 4.78212 1.81721 4.78212 2.14858V3.23608H5.86962C6.20099 3.23608 6.46962 3.50471 6.46962 3.83608C6.46962 4.16745 6.20099 4.43608 5.86962 4.43608H4.78212V5.52358C4.78212 5.85495 4.51349 6.12358 4.18212 6.12358C3.85075 6.12358 3.58212 5.85495 3.58212 5.52358V4.43608H2.49462C2.16325 4.43608 1.89462 4.16745 1.89462 3.83608C1.89462 3.50471 2.16325 3.23608 2.49462 3.23608H3.58212V2.14858C3.58212 1.81721 3.85075 1.54858 4.18212 1.54858ZM21.6461 12C21.9775 12 22.2461 12.2686 22.2461 12.6V13.6875H23.3336C23.665 13.6875 23.9336 13.9561 23.9336 14.2875C23.9336 14.6189 23.665 14.8875 23.3336 14.8875H22.2461V15.975C22.2461 16.3064 21.9775 16.575 21.6461 16.575C21.3147 16.575 21.0461 16.3064 21.0461 15.975V14.8875H19.9586C19.6272 14.8875 19.3586 14.6189 19.3586 14.2875C19.3586 13.9561 19.6272 13.6875 19.9586 13.6875H21.0461V12.6C21.0461 12.2686 21.3147 12 21.6461 12ZM3.09462 14.6741C3.09462 14.3428 2.82599 14.0741 2.49462 14.0741C2.16325 14.0741 1.89462 14.3428 1.89462 14.6741V15.7616H0.807123C0.475752 15.7616 0.207123 16.0303 0.207123 16.3616C0.207123 16.693 0.475752 16.9616 0.807123 16.9616H1.89462V18.0491C1.89462 18.3805 2.16325 18.6491 2.49462 18.6491C2.82599 18.6491 3.09462 18.3805 3.09462 18.0491V16.9616H4.18212C4.51349 16.9616 4.78212 16.693 4.78212 16.3616C4.78212 16.0303 4.51349 15.7616 4.18212 15.7616H3.09462V14.6741ZM12.8465 4.21803L12.7363 3.99975L12.7346 3.99641C12.6353 3.80247 12.4844 3.63971 12.2985 3.52605C12.1127 3.41239 11.899 3.35225 11.6811 3.35225C11.4632 3.35225 11.2496 3.41239 11.0637 3.52605C10.8778 3.63971 10.7269 3.80247 10.6276 3.99641L8.61292 7.99139L4.78252 8.37086C4.56109 8.39044 4.34971 8.47246 4.17299 8.60746C3.99463 8.74372 3.85905 8.92822 3.7823 9.13914C3.70554 9.35005 3.69083 9.57855 3.73991 9.79756C3.78899 10.0166 3.89979 10.2169 4.05921 10.3749L7.24001 13.5252L6.0625 17.8026L6.06095 17.8083C6.00262 18.0279 6.00899 18.2598 6.0793 18.4759C6.14962 18.6921 6.28088 18.8833 6.45731 19.0266C6.63373 19.17 6.8478 19.2593 7.07377 19.2838C7.29897 19.3082 7.52643 19.2673 7.72898 19.166L7.73106 19.1649L11.6811 17.2087L15.637 19.1675L15.6392 19.1686C15.8418 19.27 16.0692 19.3108 16.2943 19.2864C16.5203 19.2619 16.7344 19.1726 16.9108 19.0292C17.0872 18.8859 17.2185 18.6947 17.2888 18.4785C17.3591 18.2624 17.3655 18.0305 17.3071 17.8109L16.128 13.5276L19.3063 10.3775C19.4657 10.2196 19.5765 10.0192 19.6256 9.80016C19.6747 9.58114 19.66 9.35265 19.5832 9.14174C19.5065 8.93082 19.3709 8.74632 19.1925 8.61007C19.0158 8.47507 18.8044 8.39304 18.583 8.37347L14.7524 7.99398L12.8465 4.21803Z" fill="#FAC919"/>
</svg>
