<svg width="24" height="24" viewBox="0 0 24 24" fill="none" xmlns="http://www.w3.org/2000/svg">
<path fill-rule="evenodd" clip-rule="evenodd" d="M3.52643 16.8138C3.98355 16.3566 4.60353 16.0998 5.25 16.0998H5.81025C6.22446 16.0998 6.56025 16.4356 6.56025 16.8498C6.56025 17.264 6.22446 17.5998 5.81025 17.5998H5.25C5.00136 17.5998 4.7629 17.6986 4.58709 17.8744C4.41127 18.0502 4.3125 18.2887 4.3125 18.5373C4.3125 18.786 4.41127 19.0244 4.58709 19.2002C4.7629 19.3761 5.00136 19.4748 5.25 19.4748H17.0625C17.4767 19.4748 17.8125 19.8106 17.8125 20.2248C17.8125 20.639 17.4767 20.9748 17.0625 20.9748H5.25C4.60353 20.9748 3.98355 20.718 3.52643 20.2609C3.06931 19.8038 2.8125 19.1838 2.8125 18.5373C2.8125 17.8909 3.06931 17.2709 3.52643 16.8138Z" fill="#ED4C5A"/>
<path d="M20.2835 5.01982L18.9778 6.31353L17.8279 7.43954L11.5672 13.6999L9.18163 11.4283L15.504 5.12763L16.642 3.97766L17.9477 2.69592C18.5825 2.06104 19.3133 2.00115 19.9002 2.58811L20.3674 3.06727C20.9544 3.66621 20.9304 4.37296 20.2835 5.01982Z" fill="white"/>
<path d="M7.58782 14.6726L8.76175 11.8456L11.1282 14.1551L8.18677 15.2955C7.8274 15.4273 7.45606 15.032 7.58782 14.6726Z" fill="white"/>
</svg>
