<svg width="24" height="24" viewBox="0 0 24 24" fill="none" xmlns="http://www.w3.org/2000/svg">
<path fill-rule="evenodd" clip-rule="evenodd" d="M16.3411 5.29655C16.1458 5.10129 16.1458 4.7847 16.3411 4.58944L18.553 2.37748C18.7483 2.18221 19.0649 2.18221 19.2602 2.37748C19.4554 2.57274 19.4554 2.88932 19.2602 3.08458L17.0482 5.29655C16.8529 5.49181 16.5363 5.49181 16.3411 5.29655ZM0.767701 8.28347C0.572438 8.47873 0.572438 8.79532 0.767701 8.99058C0.962963 9.18584 1.27955 9.18584 1.47481 8.99058L7.34878 3.11661C7.54404 2.92135 7.54404 2.60476 7.34878 2.4095C7.15351 2.21424 6.83693 2.21424 6.64167 2.4095L0.767701 8.28347ZM0.814064 4.27725C0.618802 4.47251 0.618802 4.78909 0.814064 4.98435C1.00933 5.17961 1.32591 5.17961 1.52117 4.98435L3.38255 3.12297C3.57781 2.92771 3.57781 2.61113 3.38255 2.41587C3.18729 2.22061 2.87071 2.22061 2.67544 2.41587L0.814064 4.27725ZM0.755371 12.9626C0.560109 12.7674 0.560109 12.4508 0.755371 12.2555L10.5692 2.44164C10.7645 2.24638 11.0811 2.24638 11.2764 2.44164C11.4716 2.6369 11.4716 2.95349 11.2764 3.14875L1.46248 12.9626C1.26722 13.1579 0.950634 13.1579 0.755371 12.9626ZM13.36 3.6108C13.1647 3.80607 13.1647 4.12265 13.36 4.31791C13.5553 4.51317 13.8718 4.51317 14.0671 4.31791L15.264 3.12101C15.4593 2.92575 15.4593 2.60917 15.264 2.41391C15.0687 2.21865 14.7522 2.21865 14.5569 2.41391L13.36 3.6108ZM0.770981 16.9069C0.575719 16.7116 0.575719 16.3951 0.770981 16.1998L5.61267 11.3581C5.80794 11.1628 6.12452 11.1628 6.31978 11.3581C6.51504 11.5534 6.51504 11.8699 6.31978 12.0652L1.47809 16.9069C1.28283 17.1022 0.966243 17.1022 0.770981 16.9069ZM0.759079 20.1715C0.563817 20.3667 0.563817 20.6833 0.759079 20.8786C0.954341 21.0738 1.27092 21.0738 1.46619 20.8786L7.0891 15.2557C7.28436 15.0604 7.28436 14.7438 7.0891 14.5486C6.89384 14.3533 6.57725 14.3533 6.38199 14.5486L0.759079 20.1715ZM17.6205 7.26974C17.4253 7.465 17.4253 7.78158 17.6205 7.97685C17.8158 8.17211 18.1324 8.17211 18.3276 7.97685L23.0804 3.22412C23.2756 3.02886 23.2756 2.71227 23.0804 2.51701C22.8851 2.32175 22.5685 2.32175 22.3733 2.51701L17.6205 7.26974ZM17.5973 11.96C17.402 11.7647 17.402 11.4482 17.5973 11.2529L22.3906 6.45955C22.5859 6.26429 22.9025 6.26429 23.0977 6.45955C23.293 6.65481 23.293 6.97139 23.0977 7.16666L18.3044 11.96C18.1091 12.1553 17.7926 12.1553 17.5973 11.96ZM17.9724 14.8375C17.7772 15.0328 17.7772 15.3494 17.9724 15.5447C18.1677 15.7399 18.4843 15.7399 18.6795 15.5447L23.107 11.1172C23.3023 10.9219 23.3023 10.6053 23.107 10.4101C22.9118 10.2148 22.5952 10.2148 22.3999 10.4101L17.9724 14.8375ZM19.2185 18.2584C19.0232 18.0631 19.0232 17.7466 19.2185 17.5513L22.4665 14.3032C22.6618 14.1079 22.9784 14.1079 23.1737 14.3032C23.3689 14.4985 23.3689 14.8151 23.1737 15.0103L19.9256 18.2584C19.7303 18.4537 19.4137 18.4537 19.2185 18.2584ZM20.2199 20.2265C20.0246 20.4217 20.0246 20.7383 20.2199 20.9336C20.4151 21.1288 20.7317 21.1288 20.927 20.9336L23.1211 18.7395C23.3163 18.5442 23.3163 18.2276 23.1211 18.0324C22.9258 17.8371 22.6092 17.8371 22.414 18.0324L20.2199 20.2265Z" fill="#12B536"/>
<path fill-rule="evenodd" clip-rule="evenodd" d="M12 6.70584C11.0939 6.70584 10.2249 7.06578 9.58425 7.70647C8.94356 8.34716 8.58362 9.21613 8.58362 10.1222C8.58362 11.0283 8.94356 11.8973 9.58425 12.5379C10.2249 13.1786 11.0939 13.5386 12 13.5386C12.9061 13.5386 13.775 13.1786 14.4157 12.5379C15.0564 11.8973 15.4164 11.0283 15.4164 10.1222C15.4164 9.21613 15.0564 8.34716 14.4157 7.70647C13.775 7.06578 12.9061 6.70584 12 6.70584ZM6.0878 20.5812C6.053 20.9717 6.34135 21.3165 6.73183 21.3513H17.2682C17.6587 21.3165 17.947 20.9717 17.9122 20.5812C17.7891 19.2002 17.1854 17.8994 16.1971 16.9111C15.084 15.798 13.5742 15.1726 12 15.1726C10.4258 15.1726 8.91602 15.798 7.80288 16.9111C6.81463 17.8994 6.21087 19.2002 6.0878 20.5812Z" fill="white"/>
</svg>
