<svg width="24" height="24" viewBox="0 0 24 24" fill="none" xmlns="http://www.w3.org/2000/svg">
<path d="M20.6216 7.64319C20.417 6.86592 19.8034 6.25229 19.0261 6.03751C17.625 5.6591 12 5.6591 12 5.6591C12 5.6591 6.375 5.6591 4.96364 6.03751C4.18636 6.24206 3.58295 6.85569 3.36818 7.64319C3 9.05456 3 12 3 12C3 12 3 14.9455 3.37841 16.3568C3.58295 17.1341 4.19659 17.7477 4.97386 17.9625C6.375 18.3409 12 18.3409 12 18.3409C12 18.3409 17.625 18.3409 19.0364 17.9625C19.8136 17.758 20.417 17.1443 20.6318 16.3568C21 14.9455 21 12 21 12C21 12 21 9.05456 20.6216 7.64319Z" fill="#EE3124"/>
<path d="M10.1591 14.6796V9.32047L14.8636 12L10.1591 14.6796Z" fill="white"/>
</svg>
