<svg width="184" height="133" viewBox="0 0 184 133" fill="none" xmlns="http://www.w3.org/2000/svg">
<path fill-rule="evenodd" clip-rule="evenodd" d="M144.885 91.3998C145.318 91.023 145.861 90.7947 146.433 90.7483L146.446 90.7473L169.355 89.1614C169.702 89.1376 170.049 89.2101 170.358 89.3712C170.662 89.5305 170.918 89.7702 171.096 90.0642C171.098 90.0672 171.1 90.0703 171.102 90.0734L171.104 90.0766C171.281 90.3744 171.373 90.7154 171.369 91.062C171.365 91.4097 171.265 91.7496 171.08 92.044L158.85 111.504C158.539 111.986 158.081 112.356 157.544 112.56C157.007 112.764 156.419 112.791 155.866 112.636C155.313 112.482 154.823 112.155 154.469 111.703C154.115 111.25 153.915 110.697 153.898 110.123C153.898 110.109 153.898 110.094 153.898 110.08L153.996 100.307L145.347 95.7858C145.334 95.779 145.321 95.7721 145.308 95.7649C144.811 95.4785 144.417 95.0404 144.186 94.5146C143.955 93.9888 143.898 93.4029 144.024 92.8425C144.15 92.2821 144.451 91.7765 144.885 91.3998ZM167.441 91.0088L146.603 92.8952C146.49 92.9053 146.383 92.9508 146.298 93.0251C146.211 93.1005 146.151 93.2016 146.125 93.3137C146.1 93.4257 146.112 93.5429 146.158 93.6481C146.202 93.7484 146.276 93.8327 146.369 93.89L155.26 98.296L167.441 91.0088ZM156.32 100.171L168.547 92.8564L157.039 110.339C156.976 110.434 156.886 110.506 156.78 110.547C156.673 110.587 156.555 110.593 156.444 110.562C156.334 110.531 156.236 110.466 156.165 110.375C156.097 110.289 156.058 110.184 156.052 110.075L156.32 100.171Z" fill="#444954"/>
<path d="M83.3248 35.4156C71.7182 47.1017 51.2098 75.5175 62.0292 95.6918C75.5536 120.91 140.453 79.2983 115.364 67.6657C90.2756 56.0331 65.8818 122.018 101.568 120.391C116.398 118.62 131.221 114.699 145.703 105.512" stroke="#293042" stroke-width="2.25" stroke-dasharray="6 6"/>
<rect x="0.00256348" y="0.5" width="173.524" height="58.3398" rx="29.1699" fill="#272A31"/>
<g opacity="0.4">
<rect x="24.7526" y="20.9312" width="111" height="4.5" rx="2.25" fill="#444954"/>
</g>
<g opacity="0.4">
<rect x="38.2526" y="34.4312" width="110.25" height="4.5" rx="2.25" fill="#444954"/>
</g>
<path d="M40.3918 71.5547L28.4246 55.0999L52.3589 55.0999L40.3918 71.5547Z" fill="#272A31"/>
</svg>
